<svg xmlns="http://www.w3.org/2000/svg" viewBox="0 0 1258 748.5"><g id="Layer_2" data-name="Layer 2"><g id="Layer_2-2" data-name="Layer 2"><path d="M1114.8,660.34c0,14.17-15.11,25.66-33.75,25.66s-33.75-11.49-33.75-25.66c0-12.05,14.62-24.62,27.3-34.43a11.13,11.13,0,0,1,12.94.05C1099.25,635.08,1114.8,648.56,1114.8,660.34Z" style="fill:#f9fafc;stroke:#754c24;stroke-miterlimit:10"/><path d="M1079.8,674.33c0,15.28-16.3,27.67-36.39,27.67S1007,689.61,1007,674.33c0-13,15.77-26.55,29.43-37.12a12,12,0,0,1,14,0C1063,647.1,1079.8,661.63,1079.8,674.33Z" style="fill:#f9fafc;stroke:#754c24;stroke-miterlimit:10"/><path d="M1043.8,681.68c0,16.19-17.27,29.32-38.57,29.32s-38.56-13.13-38.56-29.32c0-13.77,16.71-28.14,31.2-39.34a12.72,12.72,0,0,1,14.78,0C1026,652.82,1043.8,668.22,1043.8,681.68Z" style="fill:#f9fafc;stroke:#754c24;stroke-miterlimit:10"/><path d="M996.8,692.37c0,18-19.21,32.63-42.91,32.63S911,710.39,911,692.37c0-15.31,18.59-31.3,34.71-43.77a14.2,14.2,0,0,1,16.46.06C977,660.27,996.8,677.39,996.8,692.37Z" style="fill:#f9fafc;stroke:#754c24;stroke-miterlimit:10"/><path d="M940.8,700.54c0,18.48-19.7,33.46-44,33.46s-44-15-44-33.46c0-15.7,19.06-32.1,35.59-44.88a14.51,14.51,0,0,1,16.87.06C920.53,667.62,940.8,685.18,940.8,700.54Z" style="fill:#f9fafc;stroke:#754c24;stroke-miterlimit:10"/><path d="M883.8,711.66c0,20.07-21.4,36.34-47.8,36.34s-47.8-16.27-47.8-36.34c0-17.06,20.72-34.88,38.67-48.76,5-3.91,13.3-3.85,18.33.07C861.78,675.89,883.8,695,883.8,711.66Z" style="fill:#f9fafc;stroke:#754c24;stroke-miterlimit:10"/><path d="M143.2,660.34C143.2,674.51,158.31,686,177,686s33.75-11.49,33.75-25.66c0-12.05-14.62-24.62-27.3-34.43a11.13,11.13,0,0,0-12.94.05C158.75,635.08,143.2,648.56,143.2,660.34Z" style="fill:#f9fafc;stroke:#754c24;stroke-miterlimit:10"/><path d="M178.2,674.33c0,15.28,16.3,27.67,36.39,27.67S251,689.61,251,674.33c0-13-15.77-26.55-29.43-37.12a12,12,0,0,0-14,0C195,647.1,178.2,661.63,178.2,674.33Z" style="fill:#f9fafc;stroke:#754c24;stroke-miterlimit:10"/><path d="M214.2,681.68c0,16.19,17.27,29.32,38.57,29.32s38.56-13.13,38.56-29.32c0-13.77-16.71-28.14-31.2-39.34a12.72,12.72,0,0,0-14.78,0C232,652.82,214.2,668.22,214.2,681.68Z" style="fill:#f9fafc;stroke:#754c24;stroke-miterlimit:10"/><path d="M261.2,692.37c0,18,19.21,32.63,42.91,32.63S347,710.39,347,692.37c0-15.31-18.59-31.3-34.71-43.77a14.2,14.2,0,0,0-16.46.06C281,660.27,261.2,677.39,261.2,692.37Z" style="fill:#f9fafc;stroke:#754c24;stroke-miterlimit:10"/><path d="M317.2,700.54c0,18.48,19.7,33.46,44,33.46s44-15,44-33.46c0-15.7-19.06-32.1-35.59-44.88a14.51,14.51,0,0,0-16.87.06C337.47,667.62,317.2,685.18,317.2,700.54Z" style="fill:#f9fafc;stroke:#754c24;stroke-miterlimit:10"/><path d="M374.2,711.66c0,20.07,21.4,36.34,47.8,36.34s47.8-16.27,47.8-36.34c0-17.06-20.72-34.88-38.67-48.76-5.05-3.91-13.3-3.85-18.33.07C396.22,675.89,374.2,695,374.2,711.66Z" style="fill:#f9fafc;stroke:#754c24;stroke-miterlimit:10"/><polygon points="1098 748 155 748 157 585 0 0 1258 12 1096 585 1098 748" style="fill:none"/></g></g></svg>