<svg xmlns="http://www.w3.org/2000/svg" viewBox="0 0 1258 860.64"><g id="Layer_2" data-name="Layer 2"><g id="Layer_2-2" data-name="Layer 2"><path d="M520.47,173.42c0,3.75-18.94,3.75-18.94,0V32.79c0,2.73,18.94,2.73,18.94,0Z" style="fill:#ffb18d"/><path d="M501.53,155.85c3.55,9.36,9.32,15.94,18.94,17.71" style="fill:none;stroke:#ff8fa9;stroke-linecap:round;stroke-linejoin:round;stroke-width:5px"/><path d="M501.53,131.69c3.55,9.36,9.32,15.94,18.94,17.7" style="fill:none;stroke:#ff8fa9;stroke-linecap:round;stroke-linejoin:round;stroke-width:5px"/><path d="M501.53,107.53c3.55,9.36,9.32,15.94,18.94,17.7" style="fill:none;stroke:#ff8fa9;stroke-linecap:round;stroke-linejoin:round;stroke-width:5px"/><path d="M501.53,83.37c3.55,9.36,9.32,15.94,18.94,17.7" style="fill:none;stroke:#ff8fa9;stroke-linecap:round;stroke-linejoin:round;stroke-width:5px"/><path d="M501.53,59.21c3.55,9.36,9.32,15.93,18.94,17.7" style="fill:none;stroke:#ff8fa9;stroke-linecap:round;stroke-linejoin:round;stroke-width:5px"/><path d="M501.53,35c3.55,9.37,9.32,15.94,18.94,17.71" style="fill:none;stroke:#ff8fa9;stroke-linecap:round;stroke-linejoin:round;stroke-width:5px"/><ellipse cx="511" cy="32.79" rx="9.47" ry="2.25" style="fill:#ff8fa9"/><path d="M511,32.79a14.52,14.52,0,0,1-.9-6.76c.45-3.61-.09-4.43-.09-4.43" style="fill:none;stroke:#252b39;stroke-linecap:round;stroke-linejoin:round;stroke-width:2px"/><path d="M515.51,24.23a5.41,5.41,0,1,1-10.82,0c0-3,7.21-9,5.41-16.23C513.7,10.7,515.51,21.24,515.51,24.23Z" style="fill:#fbb03b"/><path d="M561.49,197.12c0,4.15-21,4.15-21,0V41.44c0,3,21,3,21,0Z" style="fill:#95ffaf"/><path d="M540.53,177.67c3.93,10.36,10.31,17.64,21,19.6" style="fill:none;stroke:#d9ff97;stroke-linecap:round;stroke-linejoin:round;stroke-width:5px"/><path d="M540.53,150.92c3.93,10.37,10.31,17.65,21,19.6" style="fill:none;stroke:#d9ff97;stroke-linecap:round;stroke-linejoin:round;stroke-width:5px"/><path d="M540.53,124.18c3.93,10.36,10.31,17.64,21,19.6" style="fill:none;stroke:#d9ff97;stroke-linecap:round;stroke-linejoin:round;stroke-width:5px"/><path d="M540.53,97.43c3.93,10.36,10.31,17.64,21,19.6" style="fill:none;stroke:#d9ff97;stroke-linecap:round;stroke-linejoin:round;stroke-width:5px"/><path d="M540.53,70.68c3.93,10.37,10.31,17.65,21,19.6" style="fill:none;stroke:#d9ff97;stroke-linecap:round;stroke-linejoin:round;stroke-width:5px"/><path d="M540.53,43.94c3.93,10.36,10.31,17.64,21,19.6" style="fill:none;stroke:#d9ff97;stroke-linecap:round;stroke-linejoin:round;stroke-width:5px"/><ellipse cx="551.01" cy="41.44" rx="10.48" ry="2.49" style="fill:#d9ff97"/><path d="M551,41.44A16.17,16.17,0,0,1,550,34c.5-4-.1-4.9-.1-4.9" style="fill:none;stroke:#252b39;stroke-linecap:round;stroke-linejoin:round;stroke-width:2px"/><path d="M556,32a6,6,0,1,1-12,0c0-3.3,8-10,6-18C554,17,556,28.66,556,32Z" style="fill:#fbb03b"/><path d="M725.49,197.12c0,4.15-21,4.15-21,0V41.44c0,3,21,3,21,0Z" style="fill:#a4bcff"/><path d="M704.53,177.67c3.93,10.36,10.31,17.64,21,19.6" style="fill:none;stroke:#a6ffe2;stroke-linecap:round;stroke-linejoin:round;stroke-width:5px"/><path d="M704.53,150.92c3.93,10.37,10.31,17.65,21,19.6" style="fill:none;stroke:#a6ffe2;stroke-linecap:round;stroke-linejoin:round;stroke-width:5px"/><path d="M704.53,124.18c3.93,10.36,10.31,17.64,21,19.6" style="fill:none;stroke:#a6ffe2;stroke-linecap:round;stroke-linejoin:round;stroke-width:5px"/><path d="M704.53,97.43c3.93,10.36,10.31,17.64,21,19.6" style="fill:none;stroke:#a6ffe2;stroke-linecap:round;stroke-linejoin:round;stroke-width:5px"/><path d="M704.53,70.68c3.93,10.37,10.31,17.65,21,19.6" style="fill:none;stroke:#a6ffe2;stroke-linecap:round;stroke-linejoin:round;stroke-width:5px"/><path d="M704.53,43.94c3.93,10.36,10.31,17.64,21,19.6" style="fill:none;stroke:#a6ffe2;stroke-linecap:round;stroke-linejoin:round;stroke-width:5px"/><ellipse cx="715.01" cy="41.44" rx="10.48" ry="2.49" style="fill:#a6ffe2"/><path d="M715,41.44A16.17,16.17,0,0,1,714,34c.5-4-.1-4.9-.1-4.9" style="fill:none;stroke:#252b39;stroke-linecap:round;stroke-linejoin:round;stroke-width:2px"/><path d="M720,32a6,6,0,1,1-12,0c0-3.3,8-10,6-18C718,17,720,28.66,720,32Z" style="fill:#fbb03b"/><path d="M756.47,180.42c0,3.75-18.94,3.75-18.94,0V39.79c0,2.73,18.94,2.73,18.94,0Z" style="fill:#ffb18d"/><path d="M737.53,162.85c3.55,9.36,9.32,15.94,18.94,17.71" style="fill:none;stroke:#ff8fa9;stroke-linecap:round;stroke-linejoin:round;stroke-width:5px"/><path d="M737.53,138.69c3.55,9.36,9.32,15.94,18.94,17.7" style="fill:none;stroke:#ff8fa9;stroke-linecap:round;stroke-linejoin:round;stroke-width:5px"/><path d="M737.53,114.53c3.55,9.36,9.32,15.94,18.94,17.7" style="fill:none;stroke:#ff8fa9;stroke-linecap:round;stroke-linejoin:round;stroke-width:5px"/><path d="M737.53,90.37c3.55,9.36,9.32,15.94,18.94,17.7" style="fill:none;stroke:#ff8fa9;stroke-linecap:round;stroke-linejoin:round;stroke-width:5px"/><path d="M737.53,66.21c3.55,9.36,9.32,15.93,18.94,17.7" style="fill:none;stroke:#ff8fa9;stroke-linecap:round;stroke-linejoin:round;stroke-width:5px"/><path d="M737.53,42c3.55,9.37,9.32,15.94,18.94,17.71" style="fill:none;stroke:#ff8fa9;stroke-linecap:round;stroke-linejoin:round;stroke-width:5px"/><ellipse cx="747" cy="39.79" rx="9.47" ry="2.25" style="fill:#ff8fa9"/><path d="M747,39.79a14.52,14.52,0,0,1-.9-6.76c.45-3.61-.09-4.43-.09-4.43" style="fill:none;stroke:#252b39;stroke-linecap:round;stroke-linejoin:round;stroke-width:2px"/><path d="M751.51,31.23a5.41,5.41,0,1,1-10.82,0c0-3,7.21-9,5.41-16.23C749.7,17.7,751.51,28.24,751.51,31.23Z" style="fill:#fbb03b"/><path d="M692.47,165.42c0,3.75-18.94,3.75-18.94,0V24.79c0,2.73,18.94,2.73,18.94,0Z" style="fill:#95ffaf"/><path d="M673.53,147.85c3.55,9.36,9.32,15.94,18.94,17.71" style="fill:none;stroke:#d9ff97;stroke-linecap:round;stroke-linejoin:round;stroke-width:5px"/><path d="M673.53,123.69c3.55,9.36,9.32,15.94,18.94,17.7" style="fill:none;stroke:#d9ff97;stroke-linecap:round;stroke-linejoin:round;stroke-width:5px"/><path d="M673.53,99.53c3.55,9.36,9.32,15.94,18.94,17.7" style="fill:none;stroke:#d9ff97;stroke-linecap:round;stroke-linejoin:round;stroke-width:5px"/><path d="M673.53,75.37c3.55,9.36,9.32,15.94,18.94,17.7" style="fill:none;stroke:#d9ff97;stroke-linecap:round;stroke-linejoin:round;stroke-width:5px"/><path d="M673.53,51.21c3.55,9.36,9.32,15.93,18.94,17.7" style="fill:none;stroke:#d9ff97;stroke-linecap:round;stroke-linejoin:round;stroke-width:5px"/><path d="M673.53,27c3.55,9.37,9.32,15.94,18.94,17.71" style="fill:none;stroke:#d9ff97;stroke-linecap:round;stroke-linejoin:round;stroke-width:5px"/><ellipse cx="683" cy="24.79" rx="9.47" ry="2.25" style="fill:#d9ff97"/><path d="M683,24.79a14.52,14.52,0,0,1-.9-6.76c.45-3.61-.09-4.43-.09-4.43" style="fill:none;stroke:#252b39;stroke-linecap:round;stroke-linejoin:round;stroke-width:2px"/><path d="M687.51,16.23a5.41,5.41,0,1,1-10.82,0c0-3,7.21-9,5.41-16.23C685.7,2.7,687.51,13.24,687.51,16.23Z" style="fill:#fbb03b"/><path d="M595.47,165.42c0,3.75-18.94,3.75-18.94,0V24.79c0,2.73,18.94,2.73,18.94,0Z" style="fill:#a4bcff"/><path d="M576.53,147.85c3.55,9.36,9.32,15.94,18.94,17.71" style="fill:none;stroke:#a6ffe2;stroke-linecap:round;stroke-linejoin:round;stroke-width:5px"/><path d="M576.53,123.69c3.55,9.36,9.32,15.94,18.94,17.7" style="fill:none;stroke:#a6ffe2;stroke-linecap:round;stroke-linejoin:round;stroke-width:5px"/><path d="M576.53,99.53c3.55,9.36,9.32,15.94,18.94,17.7" style="fill:none;stroke:#a6ffe2;stroke-linecap:round;stroke-linejoin:round;stroke-width:5px"/><path d="M576.53,75.37c3.55,9.36,9.32,15.94,18.94,17.7" style="fill:none;stroke:#a6ffe2;stroke-linecap:round;stroke-linejoin:round;stroke-width:5px"/><path d="M576.53,51.21c3.55,9.36,9.32,15.93,18.94,17.7" style="fill:none;stroke:#a6ffe2;stroke-linecap:round;stroke-linejoin:round;stroke-width:5px"/><path d="M576.53,27c3.55,9.37,9.32,15.94,18.94,17.71" style="fill:none;stroke:#a6ffe2;stroke-linecap:round;stroke-linejoin:round;stroke-width:5px"/><ellipse cx="586" cy="24.79" rx="9.47" ry="2.25" style="fill:#a6ffe2"/><path d="M586,24.79a14.52,14.52,0,0,1-.9-6.76c.45-3.61-.09-4.43-.09-4.43" style="fill:none;stroke:#252b39;stroke-linecap:round;stroke-linejoin:round;stroke-width:2px"/><path d="M590.51,16.23a5.41,5.41,0,0,1-10.82,0c0-3,7.21-9,5.41-16.23C588.7,2.7,590.51,13.24,590.51,16.23Z" style="fill:#fbb03b"/><polygon points="1098 860.64 155 860.64 157 697.64 0 112.64 1258 124.64 1096 697.64 1098 860.64" style="fill:none"/></g></g></svg>