<svg xmlns="http://www.w3.org/2000/svg" viewBox="0 0 1258 842.29"><g id="Layer_2" data-name="Layer 2"><g id="Layer_2-2" data-name="Layer 2"><path d="M1020.58,550.42c0,3.75-18.93,3.75-18.93,0V409.79c0,2.73,18.93,2.73,18.93,0Z" style="fill:#a4bcff"/><path d="M1001.65,532.85c3.54,9.36,9.31,15.94,18.93,17.71" style="fill:none;stroke:#a6ffe2;stroke-linecap:round;stroke-linejoin:round;stroke-width:5px"/><path d="M1001.65,508.69c3.54,9.36,9.31,15.94,18.93,17.7" style="fill:none;stroke:#a6ffe2;stroke-linecap:round;stroke-linejoin:round;stroke-width:5px"/><path d="M1001.65,484.53c3.54,9.36,9.31,15.94,18.93,17.7" style="fill:none;stroke:#a6ffe2;stroke-linecap:round;stroke-linejoin:round;stroke-width:5px"/><path d="M1001.65,460.37c3.54,9.36,9.31,15.94,18.93,17.7" style="fill:none;stroke:#a6ffe2;stroke-linecap:round;stroke-linejoin:round;stroke-width:5px"/><path d="M1001.65,436.21c3.54,9.36,9.31,15.93,18.93,17.7" style="fill:none;stroke:#a6ffe2;stroke-linecap:round;stroke-linejoin:round;stroke-width:5px"/><path d="M1001.65,412c3.54,9.37,9.31,15.94,18.93,17.71" style="fill:none;stroke:#a6ffe2;stroke-linecap:round;stroke-linejoin:round;stroke-width:5px"/><ellipse cx="1011.12" cy="409.79" rx="9.47" ry="2.25" style="fill:#a6ffe2"/><path d="M1011.12,409.79a14.45,14.45,0,0,1-.91-6.76c.46-3.61-.09-4.43-.09-4.43" style="fill:none;stroke:#252b39;stroke-linecap:round;stroke-linejoin:round;stroke-width:2px"/><path d="M1015.62,401.23a5.41,5.41,0,1,1-10.81,0c0-3,7.21-9,5.4-16.23C1013.82,387.7,1015.62,398.24,1015.62,401.23Z" style="fill:#fbb03b"/><path d="M872.58,597.42c0,3.75-18.93,3.75-18.93,0V456.79c0,2.73,18.93,2.73,18.93,0Z" style="fill:#ffb18d"/><path d="M853.65,579.85c3.54,9.36,9.31,15.94,18.93,17.71" style="fill:none;stroke:#ff8fa9;stroke-linecap:round;stroke-linejoin:round;stroke-width:5px"/><path d="M853.65,555.69c3.54,9.36,9.31,15.94,18.93,17.7" style="fill:none;stroke:#ff8fa9;stroke-linecap:round;stroke-linejoin:round;stroke-width:5px"/><path d="M853.65,531.53c3.54,9.36,9.31,15.94,18.93,17.7" style="fill:none;stroke:#ff8fa9;stroke-linecap:round;stroke-linejoin:round;stroke-width:5px"/><path d="M853.65,507.37c3.54,9.36,9.31,15.94,18.93,17.7" style="fill:none;stroke:#ff8fa9;stroke-linecap:round;stroke-linejoin:round;stroke-width:5px"/><path d="M853.65,483.21c3.54,9.36,9.31,15.93,18.93,17.7" style="fill:none;stroke:#ff8fa9;stroke-linecap:round;stroke-linejoin:round;stroke-width:5px"/><path d="M853.65,459c3.54,9.37,9.31,15.94,18.93,17.71" style="fill:none;stroke:#ff8fa9;stroke-linecap:round;stroke-linejoin:round;stroke-width:5px"/><ellipse cx="863.12" cy="456.79" rx="9.47" ry="2.25" style="fill:#ff8fa9"/><path d="M863.12,456.79a14.45,14.45,0,0,1-.91-6.76c.46-3.61-.09-4.43-.09-4.43" style="fill:none;stroke:#252b39;stroke-linecap:round;stroke-linejoin:round;stroke-width:2px"/><path d="M867.62,448.23a5.41,5.41,0,1,1-10.81,0c0-3,7.21-9,5.4-16.23C865.82,434.7,867.62,445.24,867.62,448.23Z" style="fill:#fbb03b"/><path d="M418.58,605.42c0,3.75-18.93,3.75-18.93,0V464.79c0,2.73,18.93,2.73,18.93,0Z" style="fill:#95ffaf"/><path d="M399.65,587.85c3.54,9.36,9.31,15.94,18.93,17.71" style="fill:none;stroke:#d9ff97;stroke-linecap:round;stroke-linejoin:round;stroke-width:5px"/><path d="M399.65,563.69c3.54,9.36,9.31,15.94,18.93,17.7" style="fill:none;stroke:#d9ff97;stroke-linecap:round;stroke-linejoin:round;stroke-width:5px"/><path d="M399.65,539.53c3.54,9.36,9.31,15.94,18.93,17.7" style="fill:none;stroke:#d9ff97;stroke-linecap:round;stroke-linejoin:round;stroke-width:5px"/><path d="M399.65,515.37c3.54,9.36,9.31,15.94,18.93,17.7" style="fill:none;stroke:#d9ff97;stroke-linecap:round;stroke-linejoin:round;stroke-width:5px"/><path d="M399.65,491.21c3.54,9.36,9.31,15.93,18.93,17.7" style="fill:none;stroke:#d9ff97;stroke-linecap:round;stroke-linejoin:round;stroke-width:5px"/><path d="M399.65,467c3.54,9.37,9.31,15.94,18.93,17.71" style="fill:none;stroke:#d9ff97;stroke-linecap:round;stroke-linejoin:round;stroke-width:5px"/><ellipse cx="409.12" cy="464.79" rx="9.47" ry="2.25" style="fill:#d9ff97"/><path d="M409.12,464.79a14.45,14.45,0,0,1-.91-6.76c.46-3.61-.09-4.43-.09-4.43" style="fill:none;stroke:#252b39;stroke-linecap:round;stroke-linejoin:round;stroke-width:2px"/><path d="M413.62,456.23a5.41,5.41,0,1,1-10.81,0c0-3,7.21-9,5.4-16.23C411.82,442.7,413.62,453.24,413.62,456.23Z" style="fill:#fbb03b"/><path d="M890.58,347.42c0,3.75-18.93,3.75-18.93,0V206.79c0,2.73,18.93,2.73,18.93,0Z" style="fill:#95ffaf"/><path d="M871.65,329.85c3.54,9.36,9.31,15.94,18.93,17.71" style="fill:none;stroke:#d9ff97;stroke-linecap:round;stroke-linejoin:round;stroke-width:5px"/><path d="M871.65,305.69c3.54,9.36,9.31,15.94,18.93,17.7" style="fill:none;stroke:#d9ff97;stroke-linecap:round;stroke-linejoin:round;stroke-width:5px"/><path d="M871.65,281.53c3.54,9.36,9.31,15.94,18.93,17.7" style="fill:none;stroke:#d9ff97;stroke-linecap:round;stroke-linejoin:round;stroke-width:5px"/><path d="M871.65,257.37c3.54,9.36,9.31,15.94,18.93,17.7" style="fill:none;stroke:#d9ff97;stroke-linecap:round;stroke-linejoin:round;stroke-width:5px"/><path d="M871.65,233.21c3.54,9.36,9.31,15.93,18.93,17.7" style="fill:none;stroke:#d9ff97;stroke-linecap:round;stroke-linejoin:round;stroke-width:5px"/><path d="M871.65,209c3.54,9.37,9.31,15.94,18.93,17.71" style="fill:none;stroke:#d9ff97;stroke-linecap:round;stroke-linejoin:round;stroke-width:5px"/><ellipse cx="881.12" cy="206.79" rx="9.47" ry="2.25" style="fill:#d9ff97"/><path d="M881.12,206.79a14.45,14.45,0,0,1-.91-6.76c.46-3.61-.09-4.43-.09-4.43" style="fill:none;stroke:#252b39;stroke-linecap:round;stroke-linejoin:round;stroke-width:2px"/><path d="M885.62,198.23a5.41,5.41,0,1,1-10.81,0c0-3,7.21-9,5.4-16.23C883.82,184.7,885.62,195.24,885.62,198.23Z" style="fill:#fbb03b"/><path d="M237.65,550.42c0,3.75,18.93,3.75,18.93,0V409.79c0,2.73-18.93,2.73-18.93,0Z" style="fill:#ffb18d"/><path d="M256.58,532.85c-3.54,9.36-9.31,15.94-18.93,17.71" style="fill:none;stroke:#ff8fa9;stroke-linecap:round;stroke-linejoin:round;stroke-width:5px"/><path d="M256.58,508.69c-3.54,9.36-9.31,15.94-18.93,17.7" style="fill:none;stroke:#ff8fa9;stroke-linecap:round;stroke-linejoin:round;stroke-width:5px"/><path d="M256.58,484.53c-3.54,9.36-9.31,15.94-18.93,17.7" style="fill:none;stroke:#ff8fa9;stroke-linecap:round;stroke-linejoin:round;stroke-width:5px"/><path d="M256.58,460.37c-3.54,9.36-9.31,15.94-18.93,17.7" style="fill:none;stroke:#ff8fa9;stroke-linecap:round;stroke-linejoin:round;stroke-width:5px"/><path d="M256.58,436.21c-3.54,9.36-9.31,15.93-18.93,17.7" style="fill:none;stroke:#ff8fa9;stroke-linecap:round;stroke-linejoin:round;stroke-width:5px"/><path d="M256.58,412c-3.54,9.37-9.31,15.94-18.93,17.71" style="fill:none;stroke:#ff8fa9;stroke-linecap:round;stroke-linejoin:round;stroke-width:5px"/><ellipse cx="247.12" cy="409.79" rx="9.47" ry="2.25" style="fill:#ff8fa9"/><path d="M247.12,409.79A14.52,14.52,0,0,0,248,403c-.45-3.61.09-4.43.09-4.43" style="fill:none;stroke:#252b39;stroke-linecap:round;stroke-linejoin:round;stroke-width:2px"/><path d="M242.61,401.23a5.41,5.41,0,0,0,10.82,0c0-3-7.22-9-5.41-16.23C244.41,387.7,242.61,398.24,242.61,401.23Z" style="fill:#fbb03b"/><path d="M367.65,347.42c0,3.75,18.93,3.75,18.93,0V206.79c0,2.73-18.93,2.73-18.93,0Z" style="fill:#a4bcff"/><path d="M386.58,329.85c-3.54,9.36-9.31,15.94-18.93,17.71" style="fill:none;stroke:#a6ffe2;stroke-linecap:round;stroke-linejoin:round;stroke-width:5px"/><path d="M386.58,305.69c-3.54,9.36-9.31,15.94-18.93,17.7" style="fill:none;stroke:#a6ffe2;stroke-linecap:round;stroke-linejoin:round;stroke-width:5px"/><path d="M386.58,281.53c-3.54,9.36-9.31,15.94-18.93,17.7" style="fill:none;stroke:#a6ffe2;stroke-linecap:round;stroke-linejoin:round;stroke-width:5px"/><path d="M386.58,257.37c-3.54,9.36-9.31,15.94-18.93,17.7" style="fill:none;stroke:#a6ffe2;stroke-linecap:round;stroke-linejoin:round;stroke-width:5px"/><path d="M386.58,233.21c-3.54,9.36-9.31,15.93-18.93,17.7" style="fill:none;stroke:#a6ffe2;stroke-linecap:round;stroke-linejoin:round;stroke-width:5px"/><path d="M386.58,209c-3.54,9.37-9.31,15.94-18.93,17.71" style="fill:none;stroke:#a6ffe2;stroke-linecap:round;stroke-linejoin:round;stroke-width:5px"/><ellipse cx="377.12" cy="206.79" rx="9.47" ry="2.25" style="fill:#a6ffe2"/><path d="M377.12,206.79A14.52,14.52,0,0,0,378,200c-.45-3.61.09-4.43.09-4.43" style="fill:none;stroke:#252b39;stroke-linecap:round;stroke-linejoin:round;stroke-width:2px"/><path d="M372.61,198.23a5.41,5.41,0,0,0,10.82,0c0-3-7.22-9-5.41-16.23C374.41,184.7,372.61,195.24,372.61,198.23Z" style="fill:#fbb03b"/><path d="M520.58,173.42c0,3.75-18.93,3.75-18.93,0V32.79c0,2.73,18.93,2.73,18.93,0Z" style="fill:#ffb18d"/><path d="M501.65,155.85c3.54,9.36,9.31,15.94,18.93,17.71" style="fill:none;stroke:#ff8fa9;stroke-linecap:round;stroke-linejoin:round;stroke-width:5px"/><path d="M501.65,131.69c3.54,9.36,9.31,15.94,18.93,17.7" style="fill:none;stroke:#ff8fa9;stroke-linecap:round;stroke-linejoin:round;stroke-width:5px"/><path d="M501.65,107.53c3.54,9.36,9.31,15.94,18.93,17.7" style="fill:none;stroke:#ff8fa9;stroke-linecap:round;stroke-linejoin:round;stroke-width:5px"/><path d="M501.65,83.37c3.54,9.36,9.31,15.94,18.93,17.7" style="fill:none;stroke:#ff8fa9;stroke-linecap:round;stroke-linejoin:round;stroke-width:5px"/><path d="M501.65,59.21c3.54,9.36,9.31,15.93,18.93,17.7" style="fill:none;stroke:#ff8fa9;stroke-linecap:round;stroke-linejoin:round;stroke-width:5px"/><path d="M501.65,35C505.19,44.41,511,51,520.58,52.75" style="fill:none;stroke:#ff8fa9;stroke-linecap:round;stroke-linejoin:round;stroke-width:5px"/><ellipse cx="511.12" cy="32.79" rx="9.47" ry="2.25" style="fill:#ff8fa9"/><path d="M511.12,32.79a14.45,14.45,0,0,1-.91-6.76c.46-3.61-.09-4.43-.09-4.43" style="fill:none;stroke:#252b39;stroke-linecap:round;stroke-linejoin:round;stroke-width:2px"/><path d="M515.62,24.23a5.41,5.41,0,1,1-10.81,0c0-3,7.21-9,5.4-16.23C513.82,10.7,515.62,21.24,515.62,24.23Z" style="fill:#fbb03b"/><path d="M561.61,197.12c0,4.15-21,4.15-21,0V41.44c0,3,21,3,21,0Z" style="fill:#95ffaf"/><path d="M540.65,177.67c3.92,10.36,10.31,17.64,21,19.6" style="fill:none;stroke:#d9ff97;stroke-linecap:round;stroke-linejoin:round;stroke-width:5px"/><path d="M540.65,150.92c3.92,10.37,10.31,17.65,21,19.6" style="fill:none;stroke:#d9ff97;stroke-linecap:round;stroke-linejoin:round;stroke-width:5px"/><path d="M540.65,124.18c3.92,10.36,10.31,17.64,21,19.6" style="fill:none;stroke:#d9ff97;stroke-linecap:round;stroke-linejoin:round;stroke-width:5px"/><path d="M540.65,97.43c3.92,10.36,10.31,17.64,21,19.6" style="fill:none;stroke:#d9ff97;stroke-linecap:round;stroke-linejoin:round;stroke-width:5px"/><path d="M540.65,70.68c3.92,10.37,10.31,17.65,21,19.6" style="fill:none;stroke:#d9ff97;stroke-linecap:round;stroke-linejoin:round;stroke-width:5px"/><path d="M540.65,43.94c3.92,10.36,10.31,17.64,21,19.6" style="fill:none;stroke:#d9ff97;stroke-linecap:round;stroke-linejoin:round;stroke-width:5px"/><ellipse cx="551.13" cy="41.44" rx="10.48" ry="2.49" style="fill:#d9ff97"/><path d="M551.13,41.44a16,16,0,0,1-1-7.48c.5-4-.1-4.9-.1-4.9" style="fill:none;stroke:#252b39;stroke-linecap:round;stroke-linejoin:round;stroke-width:2px"/><path d="M556.12,32a6,6,0,1,1-12,0c0-3.3,8-10,6-18C554.12,17,556.12,28.66,556.12,32Z" style="fill:#fbb03b"/><path d="M725.61,197.12c0,4.15-21,4.15-21,0V41.44c0,3,21,3,21,0Z" style="fill:#a4bcff"/><path d="M704.65,177.67c3.92,10.36,10.31,17.64,21,19.6" style="fill:none;stroke:#a6ffe2;stroke-linecap:round;stroke-linejoin:round;stroke-width:5px"/><path d="M704.65,150.92c3.92,10.37,10.31,17.65,21,19.6" style="fill:none;stroke:#a6ffe2;stroke-linecap:round;stroke-linejoin:round;stroke-width:5px"/><path d="M704.65,124.18c3.92,10.36,10.31,17.64,21,19.6" style="fill:none;stroke:#a6ffe2;stroke-linecap:round;stroke-linejoin:round;stroke-width:5px"/><path d="M704.65,97.43c3.92,10.36,10.31,17.64,21,19.6" style="fill:none;stroke:#a6ffe2;stroke-linecap:round;stroke-linejoin:round;stroke-width:5px"/><path d="M704.65,70.68c3.92,10.37,10.31,17.65,21,19.6" style="fill:none;stroke:#a6ffe2;stroke-linecap:round;stroke-linejoin:round;stroke-width:5px"/><path d="M704.65,43.94c3.92,10.36,10.31,17.64,21,19.6" style="fill:none;stroke:#a6ffe2;stroke-linecap:round;stroke-linejoin:round;stroke-width:5px"/><ellipse cx="715.13" cy="41.44" rx="10.48" ry="2.49" style="fill:#a6ffe2"/><path d="M715.13,41.44a16,16,0,0,1-1-7.48c.5-4-.1-4.9-.1-4.9" style="fill:none;stroke:#252b39;stroke-linecap:round;stroke-linejoin:round;stroke-width:2px"/><path d="M720.12,32a6,6,0,1,1-12,0c0-3.3,8-10,6-18C718.12,17,720.12,28.66,720.12,32Z" style="fill:#fbb03b"/><path d="M756.58,180.42c0,3.75-18.93,3.75-18.93,0V39.79c0,2.73,18.93,2.73,18.93,0Z" style="fill:#ffb18d"/><path d="M737.65,162.85c3.54,9.36,9.31,15.94,18.93,17.71" style="fill:none;stroke:#ff8fa9;stroke-linecap:round;stroke-linejoin:round;stroke-width:5px"/><path d="M737.65,138.69c3.54,9.36,9.31,15.94,18.93,17.7" style="fill:none;stroke:#ff8fa9;stroke-linecap:round;stroke-linejoin:round;stroke-width:5px"/><path d="M737.65,114.53c3.54,9.36,9.31,15.94,18.93,17.7" style="fill:none;stroke:#ff8fa9;stroke-linecap:round;stroke-linejoin:round;stroke-width:5px"/><path d="M737.65,90.37c3.54,9.36,9.31,15.94,18.93,17.7" style="fill:none;stroke:#ff8fa9;stroke-linecap:round;stroke-linejoin:round;stroke-width:5px"/><path d="M737.65,66.21c3.54,9.36,9.31,15.93,18.93,17.7" style="fill:none;stroke:#ff8fa9;stroke-linecap:round;stroke-linejoin:round;stroke-width:5px"/><path d="M737.65,42C741.19,51.41,747,58,756.58,59.75" style="fill:none;stroke:#ff8fa9;stroke-linecap:round;stroke-linejoin:round;stroke-width:5px"/><ellipse cx="747.12" cy="39.79" rx="9.47" ry="2.25" style="fill:#ff8fa9"/><path d="M747.12,39.79a14.45,14.45,0,0,1-.91-6.76c.46-3.61-.09-4.43-.09-4.43" style="fill:none;stroke:#252b39;stroke-linecap:round;stroke-linejoin:round;stroke-width:2px"/><path d="M751.62,31.23a5.41,5.41,0,1,1-10.81,0c0-3,7.21-9,5.4-16.23C749.82,17.7,751.62,28.24,751.62,31.23Z" style="fill:#fbb03b"/><path d="M692.58,165.42c0,3.75-18.93,3.75-18.93,0V24.79c0,2.73,18.93,2.73,18.93,0Z" style="fill:#95ffaf"/><path d="M673.65,147.85c3.54,9.36,9.31,15.94,18.93,17.71" style="fill:none;stroke:#d9ff97;stroke-linecap:round;stroke-linejoin:round;stroke-width:5px"/><path d="M673.65,123.69c3.54,9.36,9.31,15.94,18.93,17.7" style="fill:none;stroke:#d9ff97;stroke-linecap:round;stroke-linejoin:round;stroke-width:5px"/><path d="M673.65,99.53c3.54,9.36,9.31,15.94,18.93,17.7" style="fill:none;stroke:#d9ff97;stroke-linecap:round;stroke-linejoin:round;stroke-width:5px"/><path d="M673.65,75.37c3.54,9.36,9.31,15.94,18.93,17.7" style="fill:none;stroke:#d9ff97;stroke-linecap:round;stroke-linejoin:round;stroke-width:5px"/><path d="M673.65,51.21c3.54,9.36,9.31,15.93,18.93,17.7" style="fill:none;stroke:#d9ff97;stroke-linecap:round;stroke-linejoin:round;stroke-width:5px"/><path d="M673.65,27C677.19,36.41,683,43,692.58,44.75" style="fill:none;stroke:#d9ff97;stroke-linecap:round;stroke-linejoin:round;stroke-width:5px"/><ellipse cx="683.12" cy="24.79" rx="9.47" ry="2.25" style="fill:#d9ff97"/><path d="M683.12,24.79a14.45,14.45,0,0,1-.91-6.76c.46-3.61-.09-4.43-.09-4.43" style="fill:none;stroke:#252b39;stroke-linecap:round;stroke-linejoin:round;stroke-width:2px"/><path d="M687.62,16.23a5.41,5.41,0,1,1-10.81,0c0-3,7.21-9,5.4-16.23C685.82,2.7,687.62,13.24,687.62,16.23Z" style="fill:#fbb03b"/><path d="M595.58,165.42c0,3.75-18.93,3.75-18.93,0V24.79c0,2.73,18.93,2.73,18.93,0Z" style="fill:#a4bcff"/><path d="M576.65,147.85c3.54,9.36,9.31,15.94,18.93,17.71" style="fill:none;stroke:#a6ffe2;stroke-linecap:round;stroke-linejoin:round;stroke-width:5px"/><path d="M576.65,123.69c3.54,9.36,9.31,15.94,18.93,17.7" style="fill:none;stroke:#a6ffe2;stroke-linecap:round;stroke-linejoin:round;stroke-width:5px"/><path d="M576.65,99.53c3.54,9.36,9.31,15.94,18.93,17.7" style="fill:none;stroke:#a6ffe2;stroke-linecap:round;stroke-linejoin:round;stroke-width:5px"/><path d="M576.65,75.37c3.54,9.36,9.31,15.94,18.93,17.7" style="fill:none;stroke:#a6ffe2;stroke-linecap:round;stroke-linejoin:round;stroke-width:5px"/><path d="M576.65,51.21c3.54,9.36,9.31,15.93,18.93,17.7" style="fill:none;stroke:#a6ffe2;stroke-linecap:round;stroke-linejoin:round;stroke-width:5px"/><path d="M576.65,27C580.19,36.41,586,43,595.58,44.75" style="fill:none;stroke:#a6ffe2;stroke-linecap:round;stroke-linejoin:round;stroke-width:5px"/><ellipse cx="586.12" cy="24.79" rx="9.47" ry="2.25" style="fill:#a6ffe2"/><path d="M586.12,24.79a14.45,14.45,0,0,1-.91-6.76c.46-3.61-.09-4.43-.09-4.43" style="fill:none;stroke:#252b39;stroke-linecap:round;stroke-linejoin:round;stroke-width:2px"/><path d="M590.62,16.23a5.41,5.41,0,1,1-10.81,0c0-3,7.21-9,5.4-16.23C588.82,2.7,590.62,13.24,590.62,16.23Z" style="fill:#fbb03b"/><polygon points="1098 842.29 155 842.29 157 679.29 0 94.29 1258 106.29 1096 679.29 1098 842.29" style="fill:none"/></g></g></svg>