<svg xmlns="http://www.w3.org/2000/svg" viewBox="0 0 1258 748"><g id="Layer_2" data-name="Layer 2"><g id="Layer_2-2" data-name="Layer 2"><path d="M627,97.68l177.5,63.48a2827.81,2827.81,0,0,1-361-.4Z" style="fill:#66290e"/><path d="M627,166.73c-65.35,0-127.45-2.14-183.5-6v385h0v167L627,649.68l177.5,63.48v-167h0v-385C750,164.74,690,166.73,627,166.73Z" style="fill:#66290e"/><line x1="627" y1="107.26" x2="627" y2="666.26" style="fill:none;stroke:#541f0a;stroke-miterlimit:10;stroke-width:9px"/><path d="M534.85,227.45c.24,6.44-1.51,8.14-5.76,9.35-7.1-.44-9.46-5-10.18-7.87-.36-4.39,6.63-6.69,7.5-8.19C530.72,219.92,537.42,226.08,534.85,227.45Z" style="fill:#541f0a"/><path d="M613.22,153c-2.21,4.06-5.09,7.06-10.5,7.12-2.48,1.09-5.77-1.53-5.46-5.32-.57-4.33,3.57-7.3,6.25-8.23C609.68,145.5,612.8,149.09,613.22,153Z" style="fill:#541f0a"/><path d="M471.08,203.49c.68,2.34-4.18,7.73-8.94,7.81-3.64-.93-7.1-3.07-5.2-9.82-1.92-1.92,3.34-5,4.28-5C468.61,195.18,469,200,471.08,203.49Z" style="fill:#541f0a"/><path d="M612.17,247c0,3.61-4.43,7.12-6.9,7.1-4,.73-8.14-4.19-6.83-7.42-1.6-3,.75-8.8,5.79-5.93C606.58,237.8,612.83,242,612.17,247Z" style="fill:#541f0a"/><path d="M522.4,280.51c1.91,6-4,8-9.26,8.39-2.23,1.09-5.19-4.19-6.73-8.16,2-3.3,6.16-6.3,7.62-6.56C519.52,273,523.43,278.6,522.4,280.51Z" style="fill:#541f0a"/><path d="M570.08,244.41c.27,1.26-.85,2.76-3.78,3.05-.41-.49-2.12-2.46-2.33-3.49-1.18-1.66,1-3.2,2.42-4C569.3,240.26,570.23,241.6,570.08,244.41Z" style="fill:#541f0a"/><path d="M566.21,292.45c-1.45,2.63-2.8,4.14-4.63,3.6-2,.35-3.4-.78-2.89-3.61-.56-2.13.52-3.1,2.9-3.43C564.29,289.65,565.51,290.36,566.21,292.45Z" style="fill:#541f0a"/><path d="M537.64,195c1.18,1.28-1.37,3-2,3.32-2.69.3-4.61-2.2-4.08-3.1-.6-2.06,1.26-3.67,2.66-4.55C537.55,191.89,537.86,193.15,537.64,195Z" style="fill:#541f0a"/><path d="M498.15,210.77c.2,2.53-2.23,3.47-4.84,4.08-2.07-.33-2.12-2.37-2.55-4.53-.27-1.08,1.94-3.66,3.34-3.19C496.45,207.67,497.61,208.23,498.15,210.77Z" style="fill:#541f0a"/><path d="M487.66,268.94c1.52,1.42-1.38,2.75-3.28,2.93-2.08.87-3.32-1.76-3.77-3.18.32-2.28,2-2.84,4.39-3.05C486.6,264.73,489.3,267,487.66,268.94Z" style="fill:#541f0a"/><path d="M466.74,254.85c1.09,2,0,3.24-3,4.08a6.74,6.74,0,0,1-4.17-4c1.66-2.77,3.07-4,3.95-3C466,250.75,467.31,253.31,466.74,254.85Z" style="fill:#541f0a"/><path d="M568.78,175.61c1.18,1.73-1,3.55-3.25,3-1.37.83-2.7-.92-2.49-2.19-.75-2.27,1.58-3.54,3.5-3.93A2.84,2.84,0,0,1,568.78,175.61Z" style="fill:#541f0a"/><path d="M597.27,281.73a4.71,4.71,0,0,1-4.39,3.89c-.91-.73-3.62-1.24-3.8-3.22s1.16-4.77,3.33-4.42A4.71,4.71,0,0,1,597.27,281.73Z" style="fill:#541f0a"/><path d="M505.75,254.67c-1.13,2.68-1.61,2.89-6.09,4-2.89-.2-5.09-1.52-5.51-4.59-.77-.89,2.4-2.91,5.54-3.42C504.3,250.77,504.79,252.57,505.75,254.67Z" style="fill:#541f0a"/><path d="M519.72,185.27c-.51,2.47-.34,3.64-5.73,3.93-2.12-.47-5.84-2.15-3.66-3.21-.12-2.46,3-3.81,4.92-4.3C518.39,182.72,520.55,184.29,519.72,185.27Z" style="fill:#541f0a"/><path d="M474.92,315.39a5.67,5.67,0,0,1-4.27,3.15c-5,.26-5.07-1.75-4.81-4-1.41-1.5,1.4-3.58,4.56-3.53C473.85,311.73,476.09,312.72,474.92,315.39Z" style="fill:#541f0a"/><path d="M608.7,197.38c.87,1.66-2.43,3.57-4.16,3.4-3.4-.79-5.38-1.85-5.77-4.57.71-.9,2.28-3,4.18-3.16C607.32,192.68,609.53,194.41,608.7,197.38Z" style="fill:#541f0a"/><path d="M568.1,265.62c.1,1.8-.75,4.18-5.93,4.11a7.15,7.15,0,0,1-5-4.14c-.23-2.17,2.89-3.93,6.39-3.67C564.91,261.78,569.29,264.18,568.1,265.62Z" style="fill:#541f0a"/><path d="M717.11,243.31c-.6-3.13-1.93-6.59-7.26-8.46-4.6,1.1-9,4.75-8.35,7.69.34,5,5.39,9.05,9.26,9.73C713.68,251.85,717.31,246.42,717.11,243.31Z" style="fill:#541f0a"/><path d="M791.92,317.87c2.07-2.15-1.21-5.8-6.28-5.69-3.17-2.11-8.6.94-5.64,7.23.27,2.52,1.08,7.2,5.52,7.56C788.41,327.54,795.21,321.93,791.92,317.87Z" style="fill:#541f0a"/><path d="M652,270.05c-.77-4-2.11-6.7-5.33-6.93-4.66.17-7.45,2.68-8.4,6.68-.49,4.39,4,7.6,5.82,8.3C648,276.64,653.67,275,652,270.05Z" style="fill:#541f0a"/><path d="M795,225.17c-3-4.23-4.83-7.63-9.34-7.24-2.41-.69-7.22,3.47-8.63,9,.56,1.57,3.32,7.09,7.35,6.14C790.87,232.47,794.86,229,795,225.17Z" style="fill:#541f0a"/><path d="M705.63,190.07c.49-3.45-3-6.29-8.41-6.87-3.42.41-8.25,4.76-8.68,9,.35,3.19,2.55,6.67,9.88,6A10.26,10.26,0,0,0,705.63,190.07Z" style="fill:#541f0a"/><path d="M751.72,229.21c1.08-2.54,0-3.28-2.31-4.46-1.53,1-4.74,2.74-3.08,3.32-1,2.77,0,4.82,2.91,4.13C751.51,231.69,752,230.81,751.72,229.21Z" style="fill:#541f0a"/><path d="M746.83,180.38c.65-2.56-.59-4.57-2.68-4.07-1.86.38-3.9,1.35-4,3.26.58,2.58,1.53,4.16,3.53,4.19C746,183.31,747.45,181.63,746.83,180.38Z" style="fill:#541f0a"/><path d="M721,278c-.46-2.71-1.59-3.89-4.75-4.46-2,.07-2.93,2.53-3.09,3.79.55,2.4,1.1,4.27,3.11,4.33C719.68,280.6,720.77,280.34,721,278Z" style="fill:#541f0a"/><path d="M679.81,262.17c-.67-2.06-1.09-4.38-4.72-4.45-1.06.21-1.89,2.64-3,4.17.44,1.32,1.59,3.84,3.36,3C678.28,265.83,679.11,263.89,679.81,262.17Z" style="fill:#541f0a"/><path d="M671.23,203.43c-1.16-2.07-2.59-3.13-4.28-2.47-2.22-.35-3.28.49-4,2.79.44,1.41,2.45,3.73,4.72,3.05C669.76,207.59,670.69,205.66,671.23,203.43Z" style="fill:#541f0a"/><path d="M649.13,217.41c1.24-1.29-.62-2.88-3.36-2.86-1.23-.7-3,1.1-3,2.67-.7,1.8,1.29,3.55,3.78,4.56C648.73,221.91,649,220.36,649.13,217.41Z" style="fill:#541f0a"/><path d="M752.06,297.37c-.54-2.62-2.83-4.23-3.61-3.74a4.29,4.29,0,0,0-4.31,2.71c-.36,2.7,2.75,4,3.28,3.9C749.63,300.52,751,298.54,752.06,297.37Z" style="fill:#541f0a"/><path d="M778.34,190.89c-.32-2.38-1.08-3.26-2.94-3.23-2.84.11-3,.9-3.95,3.21.57,2.23,1.85,3.41,4,3.4A2.9,2.9,0,0,0,778.34,190.89Z" style="fill:#541f0a"/><path d="M687.1,218.14c-1-1.75-1.31-3.34-4.33-4.23-5.18.28-7.45,1.26-7.18,4.16,1.87,1.84,3.15,3.05,6,3.27C685.64,221.65,686.32,220,687.1,218.14Z" style="fill:#541f0a"/><path d="M703.33,286.88c0-1.48-2.05-3-6.63-3.75-1.89-.46-4.34,1.43-4.87,3.63.82,1.84,3.23,3.6,4,3C698.87,289.93,702.7,288.58,703.33,286.88Z" style="fill:#541f0a"/><path d="M658.17,157.26c-.89-2.08-1.88-3.53-7.22-3.3a3.1,3.1,0,0,0-3.22,3.18c-1.31,2.53,2.31,4.7,4.23,4.4C656.13,161.84,657.12,160.2,658.17,157.26Z" style="fill:#541f0a"/><path d="M791.42,275.2c-.92-1.36-1.1-2.37-4.09-2.44-4.45.14-7.23,1.43-7,3.43-1.18,1.06,3.11,3,4.9,3.18C788.53,278.56,791.18,277.64,791.42,275.2Z" style="fill:#541f0a"/><path d="M749.92,206.54c-.44-1.63-2.8-3.57-6.09-3.61-2.87.51-5.27,1.43-5.4,3.85.93,2.51,2.87,2.91,6,3.26C748.52,210.52,750.31,208.29,749.92,206.54Z" style="fill:#541f0a"/><path d="M536,592.57c0,1.86-2.29,5.85-9.62,6-3.82.65-7-2.71-5.16-6.68-2.49-5.43,2.34-7.72,6.74-9C530.4,584.74,537,588.51,536,592.57Z" style="fill:#541f0a"/><path d="M611.44,515.94c-.84,3.53-2.21,7.32-7.8,9-5.6-2-6.31-2.58-6.35-8.91-.27-3.82,2.92-5.47,5.19-6.2C609.29,510.57,612.92,513.49,611.44,515.94Z" style="fill:#541f0a"/><path d="M470.16,565.94c-1.38,5.36-2.4,8.21-7.75,6.54-3.22-.3-8.68-3.14-7.18-6.91-.61-3.1,4.19-6.81,7.08-6.32C465.31,558.93,470.81,563.09,470.16,565.94Z" style="fill:#541f0a"/><path d="M612.18,610.65c-1,3-3.42,7.4-9.14,8-2.62-2.86-5.18-3.37-5.33-7.48-2.33-5.75,3.09-7.56,6.89-9.58C609.12,602.09,610.65,606.74,612.18,610.65Z" style="fill:#541f0a"/><path d="M524,644.56c-.31,3.49-4.22,8.12-10.17,7.61-4.44.17-6.07-2.53-4.81-7.26-2.47-3.18,2.36-7.65,4-6.34C518,638.45,522.19,639.65,524,644.56Z" style="fill:#541f0a"/><path d="M569.7,607.28c1.06,1.83-1.22,3.62-3.5,3.32-1.05-.39-2.91-2-2.33-3.81-.24-1.59,1-2.92,4-3.23C569.26,603.27,570,605,569.7,607.28Z" style="fill:#541f0a"/><path d="M566.19,656.41a3.9,3.9,0,0,1-3.61,2.67c-2-.51-4.23-1.3-4.37-2.75.65-2.1,1.77-4.15,3.88-3.85A4.26,4.26,0,0,1,566.19,656.41Z" style="fill:#541f0a"/><path d="M538.57,558c-.52,2.31-1.88,2.68-3.72,3.64-2.18-.64-3.43-2.28-3.14-3.92-.84-2,2.19-3.55,2.86-4A6.84,6.84,0,0,1,538.57,558Z" style="fill:#541f0a"/><path d="M498.06,574.42a26.11,26.11,0,0,0-3.33,3.13,4.24,4.24,0,0,1-3.45-4.35c-1.22-1.63,1.17-2.8,2.89-3.29C495.54,569.92,497,572,498.06,574.42Z" style="fill:#541f0a"/><path d="M488.61,631.84c.31,1.21-2.45,3.7-2.84,3.5-3.11-.31-4.44-1.41-4.06-3-.46-2,.93-4,3.86-4.65C486.87,628.84,489.24,630.24,488.61,631.84Z" style="fill:#541f0a"/><path d="M467.72,617.23a3.1,3.1,0,0,1-3.42,3.63c-3.1,0-4.35-1-3.6-2.48-.18-3,1.41-4.32,2.84-4.11S467.38,616,467.72,617.23Z" style="fill:#541f0a"/><path d="M568.65,538.64c1.05,1.46-.6,4.22-3.4,3.94a5.82,5.82,0,0,1-2.73-3.47c-.19-2.84,1.8-4,4.05-3.44C568.33,534.77,569,536.91,568.65,538.64Z" style="fill:#541f0a"/><path d="M596.77,644.85c-.24,1.34-2.7,3-3.54,3-2.7-.24-3.33-1.17-4.62-3.72,1.41-.87,2.19-2.21,3.49-3C594.67,641.33,595.87,642.58,596.77,644.85Z" style="fill:#541f0a"/><path d="M504.56,617.8c.41,2.19-2.81,3.28-5.49,4-2.72-.65-4.16-2.38-4-3.8-1.48-2,2.34-3.42,4.2-4.31C502.9,614.93,504.33,616.32,504.56,617.8Z" style="fill:#541f0a"/><path d="M520.43,548.88c1.2,1.74-3.55,3.62-5.36,3.07-3.76.22-5.69-1.67-6.19-3.12-.69-1.59,4.19-3.89,6.4-3.11C517.86,545,521.68,546.15,520.43,548.88Z" style="fill:#541f0a"/><path d="M475.18,677.17c-.91,3-1.84,4.2-6.3,3.77-2.39,1-4.28-1.1-5.59-2.93.31-2.66,2.51-3.32,7.61-4.42C472.09,674.59,476.39,676,475.18,677.17Z" style="fill:#541f0a"/><path d="M610.38,559.31c-.52,2.62-4.75,3.8-7.29,4.33-3.37.15-4.22-2.19-3.18-3.77-.75-1.94,2.22-4.1,5.12-3C608,555.72,608.11,557.64,610.38,559.31Z" style="fill:#541f0a"/><path d="M567.56,629.2c1.69.86-2.73,3.38-5,2.49-2.67.77-5.63-.83-4-2.92-1.52-1.46,2.09-3.28,5.16-3.94C565.35,624.63,569.6,626.57,567.56,629.2Z" style="fill:#541f0a"/><path d="M717,607.42c2-6.3-2.1-9.08-7.45-7.91-4.74-.62-6.64,3-5.09,5.8-1.16,4.46.16,8.43,6.08,7.84C714.09,614.64,717,612.29,717,607.42Z" style="fill:#541f0a"/><path d="M795.23,682.15c-.53-4.34-3.39-8.74-8.55-8-4.71,1.4-8.55,4.9-8.33,7.69,1.34,3.41,2.43,6,8.2,8.11C791.65,689.13,794.9,686.84,795.23,682.15Z" style="fill:#541f0a"/><path d="M653.49,632.93c-1.76-3.07-3.86-6.34-7.6-7.18-6.73-1.85-7.38,4-9.13,5.74-1,5.42,3.34,9.92,8.66,8.31C649.15,641.28,652.05,638.26,653.49,632.93Z" style="fill:#541f0a"/><path d="M795.24,588c-3.53-3.12-6.45-7.27-10.21-5.56-3.07-.38-5.07,1.45-6.6,5.47-1.51,6.36,1.92,9.22,7.66,9C791.55,594.81,792.39,593.64,795.24,588Z" style="fill:#541f0a"/><path d="M703.82,554.23c2.17-3.76-1.7-8.87-6.61-7.38-4.54.22-8.16,1.68-5.82,8.14.05,3,1.94,7.57,4.55,7.55C699.58,561.48,705.77,558.43,703.82,554.23Z" style="fill:#541f0a"/><path d="M751.8,592.12c.85-1.6-1.61-3.49-3.13-3.34-1.73-1.06-4.08,1.2-3.3,3.39a4.17,4.17,0,0,0,3.64,3.54C751,595.9,752,593.4,751.8,592.12Z" style="fill:#541f0a"/><path d="M746.71,542.36c1.4-1.55-1.11-2.65-2.24-2.8-2.06.12-3.91,1.51-3.09,2.87-.35,2-.11,3.45,2.7,3.32C745.83,545.72,747.87,544.4,746.71,542.36Z" style="fill:#541f0a"/><path d="M721.34,640.59c-.45-2.35-2.65-3.42-5-3.16-2.07.08-3.22,1.34-2.54,3.93.57,1,.63,3.39,3.69,2.28A3.21,3.21,0,0,0,721.34,640.59Z" style="fill:#541f0a"/><path d="M679.45,624.49c0-2.29-1-3.12-3.06-2.94-2.56-.45-3.15,1.25-4.67,2.62.85,2,1.5,4.5,3.56,4.49C678,628.75,678.84,626.54,679.45,624.49Z" style="fill:#541f0a"/><path d="M670.36,567.4c.6-3.21-1-3.53-2.6-4-3.54-.22-4.48.78-4.58,3.05,0,1.69,1.16,4,3.75,3.46C668.09,570.14,670.71,568.2,670.36,567.4Z" style="fill:#541f0a"/><path d="M649.34,580.72c-.57-2.22-1.2-3-4-3.77-1.64.2-2.39,2.16-2.53,3.29-1,2.58.92,4.07,3.8,4.57C647.24,584.8,649,582.88,649.34,580.72Z" style="fill:#541f0a"/><path d="M752,659.94a3.86,3.86,0,0,0-3.88-4.13c-2,.21-3.09,1.37-4.4,3.43.86,2.94,2.78,4.61,4.21,4.33C749.12,663.67,751.38,662.3,752,659.94Z" style="fill:#541f0a"/><path d="M777.62,553.58c1.5-2-1-4-1.94-3.68-3.1-.3-4,1.62-3.86,4.07-1.2,2.13,1.84,3.84,3.76,3C776.85,557.49,777.6,555.51,777.62,553.58Z" style="fill:#541f0a"/><path d="M687.45,580.74c-.62-1.3-2.32-3.87-4.88-3.8-4.49.8-4.79,1.59-7.23,3.19.5,3.21,4,3.53,6.38,4.78C685.87,584.32,687.65,582.73,687.45,580.74Z" style="fill:#541f0a"/><path d="M702.62,649.63c.07-1.9-3.61-3.4-4.25-3.7-5.83,0-7,2-6.84,4.45-.72,1.39,3,2.78,5.15,2.51C699.5,653.42,701.46,651.36,702.62,649.63Z" style="fill:#541f0a"/><path d="M656.24,520.26c1.1-1.17-2.58-3-4.49-2.37-3.88-.41-4,.66-4.07,2.89-1.42,2.05.83,3.21,4.07,3C654.5,523.61,657.19,523.36,656.24,520.26Z" style="fill:#541f0a"/><path d="M790.82,638.52c1.39-1.8-3-2.64-5.15-3.31-3.72.09-5.84,2.12-4.28,2.9-1.67,2.22.17,4.14,5.41,3.54C789.85,642.61,792.87,641.26,790.82,638.52Z" style="fill:#541f0a"/><path d="M751.9,569.62c-.9-2.23-4.25-2.79-7.69-4a9.16,9.16,0,0,0-5.35,4.08c0,1.54,2.77,3.49,4.92,4.21C747.9,573.37,750.29,571.83,751.9,569.62Z" style="fill:#541f0a"/><path d="M531.79,421.93a10.13,10.13,0,0,1,9.67-9.95c4.23,1.49,4.64,3.93,5.59,8.07.71,4.25-2.44,9.15-8.57,9.09C534.56,427.7,531.92,424.83,531.79,421.93Z" style="fill:#541f0a"/><path d="M456.72,496.83c.14-4.34,1.57-10,8.89-7.45,4.45-.7,6.38,1,4.05,5.13,1.14,4.32-3.33,9.07-6.55,10.15C460.61,501.78,454.74,500.1,456.72,496.83Z" style="fill:#541f0a"/><path d="M598,446.57c-.21-4.13,4.07-7,8.79-8.67.64,2.1,3.89,3.42,4.14,10.15-.12,4.13-3,5.12-6.9,7C602.21,453.88,597.29,450.37,598,446.57Z" style="fill:#541f0a"/><path d="M457.47,402.84c-2.49-4,.93-8.94,6.16-7.08,5.45.25,9.67,1.76,9.8,6.1-3.49,4.58-6.29,8.63-11.13,7.95C458.05,409.67,456.35,407.12,457.47,402.84Z" style="fill:#541f0a"/><path d="M546.22,368c-2.67-2.89,4.11-9.19,7.48-7.2,4.7.46,7.3,2.82,7.48,8.24-.81,3.41-2.44,7.34-7.62,5.44C547.53,375.25,546.27,372.25,546.22,368Z" style="fill:#541f0a"/><path d="M496.8,405.74c.36-1.35,2.46-3.91,4.48-3.63.91-.14,2.57,2.09,3.85,3.11-1.36,3-2.21,4.32-4,4.2C499.77,408.9,497.58,407.58,496.8,405.74Z" style="fill:#541f0a"/><path d="M502.62,357.09a3.46,3.46,0,0,1,3.57-4.23c2.17.5,3,1.67,3.68,3.63-.42,1.62-1.9,4-4.26,3.14C503.68,360,502.76,359.35,502.62,357.09Z" style="fill:#541f0a"/><path d="M529.77,454.73c-.62-2.4,1.89-3.51,3.22-3.75,1.11,0,4.3,1.81,4.38,3.25-.65,2.76-2.12,3.87-3.83,3.49C531.81,457.58,529.92,457,529.77,454.73Z" style="fill:#541f0a"/><path d="M570.83,439.29c.36-3,1.79-3.47,3.35-4,1.73-.2,2.49,1.33,3.1,2.78.19,2.34-2.13,3.54-3.27,3.81C571.37,441.89,571.1,440.06,570.83,439.29Z" style="fill:#541f0a"/><path d="M579.81,380.81c-1-2.36.51-3.94,3.29-3.53a4,4,0,0,1,3.19,3,3.21,3.21,0,0,1-3.07,4.25C581.84,384.71,580.18,382.41,579.81,380.81Z" style="fill:#541f0a"/><path d="M600.87,394.12c-.65-.63,1.59-3.55,3.58-2.56,2.1.32,2.21,1.17,3,3.1.19,2.38-.87,3.1-2.75,3.83C601.36,398.87,600.78,396.32,600.87,394.12Z" style="fill:#541f0a"/><path d="M498.83,474c-.16-2.43,1.37-3.28,2.43-3.37,3.05.27,3.59.76,4.32,3.12.48,1.85-1.22,3.16-3.49,3.39C500.56,477.33,497.85,475.28,498.83,474Z" style="fill:#541f0a"/><path d="M471.39,367.1c.66-1.79,1.51-2.78,3.07-2.59,2.39.07,4.73,1.42,3.29,3.91.27,1.46-1.38,2.32-3.56,2.94A3.92,3.92,0,0,1,471.39,367.1Z" style="fill:#541f0a"/><path d="M561.81,394.47c-.24-2,2.31-3.72,7.31-2.85,3.33.05,4.08,1.87,3.72,2.56-.62,2.77-2.26,3.65-4.4,4.59C564.08,398,563.57,397.36,561.81,394.47Z" style="fill:#541f0a"/><path d="M548.09,464.42c-2-3.18,3-4.7,3.76-3.7,5.13,0,6,1.73,7.3,3.48-.74,1.8-3.13,3.75-5.44,2.83C550.4,466.64,547.17,465.74,548.09,464.42Z" style="fill:#541f0a"/><path d="M593.7,334.33c-.09-1.37,1.43-3.17,3.26-3.45,4.91.77,7.11,2.44,6.84,4.13.35,1.37-4,3.45-6,2.93C595.49,337.94,592.39,336.6,593.7,334.33Z" style="fill:#541f0a"/><path d="M457.63,452.07c0-1.13,4.16-3,6-2.59,2.27-.5,7.15,1.1,7.22,3.2-1.56,2.48-2.57,3-6.91,4.24C462.2,455.94,457.94,454.63,457.63,452.07Z" style="fill:#541f0a"/><path d="M498.08,384.2c.44-2,4.44-3.63,6.29-4.4,4.87.91,5.78,2.59,6.7,4.65-1,1.17-4.35,3.17-5.5,3.12A8.57,8.57,0,0,1,498.08,384.2Z" style="fill:#541f0a"/><path d="M715.94,406.94c2.44,2.3,2.28,7,9,5.94,1.4-.7,6.82-2.07,6.62-7.72-.13-3.3-3.48-5.75-7.27-5.86C720.24,397,717,401.08,715.94,406.94Z" style="fill:#541f0a"/><path d="M640.67,329.51c.61,3.91,1.52,8.9,9,9.17,1.37.95,4.22-2.8,6.53-7.76-.51-5.77-2.21-7.55-8.45-6.3C642,322,639.66,327.23,640.67,329.51Z" style="fill:#541f0a"/><path d="M780.59,380.07c-.49,3.34,2.82,7.83,8,7.31,5.4.2,7.8-3.9,9.3-7.92.18-2.66-4.32-7.71-7.44-8C783.54,371.81,780.23,375.08,780.59,380.07Z" style="fill:#541f0a"/><path d="M639.06,425.12c1,3.74,4.4,6.3,9.59,5.68,2.79,1.6,7.48-2.77,6.77-7.68,1.22-2.18-4.76-7-6.88-5.48C644.39,415.53,640.29,418.25,639.06,425.12Z" style="fill:#541f0a"/><path d="M729.56,460.2c.3,1.39,3.19,7.41,5.77,6.61,6.23.89,10.08-3.86,8.66-6.64,2.16-4.93-3.45-8.14-5.87-10.39C734.7,452.62,731.25,453.34,729.56,460.2Z" style="fill:#541f0a"/><path d="M682.07,420.14c-1.22,2.84,1,3.58,2.12,3.83,3.1.45,3.54-.82,4.91-3.74-.63-2.06-2.69-3.62-4.45-2.82C683.18,417.13,680.7,418.65,682.07,420.14Z" style="fill:#541f0a"/><path d="M685.71,469.56c.29,2.18,2.75,3.74,4.87,4.31,1-1.06,3.68-1.55,2.13-4.71.81-1.24-1.61-3.1-3.49-3.34C687.31,466.32,687.22,467.51,685.71,469.56Z" style="fill:#541f0a"/><path d="M714.32,371.51c-.32,2.5.28,4.42,2.43,3.6,1.94-.38,3.26-.83,2.85-3.14,1.18-2.17-1.18-3.64-3.16-4C714.69,368.28,714.24,369.34,714.32,371.51Z" style="fill:#541f0a"/><path d="M753.86,387.31c1.13,2,2,4.29,4.83,4.14,1.37-.37,3.7-2.3,2.78-4.09a3.84,3.84,0,0,0-3.07-2.89C755.42,383.69,755.11,385.55,753.86,387.31Z" style="fill:#541f0a"/><path d="M762.77,445.93c1.48,1.28,2,3.85,4.28,2.74,2.54,1.19,4.1-1.46,4-2.6.25-2.16-2.49-3.71-3.57-3.85A4.23,4.23,0,0,0,762.77,445.93Z" style="fill:#541f0a"/><path d="M783.79,431.92a9.61,9.61,0,0,0,4.37,4c2.52-.55,2.75-1.7,3.49-3.5-.56-2.76-1.35-4.78-3-3.93A4.46,4.46,0,0,0,783.79,431.92Z" style="fill:#541f0a"/><path d="M683.18,352.54a5,5,0,0,0,1.92,4.37,4.51,4.51,0,0,0,4-4.76,2.75,2.75,0,0,0-2.28-3C683.39,349.15,683.07,350.85,683.18,352.54Z" style="fill:#541f0a"/><path d="M655.16,458.36a3.24,3.24,0,0,0,3.39,4.1c2.86-.35,4.61-2.22,4.15-3.43-1.05-2.72-.86-3.54-3.65-3.56C657.67,455.26,655.64,456.89,655.16,458.36Z" style="fill:#541f0a"/><path d="M747.49,431.17c-1.56,2,.39,3.88,4.93,4,1.57-.41,6.25-1.26,6-2.76a8.68,8.68,0,0,0-7.21-3.73C749.87,428.93,746.37,429.87,747.49,431.17Z" style="fill:#541f0a"/><path d="M732.92,362.75c-1.86,1.53.25,3.79,5.48,3.32.8.1,4-1.33,5.45-2.69-2-2.28-3.39-3.94-6.15-4C734.07,359.49,730.72,361,732.92,362.75Z" style="fill:#541f0a"/><path d="M776.21,491.33a4.4,4.4,0,0,0,6,3.56c2.22-.32,6.28-1,6.28-2.77-1.54-1.67-2.09-3.79-7.12-4.33C778.21,487.9,775.73,489.24,776.21,491.33Z" style="fill:#541f0a"/><path d="M641.53,373.9a10.54,10.54,0,0,0,6.88,3.54c3.72-.66,4.33-1.33,4-3.9,2.17-2.32-.27-4-5.25-2.71C643.8,370.52,642,371.66,641.53,373.9Z" style="fill:#541f0a"/><path d="M683.81,442.77c-1.15,2.13,2.29,4,4,3.13,5.1.27,5.48-1,7.58-2.89-2-1.58-3.23-3.23-7.62-3.29C686.65,439.6,682.6,441.38,683.81,442.77Z" style="fill:#541f0a"/><polygon points="627 457.68 627 482.68 804.5 545.32 804.5 521.16 627 457.68" style="fill:#541f0a"/><polygon points="627 457.68 627 482.68 443.5 545.32 443.5 520.76 627 457.68" style="fill:#541f0a"/><polygon points="627 641.68 627 666.68 804.5 729.32 804.5 705.16 627 641.68" style="fill:#541f0a"/><polygon points="627 641.68 627 666.68 443.5 729.32 443.5 704.76 627 641.68" style="fill:#541f0a"/><polygon points="627 273.68 627 298.68 804.5 361.32 804.5 337.16 627 273.68" style="fill:#541f0a"/><polygon points="627 273.68 627 298.68 443.5 361.32 443.5 336.76 627 273.68" style="fill:#541f0a"/><polygon points="627 457.68 627 482.68 804.5 545.32 804.5 521.16 627 457.68" style="fill:#541f0a"/><polygon points="627 457.68 627 482.68 443.5 545.32 443.5 520.76 627 457.68" style="fill:#541f0a"/><polygon points="627 90.68 627 115.68 804.5 178.32 804.5 154.16 627 90.68" style="fill:#541f0a"/><polygon points="627 90.68 627 115.68 443.5 178.32 443.5 153.76 627 90.68" style="fill:#541f0a"/><polygon points="627 274.68 627 299.68 804.5 362.32 804.5 338.16 627 274.68" style="fill:#541f0a"/><polygon points="627 274.68 627 299.68 443.5 362.32 443.5 337.76 627 274.68" style="fill:#541f0a"/><polygon points="1098 748 155 748 157 585 0 0 1258 12 1096 585 1098 748" style="fill:none"/></g></g></svg>