<svg xmlns="http://www.w3.org/2000/svg" xmlns:xlink="http://www.w3.org/1999/xlink" viewBox="0 0 1258 748"><defs><clipPath id="clip-path"><polygon points="469.51 327.97 469.22 162.07 597.24 137.18 597.53 303.08 469.51 327.97" style="fill:none"/></clipPath><clipPath id="clip-path-2"><polygon points="645.08 314.79 644.03 148.97 785.6 166.36 786.65 332.18 645.08 314.79" style="fill:none"/></clipPath><clipPath id="clip-path-3"><polygon points="469.77 690.74 470.08 525.61 596.98 500 596.67 665.14 469.77 690.74" style="fill:none"/></clipPath><clipPath id="clip-path-4"><polygon points="645.08 677.78 644.03 511.71 785.6 529.09 786.65 695.17 645.08 677.78" style="fill:none"/></clipPath><clipPath id="clip-path-5"><polygon points="470.75 512.86 471.06 347.66 596.8 322.29 596.49 487.49 470.75 512.86" style="fill:none"/></clipPath><clipPath id="clip-path-6"><polygon points="648.2 484.03 647.15 317.89 787.37 335.11 788.42 501.25 648.2 484.03" style="fill:none"/></clipPath></defs><g id="Layer_2" data-name="Layer 2"><g id="Layer_2-2" data-name="Layer 2"><polygon points="1098 748 155 748 157 585 0 0 1258 12 1096 585 1098 748" style="fill:none"/><path d="M626,97.59l177.5,63.48q-178.48,11.46-361-.41Z" style="fill:#fffba4"/><path d="M626,166.63c-65.35,0-127.45-2.13-183.5-6v385h0v167L626,649.59l177.5,63.48v-167h0v-385C749,164.65,689,166.63,626,166.63Z" style="fill:#fffba4"/><line x1="626" y1="107.16" x2="626" y2="666.16" style="fill:none;stroke:#ffe174;stroke-miterlimit:10;stroke-width:9px"/><g style="isolation:isolate"><g style="clip-path:url(#clip-path)"><path d="M528,222.37c-4.31,1.07-6.9,4.2-4.86,7-1.58,6.75,2.65,9.12,5.11,8.64l.32-.08c1.4-1,4.88-6,6.19-8.75-.39-5.82-2-6.66-6.76-6.81" style="fill:#c478ff"/><path d="M590.82,138.43a1.05,1.05,0,0,0-.41.17c-4.93,1.49-5,2.9-5.85,8.55-1,2.43.62,5.43,4.61,4.66a9.27,9.27,0,0,0,1.43-.41h.07c1.38-.27,4.77-2.21,6.41-8.3-2-2.58-4.75-5-6.26-4.66" style="fill:#c3ff76"/><path d="M477,207.31a9,9,0,0,0-.88.24c-3.16,1.52-8.18,4.43-6.77,7.45-.23,3.87,3.34,8,4.88,7.68a.82.82,0,0,0,.26-.1c2.63-2,5.61-3.36,7.58-9.89.11-2.72-1.57-6.06-5.07-5.38" style="fill:#ff7676"/><path d="M590.74,228.23a3.42,3.42,0,0,0-1.43.69,1,1,0,0,0-.88-.19c-1.69.33-4.44,3.61-5.77,8.64,1.28,2.68,3.16,5.16,5.55,4.7a3.89,3.89,0,0,0,1.25-.5,5.69,5.69,0,0,0,2,0c3.46-.67,5.29-4.78,5.93-8.58-1.53-1.63-4-5.27-6.67-4.75" style="fill:#ff7676"/><path d="M516.25,276.21c-3.61.7-4.48,2.88-6,7.6.1,4.54,3.4,7.08,8.71,6.3.68-.51,4.46-5.76,6-7.69-1.22-5.95-3.53-7.14-7.38-6.39h-.06c-.45,0-.86.1-1.23.17" style="fill:#76fff5"/><path d="M559.36,234.69c-.52.1-2,1.76-2.33,4,0,1.09,1.52,3.14,2.49,2.95a.64.64,0,0,0,.31-.15,3.94,3.94,0,0,0,3-3.29c0-2.85-1-3.85-3.35-3.5h-.1" style="fill:#c3ff76"/><path d="M555.53,283.25c-1.7.49-2.74,1.41-3,2.88.73,2.75,2.51,3.51,3.64,3.37.62-.27,2.43-2.74,1.93-3.53,0-2.28-.71-3-2.58-2.72" style="fill:#ff7676"/><path d="M533.72,192.51c-1.61.32-2.1,1.71-2.15,4.55-.64,1.06.08,2.32,1.83,2a4.87,4.87,0,0,0,1.08-.36.83.83,0,0,0,.63.13c.87-.17,1.76-1.61,1-3.83.58-1-1.29-2.61-2-2.52l-.42,0" style="fill:#ffe174"/><path d="M500.74,214.17a3.7,3.7,0,0,0-.66.19,7.26,7.26,0,0,0-3.08,4.18c1.24,2,2.38,3.33,3.93,3l.2,0c1.48-.9,2-2.8,2.33-4.42.21-1.6-.68-3.33-2.72-2.93" style="fill:#ffe174"/><path d="M493,271.64a3.77,3.77,0,0,0-.43.1,12.05,12.05,0,0,0-2.75,4.53c.7.61,1.21,2.2,2.65,1.92a2.88,2.88,0,0,0,.85-.33.77.77,0,0,0,.37,0c.79-.15,1.81-1.32,2.31-3.08-.07-2.41-1.19-3.5-3-3.14" style="fill:#c478ff"/><path d="M476.68,260.94c-2.63.78-3.9,2.34-2.85,4.17-.59,1.74.12,4,1.86,3.66a1.43,1.43,0,0,0,.28-.07c1.88-.69,2.86-1.8,2.45-4.5,1.06-1.5,0-2.49-1.74-3.26" style="fill:#ff76e2"/><path d="M558.34,169.87a3.11,3.11,0,0,0-2.64,3c.28,2.44,1.53,3.79,3.36,3.73,1.49-1.28,2.28-1.89,2.65-4.27.33-1.6-1-2.87-1.73-2.72a.58.58,0,0,0-.29.15,5.74,5.74,0,0,0-1.35.09" style="fill:#ffe174"/><path d="M581.3,267.13c-2.32,1.05-2.54,1.63-2.52,3.35-.14,2.68,1,4,2.5,3.68l.18,0a4.64,4.64,0,0,0,2.36-3.79c-.2-1.61-1.45-3.07-2.52-3.2" style="fill:#ffe174"/><path d="M506.24,255.47c-2.92,1.43-4.43,2.74-4.9,4.79-.66,2.19.46,2.89,3.42,2.32.38-.08.79-.17,1.22-.28a5.51,5.51,0,0,0,.92-.1c2-.38,3.41-1.9,1.86-3.63,2.16-1.86,0-3.49-2.52-3.1" style="fill:#c3ff76"/><path d="M518.41,186.28c-3,.9-5.91,3.35-5.25,4.88-.09,2.28,1.42,2.69,4.48,2.54a2.15,2.15,0,0,0,.71,0c1.68-.33,3.87-2.29,2.6-4,1-1.52-1.05-3.52-2.54-3.37" style="fill:#c3ff76"/><path d="M481.1,318.26c-2.81.72-5.17,2.15-5.08,4.92,1.76,1.61,1.49,3.22,4.84,2.58a9.8,9.8,0,0,0,4.05-4c1.66-2.38-1.5-3.42-3.81-3.46" style="fill:#ffe174"/><path d="M589.31,183.15a8,8,0,0,0-5,5.54,9.61,9.61,0,0,0,5.44,2.05c2.2-1.07,5-2.49,4-4.53.84-2.13-1.65-3.26-4.5-3.06" style="fill:#ff76e2"/><path d="M555.64,256.83c-2.35.46-2.76,1.78-4.42,3.73,1.42,2.1,2,3.1,5,2.53l.88-.2a5.33,5.33,0,0,0,.95-.1c1.82-.35,2.32-1.67,2.89-3.67,1-2.06-1-2.91-2.68-2.58a3,3,0,0,0-.45.12,11.61,11.61,0,0,0-2.15.17" style="fill:#ff76e2"/></g></g><g style="isolation:isolate"><g style="clip-path:url(#clip-path-2)"><path d="M710.75,236.59a1.5,1.5,0,0,0-.68.06c-2.63,0-7.81,2.63-6,4.1-2.15,4.37.51,8.47,5,9l.42,0a7.42,7.42,0,0,0,1.33.31c4.23.51,5.73-3.87,6.1-5.72-1.31-4.91-4.43-7.59-6.22-7.81" style="fill:#c478ff"/><path d="M779.19,315.15c-5.56.21-7.86,2.58-6.61,8.22.86,2.48,1.06,7.21,5.75,7.78.24,0,.5.05.77.06,1.51-.48,4.94-3.33,7.31-7.77-1.87-2.33-5.75-8.05-7.22-8.29" style="fill:#c3ff76"/><path d="M651.4,253.42a2,2,0,0,0-1,.12c-1.5.45-5.93,1.22-5.63,5.18-1.39,4.11,3.15,8.82,6.61,9.25a3.7,3.7,0,0,0,.94,0c4.53-.1,6.69-2.27,6.52-7.36-2-1.86-4.81-6.86-7.45-7.19" style="fill:#76fff5"/><path d="M777.18,225.68c-3.29.8-5.83,3.64-7.44,8,1.8,2.44,5.89,6.61,7.41,8.2,3.58-1.46,6.93-2.25,8.88-7.73-.86-3.74-3.54-6.1-8.85-8.48" style="fill:#76fff5"/><path d="M699.2,183.45a.58.58,0,0,0-.24,0l-.63-.09c-5.5-.68-8.86,2.08-8.94,5.37,1.91,3.33,2.93,8,8.07,9.09,4.3.5,6.84-4,8.17-5.63-1.59-6.05-5.29-8.62-6.43-8.76" style="fill:#c3ff76"/><path d="M744.49,229.29c-1,.53-3.09.52-3.06,3a8.63,8.63,0,0,0,2.7,3.55l.2,0c2.43.3,3.53-1.31,3.49-2.17-.24-2.93-.92-4.14-3.33-4.45" style="fill:#ff76e2"/><path d="M740.23,181.66H740c-1.25-.16-3.14,1.47-3.93,2.19.28,2.26,1.38,4.61,3.16,4.83l.18,0,.16,0c1.94.24,2.66-1.8,2.66-3.19.5-2.59-1.22-3.76-2-3.86" style="fill:#ffe174"/><path d="M716.86,272.58c-2.77.36-4,1.45-3.18,4.17a3.65,3.65,0,0,0,2.86,3h.05c.77.1,2.72-.73,2.07-3.58,1.08-.61-.76-2.62-1.8-3.59" style="fill:#76fff5"/><path d="M680.64,253.52a2.1,2.1,0,0,0-.77.06c-1.82-.08-3.12,1.17-4.54,2.39.63,1.34,2.4,3.52,3.24,3.62a.44.44,0,0,0,.2,0c2.78-.11,4-.86,3.7-2.89-.35-1.85-.78-3-1.83-3.16" style="fill:#ffe174"/><path d="M670.77,195.53c-2.34.51-2.94,1.27-3.84,4,1.08,1.1,2.2,3.09,2.87,3.17a.28.28,0,0,0,.21-.05c2.27.07,3.7-1.46,3.75-2.57-.66-1.87-2.09-4.07-3-4.56" style="fill:#76fff5"/><path d="M652.13,207.65a2.87,2.87,0,0,0-.42,0c-2.14,0-3.05.34-2.35,2.45-1.05,1.43.09,3.16,2.58,3.47l.61,0a2.5,2.5,0,0,0,1.09.47c1.23.15,1.75-1.33.82-3.38.39-.83-.53-2.81-2.33-3" style="fill:#c478ff"/><path d="M744.9,295.14a1.24,1.24,0,0,0-.71.13c-.19,0-.37-.08-.55-.11a2.8,2.8,0,0,0-3.14,2,6.18,6.18,0,0,0,4.44,4.95c.76-.41,2.63-1.48,2.2-3.51-.35-1.24-1-3.33-2.24-3.48" style="fill:#ff7676"/><path d="M769.07,195.74a2.62,2.62,0,0,0-1,.09c-1.76-.09-3.11,1.23-2.94,2.22,0,1.79.2,4,2.09,4.24a2.89,2.89,0,0,0,.72,0,1.78,1.78,0,0,0,.38.1c1.08.13,2.2-1,2.38-2.82,0-2.28-.4-3.67-1.66-3.83" style="fill:#c3ff76"/><path d="M684.88,211.14c-4.28-.27-5.93,1.68-5.11,3.18a4.84,4.84,0,0,0,4,3.6,5.71,5.71,0,0,0,1.48,0l.34.05c2.62.32,4.73-.4,2.42-2.86,1.95-1.16-.45-3.18-3.1-3.94" style="fill:#ff76e2"/><path d="M697.48,279.25c-2.82-.35-4.19,1.52-4.08,2.88-.64,1.75,1.86,3.16,4.73,3.52.36,0,.72.07,1.09.08l.45.07c1.57.19,3.4-.28,2.33-2.61,1.61-1.27-1.84-3-3.68-3.78a5.38,5.38,0,0,0-.84-.16" style="fill:#ff76e2"/><path d="M657.74,150.66a5.13,5.13,0,0,0-1.11,0h-.06c-3.64-.45-3.33,1.06-5.25,2.59-.09.88,2.32,3.09,5.26,3.45l.37,0a5.91,5.91,0,0,0,1.11.23c2.32.29,4.68-.63,3.08-2.26-.29-2.61-1.65-3.82-3.4-4" style="fill:#ff7676"/><path d="M779.37,279.17a5.24,5.24,0,0,0-1.31,0,4.28,4.28,0,0,0-.59-.1c-2.41-.3-3.89.89-3.3,3.05-.47,1.31,2,3,3,3.73l.5.07c3.83.47,6-1,6.26-2.52-1.18-2.33-2.41-4-4.54-4.24" style="fill:#ffe174"/><path d="M741.28,207.39c-4.11-.28-4.76,1.57-6.45,2.48,2.3,2,2.44,3.6,7.29,5,1.92,0,4.64-1.41,3.42-3.25-.73-1.63-1.36-3.44-4.26-4.25" style="fill:#ff7676"/></g></g><g style="isolation:isolate"><g style="clip-path:url(#clip-path-3)"><path d="M528.11,585.42c-4.27,1.1-6.84,4.22-4.84,7-1.58,6.73,2.6,9.07,5,8.58l.32-.09c1.39-1,4.85-5.95,6.16-8.76-.36-5.8-2-6.64-6.68-6.75" style="fill:#c3ff76"/><path d="M590.61,501.29a1,1,0,0,0-.4.17c-4.89,1.52-5,2.94-5.83,8.56-1,2.44.6,5.42,4.55,4.62a8.44,8.44,0,0,0,1.42-.41l.08,0c1.38-.28,4.73-2.24,6.37-8.31-1.95-2.56-4.69-4.91-6.19-4.61" style="fill:#ff76e2"/><path d="M477.57,570.71a5,5,0,0,0-.85.24c-3.14,1.53-8.13,4.46-6.74,7.47-.24,3.87,3.29,7.94,4.81,7.64A.71.71,0,0,0,475,586c2.62-2,5.57-3.38,7.55-9.91.12-2.71-1.54-6-5-5.33" style="fill:#ff7676"/><path d="M590.21,590.88a3.52,3.52,0,0,0-1.42.69,1,1,0,0,0-.87-.18c-1.67.34-4.41,3.63-5.75,8.66,1.26,2.66,3.12,5.13,5.49,4.65a3.9,3.9,0,0,0,1.23-.49,5.56,5.56,0,0,0,2,0c3.43-.69,5.27-4.8,5.91-8.6-1.51-1.62-3.92-5.24-6.59-4.7" style="fill:#ff7676"/><path d="M516.23,639.21c-3.55.72-4.42,2.9-6,7.61.09,4.53,3.34,7,8.61,6.24.67-.51,4.43-5.78,6-7.71-1.18-5.92-3.46-7.1-7.26-6.34l-.09,0c-.45.05-.86.11-1.24.18" style="fill:#ff7676"/><path d="M559.11,597.52c-.52.1-2,1.77-2.32,4,0,1.08,1.49,3.12,2.45,2.92a.69.69,0,0,0,.31-.15,4,4,0,0,0,3-3.3c0-2.85-1-3.84-3.31-3.47h-.09" style="fill:#ffe174"/><path d="M555.14,646a3.66,3.66,0,0,0-3,2.89c.71,2.74,2.47,3.49,3.59,3.34.61-.27,2.42-2.75,1.93-3.52,0-2.28-.7-3-2.55-2.71" style="fill:#ff76e2"/><path d="M533.87,555.59c-1.61.33-2.09,1.71-2.15,4.55-.64,1.07.07,2.32,1.8,2a5.26,5.26,0,0,0,1.07-.37.79.79,0,0,0,.63.12c.86-.17,1.75-1.6,1-3.81.57-1-1.27-2.61-1.93-2.52-.14,0-.27,0-.4.06" style="fill:#ffe174"/><path d="M501.13,577.4a5.47,5.47,0,0,0-.67.2,7.3,7.3,0,0,0-3.07,4.18c1.23,2,2.35,3.32,3.9,3l.18,0c1.48-.91,1.95-2.81,2.33-4.42.21-1.61-.65-3.32-2.67-2.92" style="fill:#ffe174"/><path d="M493.77,635l-.44.12c-1.76.55-2.19,1.6-2.63,4.32-.51,1.24.27,2.79,1.55,2.53a1.92,1.92,0,0,0,.64-.27c1.93-.52,3.87-1.68,3.39-4.33-.62-1.19-.83-2.71-2.51-2.37" style="fill:#76fff5"/><path d="M476,624.8c-1.25.25-2.55,2.68-1.8,3.76-.88,2.38.9,3.14,2.29,3.63,1.35-.71,3-2.72,2.63-4.53.17-1.84-.67-2.89-2.93-2.88l-.19,0" style="fill:#ff76e2"/><path d="M558.58,532.75c-1.36.27-1.87,2.21-3,3a3.44,3.44,0,0,0,3.61,3.39l.12,0a1.18,1.18,0,0,0,.26,0c1-.2,2.73-1.88,1.63-4.48.22-.59-.55-2-2-1.89a1.81,1.81,0,0,0-.66,0" style="fill:#76fff5"/><path d="M579.34,630.29c-1,.2-1.89,2-1,3.46,0,2.27,1.34,2.34,2.6,3.22,1.39-1.37,2.73-3.06,2.74-4.26a2.23,2.23,0,0,0-2.71-2.65,3.51,3.51,0,0,0-1,.36.82.82,0,0,0-.64-.13" style="fill:#76fff5"/><path d="M506.74,618.22c-3.95,1.47-5,2.89-5.1,4.52-1.47,2.12,1.79,4,3.6,3.7,1.68-1.39,5.92-2.76,4.34-5.3.73-2.13-1.25-3-2.84-2.92" style="fill:#c478ff"/><path d="M516.05,550.91a5.49,5.49,0,0,0-3.77,3.67c.15,2.58,3.74,3.11,5.69,3a7.19,7.19,0,0,0,4.49-4.86c.61-2.11-1-2.86-3.09-2.44a8,8,0,0,0-1.76.6,3.91,3.91,0,0,0-1.56,0" style="fill:#c478ff"/><path d="M481.66,681.2c-2.57.52-4.79,3.37-4.67,4.77-.11,1.63,2.92,2.72,3.45,2.62h0l.26,0c3.9-.79,6-3.54,4.11-4.47,1.84-2-2.18-2.44-2.84-2.92l-.32.05" style="fill:#c3ff76"/><path d="M589,545.92a8.11,8.11,0,0,0-4.94,5.56,9.33,9.33,0,0,0,5.38,2c2.19-1.08,5-2.52,4-4.54.85-2.13-1.62-3.25-4.44-3" style="fill:#c3ff76"/><path d="M555.34,619.63c-2.33.47-2.73,1.79-4.39,3.74,1.39,2.1,2,3.09,4.92,2.5l.88-.21a5.33,5.33,0,0,0,1-.1c1.8-.36,2.3-1.67,2.86-3.67,1-2.07-1-2.91-2.65-2.57a3.17,3.17,0,0,0-.44.12,12.16,12.16,0,0,0-2.13.19" style="fill:#c478ff"/></g></g><g style="isolation:isolate"><g style="clip-path:url(#clip-path-4)"><path d="M710.75,599.58a1.5,1.5,0,0,0-.68.06c-2.63,0-7.81,2.63-6,4.1-2.15,4.37.51,8.47,5,9l.42,0a6.74,6.74,0,0,0,1.34.31c4.22.52,5.72-3.86,6.09-5.72-1.31-4.91-4.43-7.59-6.22-7.81" style="fill:#ffe174"/><path d="M779.19,678.15c-5.56.21-7.86,2.58-6.61,8.21.86,2.48,1.06,7.21,5.75,7.79a6.36,6.36,0,0,0,.77.05c1.51-.47,4.94-3.32,7.31-7.75-1.87-2.35-5.75-8.07-7.22-8.3" style="fill:#76fff5"/><path d="M651.4,616.41a2.09,2.09,0,0,0-1,.12c-1.5.45-5.93,1.22-5.63,5.19-1.39,4.1,3.15,8.82,6.61,9.24a3.7,3.7,0,0,0,.94,0c4.53-.1,6.69-2.26,6.52-7.36-2-1.86-4.8-6.86-7.45-7.19" style="fill:#c3ff76"/><path d="M777.18,588.68c-3.29.79-5.83,3.64-7.44,8,1.8,2.44,5.89,6.61,7.41,8.2,3.58-1.47,6.93-2.25,8.88-7.73-.86-3.75-3.54-6.1-8.85-8.48" style="fill:#ff76e2"/><path d="M699.2,546.45a.58.58,0,0,0-.24,0l-.64-.09c-5.5-.68-8.85,2.09-8.93,5.37,1.91,3.33,2.93,8,8.07,9.08,4.3.51,6.84-4,8.18-5.62-1.6-6.05-5.29-8.62-6.44-8.76" style="fill:#ff7676"/><path d="M744.49,592.3c-1,.51-3.09.5-3.06,3a8.71,8.71,0,0,0,2.71,3.55l.19,0c2.43.3,3.53-1.31,3.49-2.16-.24-2.93-.92-4.14-3.33-4.44" style="fill:#ffe174"/><path d="M740.23,544.66H740c-1.26-.16-3.14,1.46-3.93,2.18.28,2.26,1.38,4.62,3.16,4.83l.18,0,.17,0c1.93.23,2.65-1.8,2.65-3.2.5-2.58-1.21-3.75-2-3.85" style="fill:#76fff5"/><path d="M716.86,635.57c-2.77.36-4,1.47-3.18,4.17a3.62,3.62,0,0,0,2.86,3h.05c.77.09,2.72-.74,2.08-3.58,1.08-.61-.77-2.63-1.81-3.6" style="fill:#c3ff76"/><path d="M680.64,616.52a2.12,2.12,0,0,0-.77.06c-1.82-.09-3.12,1.16-4.54,2.39.63,1.33,2.4,3.51,3.24,3.61a.34.34,0,0,0,.2,0c2.78-.11,4-.85,3.7-2.89-.35-1.83-.77-3-1.83-3.15" style="fill:#76fff5"/><path d="M670.77,558.53c-2.34.5-2.94,1.27-3.84,4,1.08,1.1,2.2,3.1,2.87,3.18a.3.3,0,0,0,.21-.05c2.27.06,3.7-1.47,3.75-2.58-.66-1.86-2.08-4.07-3-4.55" style="fill:#ffe174"/><path d="M652.13,570.65a1.91,1.91,0,0,0-.42,0c-2.14,0-3.05.35-2.35,2.46-1.05,1.43.09,3.15,2.58,3.46a6,6,0,0,0,.61,0,2.5,2.5,0,0,0,1.09.47c1.23.15,1.75-1.33.82-3.37.39-.84-.53-2.82-2.33-3" style="fill:#c478ff"/><path d="M744.9,658.13a1.24,1.24,0,0,0-.71.13c-.18,0-.36-.08-.53-.1a2.81,2.81,0,0,0-3.16,2,6.19,6.19,0,0,0,4.44,5c.76-.41,2.63-1.48,2.2-3.51-.35-1.24-1-3.34-2.24-3.49" style="fill:#ff76e2"/><path d="M769.08,558.74a2.69,2.69,0,0,0-1,.09c-1.76-.09-3.11,1.24-2.94,2.21,0,1.8.2,4,2.09,4.24a2.89,2.89,0,0,0,.72,0,1.78,1.78,0,0,0,.38.1c1.08.13,2.2-1,2.38-2.82,0-2.27-.4-3.67-1.65-3.82" style="fill:#c478ff"/><path d="M684.88,574.14c-4.28-.27-5.93,1.67-5.1,3.17a4.81,4.81,0,0,0,4,3.6,5.71,5.71,0,0,0,1.48,0l.37,0c2.6.32,4.69-.4,2.39-2.85,1.95-1.15-.45-3.18-3.1-3.94" style="fill:#ffe174"/><path d="M697.48,642.24c-2.82-.35-4.19,1.53-4.08,2.88-.64,1.76,1.86,3.17,4.72,3.52.36,0,.73.07,1.1.08l.45.07c1.57.2,3.4-.28,2.33-2.6,1.61-1.27-1.83-3-3.68-3.79a6.86,6.86,0,0,0-.84-.16" style="fill:#c478ff"/><path d="M656,513.18c-.53,0-4,.84-3.85,2.94-.12,2.22,2.55,3,5.57,3.6a.84.84,0,0,0,.49.18c1.36.17,4.44-1,2.67-3,2.09-2.13-.33-3-4.88-3.69" style="fill:#ff76e2"/><path d="M778.92,642a3.7,3.7,0,0,0-.94,0l-.21,0c-1.42-.17-3.7,1.44-5.77,2.94.39,1.42,1.81,2.54,4,2.81a8.74,8.74,0,0,0,1.55,0c.33.07.65.13,1,.17,2.71.33,4.82-.69,4-2.37.93-1.2-1.33-3.28-3.53-3.55" style="fill:#ff7676"/><path d="M741.28,570.39c-4.11-.28-4.76,1.57-6.45,2.48,2.3,2,2.44,3.59,7.29,5,1.92,0,4.64-1.42,3.42-3.26-.73-1.62-1.36-3.44-4.26-4.24" style="fill:#c3ff76"/></g></g><g style="isolation:isolate"><g style="clip-path:url(#clip-path-5)"><path d="M536.56,413.6c-3.9.79-5.26,3.36-4.13,7.86-.34,2,2.77,5.88,4.83,5.47a1.44,1.44,0,0,0,.57-.25l.21,0c2.37-.48,5.12-4.78,7.08-9.8-1.65-.91-2.4-4-6.71-3.47a13.94,13.94,0,0,0-1.85.23" style="fill:#76fff5"/><path d="M477.24,495.5c-5.36,1.13-7.33,6.75-5.68,8.53-2.15,5.14.16,7.94,5.49,7.52a1,1,0,0,0,.29,0c2-.41,6.77-6,6-8.26-1.08-5.26-4.41-7.23-6.11-7.77" style="fill:#ff76e2"/><path d="M588.28,427.21c-3.26.66-5,5.64-3.27,6.91.11,5,3.57,6.75,6.2,6.87a3.33,3.33,0,0,0,.85-.05c2.77-.56,3.25-4.79,4.54-9.32-.24-3.87-1.68-4.89-7-4.44a3.58,3.58,0,0,0-1.31,0" style="fill:#ff7676"/><path d="M476.12,406.8c-1.95,2.11-5,4.74-4.23,8.22-1.79,6.06.62,6.77,4.07,8,5.34-2.48,7.1-6.49,5.51-8.38,1.48-4.85-1.64-7.37-5.35-7.81" style="fill:#c3ff76"/><path d="M548.46,359.66c-4.91,1-6.21,3.36-4.83,8.92-1.21,2,1.89,6.19,4.72,5.65,2.07-.89,6.61-6.32,4.92-9.06.1-3.31-1.9-6.07-3.31-5.78l-.15,0c-.48.07-.93.14-1.35.23" style="fill:#c478ff"/><path d="M506.44,408.28a4.29,4.29,0,0,0-2.7,4.58c0,.83,1.44,2.28,2.26,2.12l.06,0c2.74-.77,3.57-2.54,3.25-3.86,0-2.51-.66-2.62-2.87-2.82" style="fill:#ffe174"/><path d="M510.4,360.53c-2.11.43-2.78,1.51-3.24,4.25,0,1.4,1.72,3.16,3,2.91l.11,0,.13,0c1.4-.28,2.79-2.78,2.55-4.95.72-1,0-2.65-1.92-2.27l-.12,0-.49.08" style="fill:#ffe174"/><path d="M532.93,449.46c-2.18,1.27-3.07,3.24-4,4.17.56,2.64,1.23,3.58,3.54,3.11l.17,0c1.19-.45,3.16-2.6,3.1-3.26a7.68,7.68,0,0,0-2.76-4" style="fill:#ffe174"/><path d="M565.13,428.4a3.05,3.05,0,0,0-2.45,3.42,3.52,3.52,0,0,0,2.31,2.86,3.18,3.18,0,0,0,.55-.07,2.68,2.68,0,0,0,2-3.61c1.28-1.65-.08-2.78-1.56-2.62a2.43,2.43,0,0,0-.89,0" style="fill:#ffe174"/><path d="M572.81,370.26c-2.31.84-3.57,3.11-3,4.77a2.75,2.75,0,0,0,2.26,2.58,3.67,3.67,0,0,0,.75-.08c2.07-.41,3.12-2.47,2.15-3.25.83-3-1.14-3.43-2.16-4" style="fill:#ffe174"/><path d="M589.21,381.31c-1.19.24-2.57,2.39-2.93,3.34.83,1.75,1.94,3.07,3,2.85a1.72,1.72,0,0,0,.87-.52.19.19,0,0,0,.13,0c.57-.12,1.73-1.93,2.69-3.68-.61-1.89-2.33-2-3.53-2a1.23,1.23,0,0,0-.27,0" style="fill:#ff76e2"/><path d="M506.52,473.84a3.62,3.62,0,0,0-2.26,3.65c.37,1.9,1.21,3,3.65,3,.55-.7,1.89-3,1.69-4.73a1.69,1.69,0,0,0-2-2l-.36.12a1.33,1.33,0,0,0-.76-.07" style="fill:#c478ff"/><path d="M485.18,376.12c-1.2.24-2.56,1.87-2.56,4.13-.17,1.88.84,2.93,2.54,2.59a4.62,4.62,0,0,0,.62-.18.46.46,0,0,0,.29,0c1-.2,2.84-2.76,2.86-4.55a2.83,2.83,0,0,0-3-2,1.36,1.36,0,0,0-.75-.05" style="fill:#ff7676"/><path d="M561.16,386.44c-2.52.94-4.36,3-6.12,4.79,2.05,1.74,3.79,2.36,6.05,1.91l.32-.07a2.39,2.39,0,0,0,1,0c1.73-.35,3.38-2.31,3-3.71-.74-1.24-3.21-2.88-4.27-2.92" style="fill:#c3ff76"/><path d="M549,455.23a2.91,2.91,0,0,0-.5.16c-3.25,1.2-4.15,2.7-5.6,4.45.94,2,2.59,2.36,5.45,1.78l.91-.2a4.19,4.19,0,0,0,.63-.07c1.56-.32,2.46-1.6,3-3.55-.08-1.31-2.15-2.93-3.93-2.57" style="fill:#c3ff76"/><path d="M583.26,325c-2.17.44-3.7,1.78-3.46,4.3,1.42,1.14,2.23,2.19,4.1,1.81a6.41,6.41,0,0,0,1-.3l.25,0a5.2,5.2,0,0,0,3.59-3.54c1.73-2.1-2.46-2.72-4.06-2.39h0a8.82,8.82,0,0,0-1.39.16" style="fill:#ff76e2"/><path d="M475.42,460c-1.9.39-3.61,2.23-2.57,4.2a2.49,2.49,0,0,0,2.65,2.74l.14,0c4.07-1.4,5.79-3.16,6.22-4.61-.51-2-2.57-2.93-4.81-2.48l-.55.14a3.58,3.58,0,0,0-1.08.05" style="fill:#76fff5"/><path d="M510.17,386.09c-2.3.92-5.72,3.34-5.08,4.74a5.6,5.6,0,0,0,5.78,2.49c.56-.93,4.42-3.31,2.37-4.59,1.53-1.42-1.85-2.66-3.07-2.64" style="fill:#ff76e2"/></g></g><g style="isolation:isolate"><g style="clip-path:url(#clip-path-6)"><path d="M722.24,398.87c-2.19.81-6.43,1.45-6,7.4-1.44,2.37.77,6.89,6.69,8.37l.6.09c4.29.53,5.12-2.57,6.84-8.79-2.26-3.49-5.46-6.49-8.16-7.07" style="fill:#c478ff"/><path d="M652.65,318.57c-4.85-.59-6.79,2.09-4.59,5.33-1.78,5.53.3,7.08,6,7.78l.35,0a1.8,1.8,0,0,0,.63.21c2,.24,5.09-2.69,6.17-4.81.86-5.37-5.05-7.48-7.06-8.28-.53-.12-1-.21-1.51-.27" style="fill:#ff7676"/><path d="M781,381.09c-2.82-.34-6.12,2.93-6.23,5.61-2.15,5.88.6,7,5.14,9.05.33.07.65.13,1,.17,5.17.63,6.59-4,6.82-7.79-1.57-3.49-2.08-5.5-6-6.88a2.94,2.94,0,0,0-.65-.16" style="fill:#ff76e2"/><path d="M651.71,408.27c-2.93-.36-4.59,3.55-2.89,5.68-.68,3.61,1.66,7.65,3.69,7.9a1.49,1.49,0,0,0,1-.26,6.52,6.52,0,0,0,1.72.47c3.32.4,5.66-2.16,4.24-5.27,1.44-4.59.33-7.47-3.47-7.93a11.74,11.74,0,0,0-2.71,0,4.21,4.21,0,0,0-1.63-.61" style="fill:#76fff5"/><path d="M734.93,452a3.64,3.64,0,0,0-.73,0h-.07c-3.14-.39-6.53.86-5.16,7.2-1.68,1.42.21,6.17,6.91,7.37,1.58-.06,4-2.94,3.84-7.52,1.68-4.22-2.31-6.71-4.79-7" style="fill:#c3ff76"/><path d="M687.5,413l-.59,0c-.91,0-2.56,1-2.58,3.84-.21.79,1.94,2.94,3,3.07h0a3.07,3.07,0,0,0,.7.19c1.91.23,2.49-2,2.49-3.13.31-2.13-.46-3.6-3-3.92" style="fill:#ffe174"/><path d="M691.78,461.38c-1.42-.05-3.46.51-3.44,2.8.56.95,1.38,3.17,4.18,3.67,2.23.2,3.08-.81,2.26-3.8.26-1.4-1.41-2.33-3-2.67" style="fill:#ffe174"/><path d="M716.59,369.42a1.62,1.62,0,0,0-.3,0c-2.75-.28-3.5,1.59-4.13,2.41.87,2.48,1.68,3.84,3.19,4a4,4,0,0,0,1.34-.09.63.63,0,0,0,.39.21c.78.09,2-1.16,2.68-2,0-2.82-1.85-4.35-3.17-4.51" style="fill:#ff76e2"/><path d="M752.25,389.06c-.76-.1-2.1,1.64-2.33,3.17-.4,1.49,1.9,3.59,3.74,4.43l.2,0c1.57.19,2.9-1.22,1.51-3.62.65-2.29-.15-3.2-2.9-3.93a.37.37,0,0,0-.22-.08" style="fill:#ffe174"/><path d="M760.35,446c-1.14-.14-2.32,1-2.23,3.45-.56,1.6.41,2.68,2.33,2.92a8,8,0,0,0,1,.05,1.15,1.15,0,0,0,.57.24c1.16.14,2.63-1.37,1.85-2.21,1.18-2.51-.42-3.54-3.27-4.4l-.26-.05" style="fill:#ff7676"/><path d="M780.76,434.65a24.6,24.6,0,0,0-4.35,3.07,5.29,5.29,0,0,0,3.6,4.47l.21,0c1.31.16,3.06-2,3.7-3.56a12.29,12.29,0,0,0-3.16-4" style="fill:#ffe174"/><path d="M689.11,348.19a.55.55,0,0,0-.43.12,5,5,0,0,0-.91-.2c-2-.25-2.78,1.17-3.14,2.66-.39,2.26,1.55,3,3.38,4.18,1.46-.13,2.88-1.55,2.57-4.07a2.35,2.35,0,0,0-1.47-2.69" style="fill:#ffe174"/><path d="M664.43,446.91c-2.29.06-3.71,1.59-3.5,3.26,0,.95,2.28,2.85,3.71,3.79l.21,0c1.62.2,3-1.15,3.11-3.79,0-1.73-2.62-2.58-3.53-3.29" style="fill:#ff76e2"/><path d="M748.66,431c-2.69-.24-4.7,1.57-7.08,2.73,1.72,2.24,3.49,3.7,5.78,4a7.35,7.35,0,0,0,1.06,0,1.87,1.87,0,0,0,.45.1,4.17,4.17,0,0,0,4.29-2.46c.51-1.89-2.25-3.25-4.5-4.39" style="fill:#ffe174"/><path d="M734.84,362.45a8.31,8.31,0,0,0-7.07,3c1.41,2.14,2.37,3.81,5,4.13a8.59,8.59,0,0,0,1.27.05c2.07-.2,4.83-.57,4.93-2.82-.74-1.75-1.94-3.77-4.12-4.36" style="fill:#76fff5"/><path d="M775.1,492.16c-2.91.13-3.82,1.67-5.66,3.5-.32.59,2.23,3,5.43,3.92,1.76.2,6.49-.77,4.54-2.95-.12-2.81-1.94-4-4.31-4.47" style="fill:#76fff5"/><path d="M654.53,364.23a15.72,15.72,0,0,0-1.75-.09c-1.32,0-3.43,1-3.09,3.09-1.38,1,1.59,2.71,4.09,3.73,2.71.09,5.35-1.2,6-2.59-.42-2.08-1.92-3.73-5.21-4.14" style="fill:#c3ff76"/><path d="M689.87,434.86c-2.87-.35-4.06.95-3,3-.16,1.56,2.81,3.36,5.58,3.87a1.94,1.94,0,0,0,.55.14c1.46.18,2.46-1.32,3.71-3.54-1.09-.8-2.31-2.67-3.81-2.86a2.16,2.16,0,0,0-.44,0,13.68,13.68,0,0,0-2.58-.63" style="fill:#c478ff"/></g></g><polygon points="626 457.59 626 482.58 803.5 545.22 803.5 521.07 626 457.59" style="fill:#ffe174"/><polygon points="626 457.59 626 482.58 442.5 545.22 442.5 520.66 626 457.59" style="fill:#ffe174"/><polygon points="626 641.59 626 666.58 803.5 729.22 803.5 705.07 626 641.59" style="fill:#ffe174"/><polygon points="626 641.59 626 666.58 442.5 729.22 442.5 704.66 626 641.59" style="fill:#ffe174"/><polygon points="626 273.59 626 298.58 803.5 361.22 803.5 337.07 626 273.59" style="fill:#ffe174"/><polygon points="626 273.59 626 298.58 442.5 361.22 442.5 336.66 626 273.59" style="fill:#ffe174"/><polygon points="626 457.59 626 482.58 803.5 545.22 803.5 521.07 626 457.59" style="fill:#ffe174"/><polygon points="626 457.59 626 482.58 442.5 545.22 442.5 520.66 626 457.59" style="fill:#ffe174"/><polygon points="626 90.59 626 115.58 803.5 178.22 803.5 154.07 626 90.59" style="fill:#ffe174"/><polygon points="626 90.59 626 115.58 442.5 178.22 442.5 153.66 626 90.59" style="fill:#ffe174"/><polygon points="626 274.59 626 299.58 803.5 362.22 803.5 338.07 626 274.59" style="fill:#ffe174"/><polygon points="626 274.59 626 299.58 442.5 362.22 442.5 337.66 626 274.59" style="fill:#ffe174"/></g></g></svg>