<svg xmlns="http://www.w3.org/2000/svg" viewBox="0 0 1258 748"><g id="Layer_2" data-name="Layer 2"><g id="Layer_2-2" data-name="Layer 2"><path d="M401.13,591.88c-1.84,0-3.68-.07-5.54-.24-9.79-.9-18.58-4.1-27.08-7.19-6.9-2.5-13.41-4.87-19.42-5.54-6.88-.76-14.16.14-21.87,1.1-8.62,1.07-17.53,2.18-26.45.9-10.7-1.52-20.23-5.74-28.63-9.46-6.2-2.74-12.05-5.33-17.31-6.39-7.23-1.45-14.83-1.5-22.18-1.54-9.6,0-18.65-.1-27.14-3-27.14-9.4-36.95-29.75-40.17-36.43a11,11,0,1,1,19.82-9.55c4.22,8.74,11.16,19.51,27.55,25.19,5,1.75,12.34,1.79,20.06,1.83,8,.05,17.08.1,26.4,2,7.62,1.54,14.87,4.74,21.87,7.84,7.79,3.45,15.15,6.71,22.84,7.8,6,.86,13.11,0,20.64-1,8.63-1.07,17.55-2.18,27-1.13,8.62,1,16.69,3.89,24.5,6.73,7.52,2.73,14.62,5.31,21.59,6,6.29.58,13.39-.59,20.91-1.82,8.59-1.41,17.48-2.86,26.83-2.12a11,11,0,0,1-1.76,21.93c-6.68-.53-13.88.65-21.51,1.9C415.28,590.74,408.28,591.88,401.13,591.88Z" style="fill:#350e00"/><path d="M401.13,415.88c-1.84,0-3.68-.07-5.54-.24-9.79-.9-18.58-4.1-27.08-7.19-6.9-2.5-13.41-4.87-19.42-5.54-6.88-.76-14.16.14-21.87,1.1-8.62,1.07-17.53,2.18-26.45.9-10.7-1.52-20.23-5.74-28.63-9.46-6.2-2.74-12.05-5.33-17.31-6.39-7.23-1.45-14.83-1.5-22.18-1.54-9.6,0-18.65-.1-27.14-3-27.14-9.4-36.95-29.75-40.17-36.43a11,11,0,1,1,19.82-9.55c4.22,8.74,11.16,19.51,27.55,25.19,5,1.75,12.34,1.79,20.06,1.83,8,.05,17.08.1,26.4,2,7.62,1.54,14.87,4.74,21.87,7.84,7.79,3.45,15.15,6.71,22.84,7.8,6,.86,13.11,0,20.64-.95,8.63-1.07,17.55-2.18,27-1.13,8.62,1,16.69,3.89,24.5,6.73,7.52,2.73,14.62,5.31,21.59,6,6.29.58,13.39-.59,20.91-1.82,8.59-1.41,17.48-2.86,26.83-2.12a11,11,0,0,1-1.76,21.93c-6.68-.53-13.88.65-21.51,1.9C415.28,414.74,408.28,415.88,401.13,415.88Z" style="fill:#350e00"/><path d="M807,595.73a11,11,0,0,1-.86-22c6.8-.55,13.84-3,21.28-5.57,8-2.76,16.24-5.62,25.08-6.44,9.4-.86,18.31.47,26.92,1.75,7.52,1.12,14.62,2.17,20.79,1.49,7.22-.8,14.41-3.62,22-6.61s15.32-6,23.6-7.18c9.47-1.35,18.78-.59,27,.08,7.56.62,14.69,1.2,20.41.05,8.91-1.79,17-6.32,24.77-10.69,5.91-3.31,11.5-6.44,17.49-8.52,5.26-1.82,10.23-3.32,15-4.77,8.3-2.5,20.84-6.27,22.34-9.39a11,11,0,0,1,19.82,9.56c-5.71,11.83-19.66,16-35.82,20.9-4.59,1.38-9.35,2.82-14.18,4.49-4.14,1.43-8.9,4.1-13.93,6.92-8.85,5-18.89,10.59-31.19,13.06-8.76,1.77-17.8,1-26.54.32-7.75-.63-15.07-1.23-22.11-.23-5.74.82-12,3.28-18.67,5.89-8.22,3.22-17.53,6.86-27.63,8-9,1-17.89-.31-26.46-1.59-7.67-1.14-14.9-2.22-21.66-1.6-6.19.57-12.85,2.88-19.89,5.32-8.43,2.92-17.14,5.93-26.73,6.71Z" style="fill:#350e00"/><path d="M807,419.73a11,11,0,0,1-.86-22c6.8-.55,13.84-3,21.28-5.57,8-2.76,16.24-5.62,25.08-6.44,9.4-.86,18.31.47,26.92,1.75,7.52,1.12,14.62,2.17,20.79,1.49,7.22-.8,14.41-3.62,22-6.61s15.32-6,23.6-7.18c9.47-1.35,18.78-.59,27,.08,7.56.62,14.69,1.2,20.41,0,8.91-1.79,17-6.32,24.77-10.69,5.91-3.31,11.5-6.44,17.49-8.52,5.26-1.82,10.23-3.32,15-4.77,8.3-2.5,20.84-6.27,22.34-9.39a11,11,0,0,1,19.82,9.56c-5.71,11.83-19.66,16-35.82,20.9-4.59,1.38-9.35,2.82-14.18,4.49-4.14,1.43-8.9,4.1-13.93,6.92-8.85,5-18.89,10.59-31.19,13.06-8.76,1.77-17.8,1-26.54.32-7.75-.63-15.07-1.23-22.11-.23-5.74.82-12,3.28-18.67,5.89-8.22,3.22-17.53,6.86-27.63,8-9,1-17.89-.31-26.46-1.59-7.67-1.14-14.9-2.22-21.66-1.6-6.19.57-12.85,2.88-19.89,5.32-8.43,2.92-17.14,5.93-26.73,6.71Q807.4,419.73,807,419.73Z" style="fill:#350e00"/><path d="M807,239.73a11,11,0,0,1-.86-22c6.8-.55,13.84-3,21.28-5.57,8-2.76,16.24-5.62,25.08-6.44,9.4-.86,18.31.47,26.92,1.75,7.52,1.12,14.62,2.17,20.79,1.49,7.22-.8,14.41-3.62,22-6.61s15.32-6,23.6-7.18c9.47-1.35,18.78-.59,27,.08,7.56.62,14.69,1.2,20.41.05,8.91-1.79,17-6.32,24.77-10.69,5.91-3.31,11.5-6.44,17.49-8.52,5.26-1.82,10.23-3.32,15-4.77,8.3-2.5,20.84-6.27,22.34-9.39a11,11,0,0,1,19.82,9.56c-5.71,11.83-19.66,16-35.82,20.9-4.59,1.38-9.35,2.82-14.18,4.49-4.14,1.43-8.9,4.1-13.93,6.92-8.85,5-18.89,10.59-31.19,13.06-8.76,1.77-17.8,1-26.54.32-7.75-.63-15.07-1.23-22.11-.23-5.74.82-12,3.28-18.67,5.89-8.22,3.22-17.53,6.86-27.63,8-9,1-17.89-.31-26.46-1.59-7.67-1.14-14.9-2.22-21.66-1.6-6.19.57-12.85,2.88-19.89,5.32-8.43,2.92-17.14,5.93-26.73,6.71Q807.4,239.73,807,239.73Z" style="fill:#350e00"/><path d="M401.13,235.88c-1.84,0-3.68-.07-5.54-.24-9.79-.9-18.58-4.1-27.08-7.19-6.9-2.5-13.41-4.87-19.42-5.54-6.88-.76-14.16.14-21.87,1.1-8.62,1.07-17.53,2.18-26.45.9-10.7-1.52-20.23-5.74-28.63-9.46-6.2-2.74-12.05-5.33-17.31-6.39-7.23-1.45-14.83-1.5-22.18-1.54-9.6-.05-18.65-.1-27.14-3-27.14-9.4-36.95-29.75-40.17-36.43a11,11,0,1,1,19.82-9.55c4.22,8.74,11.16,19.51,27.55,25.19,5,1.75,12.34,1.79,20.06,1.83,8,0,17.08.1,26.4,2,7.62,1.54,14.87,4.74,21.87,7.84,7.79,3.45,15.15,6.71,22.84,7.8,6,.86,13.11,0,20.64-.95,8.63-1.07,17.55-2.18,27-1.13,8.62,1,16.69,3.89,24.5,6.73,7.52,2.73,14.62,5.31,21.59,5.95,6.29.58,13.39-.59,20.91-1.82,8.59-1.41,17.48-2.86,26.83-2.12a11,11,0,0,1-1.76,21.93c-6.68-.53-13.88.65-21.51,1.9C415.28,234.74,408.28,235.88,401.13,235.88Z" style="fill:#350e00"/><polygon points="1098 748 155 748 157 585 0 0 1258 12 1096 585 1098 748" style="fill:none"/></g></g></svg>