<svg xmlns="http://www.w3.org/2000/svg" viewBox="0 0 1258 748"><g id="Layer_2" data-name="Layer 2"><g id="Layer_2-2" data-name="Layer 2"><path d="M807,605.64a11,11,0,0,1-.86-22c6.8-.54,13.84-3,21.28-5.56,8-2.77,16.24-5.63,25.08-6.44,9.4-.86,18.31.46,26.92,1.74,7.52,1.12,14.62,2.18,20.79,1.49,7.22-.8,14.41-3.62,22-6.6s15.32-6,23.6-7.18c9.47-1.35,18.78-.59,27,.08,7.56.61,14.69,1.19,20.41,0,8.91-1.79,17-6.31,24.77-10.68,5.91-3.32,11.5-6.45,17.49-8.52,5.26-1.82,10.23-3.32,15-4.77,8.3-2.5,20.84-6.28,22.34-9.4a11,11,0,0,1,19.82,9.56c-5.71,11.84-19.66,16-35.82,20.91-4.59,1.38-9.35,2.81-14.18,4.48-4.14,1.44-8.9,4.11-13.93,6.93-8.85,5-18.89,10.59-31.19,13.06-8.76,1.76-17.8,1-26.54.31-7.75-.63-15.07-1.22-22.11-.22-5.74.82-12,3.28-18.67,5.88-8.22,3.22-17.53,6.87-27.63,8-9,1-17.89-.32-26.46-1.6-7.67-1.14-14.9-2.22-21.66-1.59-6.19.57-12.85,2.87-19.89,5.31-8.43,2.92-17.14,5.94-26.73,6.71C807.55,605.62,807.25,605.64,807,605.64Z" style="fill:#4edfea"/><path d="M401.13,601.79c-1.84,0-3.68-.08-5.54-.25-9.79-.9-18.58-4.09-27.08-7.18-6.9-2.51-13.41-4.87-19.42-5.54-6.88-.77-14.16.14-21.87,1.1-8.62,1.07-17.53,2.17-26.45.9-10.7-1.53-20.23-5.74-28.63-9.46-6.2-2.74-12.05-5.33-17.31-6.39-7.23-1.46-14.83-1.5-22.18-1.54-9.6-.06-18.65-.11-27.14-3-27.14-9.4-36.95-29.74-40.17-36.42a11,11,0,0,1,19.82-9.56c4.22,8.75,11.16,19.52,27.55,25.2,5,1.74,12.34,1.78,20.06,1.83,8,0,17.08.1,26.4,2,7.62,1.53,14.87,4.74,21.87,7.84,7.79,3.45,15.15,6.7,22.84,7.8,6,.85,13.11,0,20.64-1,8.63-1.07,17.55-2.18,27-1.13,8.62,1,16.69,3.89,24.5,6.73,7.52,2.73,14.62,5.32,21.59,6,6.29.58,13.39-.59,20.91-1.83,8.59-1.41,17.48-2.86,26.83-2.11a11,11,0,0,1-1.76,21.93c-6.68-.54-13.88.64-21.51,1.89C415.28,600.64,408.28,601.79,401.13,601.79Z" style="fill:#4edfea"/><path d="M813.88,400.08a11,11,0,0,1-2-21.81c1.07-.23,3.83-2.46,5.48-3.79,3.83-3.09,8.6-6.94,14.86-8.07,6.51-1.17,12.48.76,17.27,2.32a30.56,30.56,0,0,0,5.76,1.51h0c1.16-.31,3.88-2.69,5.53-4.13,3.67-3.2,7.83-6.84,13.53-8.31,6.11-1.58,12-.48,16.75.4a35.38,35.38,0,0,0,5.49.76c1.1-.75,2.9-3.94,4-5.9,1.83-3.26,3.91-6.95,7.13-9.9a48.41,48.41,0,0,1,8.9-6.08,31.9,31.9,0,0,0,5.29-3.47,11,11,0,0,1,21.46,4.81c-2,9.82-10.3,14.59-15.8,17.74a33.19,33.19,0,0,0-5,3.21,28.42,28.42,0,0,0-2.85,4.5c-2.9,5.13-6.86,12.17-14.93,15.52-6.22,2.58-12.61,1.39-17.75.44-2.6-.49-5.84-1.09-7.23-.73a30.27,30.27,0,0,0-4.55,3.58c-4,3.47-8.93,7.8-15.81,9.16-6.24,1.23-12.09-.66-16.78-2.19-2-.66-5.48-1.76-6.58-1.59-.9.27-3.34,2.24-5,3.54-3.9,3.15-8.75,7.07-15.19,8.29A11.12,11.12,0,0,1,813.88,400.08Z" style="fill:#4edfea"/><path d="M422.5,407.83a23.31,23.31,0,0,1-3.87-.32c-6.72-1.13-11.92-5.05-16.09-8.19-1.84-1.39-4.62-3.48-5.71-3.71-1.53-.29-4.95.66-7.68,1.42-5.19,1.44-11.07,3.07-17.4,1.57-7.42-1.77-12.53-6.67-16.63-10.62-1.51-1.45-3.81-3.66-4.76-4.05-1.9-.72-5.12-.8-8.25-.89-5.94-.15-13.33-.34-19.22-5.19-8-6.6-8.57-16.21-9-23.23a42.82,42.82,0,0,0-.61-6.2,11,11,0,1,1,21.49-4.72,61.69,61.69,0,0,1,1.09,9.69c.13,2.26.33,5.92.9,7.26a43.09,43.09,0,0,0,5.9.4c4.48.12,10.06.26,15.45,2.3,5.11,1.93,8.9,5.57,12.23,8.78,2.18,2.09,4.88,4.69,6.47,5.07,1,.14,4.27-.77,6.42-1.37,4.91-1.36,11-3.06,17.55-1.86,6.15,1.13,10.84,4.66,15,7.78,2.14,1.61,5.08,3.83,6.5,4.06,1.12.17,4.63-.94,6.72-1.6,4.95-1.56,11.11-3.5,17.75-2.33a11,11,0,1,1-3.82,21.66c-1.32-.24-4.79.86-7.31,1.65C431.66,406.44,427.27,407.83,422.5,407.83Z" style="fill:#4edfea"/><path d="M807.45,200.57a11,11,0,0,1-4.09-21.21c.46-.57,1.09-1.45,1.55-2.08,2.33-3.25,5.53-7.71,11.08-9.47,4.63-1.47,9.06-.62,12.64.37a22.5,22.5,0,0,1,3.83-10c2.73-3.64,6.55-5.48,9.62-7,.62-.29,1.43-.69,2.06-1a11,11,0,0,1,20.71,6.89c-1.67,8.4-8.9,11.88-13.22,14l-1.27.61c-.1.56-.2,1.17-.28,1.66-.71,4.52-1.9,12.08-8.86,16.13-6.13,3.56-12.59,1.66-16.85.39l-1.16-.33-.43.6c-2.52,3.51-6.33,8.81-13.06,10.22A11,11,0,0,1,807.45,200.57Zm-2.24-21.77h0Z" style="fill:#4edfea"/><path d="M431.33,197.11a15.17,15.17,0,0,1-4.61-.71c-7-2.24-10.14-8.4-12.18-12.48l-.55-1.08-1.59,0c-4.59-.08-12.28-.23-17.07-6.62s-2.68-13.66-1.44-18a31.86,31.86,0,0,0,.8-3.16,11,11,0,0,1,21.66-3.78,22.42,22.42,0,0,1-.42,9.7,21.34,21.34,0,0,1,9.72,2.6c4.41,2.57,6.68,6.84,8.33,10.11,3.72-1.76,8.62-3.83,14.24-2.65a11,11,0,0,1-3,21.74c-.69.26-1.77.78-2.54,1.14C439.78,195.22,435.81,197.11,431.33,197.11Zm-36.55-41.59Z" style="fill:#4edfea"/><polygon points="1098 748 155 748 157 585 0 0 1258 12 1096 585 1098 748" style="fill:none"/></g></g></svg>