<svg xmlns="http://www.w3.org/2000/svg" viewBox="0 0 1258 748"><g id="Layer_2" data-name="Layer 2"><g id="Layer_2-2" data-name="Layer 2"><path d="M642.05,21.06a4.62,4.62,0,0,1,3.47,3.47h-4.47Z" style="fill:#fdf5bd;stroke:#754c24;stroke-linecap:round;stroke-linejoin:round"/><path d="M613.71,25.4a4.62,4.62,0,0,1,3.47,3.47h-4.47Z" style="fill:#fdf5bd;stroke:#754c24;stroke-linecap:round;stroke-linejoin:round"/><path d="M641.05,24.53c7.46-1,12.31,1.16,13.73,7.52H643.29Z" style="fill:#f3f9f1;stroke:#754c24;stroke-linecap:round;stroke-linejoin:round"/><path d="M643.29,35V32.05s15.53-6.36,15.53,9.26S644.94,54,644.94,54Z" style="fill:#f3f9f1;stroke:#754c24;stroke-linecap:round;stroke-linejoin:round"/><path d="M643.29,35.8c13.63.86,12.1,25.16-1.53,24.31Q654.83,44.71,643.29,35.8Z" style="fill:#fdf5bd;stroke:#754c24;stroke-linecap:round;stroke-linejoin:round"/><path d="M608.47,31l-1.4-3.22s14.08-1.17,13.56,5.66S609.47,40.08,608.47,31Z" style="fill:#f3f9f1;stroke:#754c24;stroke-linecap:round;stroke-linejoin:round"/><path d="M609,37.85s-8.4-1.17-6.75-8.11c0,0,16.1,2.89,17.57,4.63S617.35,39,609,37.85Z" style="fill:#fdf5bd;stroke:#754c24;stroke-linecap:round;stroke-linejoin:round"/><path d="M634.52,11.32a9.42,9.42,0,0,0-9.36,0c-4,2.33-9.26,6.92-9.26,15.05,0,13.31,1.68,12,13.94,12s13.95,1.27,13.95-12C643.79,18.24,638.57,13.65,634.52,11.32Z" style="fill:#ff3c00;stroke:#754c24;stroke-linecap:round;stroke-linejoin:round"/><path d="M643.29,35.8c14.63,6.29,4.42,30-10.21,23.73C641.6,53.2,644.71,45.2,643.29,35.8Z" style="fill:#f3f9f1;stroke:#754c24;stroke-linecap:round;stroke-linejoin:round"/><path d="M643.29,35.8s6.86,31-26.69,23.44C632,56.94,641.07,49.29,643.29,35.8Z" style="fill:#fdf5bd;stroke:#754c24;stroke-linecap:round;stroke-linejoin:round"/><path d="M643.29,35.8a5.37,5.37,0,0,0-7,.88c-3.47,3.47,0,16.77-23.14,17.93C613.13,67.34,646.68,56.93,643.29,35.8Z" style="fill:#f3f9f1;stroke:#754c24;stroke-linecap:round;stroke-linejoin:round"/><path d="M636.27,36.68S625.28,54,603.87,50C610,64.88,642.38,51.58,636.27,36.68Z" style="fill:#fdf5bd;stroke:#754c24;stroke-linecap:round;stroke-linejoin:round"/><path d="M636.27,36.68s-7.83-6.89-9.84,2.31C624.67,47.1,598,42.6,603.3,49.41,612.1,60.72,639.64,40.82,636.27,36.68Z" style="fill:#f3f9f1;stroke:#754c24;stroke-linecap:round;stroke-linejoin:round"/><path d="M601.54,37.71a1.45,1.45,0,0,1,2.34-1.1c3.69,2.92,12.14,7.73,20.82-.51,2.89-2.89,5.14-1.79,5.14-1.79C630.18,51.15,601.06,52.74,601.54,37.71Z" style="fill:#fdf5bd;stroke:#754c24;stroke-linecap:round;stroke-linejoin:round"/><path d="M627.29,34.37c-5.91-4-16.23,4.05-26.17.5C601.35,46.75,627.51,46.25,627.29,34.37Z" style="fill:#f3f9f1;stroke:#754c24;stroke-linecap:round;stroke-linejoin:round"/><path d="M629.84,14.11v1.47" style="fill:#fdf5bd;stroke:#754c24;stroke-linecap:round;stroke-linejoin:round"/><path d="M624.58,14.26c0,.48-.09,1-.13,1.44" style="fill:#fdf5bd;stroke:#754c24;stroke-linecap:round;stroke-linejoin:round"/><path d="M635.1,14.26c0,.48.1,1,.14,1.44" style="fill:#fdf5bd;stroke:#754c24;stroke-linecap:round;stroke-linejoin:round"/><path d="M629.84,26.84V28.3" style="fill:#fdf5bd;stroke:#754c24;stroke-linecap:round;stroke-linejoin:round"/><path d="M623.22,26.77l.06,1.44" style="fill:#fdf5bd;stroke:#754c24;stroke-linecap:round;stroke-linejoin:round"/><path d="M636.47,26.77c0,.48,0,1-.07,1.44" style="fill:#fdf5bd;stroke:#754c24;stroke-linecap:round;stroke-linejoin:round"/><path d="M643.09,26.58c0,.45-.07.89-.13,1.34" style="fill:#fdf5bd;stroke:#754c24;stroke-linecap:round;stroke-linejoin:round"/><path d="M616.59,26.58c0,.45.08.89.13,1.34" style="fill:#fdf5bd;stroke:#754c24;stroke-linecap:round;stroke-linejoin:round"/><path d="M626.71,19.86c0,.48,0,1,0,1.46" style="fill:#fdf5bd;stroke:#754c24;stroke-linecap:round;stroke-linejoin:round"/><path d="M619.8,20c0,.46-.06.93-.08,1.39" style="fill:#fdf5bd;stroke:#754c24;stroke-linecap:round;stroke-linejoin:round"/><path d="M633.61,19.87l0,1.45" style="fill:#fdf5bd;stroke:#754c24;stroke-linecap:round;stroke-linejoin:round"/><path d="M640.52,20.05c0,.47.06.93.08,1.39" style="fill:#fdf5bd;stroke:#754c24;stroke-linecap:round;stroke-linejoin:round"/><path d="M626.85,31.89c0,.49,0,1,.07,1.46" style="fill:#fdf5bd;stroke:#754c24;stroke-linecap:round;stroke-linejoin:round"/><path d="M620.26,31.53c.07.47.15.93.23,1.39" style="fill:#fdf5bd;stroke:#754c24;stroke-linecap:round;stroke-linejoin:round"/><path d="M633.44,31.87l-.09,1.46" style="fill:#fdf5bd;stroke:#754c24;stroke-linecap:round;stroke-linejoin:round"/><path d="M640,31.48c-.08.46-.16.92-.25,1.38" style="fill:#fdf5bd;stroke:#754c24;stroke-linecap:round;stroke-linejoin:round"/><path d="M691.08,20.09a4.63,4.63,0,0,1,3.48,3.47h-4.47Z" style="fill:#fdf5bd;stroke:#754c24;stroke-linecap:round;stroke-linejoin:round"/><path d="M662.74,24.43a4.62,4.62,0,0,1,3.47,3.47h-4.47Z" style="fill:#fdf5bd;stroke:#754c24;stroke-linecap:round;stroke-linejoin:round"/><path d="M690.09,23.56c7.46-1,12.31,1.16,13.72,7.52H692.32Z" style="fill:#f3f9f1;stroke:#754c24;stroke-linecap:round;stroke-linejoin:round"/><path d="M692.32,34V31.08s15.54-6.36,15.54,9.26S694,53.06,694,53.06Z" style="fill:#f3f9f1;stroke:#754c24;stroke-linecap:round;stroke-linejoin:round"/><path d="M692.32,34.83c13.63.85,12.11,25.16-1.52,24.3Q703.85,43.72,692.32,34.83Z" style="fill:#fdf5bd;stroke:#754c24;stroke-linecap:round;stroke-linejoin:round"/><path d="M657.5,30l-1.39-3.23s14.07-1.16,13.55,5.66S658.51,39.11,657.5,30Z" style="fill:#f3f9f1;stroke:#754c24;stroke-linecap:round;stroke-linejoin:round"/><path d="M658,36.88s-8.4-1.17-6.74-8.11c0,0,16.09,2.89,17.56,4.62S666.39,38.05,658,36.88Z" style="fill:#fdf5bd;stroke:#754c24;stroke-linecap:round;stroke-linejoin:round"/><path d="M683.56,10.35a9.37,9.37,0,0,0-9.36,0c-4.05,2.33-9.26,6.91-9.26,15.05,0,13.31,1.67,12,13.94,12s13.94,1.27,13.94-12C692.82,17.26,687.61,12.68,683.56,10.35Z" style="fill:#ff3c00;stroke:#754c24;stroke-linecap:round;stroke-linejoin:round"/><path d="M692.32,34.83c14.63,6.29,4.43,30-10.2,23.73C690.63,52.23,693.74,44.23,692.32,34.83Z" style="fill:#f3f9f1;stroke:#754c24;stroke-linecap:round;stroke-linejoin:round"/><path d="M692.32,34.83s6.86,31-26.69,23.44C681,56,690.11,48.32,692.32,34.83Z" style="fill:#fdf5bd;stroke:#754c24;stroke-linecap:round;stroke-linejoin:round"/><path d="M692.32,34.83a5.37,5.37,0,0,0-7,.88c-3.47,3.47,0,16.77-23.14,17.93C662.16,66.36,695.71,56,692.32,34.83Z" style="fill:#f3f9f1;stroke:#754c24;stroke-linecap:round;stroke-linejoin:round"/><path d="M685.3,35.71s-11,17.35-32.39,13.3C659,63.91,691.42,50.6,685.3,35.71Z" style="fill:#fdf5bd;stroke:#754c24;stroke-linecap:round;stroke-linejoin:round"/><path d="M685.3,35.71s-7.83-6.89-9.83,2.31c-1.77,8.1-28.44,3.61-23.14,10.41C661.14,59.75,688.68,39.85,685.3,35.71Z" style="fill:#f3f9f1;stroke:#754c24;stroke-linecap:round;stroke-linejoin:round"/><path d="M650.58,36.74a1.44,1.44,0,0,1,2.33-1.1c3.69,2.92,12.15,7.73,20.82-.51,2.89-2.89,5.15-1.79,5.15-1.79C679.21,50.18,650.09,51.77,650.58,36.74Z" style="fill:#fdf5bd;stroke:#754c24;stroke-linecap:round;stroke-linejoin:round"/><path d="M676.32,33.4c-5.91-4-16.23,4.05-26.17.5C650.38,45.78,676.55,45.28,676.32,33.4Z" style="fill:#f3f9f1;stroke:#754c24;stroke-linecap:round;stroke-linejoin:round"/><path d="M678.88,13.14v1.47" style="fill:#fdf5bd;stroke:#754c24;stroke-linecap:round;stroke-linejoin:round"/><path d="M673.62,13.29c0,.48-.09,1-.13,1.44" style="fill:#fdf5bd;stroke:#754c24;stroke-linecap:round;stroke-linejoin:round"/><path d="M684.14,13.29c.05.48.09,1,.13,1.44" style="fill:#fdf5bd;stroke:#754c24;stroke-linecap:round;stroke-linejoin:round"/><path d="M678.88,25.87v1.46" style="fill:#fdf5bd;stroke:#754c24;stroke-linecap:round;stroke-linejoin:round"/><path d="M672.25,25.8c0,.48,0,1,.07,1.44" style="fill:#fdf5bd;stroke:#754c24;stroke-linecap:round;stroke-linejoin:round"/><path d="M685.5,25.8c0,.48,0,1-.06,1.44" style="fill:#fdf5bd;stroke:#754c24;stroke-linecap:round;stroke-linejoin:round"/><path d="M692.13,25.61c0,.44-.08.89-.13,1.34" style="fill:#fdf5bd;stroke:#754c24;stroke-linecap:round;stroke-linejoin:round"/><path d="M665.63,25.61c0,.44.08.89.13,1.34" style="fill:#fdf5bd;stroke:#754c24;stroke-linecap:round;stroke-linejoin:round"/><path d="M675.74,18.89l0,1.45" style="fill:#fdf5bd;stroke:#754c24;stroke-linecap:round;stroke-linejoin:round"/><path d="M668.83,19.06c0,.46-.06.93-.08,1.39" style="fill:#fdf5bd;stroke:#754c24;stroke-linecap:round;stroke-linejoin:round"/><path d="M682.65,18.89l0,1.46" style="fill:#fdf5bd;stroke:#754c24;stroke-linecap:round;stroke-linejoin:round"/><path d="M689.55,19.08c0,.46.07.92.09,1.39" style="fill:#fdf5bd;stroke:#754c24;stroke-linecap:round;stroke-linejoin:round"/><path d="M675.88,30.92c0,.48,0,1,.08,1.46" style="fill:#fdf5bd;stroke:#754c24;stroke-linecap:round;stroke-linejoin:round"/><path d="M669.29,30.56c.07.46.15.93.24,1.39" style="fill:#fdf5bd;stroke:#754c24;stroke-linecap:round;stroke-linejoin:round"/><path d="M682.47,30.9c0,.49-.05,1-.08,1.46" style="fill:#fdf5bd;stroke:#754c24;stroke-linecap:round;stroke-linejoin:round"/><path d="M689.06,30.51c-.07.46-.16.92-.24,1.38" style="fill:#fdf5bd;stroke:#754c24;stroke-linecap:round;stroke-linejoin:round"/><path d="M740.12,23a4.62,4.62,0,0,1,3.47,3.47h-4.47Z" style="fill:#fdf5bd;stroke:#754c24;stroke-linecap:round;stroke-linejoin:round"/><path d="M711.78,27.35a4.6,4.6,0,0,1,3.47,3.47h-4.47Z" style="fill:#fdf5bd;stroke:#754c24;stroke-linecap:round;stroke-linejoin:round"/><path d="M739.12,26.48c7.46-1,12.31,1.16,13.72,7.52H741.36Z" style="fill:#f3f9f1;stroke:#754c24;stroke-linecap:round;stroke-linejoin:round"/><path d="M741.36,36.94V34s15.53-6.37,15.53,9.25S743,56,743,56Z" style="fill:#f3f9f1;stroke:#754c24;stroke-linecap:round;stroke-linejoin:round"/><path d="M741.36,37.74c13.63.86,12.1,25.17-1.53,24.31Q752.9,46.65,741.36,37.74Z" style="fill:#fdf5bd;stroke:#754c24;stroke-linecap:round;stroke-linejoin:round"/><path d="M706.54,33l-1.4-3.23s14.07-1.16,13.55,5.66S707.54,42,706.54,33Z" style="fill:#f3f9f1;stroke:#754c24;stroke-linecap:round;stroke-linejoin:round"/><path d="M707,39.8s-8.4-1.18-6.75-8.12c0,0,16.1,2.9,17.56,4.63S715.42,41,707,39.8Z" style="fill:#fdf5bd;stroke:#754c24;stroke-linecap:round;stroke-linejoin:round"/><path d="M732.59,13.26a9.42,9.42,0,0,0-9.36,0C719.18,15.6,714,20.18,714,28.32c0,13.3,1.67,12,13.94,12s13.94,1.26,13.94-12C741.85,20.18,736.64,15.6,732.59,13.26Z" style="fill:#ff3c00;stroke:#754c24;stroke-linecap:round;stroke-linejoin:round"/><path d="M741.36,37.74c14.62,6.29,4.42,30-10.21,23.73C739.67,55.14,742.78,47.14,741.36,37.74Z" style="fill:#f3f9f1;stroke:#754c24;stroke-linecap:round;stroke-linejoin:round"/><path d="M741.36,37.74s6.86,31-26.69,23.44C730.06,58.88,739.14,51.23,741.36,37.74Z" style="fill:#fdf5bd;stroke:#754c24;stroke-linecap:round;stroke-linejoin:round"/><path d="M741.36,37.74a5.38,5.38,0,0,0-7,.88c-3.47,3.48,0,16.78-23.13,17.94C711.2,69.28,744.75,58.87,741.36,37.74Z" style="fill:#f3f9f1;stroke:#754c24;stroke-linecap:round;stroke-linejoin:round"/><path d="M734.33,38.62s-11,17.36-32.39,13.31C708.06,66.82,740.45,53.52,734.33,38.62Z" style="fill:#fdf5bd;stroke:#754c24;stroke-linecap:round;stroke-linejoin:round"/><path d="M734.33,38.62s-7.82-6.88-9.83,2.32c-1.76,8.1-28.43,3.61-23.14,10.41C710.17,62.66,737.71,42.77,734.33,38.62Z" style="fill:#f3f9f1;stroke:#754c24;stroke-linecap:round;stroke-linejoin:round"/><path d="M699.61,39.65a1.45,1.45,0,0,1,2.34-1.1c3.68,2.93,12.14,7.74,20.82-.5,2.89-2.9,5.14-1.79,5.14-1.79C728.25,53.09,699.12,54.69,699.61,39.65Z" style="fill:#fdf5bd;stroke:#754c24;stroke-linecap:round;stroke-linejoin:round"/><path d="M725.35,36.31c-5.9-4-16.22,4.06-26.16.51C699.42,48.7,725.58,48.19,725.35,36.31Z" style="fill:#f3f9f1;stroke:#754c24;stroke-linecap:round;stroke-linejoin:round"/><path d="M727.91,16.06v1.46" style="fill:#fdf5bd;stroke:#754c24;stroke-linecap:round;stroke-linejoin:round"/><path d="M722.65,16.21c0,.48-.09,1-.13,1.44" style="fill:#fdf5bd;stroke:#754c24;stroke-linecap:round;stroke-linejoin:round"/><path d="M733.17,16.21c.05.48.09,1,.13,1.44" style="fill:#fdf5bd;stroke:#754c24;stroke-linecap:round;stroke-linejoin:round"/><path d="M727.91,28.78v1.47" style="fill:#fdf5bd;stroke:#754c24;stroke-linecap:round;stroke-linejoin:round"/><path d="M721.29,28.72l.06,1.43" style="fill:#fdf5bd;stroke:#754c24;stroke-linecap:round;stroke-linejoin:round"/><path d="M734.54,28.72c0,.48,0,1-.07,1.43" style="fill:#fdf5bd;stroke:#754c24;stroke-linecap:round;stroke-linejoin:round"/><path d="M741.16,28.52c0,.45-.08.9-.13,1.35" style="fill:#fdf5bd;stroke:#754c24;stroke-linecap:round;stroke-linejoin:round"/><path d="M714.66,28.52c0,.45.08.9.13,1.35" style="fill:#fdf5bd;stroke:#754c24;stroke-linecap:round;stroke-linejoin:round"/><path d="M724.77,21.8c0,.49,0,1,0,1.46" style="fill:#fdf5bd;stroke:#754c24;stroke-linecap:round;stroke-linejoin:round"/><path d="M717.87,22c0,.47-.06.93-.08,1.4" style="fill:#fdf5bd;stroke:#754c24;stroke-linecap:round;stroke-linejoin:round"/><path d="M731.68,21.81l0,1.46" style="fill:#fdf5bd;stroke:#754c24;stroke-linecap:round;stroke-linejoin:round"/><path d="M738.58,22q.06.69.09,1.38" style="fill:#fdf5bd;stroke:#754c24;stroke-linecap:round;stroke-linejoin:round"/><path d="M724.92,33.83c0,.49,0,1,.07,1.46" style="fill:#fdf5bd;stroke:#754c24;stroke-linecap:round;stroke-linejoin:round"/><path d="M718.33,33.47c.07.47.15.93.23,1.4" style="fill:#fdf5bd;stroke:#754c24;stroke-linecap:round;stroke-linejoin:round"/><path d="M731.51,33.82l-.09,1.45" style="fill:#fdf5bd;stroke:#754c24;stroke-linecap:round;stroke-linejoin:round"/><path d="M738.1,33.42c-.08.47-.16.93-.25,1.39" style="fill:#fdf5bd;stroke:#754c24;stroke-linecap:round;stroke-linejoin:round"/><path d="M789.15,30.79a4.59,4.59,0,0,1,3.47,3.47h-4.46Z" style="fill:#fdf5bd;stroke:#754c24;stroke-linecap:round;stroke-linejoin:round"/><path d="M760.81,35.12a4.62,4.62,0,0,1,3.47,3.47h-4.47Z" style="fill:#fdf5bd;stroke:#754c24;stroke-linecap:round;stroke-linejoin:round"/><path d="M788.16,34.26c7.46-1,12.31,1.16,13.72,7.52H790.39Z" style="fill:#f3f9f1;stroke:#754c24;stroke-linecap:round;stroke-linejoin:round"/><path d="M790.39,44.72V41.78s15.54-6.37,15.54,9.25-13.88,12.73-13.88,12.73Z" style="fill:#f3f9f1;stroke:#754c24;stroke-linecap:round;stroke-linejoin:round"/><path d="M790.39,45.52c13.63.86,12.11,25.17-1.53,24.31Q801.93,54.43,790.39,45.52Z" style="fill:#fdf5bd;stroke:#754c24;stroke-linecap:round;stroke-linejoin:round"/><path d="M755.57,40.73l-1.39-3.23s14.07-1.16,13.55,5.66S756.58,49.8,755.57,40.73Z" style="fill:#f3f9f1;stroke:#754c24;stroke-linecap:round;stroke-linejoin:round"/><path d="M756.05,47.58s-8.4-1.18-6.74-8.12c0,0,16.09,2.89,17.56,4.63S764.46,48.75,756.05,47.58Z" style="fill:#fdf5bd;stroke:#754c24;stroke-linecap:round;stroke-linejoin:round"/><path d="M781.63,21a9.42,9.42,0,0,0-9.36,0C768.22,23.38,763,28,763,36.1c0,13.3,1.67,12,13.94,12s13.94,1.26,13.94-12C790.89,28,785.68,23.38,781.63,21Z" style="fill:#ff3c00;stroke:#754c24;stroke-linecap:round;stroke-linejoin:round"/><path d="M790.39,45.52c14.63,6.29,4.43,30-10.2,23.73C788.7,62.92,791.81,54.92,790.39,45.52Z" style="fill:#f3f9f1;stroke:#754c24;stroke-linecap:round;stroke-linejoin:round"/><path d="M790.39,45.52s6.86,31-26.69,23.44C779.09,66.66,788.18,59,790.39,45.52Z" style="fill:#fdf5bd;stroke:#754c24;stroke-linecap:round;stroke-linejoin:round"/><path d="M790.39,45.52a5.37,5.37,0,0,0-7,.88c-3.47,3.47,0,16.78-23.14,17.93C760.23,77.06,793.78,66.65,790.39,45.52Z" style="fill:#f3f9f1;stroke:#754c24;stroke-linecap:round;stroke-linejoin:round"/><path d="M783.37,46.4s-11,17.36-32.39,13.31C757.1,74.6,789.49,61.3,783.37,46.4Z" style="fill:#fdf5bd;stroke:#754c24;stroke-linecap:round;stroke-linejoin:round"/><path d="M783.37,46.4s-7.83-6.88-9.83,2.32c-1.77,8.1-28.44,3.61-23.14,10.41C759.21,70.44,786.75,50.54,783.37,46.4Z" style="fill:#f3f9f1;stroke:#754c24;stroke-linecap:round;stroke-linejoin:round"/><path d="M748.65,47.43a1.45,1.45,0,0,1,2.33-1.1c3.69,2.92,12.14,7.74,20.82-.51C774.69,42.93,777,44,777,44,777.28,60.87,748.16,62.46,748.65,47.43Z" style="fill:#fdf5bd;stroke:#754c24;stroke-linecap:round;stroke-linejoin:round"/><path d="M774.39,44.09c-5.91-4-16.23,4.06-26.17.5C748.45,56.48,774.62,56,774.39,44.09Z" style="fill:#f3f9f1;stroke:#754c24;stroke-linecap:round;stroke-linejoin:round"/><path d="M777,23.84V25.3" style="fill:#fdf5bd;stroke:#754c24;stroke-linecap:round;stroke-linejoin:round"/><path d="M771.69,24c-.05.48-.09,1-.13,1.45" style="fill:#fdf5bd;stroke:#754c24;stroke-linecap:round;stroke-linejoin:round"/><path d="M782.21,24c0,.48.09,1,.13,1.45" style="fill:#fdf5bd;stroke:#754c24;stroke-linecap:round;stroke-linejoin:round"/><path d="M777,36.56V38" style="fill:#fdf5bd;stroke:#754c24;stroke-linecap:round;stroke-linejoin:round"/><path d="M770.32,36.5c0,.47,0,1,.07,1.43" style="fill:#fdf5bd;stroke:#754c24;stroke-linecap:round;stroke-linejoin:round"/><path d="M783.57,36.5l-.06,1.43" style="fill:#fdf5bd;stroke:#754c24;stroke-linecap:round;stroke-linejoin:round"/><path d="M790.2,36.3c0,.45-.08.9-.13,1.34" style="fill:#fdf5bd;stroke:#754c24;stroke-linecap:round;stroke-linejoin:round"/><path d="M763.7,36.3c0,.45.08.9.13,1.34" style="fill:#fdf5bd;stroke:#754c24;stroke-linecap:round;stroke-linejoin:round"/><path d="M773.81,29.58l0,1.46" style="fill:#fdf5bd;stroke:#754c24;stroke-linecap:round;stroke-linejoin:round"/><path d="M766.9,29.75c0,.47-.06.93-.08,1.4" style="fill:#fdf5bd;stroke:#754c24;stroke-linecap:round;stroke-linejoin:round"/><path d="M780.71,29.59c0,.48,0,1,0,1.45" style="fill:#fdf5bd;stroke:#754c24;stroke-linecap:round;stroke-linejoin:round"/><path d="M787.62,29.78c0,.46.06.92.09,1.38" style="fill:#fdf5bd;stroke:#754c24;stroke-linecap:round;stroke-linejoin:round"/><path d="M774,41.61c0,.49,0,1,.08,1.46" style="fill:#fdf5bd;stroke:#754c24;stroke-linecap:round;stroke-linejoin:round"/><path d="M767.36,41.25c.07.47.15.93.24,1.4" style="fill:#fdf5bd;stroke:#754c24;stroke-linecap:round;stroke-linejoin:round"/><path d="M780.54,41.6c0,.48,0,1-.09,1.45" style="fill:#fdf5bd;stroke:#754c24;stroke-linecap:round;stroke-linejoin:round"/><path d="M787.13,41.2c-.07.46-.16.92-.25,1.39" style="fill:#fdf5bd;stroke:#754c24;stroke-linecap:round;stroke-linejoin:round"/><path d="M593,24a4.62,4.62,0,0,1,3.47,3.47H592Z" style="fill:#fdf5bd;stroke:#754c24;stroke-linecap:round;stroke-linejoin:round"/><path d="M564.67,28.32a4.62,4.62,0,0,1,3.47,3.47h-4.46Z" style="fill:#fdf5bd;stroke:#754c24;stroke-linecap:round;stroke-linejoin:round"/><path d="M592,27.45c7.46-1,12.31,1.16,13.72,7.52H594.25Z" style="fill:#f3f9f1;stroke:#754c24;stroke-linecap:round;stroke-linejoin:round"/><path d="M594.25,37.91V35s15.54-6.36,15.54,9.25S595.91,57,595.91,57Z" style="fill:#f3f9f1;stroke:#754c24;stroke-linecap:round;stroke-linejoin:round"/><path d="M594.25,38.72c13.63.85,12.11,25.16-1.52,24.3Q605.8,47.61,594.25,38.72Z" style="fill:#fdf5bd;stroke:#754c24;stroke-linecap:round;stroke-linejoin:round"/><path d="M559.44,33.92,558,30.69s14.07-1.16,13.55,5.66S560.44,43,559.44,33.92Z" style="fill:#f3f9f1;stroke:#754c24;stroke-linecap:round;stroke-linejoin:round"/><path d="M559.92,40.77s-8.41-1.17-6.75-8.11c0,0,16.09,2.89,17.56,4.62S568.32,41.94,559.92,40.77Z" style="fill:#fdf5bd;stroke:#754c24;stroke-linecap:round;stroke-linejoin:round"/><path d="M585.49,14.24a9.37,9.37,0,0,0-9.36,0c-4,2.33-9.26,6.91-9.26,15.05,0,13.31,1.67,12,13.94,12s13.94,1.27,13.94-12C594.75,21.15,589.54,16.57,585.49,14.24Z" style="fill:#ff3c00;stroke:#754c24;stroke-linecap:round;stroke-linejoin:round"/><path d="M594.25,38.72c14.63,6.29,4.43,30-10.2,23.73C592.57,56.12,595.67,48.12,594.25,38.72Z" style="fill:#f3f9f1;stroke:#754c24;stroke-linecap:round;stroke-linejoin:round"/><path d="M594.25,38.72s6.86,31-26.69,23.44C583,59.86,592,52.21,594.25,38.72Z" style="fill:#fdf5bd;stroke:#754c24;stroke-linecap:round;stroke-linejoin:round"/><path d="M594.25,38.72a5.37,5.37,0,0,0-7,.88c-3.47,3.47,0,16.77-23.14,17.93C564.09,70.25,597.64,59.84,594.25,38.72Z" style="fill:#f3f9f1;stroke:#754c24;stroke-linecap:round;stroke-linejoin:round"/><path d="M587.23,39.6s-11,17.35-32.39,13.3C561,67.8,593.35,54.49,587.23,39.6Z" style="fill:#fdf5bd;stroke:#754c24;stroke-linecap:round;stroke-linejoin:round"/><path d="M587.23,39.6s-7.83-6.89-9.83,2.31C575.63,50,549,45.52,554.26,52.32,563.07,63.64,590.61,43.74,587.23,39.6Z" style="fill:#f3f9f1;stroke:#754c24;stroke-linecap:round;stroke-linejoin:round"/><path d="M552.51,40.63a1.45,1.45,0,0,1,2.34-1.1c3.68,2.92,12.14,7.73,20.81-.51,2.89-2.89,5.15-1.79,5.15-1.79C581.15,54.07,552,55.66,552.51,40.63Z" style="fill:#fdf5bd;stroke:#754c24;stroke-linecap:round;stroke-linejoin:round"/><path d="M578.25,37.28c-5.91-4-16.23,4.06-26.16.51C552.31,49.67,578.48,49.17,578.25,37.28Z" style="fill:#f3f9f1;stroke:#754c24;stroke-linecap:round;stroke-linejoin:round"/><path d="M580.81,17v1.46" style="fill:#fdf5bd;stroke:#754c24;stroke-linecap:round;stroke-linejoin:round"/><path d="M575.55,17.18c0,.48-.09,1-.13,1.44" style="fill:#fdf5bd;stroke:#754c24;stroke-linecap:round;stroke-linejoin:round"/><path d="M586.07,17.18c0,.48.09,1,.13,1.44" style="fill:#fdf5bd;stroke:#754c24;stroke-linecap:round;stroke-linejoin:round"/><path d="M580.81,29.76v1.46" style="fill:#fdf5bd;stroke:#754c24;stroke-linecap:round;stroke-linejoin:round"/><path d="M574.18,29.69c0,.48,0,1,.07,1.43" style="fill:#fdf5bd;stroke:#754c24;stroke-linecap:round;stroke-linejoin:round"/><path d="M587.43,29.69c0,.48,0,1-.06,1.43" style="fill:#fdf5bd;stroke:#754c24;stroke-linecap:round;stroke-linejoin:round"/><path d="M594.06,29.5c0,.44-.08.89-.13,1.34" style="fill:#fdf5bd;stroke:#754c24;stroke-linecap:round;stroke-linejoin:round"/><path d="M567.56,29.5c0,.44.08.89.13,1.34" style="fill:#fdf5bd;stroke:#754c24;stroke-linecap:round;stroke-linejoin:round"/><path d="M577.67,22.77l0,1.46" style="fill:#fdf5bd;stroke:#754c24;stroke-linecap:round;stroke-linejoin:round"/><path d="M570.77,23c0,.46-.07.93-.09,1.39" style="fill:#fdf5bd;stroke:#754c24;stroke-linecap:round;stroke-linejoin:round"/><path d="M584.58,22.78l0,1.46" style="fill:#fdf5bd;stroke:#754c24;stroke-linecap:round;stroke-linejoin:round"/><path d="M591.48,23c0,.46.07.92.09,1.39" style="fill:#fdf5bd;stroke:#754c24;stroke-linecap:round;stroke-linejoin:round"/><path d="M577.81,34.81c0,.48.05,1,.08,1.45" style="fill:#fdf5bd;stroke:#754c24;stroke-linecap:round;stroke-linejoin:round"/><path d="M571.22,34.45c.08.46.15.93.24,1.39" style="fill:#fdf5bd;stroke:#754c24;stroke-linecap:round;stroke-linejoin:round"/><path d="M584.4,34.79c0,.48,0,1-.08,1.45" style="fill:#fdf5bd;stroke:#754c24;stroke-linecap:round;stroke-linejoin:round"/><path d="M591,34.4q-.11.69-.24,1.38" style="fill:#fdf5bd;stroke:#754c24;stroke-linecap:round;stroke-linejoin:round"/><path d="M544,25.44a4.62,4.62,0,0,1,3.47,3.47H543Z" style="fill:#fdf5bd;stroke:#754c24;stroke-linecap:round;stroke-linejoin:round"/><path d="M515.64,29.78a4.6,4.6,0,0,1,3.47,3.47h-4.47Z" style="fill:#fdf5bd;stroke:#754c24;stroke-linecap:round;stroke-linejoin:round"/><path d="M543,28.91c7.47-1,12.32,1.16,13.73,7.52H545.22Z" style="fill:#f3f9f1;stroke:#754c24;stroke-linecap:round;stroke-linejoin:round"/><path d="M545.22,39.37V36.43s15.54-6.36,15.54,9.25-13.89,12.73-13.89,12.73Z" style="fill:#f3f9f1;stroke:#754c24;stroke-linecap:round;stroke-linejoin:round"/><path d="M545.22,40.18c13.63.85,12.1,25.16-1.53,24.3Q556.75,49.08,545.22,40.18Z" style="fill:#fdf5bd;stroke:#754c24;stroke-linecap:round;stroke-linejoin:round"/><path d="M510.4,35.38,509,32.15s14.08-1.16,13.56,5.66S511.4,44.45,510.4,35.38Z" style="fill:#f3f9f1;stroke:#754c24;stroke-linecap:round;stroke-linejoin:round"/><path d="M510.88,42.23s-8.4-1.17-6.75-8.12c0,0,16.1,2.9,17.57,4.63S519.28,43.4,510.88,42.23Z" style="fill:#fdf5bd;stroke:#754c24;stroke-linecap:round;stroke-linejoin:round"/><path d="M536.45,15.7a9.37,9.37,0,0,0-9.36,0c-4.05,2.33-9.26,6.91-9.26,15.05,0,13.31,1.68,12,13.94,12s14,1.27,14-12C545.72,22.61,540.51,18,536.45,15.7Z" style="fill:#ff3c00;stroke:#754c24;stroke-linecap:round;stroke-linejoin:round"/><path d="M545.22,40.18c14.63,6.29,4.42,30-10.2,23.72C543.53,57.58,546.64,49.58,545.22,40.18Z" style="fill:#f3f9f1;stroke:#754c24;stroke-linecap:round;stroke-linejoin:round"/><path d="M545.22,40.18s6.86,30.95-26.69,23.43C533.92,61.32,543,53.66,545.22,40.18Z" style="fill:#fdf5bd;stroke:#754c24;stroke-linecap:round;stroke-linejoin:round"/><path d="M545.22,40.18a5.37,5.37,0,0,0-7,.88c-3.47,3.47,0,16.77-23.14,17.93C515.06,71.71,548.61,61.3,545.22,40.18Z" style="fill:#f3f9f1;stroke:#754c24;stroke-linecap:round;stroke-linejoin:round"/><path d="M538.2,41.06s-11,17.35-32.4,13.3C511.92,69.26,544.31,56,538.2,41.06Z" style="fill:#fdf5bd;stroke:#754c24;stroke-linecap:round;stroke-linejoin:round"/><path d="M538.2,41.06s-7.83-6.89-9.84,2.31c-1.76,8.1-28.43,3.61-23.13,10.41C514,65.09,541.57,45.2,538.2,41.06Z" style="fill:#f3f9f1;stroke:#754c24;stroke-linecap:round;stroke-linejoin:round"/><path d="M503.47,42.09A1.45,1.45,0,0,1,505.81,41c3.69,2.93,12.14,7.74,20.82-.5,2.89-2.89,5.14-1.79,5.14-1.79C532.11,55.52,503,57.12,503.47,42.09Z" style="fill:#fdf5bd;stroke:#754c24;stroke-linecap:round;stroke-linejoin:round"/><path d="M529.22,38.74c-5.91-4-16.23,4.06-26.17.51C503.28,51.13,529.44,50.63,529.22,38.74Z" style="fill:#f3f9f1;stroke:#754c24;stroke-linecap:round;stroke-linejoin:round"/><path d="M531.77,18.49V20" style="fill:#fdf5bd;stroke:#754c24;stroke-linecap:round;stroke-linejoin:round"/><path d="M526.51,18.64c0,.48-.09,1-.13,1.44" style="fill:#fdf5bd;stroke:#754c24;stroke-linecap:round;stroke-linejoin:round"/><path d="M537,18.64c0,.48.09,1,.13,1.44" style="fill:#fdf5bd;stroke:#754c24;stroke-linecap:round;stroke-linejoin:round"/><path d="M531.77,31.21v1.47" style="fill:#fdf5bd;stroke:#754c24;stroke-linecap:round;stroke-linejoin:round"/><path d="M525.15,31.15l.06,1.43" style="fill:#fdf5bd;stroke:#754c24;stroke-linecap:round;stroke-linejoin:round"/><path d="M538.4,31.15c0,.48,0,1-.07,1.43" style="fill:#fdf5bd;stroke:#754c24;stroke-linecap:round;stroke-linejoin:round"/><path d="M545,31c0,.45-.08.9-.14,1.35" style="fill:#fdf5bd;stroke:#754c24;stroke-linecap:round;stroke-linejoin:round"/><path d="M518.52,31c0,.45.08.9.14,1.35" style="fill:#fdf5bd;stroke:#754c24;stroke-linecap:round;stroke-linejoin:round"/><path d="M528.64,24.23l0,1.46" style="fill:#fdf5bd;stroke:#754c24;stroke-linecap:round;stroke-linejoin:round"/><path d="M521.73,24.4c0,.47-.06.93-.08,1.4" style="fill:#fdf5bd;stroke:#754c24;stroke-linecap:round;stroke-linejoin:round"/><path d="M535.54,24.24l0,1.46" style="fill:#fdf5bd;stroke:#754c24;stroke-linecap:round;stroke-linejoin:round"/><path d="M542.45,24.43c0,.46.06.92.08,1.38" style="fill:#fdf5bd;stroke:#754c24;stroke-linecap:round;stroke-linejoin:round"/><path d="M528.78,36.26c0,.49.05,1,.07,1.46" style="fill:#fdf5bd;stroke:#754c24;stroke-linecap:round;stroke-linejoin:round"/><path d="M522.19,35.91c.07.46.15.93.23,1.39" style="fill:#fdf5bd;stroke:#754c24;stroke-linecap:round;stroke-linejoin:round"/><path d="M535.37,36.25l-.09,1.45" style="fill:#fdf5bd;stroke:#754c24;stroke-linecap:round;stroke-linejoin:round"/><path d="M542,35.85c-.08.47-.16.93-.25,1.39" style="fill:#fdf5bd;stroke:#754c24;stroke-linecap:round;stroke-linejoin:round"/><path d="M495,32.24a4.62,4.62,0,0,1,3.47,3.47H494Z" style="fill:#fdf5bd;stroke:#754c24;stroke-linecap:round;stroke-linejoin:round"/><path d="M466.6,36.58a4.61,4.61,0,0,1,3.47,3.47h-4.46Z" style="fill:#fdf5bd;stroke:#754c24;stroke-linecap:round;stroke-linejoin:round"/><path d="M494,35.71c7.46-1,12.31,1.17,13.72,7.52H496.18Z" style="fill:#f3f9f1;stroke:#754c24;stroke-linecap:round;stroke-linejoin:round"/><path d="M496.18,46.18v-3s15.54-6.36,15.54,9.26-13.88,12.72-13.88,12.72Z" style="fill:#f3f9f1;stroke:#754c24;stroke-linecap:round;stroke-linejoin:round"/><path d="M496.18,47c13.63.86,12.11,25.16-1.52,24.31Q507.73,55.89,496.18,47Z" style="fill:#fdf5bd;stroke:#754c24;stroke-linecap:round;stroke-linejoin:round"/><path d="M461.37,42.19,460,39s14.07-1.17,13.55,5.66S462.37,51.26,461.37,42.19Z" style="fill:#f3f9f1;stroke:#754c24;stroke-linecap:round;stroke-linejoin:round"/><path d="M461.85,49s-8.41-1.17-6.75-8.11c0,0,16.09,2.89,17.56,4.63S470.25,50.21,461.85,49Z" style="fill:#fdf5bd;stroke:#754c24;stroke-linecap:round;stroke-linejoin:round"/><path d="M487.42,22.5a9.42,9.42,0,0,0-9.36,0c-4.05,2.33-9.26,6.92-9.26,15,0,13.31,1.67,12,13.94,12s13.94,1.27,13.94-12C496.68,29.42,491.47,24.83,487.42,22.5Z" style="fill:#ff3c00;stroke:#754c24;stroke-linecap:round;stroke-linejoin:round"/><path d="M496.18,47c14.63,6.29,4.43,30-10.2,23.73C494.5,64.38,497.6,56.38,496.18,47Z" style="fill:#f3f9f1;stroke:#754c24;stroke-linecap:round;stroke-linejoin:round"/><path d="M496.18,47s6.86,31-26.68,23.44C484.88,68.12,494,60.47,496.18,47Z" style="fill:#fdf5bd;stroke:#754c24;stroke-linecap:round;stroke-linejoin:round"/><path d="M496.18,47a5.37,5.37,0,0,0-7,.88c-3.47,3.47,0,16.78-23.14,17.93C466,78.52,499.57,68.11,496.18,47Z" style="fill:#f3f9f1;stroke:#754c24;stroke-linecap:round;stroke-linejoin:round"/><path d="M489.16,47.86s-11,17.35-32.39,13.31C462.89,76.06,495.28,62.76,489.16,47.86Z" style="fill:#fdf5bd;stroke:#754c24;stroke-linecap:round;stroke-linejoin:round"/><path d="M489.16,47.86s-7.83-6.88-9.83,2.32c-1.77,8.1-28.43,3.61-23.14,10.41C465,71.9,492.54,52,489.16,47.86Z" style="fill:#f3f9f1;stroke:#754c24;stroke-linecap:round;stroke-linejoin:round"/><path d="M454.44,48.89a1.45,1.45,0,0,1,2.34-1.1c3.68,2.92,12.14,7.74,20.81-.51,2.9-2.89,5.15-1.78,5.15-1.78C483.08,62.33,454,63.92,454.44,48.89Z" style="fill:#fdf5bd;stroke:#754c24;stroke-linecap:round;stroke-linejoin:round"/><path d="M480.18,45.55c-5.91-4-16.23,4.06-26.16.5C454.24,57.94,480.41,57.43,480.18,45.55Z" style="fill:#f3f9f1;stroke:#754c24;stroke-linecap:round;stroke-linejoin:round"/><path d="M482.74,25.29v1.47" style="fill:#fdf5bd;stroke:#754c24;stroke-linecap:round;stroke-linejoin:round"/><path d="M477.48,25.44c-.05.48-.09,1-.13,1.45" style="fill:#fdf5bd;stroke:#754c24;stroke-linecap:round;stroke-linejoin:round"/><path d="M488,25.44c.05.48.09,1,.13,1.45" style="fill:#fdf5bd;stroke:#754c24;stroke-linecap:round;stroke-linejoin:round"/><path d="M482.74,38v1.46" style="fill:#fdf5bd;stroke:#754c24;stroke-linecap:round;stroke-linejoin:round"/><path d="M476.11,38c0,.48,0,1,.07,1.44" style="fill:#fdf5bd;stroke:#754c24;stroke-linecap:round;stroke-linejoin:round"/><path d="M489.37,38c0,.48,0,1-.07,1.44" style="fill:#fdf5bd;stroke:#754c24;stroke-linecap:round;stroke-linejoin:round"/><path d="M496,37.76c0,.45-.08.9-.13,1.34" style="fill:#fdf5bd;stroke:#754c24;stroke-linecap:round;stroke-linejoin:round"/><path d="M469.49,37.76c0,.45.08.9.13,1.34" style="fill:#fdf5bd;stroke:#754c24;stroke-linecap:round;stroke-linejoin:round"/><path d="M479.6,31c0,.49,0,1,0,1.46" style="fill:#fdf5bd;stroke:#754c24;stroke-linecap:round;stroke-linejoin:round"/><path d="M472.7,31.21c0,.47-.07.93-.09,1.39" style="fill:#fdf5bd;stroke:#754c24;stroke-linecap:round;stroke-linejoin:round"/><path d="M486.51,31.05l0,1.45" style="fill:#fdf5bd;stroke:#754c24;stroke-linecap:round;stroke-linejoin:round"/><path d="M493.41,31.24q.06.69.09,1.38" style="fill:#fdf5bd;stroke:#754c24;stroke-linecap:round;stroke-linejoin:round"/><path d="M479.75,43.07c0,.49,0,1,.07,1.46" style="fill:#fdf5bd;stroke:#754c24;stroke-linecap:round;stroke-linejoin:round"/><path d="M473.15,42.71c.08.47.15.93.24,1.4" style="fill:#fdf5bd;stroke:#754c24;stroke-linecap:round;stroke-linejoin:round"/><path d="M486.33,43.05c0,.49-.05,1-.08,1.46" style="fill:#fdf5bd;stroke:#754c24;stroke-linecap:round;stroke-linejoin:round"/><path d="M492.92,42.66c-.07.46-.15.92-.24,1.39" style="fill:#fdf5bd;stroke:#754c24;stroke-linecap:round;stroke-linejoin:round"/><path d="M825.22,46.44a6,6,0,0,1,4.49,4.48h-5.78Z" style="fill:#fdf5bd;stroke:#754c24;stroke-linecap:round;stroke-linejoin:round"/><path d="M788.58,52.05a6,6,0,0,1,4.48,4.48h-5.77Z" style="fill:#fdf5bd;stroke:#754c24;stroke-linecap:round;stroke-linejoin:round"/><path d="M823.93,50.92c9.65-1.3,15.92,1.51,17.74,9.73H826.82Z" style="fill:#f3f9f1;stroke:#754c24;stroke-linecap:round;stroke-linejoin:round"/><path d="M826.82,64.45v-3.8s20.09-8.23,20.09,12S829,89.06,829,89.06Z" style="fill:#f3f9f1;stroke:#754c24;stroke-linecap:round;stroke-linejoin:round"/><path d="M826.82,65.49c17.62,1.11,15.65,32.53-2,31.43Q841.73,77,826.82,65.49Z" style="fill:#fdf5bd;stroke:#754c24;stroke-linecap:round;stroke-linejoin:round"/><path d="M781.81,59.29,780,55.12s18.19-1.51,17.52,7.31S783.1,71,781.81,59.29Z" style="fill:#f3f9f1;stroke:#754c24;stroke-linecap:round;stroke-linejoin:round"/><path d="M782.43,68.14s-10.87-1.51-8.73-10.49c0,0,20.81,3.74,22.71,6S793.29,69.66,782.43,68.14Z" style="fill:#fdf5bd;stroke:#754c24;stroke-linecap:round;stroke-linejoin:round"/><path d="M815.49,33.84a12.16,12.16,0,0,0-12.1,0c-5.24,3-12,8.94-12,19.46,0,17.21,2.17,15.57,18,15.57s18,1.64,18-15.57C827.46,42.78,820.73,36.86,815.49,33.84Z" style="fill:#ff3c00;stroke:#754c24;stroke-linecap:round;stroke-linejoin:round"/><path d="M826.82,65.49c18.91,8.13,5.72,38.81-13.19,30.68C824.64,88,828.65,77.64,826.82,65.49Z" style="fill:#f3f9f1;stroke:#754c24;stroke-linecap:round;stroke-linejoin:round"/><path d="M826.82,65.49s8.87,40-34.51,30.3C812.21,92.82,824,82.93,826.82,65.49Z" style="fill:#fdf5bd;stroke:#754c24;stroke-linecap:round;stroke-linejoin:round"/><path d="M826.82,65.49a7,7,0,0,0-9.08,1.14c-4.49,4.49,0,21.69-29.91,23.18C787.83,106.26,831.2,92.8,826.82,65.49Z" style="fill:#f3f9f1;stroke:#754c24;stroke-linecap:round;stroke-linejoin:round"/><path d="M817.74,66.63s-14.21,22.43-41.88,17.2C783.77,103.09,825.65,85.89,817.74,66.63Z" style="fill:#fdf5bd;stroke:#754c24;stroke-linecap:round;stroke-linejoin:round"/><path d="M817.74,66.63s-10.12-8.9-12.71,3c-2.29,10.48-36.76,4.67-29.92,13.46C786.5,97.71,822.11,72,817.74,66.63Z" style="fill:#f3f9f1;stroke:#754c24;stroke-linecap:round;stroke-linejoin:round"/><path d="M772.85,68a1.87,1.87,0,0,1,3-1.42c4.77,3.77,15.7,10,26.91-.66,3.74-3.74,6.66-2.31,6.66-2.31C809.87,85.33,772.22,87.39,772.85,68Z" style="fill:#fdf5bd;stroke:#754c24;stroke-linecap:round;stroke-linejoin:round"/><path d="M806.13,63.64c-7.64-5.14-21,5.24-33.83.65C772.6,79.65,806.43,79,806.13,63.64Z" style="fill:#f3f9f1;stroke:#754c24;stroke-linecap:round;stroke-linejoin:round"/><path d="M809.44,37.45v1.9" style="fill:#fdf5bd;stroke:#754c24;stroke-linecap:round;stroke-linejoin:round"/><path d="M802.65,37.65c-.06.62-.12,1.24-.17,1.86" style="fill:#fdf5bd;stroke:#754c24;stroke-linecap:round;stroke-linejoin:round"/><path d="M816.22,37.65q.1.93.18,1.86" style="fill:#fdf5bd;stroke:#754c24;stroke-linecap:round;stroke-linejoin:round"/><path d="M809.44,53.9v1.9" style="fill:#fdf5bd;stroke:#754c24;stroke-linecap:round;stroke-linejoin:round"/><path d="M800.87,53.82l.09,1.85" style="fill:#fdf5bd;stroke:#754c24;stroke-linecap:round;stroke-linejoin:round"/><path d="M818,53.82c0,.62,0,1.24-.08,1.85" style="fill:#fdf5bd;stroke:#754c24;stroke-linecap:round;stroke-linejoin:round"/><path d="M826.57,53.56q-.08.87-.18,1.74" style="fill:#fdf5bd;stroke:#754c24;stroke-linecap:round;stroke-linejoin:round"/><path d="M792.31,53.56c.05.58.11,1.16.17,1.74" style="fill:#fdf5bd;stroke:#754c24;stroke-linecap:round;stroke-linejoin:round"/><path d="M805.38,44.88l0,1.88" style="fill:#fdf5bd;stroke:#754c24;stroke-linecap:round;stroke-linejoin:round"/><path d="M796.46,45.11c-.05.6-.08,1.2-.11,1.8" style="fill:#fdf5bd;stroke:#754c24;stroke-linecap:round;stroke-linejoin:round"/><path d="M814.31,44.89c0,.63,0,1.25,0,1.88" style="fill:#fdf5bd;stroke:#754c24;stroke-linecap:round;stroke-linejoin:round"/><path d="M823.23,45.14c0,.59.09,1.19.12,1.79" style="fill:#fdf5bd;stroke:#754c24;stroke-linecap:round;stroke-linejoin:round"/><path d="M805.57,60.43c0,.63.06,1.26.1,1.89" style="fill:#fdf5bd;stroke:#754c24;stroke-linecap:round;stroke-linejoin:round"/><path d="M797.07,60q.13.9.3,1.8" style="fill:#fdf5bd;stroke:#754c24;stroke-linecap:round;stroke-linejoin:round"/><path d="M814.08,60.41,814,62.29" style="fill:#fdf5bd;stroke:#754c24;stroke-linecap:round;stroke-linejoin:round"/><path d="M822.58,59.89c-.1.6-.21,1.2-.32,1.79" style="fill:#fdf5bd;stroke:#754c24;stroke-linecap:round;stroke-linejoin:round"/><path d="M464,46.44a6,6,0,0,1,4.49,4.48h-5.78Z" style="fill:#fdf5bd;stroke:#754c24;stroke-linecap:round;stroke-linejoin:round"/><path d="M427.37,52.05a5.94,5.94,0,0,1,4.48,4.48h-5.77Z" style="fill:#fdf5bd;stroke:#754c24;stroke-linecap:round;stroke-linejoin:round"/><path d="M462.72,50.92c9.65-1.3,15.92,1.51,17.74,9.73H465.61Z" style="fill:#f3f9f1;stroke:#754c24;stroke-linecap:round;stroke-linejoin:round"/><path d="M465.61,64.45v-3.8s20.09-8.23,20.09,12-17.95,16.45-17.95,16.45Z" style="fill:#f3f9f1;stroke:#754c24;stroke-linecap:round;stroke-linejoin:round"/><path d="M465.61,65.49c17.62,1.11,15.65,32.53-2,31.43Q480.53,77,465.61,65.49Z" style="fill:#fdf5bd;stroke:#754c24;stroke-linecap:round;stroke-linejoin:round"/><path d="M420.6,59.29l-1.81-4.17s18.19-1.51,17.52,7.31S421.89,71,420.6,59.29Z" style="fill:#f3f9f1;stroke:#754c24;stroke-linecap:round;stroke-linejoin:round"/><path d="M421.22,68.14s-10.87-1.51-8.73-10.49c0,0,20.81,3.74,22.71,6S432.08,69.66,421.22,68.14Z" style="fill:#fdf5bd;stroke:#754c24;stroke-linecap:round;stroke-linejoin:round"/><path d="M454.28,33.84a12.16,12.16,0,0,0-12.1,0c-5.24,3-12,8.94-12,19.46,0,17.21,2.16,15.57,18,15.57s18,1.64,18-15.57C466.25,42.78,459.52,36.86,454.28,33.84Z" style="fill:#ff3c00;stroke:#754c24;stroke-linecap:round;stroke-linejoin:round"/><path d="M465.61,65.49c18.91,8.13,5.72,38.81-13.19,30.68C463.43,88,467.45,77.64,465.61,65.49Z" style="fill:#f3f9f1;stroke:#754c24;stroke-linecap:round;stroke-linejoin:round"/><path d="M465.61,65.49s8.87,40-34.5,30.3C451,92.82,462.75,82.93,465.61,65.49Z" style="fill:#fdf5bd;stroke:#754c24;stroke-linecap:round;stroke-linejoin:round"/><path d="M465.61,65.49a7,7,0,0,0-9.08,1.14c-4.48,4.49,0,21.69-29.91,23.18C426.62,106.26,470,92.8,465.61,65.49Z" style="fill:#f3f9f1;stroke:#754c24;stroke-linecap:round;stroke-linejoin:round"/><path d="M456.53,66.63s-14.21,22.43-41.88,17.2C422.56,103.09,464.44,85.89,456.53,66.63Z" style="fill:#fdf5bd;stroke:#754c24;stroke-linecap:round;stroke-linejoin:round"/><path d="M456.53,66.63s-10.12-8.9-12.71,3c-2.28,10.48-36.76,4.67-29.91,13.46C425.29,97.71,460.9,72,456.53,66.63Z" style="fill:#f3f9f1;stroke:#754c24;stroke-linecap:round;stroke-linejoin:round"/><path d="M411.64,68a1.87,1.87,0,0,1,3-1.42c4.77,3.77,15.7,10,26.92-.66,3.73-3.74,6.65-2.31,6.65-2.31C448.66,85.33,411,87.39,411.64,68Z" style="fill:#fdf5bd;stroke:#754c24;stroke-linecap:round;stroke-linejoin:round"/><path d="M444.92,63.64c-7.64-5.14-21,5.24-33.83.65C411.39,79.65,445.22,79,444.92,63.64Z" style="fill:#f3f9f1;stroke:#754c24;stroke-linecap:round;stroke-linejoin:round"/><path d="M448.23,37.45v1.9" style="fill:#fdf5bd;stroke:#754c24;stroke-linecap:round;stroke-linejoin:round"/><path d="M441.44,37.65c-.06.62-.12,1.24-.17,1.86" style="fill:#fdf5bd;stroke:#754c24;stroke-linecap:round;stroke-linejoin:round"/><path d="M455,37.65c.06.62.12,1.24.17,1.86" style="fill:#fdf5bd;stroke:#754c24;stroke-linecap:round;stroke-linejoin:round"/><path d="M448.23,53.9v1.9" style="fill:#fdf5bd;stroke:#754c24;stroke-linecap:round;stroke-linejoin:round"/><path d="M439.67,53.82c0,.62.05,1.24.08,1.85" style="fill:#fdf5bd;stroke:#754c24;stroke-linecap:round;stroke-linejoin:round"/><path d="M456.79,53.82c0,.62-.05,1.24-.08,1.85" style="fill:#fdf5bd;stroke:#754c24;stroke-linecap:round;stroke-linejoin:round"/><path d="M465.36,53.56q-.08.87-.18,1.74" style="fill:#fdf5bd;stroke:#754c24;stroke-linecap:round;stroke-linejoin:round"/><path d="M431.1,53.56q.07.87.18,1.74" style="fill:#fdf5bd;stroke:#754c24;stroke-linecap:round;stroke-linejoin:round"/><path d="M444.17,44.88l0,1.88" style="fill:#fdf5bd;stroke:#754c24;stroke-linecap:round;stroke-linejoin:round"/><path d="M435.25,45.11c-.05.6-.08,1.2-.11,1.8" style="fill:#fdf5bd;stroke:#754c24;stroke-linecap:round;stroke-linejoin:round"/><path d="M453.1,44.89c0,.63,0,1.25,0,1.88" style="fill:#fdf5bd;stroke:#754c24;stroke-linecap:round;stroke-linejoin:round"/><path d="M462,45.14c.05.59.09,1.19.12,1.79" style="fill:#fdf5bd;stroke:#754c24;stroke-linecap:round;stroke-linejoin:round"/><path d="M444.36,60.43c0,.63.07,1.26.1,1.89" style="fill:#fdf5bd;stroke:#754c24;stroke-linecap:round;stroke-linejoin:round"/><path d="M435.86,60c.09.6.19,1.2.31,1.8" style="fill:#fdf5bd;stroke:#754c24;stroke-linecap:round;stroke-linejoin:round"/><path d="M452.87,60.41c0,.63-.07,1.26-.12,1.88" style="fill:#fdf5bd;stroke:#754c24;stroke-linecap:round;stroke-linejoin:round"/><path d="M461.38,59.89c-.1.6-.21,1.2-.33,1.79" style="fill:#fdf5bd;stroke:#754c24;stroke-linecap:round;stroke-linejoin:round"/><path d="M771.29,55a7.13,7.13,0,0,1,5.36,5.36h-6.9Z" style="fill:#fdf5bd;stroke:#754c24;stroke-linecap:round;stroke-linejoin:round"/><path d="M727.55,61.72a7.12,7.12,0,0,1,5.36,5.35H726Z" style="fill:#fdf5bd;stroke:#754c24;stroke-linecap:round;stroke-linejoin:round"/><path d="M769.75,60.38c11.52-1.56,19,1.79,21.18,11.6H773.2Z" style="fill:#f3f9f1;stroke:#754c24;stroke-linecap:round;stroke-linejoin:round"/><path d="M773.2,76.52V72s24-9.82,24,14.28-21.43,19.64-21.43,19.64Z" style="fill:#f3f9f1;stroke:#754c24;stroke-linecap:round;stroke-linejoin:round"/><path d="M773.2,77.76c21,1.32,18.68,38.83-2.36,37.51Q791,91.5,773.2,77.76Z" style="fill:#fdf5bd;stroke:#754c24;stroke-linecap:round;stroke-linejoin:round"/><path d="M719.47,70.36l-2.15-5s21.71-1.79,20.91,8.73S721,84.37,719.47,70.36Z" style="fill:#f3f9f1;stroke:#754c24;stroke-linecap:round;stroke-linejoin:round"/><path d="M720.21,80.93s-13-1.81-10.41-12.52c0,0,24.84,4.46,27.1,7.14S733.18,82.74,720.21,80.93Z" style="fill:#fdf5bd;stroke:#754c24;stroke-linecap:round;stroke-linejoin:round"/><path d="M759.68,40a14.5,14.5,0,0,0-14.45,0c-6.25,3.6-14.29,10.67-14.29,23.23,0,20.53,2.58,18.57,21.52,18.57S774,83.75,774,63.22C774,50.66,765.93,43.59,759.68,40Z" style="fill:#ff3c00;stroke:#754c24;stroke-linecap:round;stroke-linejoin:round"/><path d="M773.2,77.76c22.57,9.71,6.83,46.32-15.74,36.62C770.6,104.61,775.39,92.27,773.2,77.76Z" style="fill:#f3f9f1;stroke:#754c24;stroke-linecap:round;stroke-linejoin:round"/><path d="M773.2,77.76s10.59,47.78-41.18,36.17C755.76,110.38,769.78,98.58,773.2,77.76Z" style="fill:#fdf5bd;stroke:#754c24;stroke-linecap:round;stroke-linejoin:round"/><path d="M773.2,77.76a8.3,8.3,0,0,0-10.84,1.36c-5.35,5.36,0,25.89-35.7,27.67C726.66,126.43,778.43,110.36,773.2,77.76Z" style="fill:#f3f9f1;stroke:#754c24;stroke-linecap:round;stroke-linejoin:round"/><path d="M762.36,79.12s-17,26.78-50,20.53C721.82,122.64,771.81,102.11,762.36,79.12Z" style="fill:#fdf5bd;stroke:#754c24;stroke-linecap:round;stroke-linejoin:round"/><path d="M762.36,79.12s-12.07-10.63-15.17,3.57c-2.73,12.51-43.87,5.57-35.7,16.07C725.08,116.21,767.58,85.51,762.36,79.12Z" style="fill:#f3f9f1;stroke:#754c24;stroke-linecap:round;stroke-linejoin:round"/><path d="M708.79,80.71a2.23,2.23,0,0,1,3.6-1.7c5.69,4.51,18.73,11.94,32.12-.78,4.47-4.46,8-2.76,8-2.76C753,101.45,708,103.91,708.79,80.71Z" style="fill:#fdf5bd;stroke:#754c24;stroke-linecap:round;stroke-linejoin:round"/><path d="M748.51,75.55c-9.12-6.13-25,6.26-40.38.78C708.48,94.67,748.86,93.89,748.51,75.55Z" style="fill:#f3f9f1;stroke:#754c24;stroke-linecap:round;stroke-linejoin:round"/><path d="M752.46,44.3v2.26" style="fill:#fdf5bd;stroke:#754c24;stroke-linecap:round;stroke-linejoin:round"/><path d="M744.37,44.53c-.08.74-.15,1.49-.21,2.23" style="fill:#fdf5bd;stroke:#754c24;stroke-linecap:round;stroke-linejoin:round"/><path d="M760.54,44.53c.08.74.15,1.49.21,2.23" style="fill:#fdf5bd;stroke:#754c24;stroke-linecap:round;stroke-linejoin:round"/><path d="M752.46,63.93v2.26" style="fill:#fdf5bd;stroke:#754c24;stroke-linecap:round;stroke-linejoin:round"/><path d="M742.24,63.83c0,.74.06,1.48.1,2.21" style="fill:#fdf5bd;stroke:#754c24;stroke-linecap:round;stroke-linejoin:round"/><path d="M762.68,63.83c0,.74-.07,1.48-.11,2.21" style="fill:#fdf5bd;stroke:#754c24;stroke-linecap:round;stroke-linejoin:round"/><path d="M772.9,63.52q-.09,1-.21,2.07" style="fill:#fdf5bd;stroke:#754c24;stroke-linecap:round;stroke-linejoin:round"/><path d="M732,63.52c.05.69.12,1.38.2,2.07" style="fill:#fdf5bd;stroke:#754c24;stroke-linecap:round;stroke-linejoin:round"/><path d="M747.61,53.16c0,.75,0,1.5,0,2.25" style="fill:#fdf5bd;stroke:#754c24;stroke-linecap:round;stroke-linejoin:round"/><path d="M737,53.44c-.05.71-.09,1.43-.13,2.14" style="fill:#fdf5bd;stroke:#754c24;stroke-linecap:round;stroke-linejoin:round"/><path d="M758.26,53.18c0,.74,0,1.49,0,2.24" style="fill:#fdf5bd;stroke:#754c24;stroke-linecap:round;stroke-linejoin:round"/><path d="M768.91,53.48q.09,1.07.15,2.13" style="fill:#fdf5bd;stroke:#754c24;stroke-linecap:round;stroke-linejoin:round"/><path d="M747.84,71.73,748,74" style="fill:#fdf5bd;stroke:#754c24;stroke-linecap:round;stroke-linejoin:round"/><path d="M737.7,71.16c.11.71.24,1.43.37,2.14" style="fill:#fdf5bd;stroke:#754c24;stroke-linecap:round;stroke-linejoin:round"/><path d="M758,71.7c0,.75-.09,1.5-.14,2.24" style="fill:#fdf5bd;stroke:#754c24;stroke-linecap:round;stroke-linejoin:round"/><path d="M768.13,71.08q-.18,1.07-.39,2.13" style="fill:#fdf5bd;stroke:#754c24;stroke-linecap:round;stroke-linejoin:round"/><path d="M537.45,55a7.12,7.12,0,0,1,5.36,5.36h-6.9Z" style="fill:#fdf5bd;stroke:#754c24;stroke-linecap:round;stroke-linejoin:round"/><path d="M493.72,61.72a7.11,7.11,0,0,1,5.35,5.35h-6.89Z" style="fill:#fdf5bd;stroke:#754c24;stroke-linecap:round;stroke-linejoin:round"/><path d="M535.91,60.38c11.52-1.56,19,1.79,21.18,11.6H539.36Z" style="fill:#f3f9f1;stroke:#754c24;stroke-linecap:round;stroke-linejoin:round"/><path d="M539.36,76.52V72s24-9.82,24,14.28-21.42,19.64-21.42,19.64Z" style="fill:#f3f9f1;stroke:#754c24;stroke-linecap:round;stroke-linejoin:round"/><path d="M539.36,77.76c21,1.32,18.68,38.83-2.35,37.51Q557.17,91.5,539.36,77.76Z" style="fill:#fdf5bd;stroke:#754c24;stroke-linecap:round;stroke-linejoin:round"/><path d="M485.64,70.36l-2.16-5s21.71-1.79,20.91,8.73S487.18,84.37,485.64,70.36Z" style="fill:#f3f9f1;stroke:#754c24;stroke-linecap:round;stroke-linejoin:round"/><path d="M486.38,80.93s-13-1.81-10.42-12.52c0,0,24.84,4.46,27.11,7.14S499.34,82.74,486.38,80.93Z" style="fill:#fdf5bd;stroke:#754c24;stroke-linecap:round;stroke-linejoin:round"/><path d="M525.84,40a14.49,14.49,0,0,0-14.44,0c-6.25,3.6-14.3,10.67-14.3,23.23,0,20.53,2.59,18.57,21.52,18.57s21.51,2,21.51-18.57C540.13,50.66,532.09,43.59,525.84,40Z" style="fill:#ff3c00;stroke:#754c24;stroke-linecap:round;stroke-linejoin:round"/><path d="M539.36,77.76c22.58,9.71,6.83,46.32-15.74,36.62C536.76,104.61,541.55,92.27,539.36,77.76Z" style="fill:#f3f9f1;stroke:#754c24;stroke-linecap:round;stroke-linejoin:round"/><path d="M539.36,77.76s10.59,47.78-41.18,36.17C521.92,110.38,536,98.58,539.36,77.76Z" style="fill:#fdf5bd;stroke:#754c24;stroke-linecap:round;stroke-linejoin:round"/><path d="M539.36,77.76a8.29,8.29,0,0,0-10.83,1.36c-5.36,5.36,0,25.89-35.71,27.67C492.82,126.43,544.59,110.36,539.36,77.76Z" style="fill:#f3f9f1;stroke:#754c24;stroke-linecap:round;stroke-linejoin:round"/><path d="M528.53,79.12s-17,26.78-50,20.53C488,122.64,538,102.11,528.53,79.12Z" style="fill:#fdf5bd;stroke:#754c24;stroke-linecap:round;stroke-linejoin:round"/><path d="M528.53,79.12s-12.08-10.63-15.18,3.57c-2.72,12.51-43.87,5.57-35.7,16.07C491.24,116.21,533.74,85.51,528.53,79.12Z" style="fill:#f3f9f1;stroke:#754c24;stroke-linecap:round;stroke-linejoin:round"/><path d="M475,80.71a2.23,2.23,0,0,1,3.6-1.7c5.69,4.51,18.74,11.94,32.13-.78,4.46-4.46,7.94-2.76,7.94-2.76C519.14,101.45,474.19,103.91,475,80.71Z" style="fill:#fdf5bd;stroke:#754c24;stroke-linecap:round;stroke-linejoin:round"/><path d="M514.67,75.55c-9.12-6.13-25,6.26-40.38.78C474.65,94.67,515,93.89,514.67,75.55Z" style="fill:#f3f9f1;stroke:#754c24;stroke-linecap:round;stroke-linejoin:round"/><path d="M518.62,44.3v2.26" style="fill:#fdf5bd;stroke:#754c24;stroke-linecap:round;stroke-linejoin:round"/><path d="M510.53,44.53c-.08.74-.15,1.49-.21,2.23" style="fill:#fdf5bd;stroke:#754c24;stroke-linecap:round;stroke-linejoin:round"/><path d="M526.71,44.53l.21,2.23" style="fill:#fdf5bd;stroke:#754c24;stroke-linecap:round;stroke-linejoin:round"/><path d="M518.62,63.93v2.26" style="fill:#fdf5bd;stroke:#754c24;stroke-linecap:round;stroke-linejoin:round"/><path d="M508.4,63.83c0,.74.06,1.48.1,2.21" style="fill:#fdf5bd;stroke:#754c24;stroke-linecap:round;stroke-linejoin:round"/><path d="M528.84,63.83c0,.74-.07,1.48-.11,2.21" style="fill:#fdf5bd;stroke:#754c24;stroke-linecap:round;stroke-linejoin:round"/><path d="M539.06,63.52q-.09,1-.21,2.07" style="fill:#fdf5bd;stroke:#754c24;stroke-linecap:round;stroke-linejoin:round"/><path d="M498.18,63.52q.07,1,.21,2.07" style="fill:#fdf5bd;stroke:#754c24;stroke-linecap:round;stroke-linejoin:round"/><path d="M513.78,53.16c0,.75,0,1.5,0,2.25" style="fill:#fdf5bd;stroke:#754c24;stroke-linecap:round;stroke-linejoin:round"/><path d="M503.13,53.44c-.06.71-.1,1.43-.14,2.14" style="fill:#fdf5bd;stroke:#754c24;stroke-linecap:round;stroke-linejoin:round"/><path d="M524.43,53.18c0,.74,0,1.49.05,2.24" style="fill:#fdf5bd;stroke:#754c24;stroke-linecap:round;stroke-linejoin:round"/><path d="M535.08,53.48c.06.71.1,1.42.14,2.13" style="fill:#fdf5bd;stroke:#754c24;stroke-linecap:round;stroke-linejoin:round"/><path d="M514,71.73c0,.75.07,1.5.11,2.25" style="fill:#fdf5bd;stroke:#754c24;stroke-linecap:round;stroke-linejoin:round"/><path d="M503.86,71.16c.12.71.24,1.43.38,2.14" style="fill:#fdf5bd;stroke:#754c24;stroke-linecap:round;stroke-linejoin:round"/><path d="M524.15,71.7c0,.75-.09,1.5-.14,2.24" style="fill:#fdf5bd;stroke:#754c24;stroke-linecap:round;stroke-linejoin:round"/><path d="M534.29,71.08q-.18,1.07-.39,2.13" style="fill:#fdf5bd;stroke:#754c24;stroke-linecap:round;stroke-linejoin:round"/><polygon points="1098 748 155 748 157 585 0 0 1258 12 1096 585 1098 748" style="fill:none"/></g></g></svg>