<svg xmlns="http://www.w3.org/2000/svg" viewBox="0 0 1258 771.17"><g id="Layer_2" data-name="Layer 2"><g id="Layer_2-2" data-name="Layer 2"><path d="M691.25,42.16a4.62,4.62,0,0,1,3.47,3.48h-4.47Z" style="fill:#fdf5bd;stroke:#754c24;stroke-linecap:round;stroke-linejoin:round"/><path d="M662.89,46.5A4.63,4.63,0,0,1,666.37,50H661.9Z" style="fill:#fdf5bd;stroke:#754c24;stroke-linecap:round;stroke-linejoin:round"/><path d="M690.25,45.64c7.47-1,12.32,1.16,13.73,7.52H692.49Z" style="fill:#f3f9f1;stroke:#754c24;stroke-linecap:round;stroke-linejoin:round"/><path d="M692.49,56.1V53.16S708,46.79,708,62.42s-13.89,12.73-13.89,12.73Z" style="fill:#f3f9f1;stroke:#754c24;stroke-linecap:round;stroke-linejoin:round"/><path d="M692.49,56.91c13.64.85,12.11,25.17-1.53,24.32Q704,65.81,692.49,56.91Z" style="fill:#fdf5bd;stroke:#754c24;stroke-linecap:round;stroke-linejoin:round"/><path d="M657.66,52.11l-1.4-3.23s14.08-1.16,13.56,5.66S658.66,61.19,657.66,52.11Z" style="fill:#f3f9f1;stroke:#754c24;stroke-linecap:round;stroke-linejoin:round"/><path d="M658.14,59s-8.41-1.17-6.75-8.12c0,0,16.1,2.9,17.57,4.63S666.54,60.13,658.14,59Z" style="fill:#fdf5bd;stroke:#754c24;stroke-linecap:round;stroke-linejoin:round"/><path d="M677.77,39.05s5.32-12.24.3-29.58c-2.19-6-1.56-9.47-1.56-9.47l1.56.62c-.54,1-.9,1.52,0,5.68C680.6,14.18,683.21,28.92,677.77,39.05Z" style="fill:#ff2b37"/><path d="M696.37,47.25A16.73,16.73,0,0,1,679.05,64c-11-.37-18.47-11.34-15.48-21.9,1.55-5.48,5.78-9,12.69-8.42a30.81,30.81,0,0,0,6.5-.31C690,32.41,696.37,39.16,696.37,47.25Z" style="fill:#ff2b37"/><path d="M692.49,56.91c14.63,6.29,4.43,30-10.21,23.74C690.8,74.32,693.91,66.31,692.49,56.91Z" style="fill:#f3f9f1;stroke:#754c24;stroke-linecap:round;stroke-linejoin:round"/><path d="M692.49,56.91s6.86,31-26.7,23.45C681.18,78.06,690.27,70.4,692.49,56.91Z" style="fill:#fdf5bd;stroke:#754c24;stroke-linecap:round;stroke-linejoin:round"/><path d="M692.49,56.91a5.38,5.38,0,0,0-7,.88c-3.47,3.47,0,16.78-23.14,17.94C662.32,88.46,695.88,78,692.49,56.91Z" style="fill:#f3f9f1;stroke:#754c24;stroke-linecap:round;stroke-linejoin:round"/><path d="M685.46,57.79s-11,17.36-32.4,13.31C659.18,86,691.58,72.69,685.46,57.79Z" style="fill:#fdf5bd;stroke:#754c24;stroke-linecap:round;stroke-linejoin:round"/><path d="M685.46,57.79s-7.83-6.89-9.83,2.31c-1.77,8.11-28.45,3.62-23.15,10.42C661.29,81.84,688.84,61.93,685.46,57.79Z" style="fill:#f3f9f1;stroke:#754c24;stroke-linecap:round;stroke-linejoin:round"/><path d="M650.73,58.82a1.44,1.44,0,0,1,2.33-1.1c3.69,2.92,12.15,7.74,20.83-.51,2.89-2.89,5.15-1.79,5.15-1.79C679.38,72.26,650.24,73.86,650.73,58.82Z" style="fill:#fdf5bd;stroke:#754c24;stroke-linecap:round;stroke-linejoin:round"/><path d="M676.48,55.47c-5.91-4-16.24,4.06-26.18.51C650.53,67.87,676.71,67.36,676.48,55.47Z" style="fill:#f3f9f1;stroke:#754c24;stroke-linecap:round;stroke-linejoin:round"/><path d="M669.26,36.59l1.73.76s-3.3.49-3.85,6.55C666.83,41.13,666.57,38.37,669.26,36.59Z" style="fill:#f3f9f1"/><path d="M738.09,42.16a4.63,4.63,0,0,1,3.48,3.48H737.1Z" style="fill:#fdf5bd;stroke:#754c24;stroke-linecap:round;stroke-linejoin:round"/><path d="M709.74,46.5A4.62,4.62,0,0,1,713.21,50h-4.47Z" style="fill:#fdf5bd;stroke:#754c24;stroke-linecap:round;stroke-linejoin:round"/><path d="M737.1,45.64c7.46-1,12.31,1.16,13.73,7.52h-11.5Z" style="fill:#f3f9f1;stroke:#754c24;stroke-linecap:round;stroke-linejoin:round"/><path d="M739.33,56.1V53.16s15.55-6.37,15.55,9.26S741,75.15,741,75.15Z" style="fill:#f3f9f1;stroke:#754c24;stroke-linecap:round;stroke-linejoin:round"/><path d="M739.33,56.91c13.64.85,12.11,25.17-1.52,24.32Q750.88,65.81,739.33,56.91Z" style="fill:#fdf5bd;stroke:#754c24;stroke-linecap:round;stroke-linejoin:round"/><path d="M704.5,52.11l-1.4-3.23s14.08-1.16,13.56,5.66S705.5,61.19,704.5,52.11Z" style="fill:#f3f9f1;stroke:#754c24;stroke-linecap:round;stroke-linejoin:round"/><path d="M705,59s-8.41-1.17-6.75-8.12c0,0,16.1,2.9,17.57,4.63S713.38,60.13,705,59Z" style="fill:#fdf5bd;stroke:#754c24;stroke-linecap:round;stroke-linejoin:round"/><path d="M724.61,39.05s5.32-12.24.3-29.58c-2.19-6-1.56-9.47-1.56-9.47l1.56.62c-.54,1-.9,1.52,0,5.68C727.45,14.18,730.05,28.92,724.61,39.05Z" style="fill:#ff2b37"/><path d="M743.22,47.25A16.73,16.73,0,0,1,725.9,64c-11-.37-18.48-11.34-15.49-21.9,1.55-5.48,5.78-9,12.69-8.42a30.77,30.77,0,0,0,6.5-.31C736.81,32.41,743.22,39.16,743.22,47.25Z" style="fill:#ff2b37"/><path d="M739.33,56.91c14.64,6.29,4.43,30-10.21,23.74C737.64,74.32,740.75,66.31,739.33,56.91Z" style="fill:#f3f9f1;stroke:#754c24;stroke-linecap:round;stroke-linejoin:round"/><path d="M739.33,56.91s6.87,31-26.7,23.45C728,78.06,737.12,70.4,739.33,56.91Z" style="fill:#fdf5bd;stroke:#754c24;stroke-linecap:round;stroke-linejoin:round"/><path d="M739.33,56.91a5.37,5.37,0,0,0-7,.88c-3.47,3.47,0,16.78-23.15,17.94C709.16,88.46,742.72,78,739.33,56.91Z" style="fill:#f3f9f1;stroke:#754c24;stroke-linecap:round;stroke-linejoin:round"/><path d="M732.31,57.79s-11,17.36-32.41,13.31C706,86,738.43,72.69,732.31,57.79Z" style="fill:#fdf5bd;stroke:#754c24;stroke-linecap:round;stroke-linejoin:round"/><path d="M732.31,57.79s-7.83-6.89-9.84,2.31c-1.77,8.11-28.45,3.62-23.15,10.42C708.13,81.84,735.69,61.93,732.31,57.79Z" style="fill:#f3f9f1;stroke:#754c24;stroke-linecap:round;stroke-linejoin:round"/><path d="M697.57,58.82a1.45,1.45,0,0,1,2.34-1.1c3.68,2.92,12.14,7.74,20.82-.51,2.9-2.89,5.15-1.79,5.15-1.79C726.22,72.26,697.08,73.86,697.57,58.82Z" style="fill:#fdf5bd;stroke:#754c24;stroke-linecap:round;stroke-linejoin:round"/><path d="M723.32,55.47c-5.91-4-16.23,4.06-26.17.51C697.37,67.87,723.55,67.36,723.32,55.47Z" style="fill:#f3f9f1;stroke:#754c24;stroke-linecap:round;stroke-linejoin:round"/><path d="M716.1,36.59l1.73.76s-3.29.49-3.85,6.55C713.68,41.13,713.41,38.37,716.1,36.59Z" style="fill:#f3f9f1"/><path d="M641.48,43.14A4.62,4.62,0,0,1,645,46.61h-4.47Z" style="fill:#fdf5bd;stroke:#754c24;stroke-linecap:round;stroke-linejoin:round"/><path d="M613.12,47.48A4.63,4.63,0,0,1,616.6,51h-4.47Z" style="fill:#fdf5bd;stroke:#754c24;stroke-linecap:round;stroke-linejoin:round"/><path d="M640.48,46.61c7.47-1,12.32,1.16,13.73,7.52H642.72Z" style="fill:#f3f9f1;stroke:#754c24;stroke-linecap:round;stroke-linejoin:round"/><path d="M642.72,57.08V54.13s15.54-6.36,15.54,9.26-13.89,12.74-13.89,12.74Z" style="fill:#f3f9f1;stroke:#754c24;stroke-linecap:round;stroke-linejoin:round"/><path d="M642.72,57.88c13.63.86,12.11,25.18-1.53,24.32Q654.25,66.8,642.72,57.88Z" style="fill:#fdf5bd;stroke:#754c24;stroke-linecap:round;stroke-linejoin:round"/><path d="M607.88,53.09l-1.39-3.23s14.08-1.17,13.56,5.66S608.89,62.16,607.88,53.09Z" style="fill:#f3f9f1;stroke:#754c24;stroke-linecap:round;stroke-linejoin:round"/><path d="M608.36,59.94s-8.4-1.18-6.75-8.12c0,0,16.11,2.89,17.58,4.63S616.77,61.11,608.36,59.94Z" style="fill:#fdf5bd;stroke:#754c24;stroke-linecap:round;stroke-linejoin:round"/><path d="M628,40s5.32-12.24.29-29.59c-2.18-6-1.55-9.46-1.55-9.46l1.55.61c-.53,1-.89,1.52,0,5.69C630.83,15.16,633.44,29.9,628,40Z" style="fill:#ff2b37"/><path d="M646.6,48.22A16.74,16.74,0,0,1,629.28,65c-11-.37-18.47-11.34-15.48-21.91,1.55-5.47,5.77-9,12.68-8.42a30.22,30.22,0,0,0,6.51-.31C640.19,33.38,646.6,40.13,646.6,48.22Z" style="fill:#ff2b37"/><path d="M642.72,57.88c14.63,6.3,4.43,30-10.21,23.74C641,75.29,644.14,67.29,642.72,57.88Z" style="fill:#f3f9f1;stroke:#754c24;stroke-linecap:round;stroke-linejoin:round"/><path d="M642.72,57.88s6.86,31-26.7,23.45C631.41,79,640.5,71.38,642.72,57.88Z" style="fill:#fdf5bd;stroke:#754c24;stroke-linecap:round;stroke-linejoin:round"/><path d="M642.72,57.88a5.38,5.38,0,0,0-7,.88c-3.47,3.48,0,16.79-23.15,17.94C612.54,89.44,646.11,79,642.72,57.88Z" style="fill:#f3f9f1;stroke:#754c24;stroke-linecap:round;stroke-linejoin:round"/><path d="M635.69,58.76s-11,17.37-32.4,13.31C609.41,87,641.81,73.67,635.69,58.76Z" style="fill:#fdf5bd;stroke:#754c24;stroke-linecap:round;stroke-linejoin:round"/><path d="M635.69,58.76s-7.83-6.89-9.83,2.32c-1.77,8.11-28.45,3.61-23.15,10.42C611.52,82.81,639.07,62.91,635.69,58.76Z" style="fill:#f3f9f1;stroke:#754c24;stroke-linecap:round;stroke-linejoin:round"/><path d="M601,59.79a1.45,1.45,0,0,1,2.34-1.1c3.69,2.93,12.15,7.74,20.83-.5,2.89-2.9,5.15-1.79,5.15-1.79C629.6,73.24,600.47,74.83,601,59.79Z" style="fill:#fdf5bd;stroke:#754c24;stroke-linecap:round;stroke-linejoin:round"/><path d="M626.71,56.45c-5.91-4-16.24,4.06-26.18.5C600.76,68.84,626.94,68.34,626.71,56.45Z" style="fill:#f3f9f1;stroke:#754c24;stroke-linecap:round;stroke-linejoin:round"/><path d="M619.49,37.57l1.73.76s-3.3.49-3.86,6.55C617.06,42.1,616.79,39.35,619.49,37.57Z" style="fill:#f3f9f1"/><path d="M592.68,46.07a4.63,4.63,0,0,1,3.48,3.47h-4.47Z" style="fill:#fdf5bd;stroke:#754c24;stroke-linecap:round;stroke-linejoin:round"/><path d="M564.33,50.41a4.62,4.62,0,0,1,3.47,3.47h-4.47Z" style="fill:#fdf5bd;stroke:#754c24;stroke-linecap:round;stroke-linejoin:round"/><path d="M591.69,49.54c7.46-1,12.31,1.16,13.73,7.52h-11.5Z" style="fill:#f3f9f1;stroke:#754c24;stroke-linecap:round;stroke-linejoin:round"/><path d="M593.92,60V57.06s15.55-6.36,15.55,9.26-13.89,12.73-13.89,12.73Z" style="fill:#f3f9f1;stroke:#754c24;stroke-linecap:round;stroke-linejoin:round"/><path d="M593.92,60.81C607.56,61.67,606,86,592.4,85.13Q605.47,69.71,593.92,60.81Z" style="fill:#fdf5bd;stroke:#754c24;stroke-linecap:round;stroke-linejoin:round"/><path d="M559.09,56l-1.4-3.23s14.08-1.16,13.56,5.67S560.09,65.09,559.09,56Z" style="fill:#f3f9f1;stroke:#754c24;stroke-linecap:round;stroke-linejoin:round"/><path d="M559.57,62.86s-8.41-1.17-6.75-8.11c0,0,16.1,2.89,17.57,4.63S568,64,559.57,62.86Z" style="fill:#fdf5bd;stroke:#754c24;stroke-linecap:round;stroke-linejoin:round"/><path d="M579.2,43s5.32-12.25.3-29.59c-2.19-6-1.56-9.47-1.56-9.47l1.56.62c-.54,1-.9,1.52,0,5.69C582,18.09,584.64,32.83,579.2,43Z" style="fill:#ff2b37"/><path d="M597.81,51.15a16.74,16.74,0,0,1-17.32,16.73C569.52,67.51,562,56.54,565,46c1.55-5.48,5.78-9,12.69-8.42a30.12,30.12,0,0,0,6.5-.31C591.4,36.31,597.81,43.06,597.81,51.15Z" style="fill:#ff2b37"/><path d="M593.92,60.81c14.64,6.29,4.43,30-10.21,23.74C592.23,78.22,595.34,70.22,593.92,60.81Z" style="fill:#f3f9f1;stroke:#754c24;stroke-linecap:round;stroke-linejoin:round"/><path d="M593.92,60.81s6.87,31-26.7,23.45C582.62,82,591.71,74.31,593.92,60.81Z" style="fill:#fdf5bd;stroke:#754c24;stroke-linecap:round;stroke-linejoin:round"/><path d="M593.92,60.81a5.37,5.37,0,0,0-7,.88c-3.47,3.47,0,16.78-23.15,17.94C563.75,92.36,597.31,82,593.92,60.81Z" style="fill:#f3f9f1;stroke:#754c24;stroke-linecap:round;stroke-linejoin:round"/><path d="M586.9,61.69S575.9,79.05,554.49,75C560.61,89.9,593,76.59,586.9,61.69Z" style="fill:#fdf5bd;stroke:#754c24;stroke-linecap:round;stroke-linejoin:round"/><path d="M586.9,61.69s-7.83-6.89-9.84,2.32c-1.77,8.1-28.45,3.61-23.15,10.41C562.72,85.74,590.28,65.83,586.9,61.69Z" style="fill:#f3f9f1;stroke:#754c24;stroke-linecap:round;stroke-linejoin:round"/><path d="M552.16,62.72a1.45,1.45,0,0,1,2.34-1.1c3.68,2.92,12.14,7.74,20.82-.51,2.9-2.89,5.15-1.78,5.15-1.78C580.81,76.17,551.67,77.76,552.16,62.72Z" style="fill:#fdf5bd;stroke:#754c24;stroke-linecap:round;stroke-linejoin:round"/><path d="M577.91,59.38c-5.91-4-16.23,4.06-26.17.5C552,71.77,578.14,71.27,577.91,59.38Z" style="fill:#f3f9f1;stroke:#754c24;stroke-linecap:round;stroke-linejoin:round"/><path d="M570.69,40.49l1.73.76s-3.29.49-3.85,6.55C568.27,45,568,42.27,570.69,40.49Z" style="fill:#f3f9f1"/><path d="M543.4,47.53A4.62,4.62,0,0,1,546.87,51H542.4Z" style="fill:#fdf5bd;stroke:#754c24;stroke-linecap:round;stroke-linejoin:round"/><path d="M515,51.87a4.63,4.63,0,0,1,3.48,3.47h-4.47Z" style="fill:#fdf5bd;stroke:#754c24;stroke-linecap:round;stroke-linejoin:round"/><path d="M542.4,51c7.47-1,12.32,1.16,13.73,7.53H544.64Z" style="fill:#f3f9f1;stroke:#754c24;stroke-linecap:round;stroke-linejoin:round"/><path d="M544.64,61.47V58.53s15.54-6.37,15.54,9.26-13.89,12.73-13.89,12.73Z" style="fill:#f3f9f1;stroke:#754c24;stroke-linecap:round;stroke-linejoin:round"/><path d="M544.64,62.28c13.64.85,12.11,25.17-1.53,24.31Q556.18,71.18,544.64,62.28Z" style="fill:#fdf5bd;stroke:#754c24;stroke-linecap:round;stroke-linejoin:round"/><path d="M509.81,57.48l-1.4-3.23s14.08-1.17,13.56,5.66S510.81,66.56,509.81,57.48Z" style="fill:#f3f9f1;stroke:#754c24;stroke-linecap:round;stroke-linejoin:round"/><path d="M510.29,64.33s-8.41-1.17-6.75-8.12c0,0,16.1,2.89,17.57,4.63S518.69,65.5,510.29,64.33Z" style="fill:#fdf5bd;stroke:#754c24;stroke-linecap:round;stroke-linejoin:round"/><path d="M529.92,44.42s5.32-12.24.3-29.59c-2.19-6-1.56-9.46-1.56-9.46l1.56.61c-.54,1-.9,1.52,0,5.69C532.75,19.55,535.36,34.29,529.92,44.42Z" style="fill:#ff2b37"/><path d="M548.52,52.61a16.74,16.74,0,0,1-17.31,16.73c-11-.37-18.48-11.34-15.49-21.91,1.55-5.47,5.78-9,12.69-8.42a30.15,30.15,0,0,0,6.5-.3C542.12,37.78,548.52,44.52,548.52,52.61Z" style="fill:#ff2b37"/><path d="M544.64,62.28c14.63,6.29,4.43,30-10.21,23.73C543,79.68,546.06,71.68,544.64,62.28Z" style="fill:#f3f9f1;stroke:#754c24;stroke-linecap:round;stroke-linejoin:round"/><path d="M544.64,62.28s6.86,31-26.7,23.45C533.33,83.42,542.42,75.77,544.64,62.28Z" style="fill:#fdf5bd;stroke:#754c24;stroke-linecap:round;stroke-linejoin:round"/><path d="M544.64,62.28a5.37,5.37,0,0,0-7,.88c-3.47,3.47,0,16.78-23.14,17.94C514.47,93.83,548,83.41,544.64,62.28Z" style="fill:#f3f9f1;stroke:#754c24;stroke-linecap:round;stroke-linejoin:round"/><path d="M537.61,63.16s-11,17.36-32.4,13.31C511.33,91.37,543.73,78.06,537.61,63.16Z" style="fill:#fdf5bd;stroke:#754c24;stroke-linecap:round;stroke-linejoin:round"/><path d="M537.61,63.16s-7.83-6.89-9.83,2.31c-1.77,8.11-28.45,3.61-23.15,10.42C513.44,87.2,541,67.3,537.61,63.16Z" style="fill:#f3f9f1;stroke:#754c24;stroke-linecap:round;stroke-linejoin:round"/><path d="M502.88,64.19a1.45,1.45,0,0,1,2.33-1.11c3.69,2.93,12.15,7.74,20.83-.5,2.89-2.9,5.15-1.79,5.15-1.79C531.53,77.63,502.39,79.22,502.88,64.19Z" style="fill:#fdf5bd;stroke:#754c24;stroke-linecap:round;stroke-linejoin:round"/><path d="M528.63,60.84c-5.91-4-16.24,4.06-26.18.51C502.68,73.23,528.86,72.73,528.63,60.84Z" style="fill:#f3f9f1;stroke:#754c24;stroke-linecap:round;stroke-linejoin:round"/><path d="M521.41,42l1.73.76s-3.3.49-3.85,6.55C519,46.5,518.72,43.74,521.41,42Z" style="fill:#f3f9f1"/><path d="M494.12,53.87a4.62,4.62,0,0,1,3.47,3.48h-4.47Z" style="fill:#fdf5bd;stroke:#754c24;stroke-linecap:round;stroke-linejoin:round"/><path d="M465.76,58.21a4.61,4.61,0,0,1,3.47,3.48h-4.47Z" style="fill:#fdf5bd;stroke:#754c24;stroke-linecap:round;stroke-linejoin:round"/><path d="M493.12,57.35c7.47-1,12.32,1.16,13.73,7.52H495.36Z" style="fill:#f3f9f1;stroke:#754c24;stroke-linecap:round;stroke-linejoin:round"/><path d="M495.36,67.81V64.87s15.54-6.37,15.54,9.26S497,86.86,497,86.86Z" style="fill:#f3f9f1;stroke:#754c24;stroke-linecap:round;stroke-linejoin:round"/><path d="M495.36,68.62c13.63.85,12.11,25.17-1.53,24.32Q506.9,77.52,495.36,68.62Z" style="fill:#fdf5bd;stroke:#754c24;stroke-linecap:round;stroke-linejoin:round"/><path d="M460.52,63.82l-1.39-3.23s14.07-1.16,13.55,5.66S461.53,72.9,460.52,63.82Z" style="fill:#f3f9f1;stroke:#754c24;stroke-linecap:round;stroke-linejoin:round"/><path d="M461,70.67s-8.4-1.17-6.75-8.12c0,0,16.11,2.9,17.57,4.63S469.41,71.84,461,70.67Z" style="fill:#fdf5bd;stroke:#754c24;stroke-linecap:round;stroke-linejoin:round"/><path d="M480.63,50.76s5.33-12.24.3-29.58c-2.19-6-1.56-9.47-1.56-9.47l1.56.62c-.53,1-.89,1.52,0,5.68C483.47,25.89,486.08,40.63,480.63,50.76Z" style="fill:#ff2b37"/><path d="M499.24,59a16.75,16.75,0,0,1-17.32,16.73c-11-.38-18.47-11.35-15.49-21.91,1.55-5.48,5.78-9,12.69-8.42a30.09,30.09,0,0,0,6.5-.31C492.83,44.12,499.24,50.87,499.24,59Z" style="fill:#ff2b37"/><path d="M495.36,68.62c14.63,6.29,4.42,30-10.21,23.74C493.67,86,496.78,78,495.36,68.62Z" style="fill:#f3f9f1;stroke:#754c24;stroke-linecap:round;stroke-linejoin:round"/><path d="M495.36,68.62s6.86,31-26.7,23.45C484.05,89.77,493.14,82.11,495.36,68.62Z" style="fill:#fdf5bd;stroke:#754c24;stroke-linecap:round;stroke-linejoin:round"/><path d="M495.36,68.62a5.38,5.38,0,0,0-7,.88c-3.47,3.47,0,16.78-23.15,17.94C465.18,100.17,498.75,89.75,495.36,68.62Z" style="fill:#f3f9f1;stroke:#754c24;stroke-linecap:round;stroke-linejoin:round"/><path d="M488.33,69.5s-11,17.36-32.41,13.31C462,97.71,494.45,84.4,488.33,69.5Z" style="fill:#fdf5bd;stroke:#754c24;stroke-linecap:round;stroke-linejoin:round"/><path d="M488.33,69.5s-7.83-6.89-9.84,2.31c-1.76,8.11-28.44,3.62-23.15,10.42C464.16,93.55,491.71,73.64,488.33,69.5Z" style="fill:#f3f9f1;stroke:#754c24;stroke-linecap:round;stroke-linejoin:round"/><path d="M453.59,70.53a1.45,1.45,0,0,1,2.34-1.1c3.69,2.92,12.15,7.74,20.83-.51,2.89-2.89,5.15-1.79,5.15-1.79C482.24,84,453.1,85.57,453.59,70.53Z" style="fill:#fdf5bd;stroke:#754c24;stroke-linecap:round;stroke-linejoin:round"/><path d="M479.35,67.19c-5.92-4-16.24,4-26.18.5C453.4,79.58,479.58,79.07,479.35,67.19Z" style="fill:#f3f9f1;stroke:#754c24;stroke-linecap:round;stroke-linejoin:round"/><path d="M472.13,48.3l1.73.76s-3.3.49-3.86,6.55C469.7,52.84,469.43,50.08,472.13,48.3Z" style="fill:#f3f9f1"/><path d="M789.33,52.9a4.62,4.62,0,0,1,3.47,3.47h-4.47Z" style="fill:#fdf5bd;stroke:#754c24;stroke-linecap:round;stroke-linejoin:round"/><path d="M761,57.24a4.63,4.63,0,0,1,3.48,3.47H760Z" style="fill:#fdf5bd;stroke:#754c24;stroke-linecap:round;stroke-linejoin:round"/><path d="M788.33,56.37c7.47-1,12.32,1.16,13.73,7.52H790.57Z" style="fill:#f3f9f1;stroke:#754c24;stroke-linecap:round;stroke-linejoin:round"/><path d="M790.57,66.84v-3s15.54-6.36,15.54,9.26-13.89,12.73-13.89,12.73Z" style="fill:#f3f9f1;stroke:#754c24;stroke-linecap:round;stroke-linejoin:round"/><path d="M790.57,67.64C804.2,68.5,802.68,92.82,789,92Q802.11,76.54,790.57,67.64Z" style="fill:#fdf5bd;stroke:#754c24;stroke-linecap:round;stroke-linejoin:round"/><path d="M755.73,62.84l-1.39-3.23s14.08-1.16,13.56,5.67S756.74,71.92,755.73,62.84Z" style="fill:#f3f9f1;stroke:#754c24;stroke-linecap:round;stroke-linejoin:round"/><path d="M756.21,69.7s-8.4-1.18-6.75-8.12c0,0,16.11,2.89,17.58,4.63S764.62,70.87,756.21,69.7Z" style="fill:#fdf5bd;stroke:#754c24;stroke-linecap:round;stroke-linejoin:round"/><path d="M775.85,49.79s5.32-12.24.29-29.59c-2.18-6-1.55-9.47-1.55-9.47l1.55.62c-.53,1-.89,1.52,0,5.69C778.68,24.92,781.29,39.66,775.85,49.79Z" style="fill:#ff2b37"/><path d="M794.45,58a16.74,16.74,0,0,1-17.32,16.73c-11-.37-18.47-11.34-15.48-21.91,1.55-5.48,5.77-9,12.68-8.42a30.22,30.22,0,0,0,6.51-.31C788,43.14,794.45,49.89,794.45,58Z" style="fill:#ff2b37"/><path d="M790.57,67.64c14.63,6.3,4.43,30-10.21,23.74C788.88,85.05,792,77.05,790.57,67.64Z" style="fill:#f3f9f1;stroke:#754c24;stroke-linecap:round;stroke-linejoin:round"/><path d="M790.57,67.64s6.86,31-26.7,23.45C779.26,88.79,788.35,81.14,790.57,67.64Z" style="fill:#fdf5bd;stroke:#754c24;stroke-linecap:round;stroke-linejoin:round"/><path d="M790.57,67.64a5.38,5.38,0,0,0-7,.88c-3.47,3.48,0,16.79-23.15,17.94C760.39,99.19,794,88.78,790.57,67.64Z" style="fill:#f3f9f1;stroke:#754c24;stroke-linecap:round;stroke-linejoin:round"/><path d="M783.54,68.52s-11,17.36-32.4,13.31C757.26,96.74,789.66,83.43,783.54,68.52Z" style="fill:#fdf5bd;stroke:#754c24;stroke-linecap:round;stroke-linejoin:round"/><path d="M783.54,68.52s-7.83-6.89-9.84,2.32c-1.76,8.11-28.44,3.61-23.14,10.41C759.37,92.57,786.92,72.67,783.54,68.52Z" style="fill:#f3f9f1;stroke:#754c24;stroke-linecap:round;stroke-linejoin:round"/><path d="M748.8,69.55a1.45,1.45,0,0,1,2.34-1.1c3.69,2.93,12.15,7.74,20.83-.51,2.89-2.89,5.15-1.78,5.15-1.78C777.45,83,748.32,84.59,748.8,69.55Z" style="fill:#fdf5bd;stroke:#754c24;stroke-linecap:round;stroke-linejoin:round"/><path d="M774.56,66.21c-5.91-4-16.24,4.06-26.18.5C748.61,78.6,774.79,78.1,774.56,66.21Z" style="fill:#f3f9f1;stroke:#754c24;stroke-linecap:round;stroke-linejoin:round"/><path d="M767.34,47.32l1.73.77s-3.3.49-3.86,6.54C764.91,51.86,764.64,49.1,767.34,47.32Z" style="fill:#f3f9f1"/><path d="M826.38,69.14a6,6,0,0,1,4.49,4.49h-5.78Z" style="fill:#fdf5bd;stroke:#754c24;stroke-linecap:round;stroke-linejoin:round"/><path d="M789.73,74.75a6,6,0,0,1,4.49,4.49h-5.78Z" style="fill:#fdf5bd;stroke:#754c24;stroke-linecap:round;stroke-linejoin:round"/><path d="M825.09,73.63c9.65-1.3,15.93,1.5,17.75,9.72H828Z" style="fill:#f3f9f1;stroke:#754c24;stroke-linecap:round;stroke-linejoin:round"/><path d="M828,87.16V83.35s20.1-8.22,20.1,12-18,16.46-18,16.46Z" style="fill:#f3f9f1;stroke:#754c24;stroke-linecap:round;stroke-linejoin:round"/><path d="M828,88.2c17.63,1.11,15.66,32.54-2,31.44Q842.9,99.7,828,88.2Z" style="fill:#fdf5bd;stroke:#754c24;stroke-linecap:round;stroke-linejoin:round"/><path d="M783,82l-1.81-4.18s18.2-1.5,17.53,7.32S784.25,93.73,783,82Z" style="fill:#f3f9f1;stroke:#754c24;stroke-linecap:round;stroke-linejoin:round"/><path d="M783.58,90.85s-10.87-1.51-8.73-10.49c0,0,20.82,3.74,22.71,6S794.44,92.37,783.58,90.85Z" style="fill:#fdf5bd;stroke:#754c24;stroke-linecap:round;stroke-linejoin:round"/><path d="M809,65.12s6.88-15.82.39-38.25c-2.83-7.75-2-12.23-2-12.23l2,.79c-.69,1.27-1.16,2,0,7.36C812.62,33,816,52,809,65.12Z" style="fill:#ff2b37"/><path d="M833,75.71a21.64,21.64,0,0,1-22.38,21.63c-14.19-.48-23.88-14.67-20-28.32,2-7.08,7.47-11.67,16.4-10.89a38.77,38.77,0,0,0,8.4-.4C824.72,56.53,833,65.25,833,75.71Z" style="fill:#ff2b37"/><path d="M828,88.2c18.92,8.14,5.73,38.82-13.19,30.69C825.8,110.7,829.82,100.36,828,88.2Z" style="fill:#f3f9f1;stroke:#754c24;stroke-linecap:round;stroke-linejoin:round"/><path d="M828,88.2s8.88,40-34.51,30.31C813.37,115.54,825.12,105.64,828,88.2Z" style="fill:#fdf5bd;stroke:#754c24;stroke-linecap:round;stroke-linejoin:round"/><path d="M828,88.2a7,7,0,0,0-9.08,1.14c-4.49,4.49,0,21.69-29.92,23.19C789,129,832.37,115.52,828,88.2Z" style="fill:#f3f9f1;stroke:#754c24;stroke-linecap:round;stroke-linejoin:round"/><path d="M818.9,89.34s-14.21,22.44-41.89,17.2C784.92,125.81,826.81,108.6,818.9,89.34Z" style="fill:#fdf5bd;stroke:#754c24;stroke-linecap:round;stroke-linejoin:round"/><path d="M818.9,89.34s-10.12-8.91-12.72,3c-2.28,10.48-36.77,4.67-29.92,13.47C787.65,120.43,823.27,94.69,818.9,89.34Z" style="fill:#f3f9f1;stroke:#754c24;stroke-linecap:round;stroke-linejoin:round"/><path d="M774,90.67a1.87,1.87,0,0,1,3-1.42c4.76,3.78,15.7,10,26.92-.66,3.74-3.74,6.66-2.31,6.66-2.31C811,108.05,773.37,110.11,774,90.67Z" style="fill:#fdf5bd;stroke:#754c24;stroke-linecap:round;stroke-linejoin:round"/><path d="M807.29,86.35c-7.64-5.14-21,5.24-33.84.65C773.74,102.37,807.58,101.72,807.29,86.35Z" style="fill:#f3f9f1;stroke:#754c24;stroke-linecap:round;stroke-linejoin:round"/><path d="M798,61.94l2.23,1s-4.26.63-5,8.47C794.82,67.8,794.47,64.24,798,61.94Z" style="fill:#f3f9f1"/><path d="M462.86,68.17a6,6,0,0,1,4.49,4.48h-5.78Z" style="fill:#fdf5bd;stroke:#754c24;stroke-linecap:round;stroke-linejoin:round"/><path d="M426.2,73.78a6,6,0,0,1,4.49,4.48h-5.78Z" style="fill:#fdf5bd;stroke:#754c24;stroke-linecap:round;stroke-linejoin:round"/><path d="M461.57,72.65c9.65-1.3,15.92,1.51,17.74,9.73H464.46Z" style="fill:#f3f9f1;stroke:#754c24;stroke-linecap:round;stroke-linejoin:round"/><path d="M464.46,86.18v-3.8s20.09-8.23,20.09,12-17.95,16.46-17.95,16.46Z" style="fill:#f3f9f1;stroke:#754c24;stroke-linecap:round;stroke-linejoin:round"/><path d="M464.46,87.22c17.63,1.11,15.65,32.55-2,31.44Q479.39,98.74,464.46,87.22Z" style="fill:#fdf5bd;stroke:#754c24;stroke-linecap:round;stroke-linejoin:round"/><path d="M419.43,81l-1.81-4.17s18.2-1.51,17.53,7.32S420.73,92.76,419.43,81Z" style="fill:#f3f9f1;stroke:#754c24;stroke-linecap:round;stroke-linejoin:round"/><path d="M420.05,89.88s-10.87-1.52-8.73-10.49c0,0,20.82,3.74,22.72,6S430.92,91.39,420.05,89.88Z" style="fill:#fdf5bd;stroke:#754c24;stroke-linecap:round;stroke-linejoin:round"/><path d="M445.43,64.14s6.88-15.82.38-38.24c-2.83-7.76-2-12.24-2-12.24l2,.8c-.69,1.26-1.15,2,0,7.35C449.09,32,452.46,51.05,445.43,64.14Z" style="fill:#ff2b37"/><path d="M469.48,74.74a21.64,21.64,0,0,1-22.39,21.62c-14.18-.48-23.88-14.66-20-28.32,2-7.08,7.47-11.67,16.4-10.89a38.83,38.83,0,0,0,8.41-.39C461.2,55.55,469.48,64.28,469.48,74.74Z" style="fill:#ff2b37"/><path d="M464.46,87.22c18.92,8.14,5.72,38.83-13.2,30.69C462.28,109.73,466.29,99.38,464.46,87.22Z" style="fill:#f3f9f1;stroke:#754c24;stroke-linecap:round;stroke-linejoin:round"/><path d="M464.46,87.22s8.87,40-34.52,30.32C449.84,114.56,461.59,104.67,464.46,87.22Z" style="fill:#fdf5bd;stroke:#754c24;stroke-linecap:round;stroke-linejoin:round"/><path d="M464.46,87.22a7,7,0,0,0-9.08,1.14c-4.49,4.49,0,21.7-29.93,23.19C425.45,128,468.84,114.55,464.46,87.22Z" style="fill:#f3f9f1;stroke:#754c24;stroke-linecap:round;stroke-linejoin:round"/><path d="M455.38,88.36s-14.22,22.45-41.9,17.21C421.4,124.83,463.29,107.63,455.38,88.36Z" style="fill:#fdf5bd;stroke:#754c24;stroke-linecap:round;stroke-linejoin:round"/><path d="M455.38,88.36s-10.13-8.9-12.72,3c-2.29,10.48-36.77,4.67-29.92,13.46C424.13,119.45,459.74,93.72,455.38,88.36Z" style="fill:#f3f9f1;stroke:#754c24;stroke-linecap:round;stroke-linejoin:round"/><path d="M410.47,89.69a1.87,1.87,0,0,1,3-1.42c4.77,3.78,15.7,10,26.93-.65,3.74-3.75,6.65-2.32,6.65-2.32C447.51,107.08,409.84,109.13,410.47,89.69Z" style="fill:#fdf5bd;stroke:#754c24;stroke-linecap:round;stroke-linejoin:round"/><path d="M443.76,85.37c-7.64-5.14-21,5.25-33.84.65C410.22,101.39,444.06,100.74,443.76,85.37Z" style="fill:#f3f9f1;stroke:#754c24;stroke-linecap:round;stroke-linejoin:round"/><path d="M434.43,61l2.24,1s-4.27.64-5,8.47C431.29,66.83,431,63.26,434.43,61Z" style="fill:#f3f9f1"/><path d="M770,77.72a7.15,7.15,0,0,1,5.38,5.37H768.5Z" style="fill:#fdf5bd;stroke:#754c24;stroke-linecap:round;stroke-linejoin:round"/><path d="M726.14,84.44a7.15,7.15,0,0,1,5.38,5.37H724.6Z" style="fill:#fdf5bd;stroke:#754c24;stroke-linecap:round;stroke-linejoin:round"/><path d="M768.5,83.09c11.56-1.56,19.07,1.8,21.25,11.65H772Z" style="fill:#f3f9f1;stroke:#754c24;stroke-linecap:round;stroke-linejoin:round"/><path d="M772,99.29V94.74S796,84.88,796,109.07s-21.5,19.71-21.5,19.71Z" style="fill:#f3f9f1;stroke:#754c24;stroke-linecap:round;stroke-linejoin:round"/><path d="M772,100.54c21.11,1.33,18.75,39-2.36,37.65Q789.82,114.33,772,100.54Z" style="fill:#fdf5bd;stroke:#754c24;stroke-linecap:round;stroke-linejoin:round"/><path d="M718,93.11l-2.16-5s21.8-1.8,21,8.77S719.59,107.17,718,93.11Z" style="fill:#f3f9f1;stroke:#754c24;stroke-linecap:round;stroke-linejoin:round"/><path d="M718.78,103.72s-13-1.81-10.45-12.57c0,0,24.93,4.48,27.2,7.17S731.79,105.54,718.78,103.72Z" style="fill:#fdf5bd;stroke:#754c24;stroke-linecap:round;stroke-linejoin:round"/><path d="M749.17,72.9s8.24-19,.46-45.8c-3.39-9.29-2.41-14.66-2.41-14.66l2.41,1c-.83,1.51-1.38,2.35,0,8.8C753.56,34.4,757.59,57.22,749.17,72.9Z" style="fill:#ff2b37"/><path d="M778,85.58a25.91,25.91,0,0,1-26.81,25.9c-17-.57-28.6-17.56-24-33.91,2.39-8.48,8.94-14,19.64-13a47.11,47.11,0,0,0,10.06-.47C768.05,62.61,778,73.06,778,85.58Z" style="fill:#ff2b37"/><path d="M772,100.54c22.66,9.74,6.85,46.5-15.8,36.75C769.35,127.49,774.16,115.1,772,100.54Z" style="fill:#f3f9f1;stroke:#754c24;stroke-linecap:round;stroke-linejoin:round"/><path d="M772,100.54s10.63,48-41.34,36.31C754.46,133.28,768.53,121.43,772,100.54Z" style="fill:#fdf5bd;stroke:#754c24;stroke-linecap:round;stroke-linejoin:round"/><path d="M772,100.54a8.33,8.33,0,0,0-10.88,1.37c-5.37,5.37,0,26-35.83,27.77C725.25,149.39,777.21,133.26,772,100.54Z" style="fill:#f3f9f1;stroke:#754c24;stroke-linecap:round;stroke-linejoin:round"/><path d="M761.08,101.91s-17,26.87-50.17,20.6C720.39,145.58,770.56,125,761.08,101.91Z" style="fill:#fdf5bd;stroke:#754c24;stroke-linecap:round;stroke-linejoin:round"/><path d="M761.08,101.91S749,91.24,745.85,105.49c-2.73,12.55-44,5.59-35.83,16.13C723.66,139.14,766.31,108.32,761.08,101.91Z" style="fill:#f3f9f1;stroke:#754c24;stroke-linecap:round;stroke-linejoin:round"/><path d="M707.31,103.5a2.24,2.24,0,0,1,3.61-1.71c5.71,4.53,18.81,12,32.25-.78,4.48-4.48,8-2.77,8-2.77C751.66,124.32,706.55,126.78,707.31,103.5Z" style="fill:#fdf5bd;stroke:#754c24;stroke-linecap:round;stroke-linejoin:round"/><path d="M747.17,98.32c-9.15-6.15-25.13,6.29-40.52.78C707,117.51,747.53,116.73,747.17,98.32Z" style="fill:#f3f9f1;stroke:#754c24;stroke-linecap:round;stroke-linejoin:round"/><path d="M736,69.09l2.68,1.18s-5.11.75-6,10.13C732.24,76.11,731.83,71.84,736,69.09Z" style="fill:#f3f9f1"/><path d="M536.8,76.25a7.17,7.17,0,0,1,5.38,5.38h-6.92Z" style="fill:#fdf5bd;stroke:#754c24;stroke-linecap:round;stroke-linejoin:round"/><path d="M492.9,83a7.17,7.17,0,0,1,5.38,5.38h-6.92Z" style="fill:#fdf5bd;stroke:#754c24;stroke-linecap:round;stroke-linejoin:round"/><path d="M535.26,81.63c11.55-1.56,19.07,1.8,21.25,11.64H538.72Z" style="fill:#f3f9f1;stroke:#754c24;stroke-linecap:round;stroke-linejoin:round"/><path d="M538.72,97.83V93.27s24.06-9.85,24.06,14.34-21.5,19.71-21.5,19.71Z" style="fill:#f3f9f1;stroke:#754c24;stroke-linecap:round;stroke-linejoin:round"/><path d="M538.72,99.08c21.11,1.32,18.75,39-2.37,37.65Q556.59,112.87,538.72,99.08Z" style="fill:#fdf5bd;stroke:#754c24;stroke-linecap:round;stroke-linejoin:round"/><path d="M484.79,91.65l-2.16-5s21.79-1.8,21,8.77S486.35,105.71,484.79,91.65Z" style="fill:#f3f9f1;stroke:#754c24;stroke-linecap:round;stroke-linejoin:round"/><path d="M485.53,102.26s-13-1.82-10.44-12.57c0,0,24.92,4.48,27.2,7.17S498.55,104.07,485.53,102.26Z" style="fill:#fdf5bd;stroke:#754c24;stroke-linecap:round;stroke-linejoin:round"/><path d="M515.93,71.44s8.24-18.95.46-45.81C513,16.35,514,11,514,11l2.41.95c-.83,1.52-1.39,2.36,0,8.81C520.32,32.94,524.35,55.75,515.93,71.44Z" style="fill:#ff2b37"/><path d="M544.73,84.12A25.91,25.91,0,0,1,517.92,110c-17-.58-28.6-17.56-24-33.92,2.4-8.48,8.95-14,19.65-13a47.12,47.12,0,0,0,10.06-.48C534.81,61.15,544.73,71.6,544.73,84.12Z" style="fill:#ff2b37"/><path d="M538.72,99.08c22.65,9.74,6.85,46.49-15.81,36.75C536.1,126,540.92,113.64,538.72,99.08Z" style="fill:#f3f9f1;stroke:#754c24;stroke-linecap:round;stroke-linejoin:round"/><path d="M538.72,99.08s10.62,48-41.34,36.3C521.21,131.82,535.29,120,538.72,99.08Z" style="fill:#fdf5bd;stroke:#754c24;stroke-linecap:round;stroke-linejoin:round"/><path d="M538.72,99.08a8.33,8.33,0,0,0-10.88,1.36c-5.37,5.38,0,26-35.83,27.77C492,147.92,544,131.8,538.72,99.08Z" style="fill:#f3f9f1;stroke:#754c24;stroke-linecap:round;stroke-linejoin:round"/><path d="M527.84,100.44s-17,26.88-50.17,20.61C487.15,144.12,537.32,123.51,527.84,100.44Z" style="fill:#fdf5bd;stroke:#754c24;stroke-linecap:round;stroke-linejoin:round"/><path d="M527.84,100.44S515.72,89.78,512.61,104c-2.73,12.55-44,5.59-35.83,16.12C490.42,137.67,533.07,106.86,527.84,100.44Z" style="fill:#f3f9f1;stroke:#754c24;stroke-linecap:round;stroke-linejoin:round"/><path d="M474.06,102a2.25,2.25,0,0,1,3.62-1.71c5.71,4.53,18.81,12,32.24-.78,4.48-4.48,8-2.77,8-2.77C518.42,122.85,473.31,125.32,474.06,102Z" style="fill:#fdf5bd;stroke:#754c24;stroke-linecap:round;stroke-linejoin:round"/><path d="M513.93,96.86c-9.15-6.16-25.13,6.28-40.52.78C473.76,116,514.29,115.26,513.93,96.86Z" style="fill:#f3f9f1;stroke:#754c24;stroke-linecap:round;stroke-linejoin:round"/><path d="M502.76,67.62l2.68,1.18s-5.11.76-6,10.14C499,74.65,498.58,70.38,502.76,67.62Z" style="fill:#f3f9f1"/><polygon points="1098 771.17 155 771.17 157 608.17 0 23.17 1258 35.17 1096 608.17 1098 771.17" style="fill:none"/></g></g></svg>