<svg xmlns="http://www.w3.org/2000/svg" viewBox="0 0 1258 878.97"><g id="Layer_2" data-name="Layer 2"><g id="Layer_2-2" data-name="Layer 2"><path d="M756.58,86.41s5.93,1.18,7.11,7.11h-9.16Z" style="fill:#fdf5bd;stroke:#754c24;stroke-linecap:round;stroke-linejoin:round"/><path d="M698.46,95.3s5.93,1.19,7.12,7.12h-9.16Z" style="fill:#fdf5bd;stroke:#754c24;stroke-linecap:round;stroke-linejoin:round"/><path d="M754.53,93.52c15.3-2.06,25.25,2.39,28.14,15.42H759.11Z" style="fill:#f3f9f1;stroke:#754c24;stroke-linecap:round;stroke-linejoin:round"/><path d="M759.11,115v-6s31.86-13,31.86,19S762.51,154,762.51,154Z" style="fill:#f3f9f1;stroke:#754c24;stroke-linecap:round;stroke-linejoin:round"/><path d="M759.11,116.62c27.95,1.76,24.82,51.6-3.13,49.84Q782.77,134.87,759.11,116.62Z" style="fill:#fdf5bd;stroke:#754c24;stroke-linecap:round;stroke-linejoin:round"/><path d="M687.73,106.79l-2.87-6.62s28.85-2.38,27.79,11.61S689.78,125.4,687.73,106.79Z" style="fill:#f3f9f1;stroke:#754c24;stroke-linecap:round;stroke-linejoin:round"/><path d="M688.71,120.83s-17.23-2.4-13.83-16.63c0,0,33,5.93,36,9.49S705.94,123.24,688.71,120.83Z" style="fill:#fdf5bd;stroke:#754c24;stroke-linecap:round;stroke-linejoin:round"/><path d="M728.94,80s10.91-25.08.61-60.63C725.07,7.11,726.36,0,726.36,0l3.19,1.26c-1.09,2-1.83,3.12,0,11.66C734.76,29.07,740.1,59.27,728.94,80Z" style="fill:#ff2b37"/><path d="M767.07,96.82a34.31,34.31,0,0,1-35.49,34.29c-22.49-.76-37.86-23.25-31.74-44.9C703,75,711.68,67.72,725.84,69a61.36,61.36,0,0,0,13.33-.63C753.94,66.42,767.07,80.25,767.07,96.82Z" style="fill:#ff2b37"/><path d="M759.11,116.62c30,12.9,9.08,61.55-20.92,48.66C755.65,152.3,762,135.9,759.11,116.62Z" style="fill:#f3f9f1;stroke:#754c24;stroke-linecap:round;stroke-linejoin:round"/><path d="M759.11,116.62s14.07,63.48-54.72,48.06C735.94,160,754.57,144.28,759.11,116.62Z" style="fill:#fdf5bd;stroke:#754c24;stroke-linecap:round;stroke-linejoin:round"/><path d="M759.11,116.62s-7.28-5.31-14.39,1.81,0,34.39-47.44,36.77C697.28,181.29,766.06,159.94,759.11,116.62Z" style="fill:#f3f9f1;stroke:#754c24;stroke-linecap:round;stroke-linejoin:round"/><path d="M744.72,118.43S722.18,154,678.3,145.71C690.84,176.25,757.26,149,744.72,118.43Z" style="fill:#fdf5bd;stroke:#754c24;stroke-linecap:round;stroke-linejoin:round"/><path d="M744.72,118.43s-16.05-14.12-20.17,4.74c-3.62,16.62-58.29,7.41-47.43,21.35C695.18,167.72,751.64,126.92,744.72,118.43Z" style="fill:#f3f9f1;stroke:#754c24;stroke-linecap:round;stroke-linejoin:round"/><path d="M673.53,120.54a3,3,0,0,1,4.78-2.26c7.56,6,24.9,15.86,42.69-1,5.93-5.93,10.55-3.66,10.55-3.66C732.24,148.1,672.52,151.36,673.53,120.54Z" style="fill:#fdf5bd;stroke:#754c24;stroke-linecap:round;stroke-linejoin:round"/><path d="M726.3,113.69c-12.11-8.15-33.27,8.31-53.64,1C673.12,139.08,726.77,138.05,726.3,113.69Z" style="fill:#f3f9f1;stroke:#754c24;stroke-linecap:round;stroke-linejoin:round"/><path d="M711.51,75l3.55,1.55s-6.76,1-7.91,13.43C706.53,84.29,706,78.63,711.51,75Z" style="fill:#f3f9f1"/><path d="M852.58,86.41s5.93,1.18,7.11,7.11h-9.16Z" style="fill:#fdf5bd;stroke:#754c24;stroke-linecap:round;stroke-linejoin:round"/><path d="M794.46,95.3s5.93,1.19,7.12,7.12h-9.16Z" style="fill:#fdf5bd;stroke:#754c24;stroke-linecap:round;stroke-linejoin:round"/><path d="M850.53,93.52c15.3-2.06,25.25,2.39,28.14,15.42H855.11Z" style="fill:#f3f9f1;stroke:#754c24;stroke-linecap:round;stroke-linejoin:round"/><path d="M855.11,115v-6s31.86-13,31.86,19S858.51,154,858.51,154Z" style="fill:#f3f9f1;stroke:#754c24;stroke-linecap:round;stroke-linejoin:round"/><path d="M855.11,116.62c27.95,1.76,24.82,51.6-3.13,49.84Q878.77,134.87,855.11,116.62Z" style="fill:#fdf5bd;stroke:#754c24;stroke-linecap:round;stroke-linejoin:round"/><path d="M783.73,106.79l-2.87-6.62s28.85-2.38,27.79,11.61S785.78,125.4,783.73,106.79Z" style="fill:#f3f9f1;stroke:#754c24;stroke-linecap:round;stroke-linejoin:round"/><path d="M784.71,120.83s-17.23-2.4-13.83-16.63c0,0,33,5.93,36,9.49S801.94,123.24,784.71,120.83Z" style="fill:#fdf5bd;stroke:#754c24;stroke-linecap:round;stroke-linejoin:round"/><path d="M824.94,80s10.91-25.08.61-60.63C821.07,7.11,822.36,0,822.36,0l3.19,1.26c-1.09,2-1.83,3.12,0,11.66C830.76,29.07,836.1,59.27,824.94,80Z" style="fill:#ff2b37"/><path d="M863.07,96.82a34.31,34.31,0,0,1-35.49,34.29c-22.49-.76-37.86-23.25-31.74-44.9C799,75,807.68,67.72,821.84,69a61.36,61.36,0,0,0,13.33-.63C849.94,66.42,863.07,80.25,863.07,96.82Z" style="fill:#ff2b37"/><path d="M855.11,116.62c30,12.9,9.08,61.55-20.92,48.66C851.65,152.3,858,135.9,855.11,116.62Z" style="fill:#f3f9f1;stroke:#754c24;stroke-linecap:round;stroke-linejoin:round"/><path d="M855.11,116.62s14.07,63.48-54.72,48.06C831.94,160,850.57,144.28,855.11,116.62Z" style="fill:#fdf5bd;stroke:#754c24;stroke-linecap:round;stroke-linejoin:round"/><path d="M855.11,116.62s-7.28-5.31-14.39,1.81,0,34.39-47.44,36.77C793.28,181.29,862.06,159.94,855.11,116.62Z" style="fill:#f3f9f1;stroke:#754c24;stroke-linecap:round;stroke-linejoin:round"/><path d="M840.72,118.43S818.18,154,774.3,145.71C786.84,176.25,853.26,149,840.72,118.43Z" style="fill:#fdf5bd;stroke:#754c24;stroke-linecap:round;stroke-linejoin:round"/><path d="M840.72,118.43s-16.05-14.12-20.17,4.74c-3.62,16.62-58.29,7.41-47.43,21.35C791.18,167.72,847.64,126.92,840.72,118.43Z" style="fill:#f3f9f1;stroke:#754c24;stroke-linecap:round;stroke-linejoin:round"/><path d="M769.53,120.54a3,3,0,0,1,4.78-2.26c7.56,6,24.9,15.86,42.69-1,5.93-5.93,10.55-3.66,10.55-3.66C828.24,148.1,768.52,151.36,769.53,120.54Z" style="fill:#fdf5bd;stroke:#754c24;stroke-linecap:round;stroke-linejoin:round"/><path d="M822.3,113.69c-12.11-8.15-33.27,8.31-53.64,1C769.12,139.08,822.77,138.05,822.3,113.69Z" style="fill:#f3f9f1;stroke:#754c24;stroke-linecap:round;stroke-linejoin:round"/><path d="M807.51,75l3.55,1.55s-6.76,1-7.91,13.43C802.53,84.29,802,78.63,807.51,75Z" style="fill:#f3f9f1"/><path d="M654.58,88.41s5.93,1.18,7.11,7.11h-9.16Z" style="fill:#fdf5bd;stroke:#754c24;stroke-linecap:round;stroke-linejoin:round"/><path d="M596.46,97.3s5.93,1.19,7.12,7.12h-9.16Z" style="fill:#fdf5bd;stroke:#754c24;stroke-linecap:round;stroke-linejoin:round"/><path d="M652.53,95.52c15.3-2.06,25.25,2.39,28.14,15.42H657.11Z" style="fill:#f3f9f1;stroke:#754c24;stroke-linecap:round;stroke-linejoin:round"/><path d="M657.11,117v-6s31.86-13,31.86,19S660.51,156,660.51,156Z" style="fill:#f3f9f1;stroke:#754c24;stroke-linecap:round;stroke-linejoin:round"/><path d="M657.11,118.62c27.95,1.76,24.82,51.6-3.13,49.84Q680.77,136.87,657.11,118.62Z" style="fill:#fdf5bd;stroke:#754c24;stroke-linecap:round;stroke-linejoin:round"/><path d="M585.73,108.79l-2.87-6.62s28.85-2.38,27.79,11.61S587.78,127.4,585.73,108.79Z" style="fill:#f3f9f1;stroke:#754c24;stroke-linecap:round;stroke-linejoin:round"/><path d="M586.71,122.83s-17.23-2.4-13.83-16.63c0,0,33,5.93,36,9.49S603.94,125.24,586.71,122.83Z" style="fill:#fdf5bd;stroke:#754c24;stroke-linecap:round;stroke-linejoin:round"/><path d="M626.94,82s10.91-25.08.61-60.63C623.07,9.11,624.36,2,624.36,2l3.19,1.26c-1.09,2-1.83,3.12,0,11.66C632.76,31.07,638.1,61.27,626.94,82Z" style="fill:#ff2b37"/><path d="M665.07,98.82a34.31,34.31,0,0,1-35.49,34.29c-22.49-.76-37.86-23.25-31.74-44.9C601,77,609.68,69.72,623.84,71a61.36,61.36,0,0,0,13.33-.63C651.94,68.42,665.07,82.25,665.07,98.82Z" style="fill:#ff2b37"/><path d="M657.11,118.62c30,12.9,9.08,61.55-20.92,48.66C653.65,154.3,660,137.9,657.11,118.62Z" style="fill:#f3f9f1;stroke:#754c24;stroke-linecap:round;stroke-linejoin:round"/><path d="M657.11,118.62s14.07,63.48-54.72,48.06C633.94,162,652.57,146.28,657.11,118.62Z" style="fill:#fdf5bd;stroke:#754c24;stroke-linecap:round;stroke-linejoin:round"/><path d="M657.11,118.62s-7.28-5.31-14.39,1.81,0,34.39-47.44,36.77C595.28,183.29,664.06,161.94,657.11,118.62Z" style="fill:#f3f9f1;stroke:#754c24;stroke-linecap:round;stroke-linejoin:round"/><path d="M642.72,120.43S620.18,156,576.3,147.71C588.84,178.25,655.26,151,642.72,120.43Z" style="fill:#fdf5bd;stroke:#754c24;stroke-linecap:round;stroke-linejoin:round"/><path d="M642.72,120.43s-16.05-14.12-20.17,4.74c-3.62,16.62-58.29,7.41-47.43,21.35C593.18,169.72,649.64,128.92,642.72,120.43Z" style="fill:#f3f9f1;stroke:#754c24;stroke-linecap:round;stroke-linejoin:round"/><path d="M571.53,122.54a3,3,0,0,1,4.78-2.26c7.56,6,24.9,15.86,42.69-1,5.93-5.93,10.55-3.66,10.55-3.66C630.24,150.1,570.52,153.36,571.53,122.54Z" style="fill:#fdf5bd;stroke:#754c24;stroke-linecap:round;stroke-linejoin:round"/><path d="M624.3,115.69c-12.11-8.15-33.27,8.31-53.64,1C571.12,141.08,624.77,140.05,624.3,115.69Z" style="fill:#f3f9f1;stroke:#754c24;stroke-linecap:round;stroke-linejoin:round"/><path d="M609.51,77l3.55,1.55s-6.76,1-7.91,13.43C604.53,86.29,604,80.63,609.51,77Z" style="fill:#f3f9f1"/><path d="M554.58,94.41s5.93,1.18,7.11,7.11h-9.16Z" style="fill:#fdf5bd;stroke:#754c24;stroke-linecap:round;stroke-linejoin:round"/><path d="M496.46,103.3s5.93,1.19,7.12,7.12h-9.16Z" style="fill:#fdf5bd;stroke:#754c24;stroke-linecap:round;stroke-linejoin:round"/><path d="M552.53,101.52c15.3-2.06,25.25,2.39,28.14,15.42H557.11Z" style="fill:#f3f9f1;stroke:#754c24;stroke-linecap:round;stroke-linejoin:round"/><path d="M557.11,123v-6s31.86-13,31.86,19S560.51,162,560.51,162Z" style="fill:#f3f9f1;stroke:#754c24;stroke-linecap:round;stroke-linejoin:round"/><path d="M557.11,124.62c27.95,1.76,24.82,51.6-3.13,49.84Q580.77,142.87,557.11,124.62Z" style="fill:#fdf5bd;stroke:#754c24;stroke-linecap:round;stroke-linejoin:round"/><path d="M485.73,114.79l-2.87-6.62s28.85-2.38,27.79,11.61S487.78,133.4,485.73,114.79Z" style="fill:#f3f9f1;stroke:#754c24;stroke-linecap:round;stroke-linejoin:round"/><path d="M486.71,128.83s-17.23-2.4-13.83-16.63c0,0,33,5.93,36,9.49S503.94,131.24,486.71,128.83Z" style="fill:#fdf5bd;stroke:#754c24;stroke-linecap:round;stroke-linejoin:round"/><path d="M526.94,88s10.91-25.08.61-60.63C523.07,15.11,524.36,8,524.36,8l3.19,1.26c-1.09,2-1.83,3.12,0,11.66C532.76,37.07,538.1,67.27,526.94,88Z" style="fill:#ff2b37"/><path d="M565.07,104.82a34.31,34.31,0,0,1-35.49,34.29c-22.49-.76-37.86-23.25-31.74-44.9C501,83,509.68,75.72,523.84,77a61.36,61.36,0,0,0,13.33-.63C551.94,74.42,565.07,88.25,565.07,104.82Z" style="fill:#ff2b37"/><path d="M557.11,124.62c30,12.9,9.08,61.55-20.92,48.66C553.65,160.3,560,143.9,557.11,124.62Z" style="fill:#f3f9f1;stroke:#754c24;stroke-linecap:round;stroke-linejoin:round"/><path d="M557.11,124.62s14.07,63.48-54.72,48.06C533.94,168,552.57,152.28,557.11,124.62Z" style="fill:#fdf5bd;stroke:#754c24;stroke-linecap:round;stroke-linejoin:round"/><path d="M557.11,124.62s-7.28-5.31-14.39,1.81,0,34.39-47.44,36.77C495.28,189.29,564.06,167.94,557.11,124.62Z" style="fill:#f3f9f1;stroke:#754c24;stroke-linecap:round;stroke-linejoin:round"/><path d="M542.72,126.43S520.18,162,476.3,153.71C488.84,184.25,555.26,157,542.72,126.43Z" style="fill:#fdf5bd;stroke:#754c24;stroke-linecap:round;stroke-linejoin:round"/><path d="M542.72,126.43s-16.05-14.12-20.17,4.74c-3.62,16.62-58.29,7.41-47.43,21.35C493.18,175.72,549.64,134.92,542.72,126.43Z" style="fill:#f3f9f1;stroke:#754c24;stroke-linecap:round;stroke-linejoin:round"/><path d="M471.53,128.54a3,3,0,0,1,4.78-2.26c7.56,6,24.9,15.86,42.69-1,5.93-5.93,10.55-3.66,10.55-3.66C530.24,156.1,470.52,159.36,471.53,128.54Z" style="fill:#fdf5bd;stroke:#754c24;stroke-linecap:round;stroke-linejoin:round"/><path d="M524.3,121.69c-12.11-8.15-33.27,8.31-53.64,1C471.12,147.08,524.77,146.05,524.3,121.69Z" style="fill:#f3f9f1;stroke:#754c24;stroke-linecap:round;stroke-linejoin:round"/><path d="M509.51,83l3.55,1.55s-6.76,1-7.91,13.43C504.53,92.29,504,86.63,509.51,83Z" style="fill:#f3f9f1"/><path d="M453.58,97.41s5.93,1.18,7.11,7.11h-9.16Z" style="fill:#fdf5bd;stroke:#754c24;stroke-linecap:round;stroke-linejoin:round"/><path d="M395.46,106.3s5.93,1.19,7.12,7.12h-9.16Z" style="fill:#fdf5bd;stroke:#754c24;stroke-linecap:round;stroke-linejoin:round"/><path d="M451.53,104.52c15.3-2.06,25.25,2.39,28.14,15.42H456.11Z" style="fill:#f3f9f1;stroke:#754c24;stroke-linecap:round;stroke-linejoin:round"/><path d="M456.11,126v-6s31.86-13,31.86,19S459.51,165,459.51,165Z" style="fill:#f3f9f1;stroke:#754c24;stroke-linecap:round;stroke-linejoin:round"/><path d="M456.11,127.62c27.95,1.76,24.82,51.6-3.13,49.84Q479.77,145.87,456.11,127.62Z" style="fill:#fdf5bd;stroke:#754c24;stroke-linecap:round;stroke-linejoin:round"/><path d="M384.73,117.79l-2.87-6.62s28.85-2.38,27.79,11.61S386.78,136.4,384.73,117.79Z" style="fill:#f3f9f1;stroke:#754c24;stroke-linecap:round;stroke-linejoin:round"/><path d="M385.71,131.83s-17.23-2.4-13.83-16.63c0,0,33,5.93,36,9.49S402.94,134.24,385.71,131.83Z" style="fill:#fdf5bd;stroke:#754c24;stroke-linecap:round;stroke-linejoin:round"/><path d="M425.94,91s10.91-25.08.61-60.63c-4.48-12.29-3.19-19.4-3.19-19.4l3.19,1.26c-1.09,2-1.83,3.12,0,11.66C431.76,40.07,437.1,70.27,425.94,91Z" style="fill:#ff2b37"/><path d="M464.07,107.82a34.31,34.31,0,0,1-35.49,34.29c-22.49-.76-37.86-23.25-31.74-44.9C400,86,408.68,78.72,422.84,80a61.36,61.36,0,0,0,13.33-.63C450.94,77.42,464.07,91.25,464.07,107.82Z" style="fill:#ff2b37"/><path d="M456.11,127.62c30,12.9,9.08,61.55-20.92,48.66C452.65,163.3,459,146.9,456.11,127.62Z" style="fill:#f3f9f1;stroke:#754c24;stroke-linecap:round;stroke-linejoin:round"/><path d="M456.11,127.62s14.07,63.48-54.72,48.06C432.94,171,451.57,155.28,456.11,127.62Z" style="fill:#fdf5bd;stroke:#754c24;stroke-linecap:round;stroke-linejoin:round"/><path d="M456.11,127.62s-7.28-5.31-14.39,1.81,0,34.39-47.44,36.77C394.28,192.29,463.06,170.94,456.11,127.62Z" style="fill:#f3f9f1;stroke:#754c24;stroke-linecap:round;stroke-linejoin:round"/><path d="M441.72,129.43S419.18,165,375.3,156.71C387.84,187.25,454.26,160,441.72,129.43Z" style="fill:#fdf5bd;stroke:#754c24;stroke-linecap:round;stroke-linejoin:round"/><path d="M441.72,129.43s-16.05-14.12-20.17,4.74c-3.62,16.62-58.29,7.41-47.43,21.35C392.18,178.72,448.64,137.92,441.72,129.43Z" style="fill:#f3f9f1;stroke:#754c24;stroke-linecap:round;stroke-linejoin:round"/><path d="M370.53,131.54a3,3,0,0,1,4.78-2.26c7.56,6,24.9,15.86,42.69-1,5.93-5.93,10.55-3.66,10.55-3.66C429.24,159.1,369.52,162.36,370.53,131.54Z" style="fill:#fdf5bd;stroke:#754c24;stroke-linecap:round;stroke-linejoin:round"/><path d="M423.3,124.69c-12.11-8.15-33.27,8.31-53.64,1C370.12,150.08,423.77,149.05,423.3,124.69Z" style="fill:#f3f9f1;stroke:#754c24;stroke-linecap:round;stroke-linejoin:round"/><path d="M408.51,86l3.55,1.55s-6.76,1-7.91,13.43C403.53,95.29,403,89.63,408.51,86Z" style="fill:#f3f9f1"/><path d="M352.58,110.41s5.93,1.18,7.11,7.11h-9.16Z" style="fill:#fdf5bd;stroke:#754c24;stroke-linecap:round;stroke-linejoin:round"/><path d="M294.46,119.3s5.93,1.19,7.12,7.12h-9.16Z" style="fill:#fdf5bd;stroke:#754c24;stroke-linecap:round;stroke-linejoin:round"/><path d="M350.53,117.52c15.3-2.06,25.25,2.39,28.14,15.42H355.11Z" style="fill:#f3f9f1;stroke:#754c24;stroke-linecap:round;stroke-linejoin:round"/><path d="M355.11,139v-6s31.86-13,31.86,19S358.51,178,358.51,178Z" style="fill:#f3f9f1;stroke:#754c24;stroke-linecap:round;stroke-linejoin:round"/><path d="M355.11,140.62c27.95,1.76,24.82,51.6-3.13,49.84Q378.77,158.87,355.11,140.62Z" style="fill:#fdf5bd;stroke:#754c24;stroke-linecap:round;stroke-linejoin:round"/><path d="M283.73,130.79l-2.87-6.62s28.85-2.38,27.79,11.61S285.78,149.4,283.73,130.79Z" style="fill:#f3f9f1;stroke:#754c24;stroke-linecap:round;stroke-linejoin:round"/><path d="M284.71,144.83s-17.23-2.4-13.83-16.63c0,0,33,5.93,36,9.49S301.94,147.24,284.71,144.83Z" style="fill:#fdf5bd;stroke:#754c24;stroke-linecap:round;stroke-linejoin:round"/><path d="M324.94,104s10.91-25.08.61-60.63c-4.48-12.29-3.19-19.4-3.19-19.4l3.19,1.26c-1.09,2-1.83,3.12,0,11.66C330.76,53.07,336.1,83.27,324.94,104Z" style="fill:#ff2b37"/><path d="M363.07,120.82a34.31,34.31,0,0,1-35.49,34.29c-22.49-.76-37.86-23.25-31.74-44.9C299,99,307.68,91.72,321.84,93a61.36,61.36,0,0,0,13.33-.63C349.94,90.42,363.07,104.25,363.07,120.82Z" style="fill:#ff2b37"/><path d="M355.11,140.62c30,12.9,9.08,61.55-20.92,48.66C351.65,176.3,358,159.9,355.11,140.62Z" style="fill:#f3f9f1;stroke:#754c24;stroke-linecap:round;stroke-linejoin:round"/><path d="M355.11,140.62s14.07,63.48-54.72,48.06C331.94,184,350.57,168.28,355.11,140.62Z" style="fill:#fdf5bd;stroke:#754c24;stroke-linecap:round;stroke-linejoin:round"/><path d="M355.11,140.62s-7.28-5.31-14.39,1.81,0,34.39-47.44,36.77C293.28,205.29,362.06,183.94,355.11,140.62Z" style="fill:#f3f9f1;stroke:#754c24;stroke-linecap:round;stroke-linejoin:round"/><path d="M340.72,142.43S318.18,178,274.3,169.71C286.84,200.25,353.26,173,340.72,142.43Z" style="fill:#fdf5bd;stroke:#754c24;stroke-linecap:round;stroke-linejoin:round"/><path d="M340.72,142.43s-16.05-14.12-20.17,4.74c-3.62,16.62-58.29,7.41-47.43,21.35C291.18,191.72,347.64,150.92,340.72,142.43Z" style="fill:#f3f9f1;stroke:#754c24;stroke-linecap:round;stroke-linejoin:round"/><path d="M269.53,144.54a3,3,0,0,1,4.78-2.26c7.56,6,24.9,15.86,42.69-1,5.93-5.93,10.55-3.66,10.55-3.66C328.24,172.1,268.52,175.36,269.53,144.54Z" style="fill:#fdf5bd;stroke:#754c24;stroke-linecap:round;stroke-linejoin:round"/><path d="M322.3,137.69c-12.11-8.15-33.27,8.31-53.64,1C269.12,163.08,322.77,162.05,322.3,137.69Z" style="fill:#f3f9f1;stroke:#754c24;stroke-linecap:round;stroke-linejoin:round"/><path d="M307.51,99l3.55,1.55s-6.76,1-7.91,13.43C302.53,108.29,302,102.63,307.51,99Z" style="fill:#f3f9f1"/><path d="M957.58,108.41s5.93,1.18,7.11,7.11h-9.16Z" style="fill:#fdf5bd;stroke:#754c24;stroke-linecap:round;stroke-linejoin:round"/><path d="M899.46,117.3s5.93,1.19,7.12,7.12h-9.16Z" style="fill:#fdf5bd;stroke:#754c24;stroke-linecap:round;stroke-linejoin:round"/><path d="M955.53,115.52c15.3-2.06,25.25,2.39,28.14,15.42H960.11Z" style="fill:#f3f9f1;stroke:#754c24;stroke-linecap:round;stroke-linejoin:round"/><path d="M960.11,137v-6s31.86-13,31.86,19S963.51,176,963.51,176Z" style="fill:#f3f9f1;stroke:#754c24;stroke-linecap:round;stroke-linejoin:round"/><path d="M960.11,138.62c27.95,1.76,24.82,51.6-3.13,49.84Q983.77,156.87,960.11,138.62Z" style="fill:#fdf5bd;stroke:#754c24;stroke-linecap:round;stroke-linejoin:round"/><path d="M888.73,128.79l-2.87-6.62s28.85-2.38,27.79,11.61S890.78,147.4,888.73,128.79Z" style="fill:#f3f9f1;stroke:#754c24;stroke-linecap:round;stroke-linejoin:round"/><path d="M889.71,142.83s-17.23-2.4-13.83-16.63c0,0,33,5.93,36,9.49S906.94,145.24,889.71,142.83Z" style="fill:#fdf5bd;stroke:#754c24;stroke-linecap:round;stroke-linejoin:round"/><path d="M929.94,102s10.91-25.08.61-60.63c-4.48-12.29-3.19-19.4-3.19-19.4l3.19,1.26c-1.09,2-1.83,3.12,0,11.66C935.76,51.07,941.1,81.27,929.94,102Z" style="fill:#ff2b37"/><path d="M968.07,118.82a34.31,34.31,0,0,1-35.49,34.29c-22.49-.76-37.86-23.25-31.74-44.9C904,97,912.68,89.72,926.84,91a61.36,61.36,0,0,0,13.33-.63C954.94,88.42,968.07,102.25,968.07,118.82Z" style="fill:#ff2b37"/><path d="M960.11,138.62c30,12.9,9.08,61.55-20.92,48.66C956.65,174.3,963,157.9,960.11,138.62Z" style="fill:#f3f9f1;stroke:#754c24;stroke-linecap:round;stroke-linejoin:round"/><path d="M960.11,138.62s14.07,63.48-54.72,48.06C936.94,182,955.57,166.28,960.11,138.62Z" style="fill:#fdf5bd;stroke:#754c24;stroke-linecap:round;stroke-linejoin:round"/><path d="M960.11,138.62s-7.28-5.31-14.39,1.81,0,34.39-47.44,36.77C898.28,203.29,967.06,181.94,960.11,138.62Z" style="fill:#f3f9f1;stroke:#754c24;stroke-linecap:round;stroke-linejoin:round"/><path d="M945.72,140.43S923.18,176,879.3,167.71C891.84,198.25,958.26,171,945.72,140.43Z" style="fill:#fdf5bd;stroke:#754c24;stroke-linecap:round;stroke-linejoin:round"/><path d="M945.72,140.43s-16.05-14.12-20.17,4.74c-3.62,16.62-58.29,7.41-47.43,21.35C896.18,189.72,952.64,148.92,945.72,140.43Z" style="fill:#f3f9f1;stroke:#754c24;stroke-linecap:round;stroke-linejoin:round"/><path d="M874.53,142.54a3,3,0,0,1,4.78-2.26c7.56,6,24.9,15.86,42.69-1,5.93-5.93,10.55-3.66,10.55-3.66C933.24,170.1,873.52,173.36,874.53,142.54Z" style="fill:#fdf5bd;stroke:#754c24;stroke-linecap:round;stroke-linejoin:round"/><path d="M927.3,135.69c-12.11-8.15-33.27,8.31-53.64,1C874.12,161.08,927.77,160.05,927.3,135.69Z" style="fill:#f3f9f1;stroke:#754c24;stroke-linecap:round;stroke-linejoin:round"/><path d="M912.51,97l3.55,1.55s-6.76,1-7.91,13.43C907.53,106.29,907,100.63,912.51,97Z" style="fill:#f3f9f1"/><path d="M1033.51,141.7s7.67,1.53,9.2,9.19h-11.84Z" style="fill:#fdf5bd;stroke:#754c24;stroke-linecap:round;stroke-linejoin:round"/><path d="M958.39,153.19s7.67,1.54,9.2,9.2H955.75Z" style="fill:#fdf5bd;stroke:#754c24;stroke-linecap:round;stroke-linejoin:round"/><path d="M1030.87,150.89c19.77-2.67,32.63,3.08,36.37,19.93h-30.45Z" style="fill:#f3f9f1;stroke:#754c24;stroke-linecap:round;stroke-linejoin:round"/><path d="M1036.79,178.62v-7.8S1078,154,1078,195.35s-36.79,33.73-36.79,33.73Z" style="fill:#f3f9f1;stroke:#754c24;stroke-linecap:round;stroke-linejoin:round"/><path d="M1036.79,180.76c36.13,2.26,32.08,66.69-4,64.42Q1067.38,204.35,1036.79,180.76Z" style="fill:#fdf5bd;stroke:#754c24;stroke-linecap:round;stroke-linejoin:round"/><path d="M944.51,168l-3.7-8.55s37.3-3.08,35.92,15S947.17,192.1,944.51,168Z" style="fill:#f3f9f1;stroke:#754c24;stroke-linecap:round;stroke-linejoin:round"/><path d="M945.78,186.2s-22.26-3.11-17.88-21.51c0,0,42.66,7.67,46.55,12.27S968.05,189.3,945.78,186.2Z" style="fill:#fdf5bd;stroke:#754c24;stroke-linecap:round;stroke-linejoin:round"/><path d="M997.79,133.45s14.1-32.42.79-78.37c-5.8-15.9-4.13-25.08-4.13-25.08l4.13,1.63c-1.42,2.59-2.37,4,0,15.07C1005.31,67.57,1012.21,106.62,997.79,133.45Z" style="fill:#ff2b37"/><path d="M1047.08,155.16a44.35,44.35,0,0,1-45.88,44.32c-29.07-1-48.94-30-41-58,4.11-14.51,15.31-23.91,33.61-22.31a80.21,80.21,0,0,0,17.23-.81C1030.11,115.85,1047.08,133.73,1047.08,155.16Z" style="fill:#ff2b37"/><path d="M1036.79,180.76c38.77,16.67,11.73,79.56-27,62.89C1032.32,226.87,1040.55,205.67,1036.79,180.76Z" style="fill:#f3f9f1;stroke:#754c24;stroke-linecap:round;stroke-linejoin:round"/><path d="M1036.79,180.76s18.18,82.05-70.73,62.12C1006.84,236.78,1030.92,216.51,1036.79,180.76Z" style="fill:#fdf5bd;stroke:#754c24;stroke-linecap:round;stroke-linejoin:round"/><path d="M1036.79,180.76s-9.41-6.87-18.61,2.33,0,44.46-61.32,47.52C956.86,264.34,1045.78,236.75,1036.79,180.76Z" style="fill:#f3f9f1;stroke:#754c24;stroke-linecap:round;stroke-linejoin:round"/><path d="M1018.18,183.09s-29.13,46-85.85,35.26C948.54,257.83,1034.39,222.57,1018.18,183.09Z" style="fill:#fdf5bd;stroke:#754c24;stroke-linecap:round;stroke-linejoin:round"/><path d="M1018.18,183.09s-20.75-18.25-26.06,6.13c-4.68,21.48-75.36,9.57-61.32,27.6C954.14,246.8,1027.13,194.06,1018.18,183.09Z" style="fill:#f3f9f1;stroke:#754c24;stroke-linecap:round;stroke-linejoin:round"/><path d="M926.15,185.82a3.85,3.85,0,0,1,6.2-2.92c9.76,7.74,32.17,20.5,55.17-1.34,7.66-7.67,13.64-4.74,13.64-4.74C1002.05,221.44,924.86,225.66,926.15,185.82Z" style="fill:#fdf5bd;stroke:#754c24;stroke-linecap:round;stroke-linejoin:round"/><path d="M994.38,177c-15.66-10.53-43,10.75-69.35,1.33C925.64,209.79,995,208.45,994.38,177Z" style="fill:#f3f9f1;stroke:#754c24;stroke-linecap:round;stroke-linejoin:round"/><path d="M975.25,126.93l4.59,2s-8.74,1.3-10.22,17.35C968.82,139,968.11,131.65,975.25,126.93Z" style="fill:#f3f9f1"/><path d="M288.51,139.7s7.67,1.53,9.2,9.19H285.87Z" style="fill:#fdf5bd;stroke:#754c24;stroke-linecap:round;stroke-linejoin:round"/><path d="M213.39,151.19s7.67,1.54,9.2,9.2H210.75Z" style="fill:#fdf5bd;stroke:#754c24;stroke-linecap:round;stroke-linejoin:round"/><path d="M285.87,148.89c19.77-2.67,32.63,3.08,36.37,19.93H291.79Z" style="fill:#f3f9f1;stroke:#754c24;stroke-linecap:round;stroke-linejoin:round"/><path d="M291.79,176.62v-7.8S333,152,333,193.35s-36.79,33.73-36.79,33.73Z" style="fill:#f3f9f1;stroke:#754c24;stroke-linecap:round;stroke-linejoin:round"/><path d="M291.79,178.76c36.13,2.26,32.08,66.69-4.05,64.42Q322.38,202.35,291.79,178.76Z" style="fill:#fdf5bd;stroke:#754c24;stroke-linecap:round;stroke-linejoin:round"/><path d="M199.51,166l-3.7-8.55s37.3-3.08,35.92,15S202.17,190.1,199.51,166Z" style="fill:#f3f9f1;stroke:#754c24;stroke-linecap:round;stroke-linejoin:round"/><path d="M200.78,184.2s-22.26-3.11-17.88-21.51c0,0,42.66,7.67,46.55,12.27S223.05,187.3,200.78,184.2Z" style="fill:#fdf5bd;stroke:#754c24;stroke-linecap:round;stroke-linejoin:round"/><path d="M252.79,131.45s14.1-32.42.79-78.37c-5.8-15.9-4.13-25.08-4.13-25.08l4.13,1.63c-1.42,2.59-2.37,4,0,15.07C260.31,65.57,267.21,104.62,252.79,131.45Z" style="fill:#ff2b37"/><path d="M302.08,153.16a44.35,44.35,0,0,1-45.88,44.32c-29.07-1-48.94-30-41-58,4.11-14.51,15.31-23.91,33.61-22.31a80.21,80.21,0,0,0,17.23-.81C285.11,113.85,302.08,131.73,302.08,153.16Z" style="fill:#ff2b37"/><path d="M291.79,178.76c38.77,16.67,11.73,79.56-27,62.89C287.32,224.87,295.55,203.67,291.79,178.76Z" style="fill:#f3f9f1;stroke:#754c24;stroke-linecap:round;stroke-linejoin:round"/><path d="M291.79,178.76s18.18,82.05-70.73,62.12C261.84,234.78,285.92,214.51,291.79,178.76Z" style="fill:#fdf5bd;stroke:#754c24;stroke-linecap:round;stroke-linejoin:round"/><path d="M291.79,178.76s-9.41-6.87-18.61,2.33,0,44.46-61.32,47.52C211.86,262.34,300.78,234.75,291.79,178.76Z" style="fill:#f3f9f1;stroke:#754c24;stroke-linecap:round;stroke-linejoin:round"/><path d="M273.18,181.09s-29.13,46-85.85,35.26C203.54,255.83,289.39,220.57,273.18,181.09Z" style="fill:#fdf5bd;stroke:#754c24;stroke-linecap:round;stroke-linejoin:round"/><path d="M273.18,181.09s-20.75-18.25-26.06,6.13c-4.68,21.48-75.36,9.57-61.32,27.6C209.14,244.8,282.13,192.06,273.18,181.09Z" style="fill:#f3f9f1;stroke:#754c24;stroke-linecap:round;stroke-linejoin:round"/><path d="M181.15,183.82a3.85,3.85,0,0,1,6.2-2.92c9.76,7.74,32.17,20.5,55.17-1.34,7.66-7.67,13.64-4.74,13.64-4.74C257.05,219.44,179.86,223.66,181.15,183.82Z" style="fill:#fdf5bd;stroke:#754c24;stroke-linecap:round;stroke-linejoin:round"/><path d="M249.38,175c-15.66-10.53-43,10.75-69.35,1.33C180.64,207.79,250,206.45,249.38,175Z" style="fill:#f3f9f1;stroke:#754c24;stroke-linecap:round;stroke-linejoin:round"/><path d="M230.25,124.93l4.59,2s-8.74,1.3-10.22,17.35C223.82,137,223.11,129.65,230.25,124.93Z" style="fill:#f3f9f1"/><path d="M918.05,159.27s9.18,1.84,11,11H914.89Z" style="fill:#fdf5bd;stroke:#754c24;stroke-linecap:round;stroke-linejoin:round"/><path d="M828.08,173s9.19,1.84,11,11H824.92Z" style="fill:#fdf5bd;stroke:#754c24;stroke-linecap:round;stroke-linejoin:round"/><path d="M914.89,170.29c23.68-3.21,39.07,3.68,43.55,23.86H922Z" style="fill:#f3f9f1;stroke:#754c24;stroke-linecap:round;stroke-linejoin:round"/><path d="M922,203.49v-9.34S971.3,174,971.3,223.53s-44.07,40.39-44.07,40.39Z" style="fill:#f3f9f1;stroke:#754c24;stroke-linecap:round;stroke-linejoin:round"/><path d="M922,206.05c43.26,2.71,38.42,79.87-4.85,77.15Q958.61,234.3,922,206.05Z" style="fill:#fdf5bd;stroke:#754c24;stroke-linecap:round;stroke-linejoin:round"/><path d="M811.46,190.83,807,180.58s44.67-3.69,43,18S814.65,219.63,811.46,190.83Z" style="fill:#f3f9f1;stroke:#754c24;stroke-linecap:round;stroke-linejoin:round"/><path d="M813,212.56s-26.67-3.72-21.42-25.75c0,0,51.09,9.18,55.75,14.69S839.65,216.28,813,212.56Z" style="fill:#fdf5bd;stroke:#754c24;stroke-linecap:round;stroke-linejoin:round"/><path d="M875.27,149.4s16.89-38.84.94-93.87c-6.94-19-4.94-30-4.94-30l5,1.95c-1.7,3.11-2.84,4.83,0,18.05C884.27,70.5,892.54,117.26,875.27,149.4Z" style="fill:#ff2b37"/><path d="M934.3,175.39a53.11,53.11,0,0,1-54.94,53.08c-34.82-1.18-58.62-36-49.14-69.5,4.92-17.38,18.33-28.64,40.25-26.73,6.88.61,13.78-.08,20.63-1C914,128.32,934.3,149.73,934.3,175.39Z" style="fill:#ff2b37"/><path d="M922,206.05c46.43,20,14,95.28-32.39,75.32C916.62,261.28,926.48,235.89,922,206.05Z" style="fill:#f3f9f1;stroke:#754c24;stroke-linecap:round;stroke-linejoin:round"/><path d="M922,206.05s21.77,98.27-84.71,74.4C886.11,273.15,915,248.86,922,206.05Z" style="fill:#fdf5bd;stroke:#754c24;stroke-linecap:round;stroke-linejoin:round"/><path d="M922,206.05s-11.27-8.22-22.29,2.79,0,53.25-73.44,56.92C826.25,306.15,932.74,273.1,922,206.05Z" style="fill:#f3f9f1;stroke:#754c24;stroke-linecap:round;stroke-linejoin:round"/><path d="M899.69,208.84s-34.88,55.08-102.82,42.23C816.29,298.35,919.11,256.12,899.69,208.84Z" style="fill:#fdf5bd;stroke:#754c24;stroke-linecap:round;stroke-linejoin:round"/><path d="M899.69,208.84s-24.85-21.86-31.21,7.35c-5.61,25.72-90.25,11.46-73.44,33.05C823,285.14,910.41,222,899.69,208.84Z" style="fill:#f3f9f1;stroke:#754c24;stroke-linecap:round;stroke-linejoin:round"/><path d="M789.48,212.11a4.59,4.59,0,0,1,7.41-3.49c11.7,9.27,38.54,24.55,66.08-1.61,9.18-9.18,16.34-5.68,16.34-5.68C880.37,254.77,787.93,259.82,789.48,212.11Z" style="fill:#fdf5bd;stroke:#754c24;stroke-linecap:round;stroke-linejoin:round"/><path d="M871.18,201.5c-18.75-12.61-51.5,12.88-83,1.6C788.86,240.82,871.91,239.22,871.18,201.5Z" style="fill:#f3f9f1;stroke:#754c24;stroke-linecap:round;stroke-linejoin:round"/><path d="M848.28,141.59l5.49,2.41s-10.46,1.56-12.23,20.78C840.58,156,839.73,147.23,848.28,141.59Z" style="fill:#f3f9f1"/><path d="M440.05,156.27s9.18,1.84,11,11H436.89Z" style="fill:#fdf5bd;stroke:#754c24;stroke-linecap:round;stroke-linejoin:round"/><path d="M350.08,170s9.19,1.84,11,11H346.92Z" style="fill:#fdf5bd;stroke:#754c24;stroke-linecap:round;stroke-linejoin:round"/><path d="M436.89,167.29c23.68-3.21,39.07,3.68,43.55,23.86H444Z" style="fill:#f3f9f1;stroke:#754c24;stroke-linecap:round;stroke-linejoin:round"/><path d="M444,200.49v-9.34S493.3,171,493.3,220.53s-44.07,40.39-44.07,40.39Z" style="fill:#f3f9f1;stroke:#754c24;stroke-linecap:round;stroke-linejoin:round"/><path d="M444,203.05c43.26,2.71,38.42,79.87-4.85,77.15Q480.6,231.3,444,203.05Z" style="fill:#fdf5bd;stroke:#754c24;stroke-linecap:round;stroke-linejoin:round"/><path d="M333.46,187.83,329,177.58s44.67-3.69,43,18S336.65,216.63,333.46,187.83Z" style="fill:#f3f9f1;stroke:#754c24;stroke-linecap:round;stroke-linejoin:round"/><path d="M335,209.56s-26.67-3.72-21.42-25.75c0,0,51.09,9.18,55.75,14.69S361.65,213.28,335,209.56Z" style="fill:#fdf5bd;stroke:#754c24;stroke-linecap:round;stroke-linejoin:round"/><path d="M397.27,146.4s16.89-38.84.94-93.87c-6.94-19-4.94-30-4.94-30l5,1.95c-1.7,3.11-2.84,4.83,0,18.05C406.27,67.5,414.54,114.26,397.27,146.4Z" style="fill:#ff2b37"/><path d="M456.3,172.39a53.11,53.11,0,0,1-54.94,53.08c-34.82-1.18-58.62-36-49.14-69.5,4.92-17.38,18.33-28.64,40.25-26.73,6.88.61,13.78-.08,20.63-1C436,125.32,456.3,146.73,456.3,172.39Z" style="fill:#ff2b37"/><path d="M444,203.05c46.43,20,14,95.28-32.39,75.32C438.62,258.28,448.48,232.89,444,203.05Z" style="fill:#f3f9f1;stroke:#754c24;stroke-linecap:round;stroke-linejoin:round"/><path d="M444,203.05s21.77,98.27-84.71,74.4C408.11,270.15,437,245.86,444,203.05Z" style="fill:#fdf5bd;stroke:#754c24;stroke-linecap:round;stroke-linejoin:round"/><path d="M444,203.05s-11.27-8.22-22.29,2.79,0,53.25-73.44,56.92C348.25,303.15,454.74,270.1,444,203.05Z" style="fill:#f3f9f1;stroke:#754c24;stroke-linecap:round;stroke-linejoin:round"/><path d="M421.69,205.84s-34.88,55.08-102.82,42.23C338.29,295.35,441.11,253.12,421.69,205.84Z" style="fill:#fdf5bd;stroke:#754c24;stroke-linecap:round;stroke-linejoin:round"/><path d="M421.69,205.84s-24.85-21.86-31.21,7.35c-5.61,25.72-90.25,11.46-73.44,33.05C345,282.14,432.41,219,421.69,205.84Z" style="fill:#f3f9f1;stroke:#754c24;stroke-linecap:round;stroke-linejoin:round"/><path d="M311.48,209.11a4.59,4.59,0,0,1,7.41-3.49c11.7,9.27,38.54,24.55,66.08-1.61,9.18-9.18,16.34-5.68,16.34-5.68C402.37,251.77,309.93,256.82,311.48,209.11Z" style="fill:#fdf5bd;stroke:#754c24;stroke-linecap:round;stroke-linejoin:round"/><path d="M393.18,198.5c-18.75-12.61-51.5,12.88-83.05,1.6C310.86,237.82,393.91,236.22,393.18,198.5Z" style="fill:#f3f9f1;stroke:#754c24;stroke-linecap:round;stroke-linejoin:round"/><path d="M370.28,138.59l5.49,2.41s-10.46,1.56-12.23,20.78C362.58,153,361.73,144.23,370.28,138.59Z" style="fill:#f3f9f1"/><polygon points="1098 878.97 155 878.97 157 715.97 0 130.97 1258 142.97 1096 715.97 1098 878.97" style="fill:none"/></g></g></svg>