<svg xmlns="http://www.w3.org/2000/svg" viewBox="0 0 1258 748"><g id="Layer_2" data-name="Layer 2"><g id="Layer_2-2" data-name="Layer 2"><path d="M628,98.68l177.5,63.48a2827.81,2827.81,0,0,1-361-.4Z" style="fill:#870722"/><path d="M628,167.73c-65.35,0-127.45-2.14-183.5-6v385h0v167L628,650.68l177.5,63.48v-167h0v-385C751,165.74,691,167.73,628,167.73Z" style="fill:#870722"/><line x1="628" y1="108.26" x2="628" y2="667.26" style="fill:none;stroke:#75031e;stroke-miterlimit:10;stroke-width:9px"/><path d="M536.21,231c.72,2.53-4.33,4.86-6.67,5.61-3.32.24-8.87-2-8.5-8.2,1.22-2.5,3.89-6.22,6.83-5C531.91,222.65,535,224.44,536.21,231Z" style="fill:#75031e"/><path d="M611,155.82c2.66,2.09-2.46,5.22-6.3,7.7-2.91-2.34-6.86-3.89-5.52-9.45-2.94-3.66,3.23-7,5.79-7.43C607.45,148.07,610.73,151.55,611,155.82Z" style="fill:#75031e"/><path d="M473.18,204.12C473,209,467,211,465.36,210c-5.61,2.21-9.55-1.73-7.17-6.55-1.68-3.64,3.09-5.85,6.14-7.61C467.47,196.83,469.66,199.36,473.18,204.12Z" style="fill:#75031e"/><path d="M610.67,248.56c.29,2-2.07,6.56-4.4,5.3-3.54.35-8.63-3.37-9.8-7.28,3-4.1,4.69-5.13,8.43-5C608.09,238.9,610.88,243.39,610.67,248.56Z" style="fill:#75031e"/><path d="M522.27,282.75c1.19,3.62-2.33,8.35-6.28,7.32-4.94,1.62-7.17-2-7.24-7,.94-3.18,3.35-8.48,7.26-8.06C521.15,276.06,523.19,277.13,522.27,282.75Z" style="fill:#75031e"/><path d="M571.93,244.15c0,2.52-1.16,3.5-4.43,3.77-.59.26-2.13-.53-3.38-3.29.59-2.37,1.64-3.13,4.19-3.17C569.74,241,570.6,243.12,571.93,244.15Z" style="fill:#75031e"/><path d="M567.34,293.55c-.89,2.67-2.4,3.41-5.24,4.36-.29-.62-2.24-1.82-2.38-4.37.23-1.2,1.32-2.81,3-2.64C564.54,289.7,566.58,291.51,567.34,293.55Z" style="fill:#75031e"/><path d="M540.12,195.76c-1.4,2.49-2.33,2.85-4.61,3.91-1.18-.32-2.42-2.33-3.62-3.68,1-2.15,1.46-3.77,4-3.82C538.38,192.93,540.07,194,540.12,195.76Z" style="fill:#75031e"/><path d="M497.88,212.12c.77,1.76-.43,3.72-2.2,2.62-2-.16-4.05-.44-3.53-3.23.22-1.82,1.11-3.82,3.27-3.59C496.35,208.84,498.29,210.44,497.88,212.12Z" style="fill:#75031e"/><path d="M488.62,269.58c.37,2.17-.19,3.14-1.75,3-3.1.31-4-1.44-4.77-3.16.16-2.05,2.65-2.5,4.36-3.75C487.67,266.58,489.86,268.26,488.62,269.58Z" style="fill:#75031e"/><path d="M468.84,256a11.76,11.76,0,0,1-3.69,3.78c-2.22-.47-4.08-2.74-4-3.3.38-3.23,2.57-4.43,3.09-3.89C466.12,251.59,468.57,254,468.84,256Z" style="fill:#75031e"/><path d="M571.19,176.25c-.18,1.89-2,3.66-3.3,3.41-2.63-.06-3.84-1.32-4.82-3.46-.43-1.75,2-3,4.64-2.63C568.18,172.79,571.2,174.24,571.19,176.25Z" style="fill:#75031e"/><path d="M597.2,283.36c-.46.8-2.12,2.42-3.33,2.4-1.52.07-2.75-1.31-3.91-3.56.87-1.43,1.34-3.4,4.67-3.12C596.32,279.2,596.78,281,597.2,283.36Z" style="fill:#75031e"/><path d="M507.5,255.16c-.23,2.36-4.08,3.79-7.75,4.12-2.91.53-3.38-1.87-3.23-3.93-1.58-1.24,2.12-3.34,4.56-3.09C503.81,252.12,506.64,253.38,507.5,255.16Z" style="fill:#75031e"/><path d="M521.89,186.25c-.45,2.88-2,3.77-6.13,4.39-4-1.08-5.89-1.94-4.54-4,.28-1.12,2.45-3.59,3.68-3.15C517.79,182.69,521.58,184.41,521.89,186.25Z" style="fill:#75031e"/><path d="M475.24,316.28c1.23,1.87-2.19,3-5.28,3.58a4.06,4.06,0,0,1-3.67-4.23c.3-2.24,2.64-2.79,4.66-3.8C473.72,312.59,476.92,313.6,475.24,316.28Z" style="fill:#75031e"/><path d="M611.27,197.1c0,3.13-4.28,4.86-7.28,4.6-1.43-.79-5-2.62-5.57-4.44,1-1.7,2.12-3.59,7-2.56C609.35,194,610.54,196.08,611.27,197.1Z" style="fill:#75031e"/><path d="M568.64,266.44c.63,1.94-2.79,3.67-5.56,3.92a4.21,4.21,0,0,1-4.34-3c-.57-2.56,2.82-3.41,5.64-3.61C566.77,262.89,570.44,265.42,568.64,266.44Z" style="fill:#75031e"/><path d="M718.18,244c.19-2-2.36-6.72-6.51-7.21-3.6-.2-8.78,2.48-9.14,9.18,2.2,2.09,4.08,4.91,9.12,7.21C713.56,252.23,719.93,249.48,718.18,244Z" style="fill:#75031e"/><path d="M794.12,320.34c-1.33-4.74-4.91-9.4-8.88-6.67-.9-1.13-7.49.56-5.5,7.28-1.16,1.66,3.62,5.68,8.36,5.68C789.79,326.92,793.7,322.49,794.12,320.34Z" style="fill:#75031e"/><path d="M654.05,271.86c-2.35-5.77-5.4-7.94-8.54-7.13-2.29,0-7.93,2.35-6.07,7.4a8,8,0,0,0,7.63,6.6C651.58,279.33,653.09,276.25,654.05,271.86Z" style="fill:#75031e"/><path d="M793.05,227.8c2.75-4.19-.53-9.89-6.52-8.36-1.78-.71-8.76,3-6.64,6.61.22,3.41,1.72,8,7.27,6.72C791,234.82,795.13,229.87,793.05,227.8Z" style="fill:#75031e"/><path d="M706.48,190.69c.25-2.21-5.87-5.74-7.09-6-6.12-.15-9.31,4.08-8,5.94-.42,4.29,3.8,9.9,7.78,7.94C701.24,200.48,706.52,197,706.48,190.69Z" style="fill:#75031e"/><path d="M752.63,229.58c1.68-1.28-.79-2.81-2.72-3.57-2.68.29-2.9,1.66-4.21,3.23a4.4,4.4,0,0,0,3.74,4C751.4,233,754.16,232.1,752.63,229.58Z" style="fill:#75031e"/><path d="M748,180.1c1.18-1.84-1.74-3-2.43-3.45-2,.19-4.4,1.71-3.53,3.83.34,1.86.63,3.1,3.38,3.08C747.36,183.73,748.27,182.23,748,180.1Z" style="fill:#75031e"/><path d="M722.05,278.69c-1-1.3-2.36-3.24-4.86-3.6-.62.82-3.59,1.71-2.42,3.7-.7,2.26.63,3.53,3.36,2.82C719.23,282.57,720.6,280.06,722.05,278.69Z" style="fill:#75031e"/><path d="M680.4,263.23c.64-2.17-1.87-3.29-2.8-4.11a3.42,3.42,0,0,0-3.72,3c-.26,2,1.15,4.58,3,3.76C678.11,266.38,680.06,264.73,680.4,263.23Z" style="fill:#75031e"/><path d="M670.81,204.69c.11-1.35-.31-3.14-3-3.22-2.34-.65-4,1.56-3.67,4-.39.93,2.82,3.15,4.67,2.54C670.33,207.94,671,206.4,670.81,204.69Z" style="fill:#75031e"/><path d="M651.06,219.29c0-2.94-2.43-3.54-4.19-3.39-1-.28-3.6.47-3.3,2.48-.5,2.58,1.68,4,3.94,4.57C648.38,222.38,651.26,220.22,651.06,219.29Z" style="fill:#75031e"/><path d="M752.43,297.79c.13-1.77-1.51-3.8-2.61-3.59-3.05-.38-3.5,2-5.11,3.1.67,2.82,1.71,3.82,5,4.56C750.37,301.75,752.8,300.08,752.43,297.79Z" style="fill:#75031e"/><path d="M779.3,191.17c-.21-1.82-1.46-2.21-2.78-2.56-3.12.17-3.23,1-4.4,3.51-.49,2.06,1.84,3.37,3.53,3.47A5,5,0,0,0,779.3,191.17Z" style="fill:#75031e"/><path d="M689.93,218.42c-1.68-1.09-3.87-3.66-7.45-3.65-3-.15-4.5,1.92-3.74,4.08-2.64,2.35,1.84,4.09,3.26,3C685.23,222.29,687.51,220.34,689.93,218.42Z" style="fill:#75031e"/><path d="M704.67,287.87c.22-1.7-4.76-3.29-6.22-4.14-2.68.56-5.1,2.52-4.72,3.43-.34,2.76,1,3.42,3.31,4.5C700.25,291,703.05,290,704.67,287.87Z" style="fill:#75031e"/><path d="M658.4,158.46c-1.07-1.68-3.23-3.86-6.42-2.85-3.11-.34-4.06.82-3.7,3.84-.77.67,1.35,2.64,4.76,3.15C657.15,161.72,657.88,160.81,658.4,158.46Z" style="fill:#75031e"/><path d="M792.76,276.62c.34-2.29-1.34-3.66-6.42-3.48-3.5.19-6.2,1.33-5.75,4.05.84,1.14,3.15,3.56,5,2.42C788.62,280,792.37,278.85,792.76,276.62Z" style="fill:#75031e"/><path d="M750.2,208.33c2.36-2.66-2.47-4.05-2.9-4-4.69.12-7.22,1.92-7.76,3.17.68,2.81,2.64,3.81,7.08,4.28C749.22,211.79,750.55,209.55,750.2,208.33Z" style="fill:#75031e"/><path d="M534.71,591.41c.71,5.09-.29,8.66-6.94,9-2.95-.42-7.42-2.93-6.47-7.81.69-4.59,4.32-8,9.15-7.08C531.79,586.07,537.67,589.55,534.71,591.41Z" style="fill:#75031e"/><path d="M611.49,518.47c2.83,2.22-2.22,6.84-8.21,7.57-2.75-.9-6.93-5-6.59-9.64,2.36-3.33,4.62-7.18,7.46-6C610.09,509,612,514.24,611.49,518.47Z" style="fill:#75031e"/><path d="M470.05,565.66c.1,6.09-2.56,7.53-7.33,9.08a5.08,5.08,0,0,1-5.56-6.71c-.67-4.57,3.51-7.33,8.78-9.26C469.43,559.16,471.38,563.45,470.05,565.66Z" style="fill:#75031e"/><path d="M613.47,610.15c-1.43,4.14-6.17,9.41-8.84,6.94-5.62,1.26-7.31-2.09-5.89-5-.31-6.58.48-9.71,6-7.84C610.94,603.76,613.29,606.64,613.47,610.15Z" style="fill:#75031e"/><path d="M524.84,644.27c0,6.56-6.62,8-10.49,9.72-4-1.15-5.5-5.5-7.06-9,2.5-3.37,2.71-6.23,9.73-6.37C520.71,637.18,522.68,640.86,524.84,644.27Z" style="fill:#75031e"/><path d="M571.19,608c.82,1.72-1,3-3.25,3.27s-4.23-1.35-3-3.27c-1.13-1.5.56-3.52,3.76-3.76C570.18,604.75,571,605.73,571.19,608Z" style="fill:#75031e"/><path d="M565.93,656.58c.12,2.11-1.82,3.89-2.54,3.34-1.61-.18-4-1.53-3.63-3.66.2-1,.73-2.41,3.3-2.49C565,652.75,566.88,655.39,565.93,656.58Z" style="fill:#75031e"/><path d="M539.84,558.18c-.59,2.82-2.54,3.8-4.55,4.23a6,6,0,0,1-3.14-3.78c.5-1.43,1.8-4,4.54-3.09C538.77,555.62,538.61,556.65,539.84,558.18Z" style="fill:#75031e"/><path d="M497.66,575.37c1.38.84-1.21,3.39-2.24,3.25-2.25-.58-4.32-1.9-3.31-3.64-.36-1.47,1.09-3.48,3-4.2C497.32,570.59,498.79,573.52,497.66,575.37Z" style="fill:#75031e"/><path d="M489.23,632.93c.72,2.45-.76,3.48-3.26,3.36-1.05.1-4.32-2.22-2.86-3.56,0-2.15.18-4,3.58-3.25C488.45,628.63,488.7,630.24,489.23,632.93Z" style="fill:#75031e"/><path d="M467.66,618.07c.38,1.93-.23,4.43-2.69,4.21a2.62,2.62,0,0,1-3.3-3.11c.74-2.62,1.06-3.41,3.79-3.33C466.69,614.84,468.39,617.45,467.66,618.07Z" style="fill:#75031e"/><path d="M570.57,540.1c.53,1-2.16,2.88-2.91,3-3.07.28-3.74-1.71-3.92-2.65-.07-3.27.48-4.28,3.37-4.64C568.86,536.33,569.94,538.28,570.57,540.1Z" style="fill:#75031e"/><path d="M597.41,645.23c.28,2.83-2,3.75-2.68,3.55-2.57.29-3.4-1.22-3.93-3.54-.57-1.81.58-3.55,3.65-3C596.32,642.35,597.67,643.14,597.41,645.23Z" style="fill:#75031e"/><path d="M505.16,619.42c1.85.68-1.69,3-4,3.43-4.54-1.27-6.43-2.29-4.63-4.24-.62-1.9,2.27-4,4.85-3.68C504.76,615.75,507.61,617.52,505.16,619.42Z" style="fill:#75031e"/><path d="M520.23,550c2.61,1.38-1.92,3.71-4.57,2.91-1.7.82-4.85-1-4.92-3.24-1.41-2.25,1.31-3.82,5.59-3.05C519.88,545.67,522.27,548.35,520.23,550Z" style="fill:#75031e"/><path d="M475.26,678.75c.93,1.3-2.4,3.36-3.46,3.15-4-.34-7.22-1.5-6.58-3.55.33-1,2-2.4,6.52-2.52C474.59,675.92,475.63,677.16,475.26,678.75Z" style="fill:#75031e"/><path d="M609.07,560.93c1.17,1.44-.48,2.63-3.6,2.73-3,.54-5.59-1-5.83-3-.51-1.86,1-4,6.17-2.78C607.6,557.2,610.84,558.53,609.07,560.93Z" style="fill:#75031e"/><path d="M568.6,630.21c2.27,1.63-1.26,2.41-4.61,2.78-3.77.35-6.48-1.68-4.83-3.11-.83-2.65,1.8-4.08,4.5-3.61C566.92,626.89,569.73,627.91,568.6,630.21Z" style="fill:#75031e"/><path d="M719.28,609c.58-4.78-5-8.38-7.57-7.4-5-1.7-7.49,1.31-9,4.81,2.66,4.74,3.9,9.77,10,9.85C715.93,616,719.1,612.52,719.28,609Z" style="fill:#75031e"/><path d="M793.06,682.35c.44-3.41-.9-6.13-6.69-6.75-3.14-1-6.53,3.39-5.69,8.42-2.31,4.2,3.9,6.8,6.82,6.68C790.14,690.21,795.71,688.38,793.06,682.35Z" style="fill:#75031e"/><path d="M654.25,633.05c.93-3.15-3.78-7.41-8.4-7.93-4.33,1.7-6.66,6-5.55,8.65-3,4.89.61,8.66,7.16,8.47C650.72,642.52,652,639,654.25,633.05Z" style="fill:#75031e"/><path d="M795.34,588.52c-.27-2.3-5.26-5.87-8.55-5.28-5.48.25-6.84,2.65-5.64,6.59-3.3,5.34,3.35,7.85,4.63,7.82C789.77,597.45,795.82,592.93,795.34,588.52Z" style="fill:#75031e"/><path d="M705.6,555.74c1.48-4.55-2.17-9.57-5.71-8.88-5.4-1-8.67,4.15-7.51,8.41-1.11,4.27.84,7.07,5.15,6.62C701.39,562.66,707,558.84,705.6,555.74Z" style="fill:#75031e"/><path d="M753.84,592.25a4.82,4.82,0,0,0-4.1-3.14c-1.51-.44-2.41,1.85-3,3.25,0,2.78,1.73,4.19,2.66,3.4C751.09,595.67,753.8,594.72,753.84,592.25Z" style="fill:#75031e"/><path d="M748.73,544c-.25-1.57-1.17-4.08-4.51-3.76-.29-.47-2.19,2-1.89,3.84-1,2.19.48,2.87,1.94,3.3A4.59,4.59,0,0,0,748.73,544Z" style="fill:#75031e"/><path d="M721.73,641.7c-.64-1.53-1.27-3.08-3-3.91-1.76.9-3.69,1.45-4.16,4.61,0,1.07,1.3,3.24,4.3,3.4A10.39,10.39,0,0,0,721.73,641.7Z" style="fill:#75031e"/><path d="M679.93,625.75c1-2.39-.29-3.58-3.4-4.16-1.15.68-2.14,2.15-3,4.61-.22,2,2,3.4,3.37,3.58C678.33,629.68,679.78,627.37,679.93,625.75Z" style="fill:#75031e"/><path d="M672,567.63a6.16,6.16,0,0,0-3.13-4c-3.35.23-4.19,1.63-4.87,4.13.89,2.32,2.32,3.59,3.41,3.08C669.65,570.94,671,569.37,672,567.63Z" style="fill:#75031e"/><path d="M649.61,581.4c1.79-1.19-.61-2.76-2.41-2.62-2.13.15-4.55.8-4.27,3.2a6.59,6.59,0,0,0,3.86,3.44C648.32,584.67,650,583.22,649.61,581.4Z" style="fill:#75031e"/><path d="M751.61,660.62a3.51,3.51,0,0,0-2.32-3.33c-3-.71-4.38,2-4.3,4.05a12.52,12.52,0,0,0,4,3C750.44,664.83,751.83,662.51,751.61,660.62Z" style="fill:#75031e"/><path d="M779.36,555c.33-2.57-1.3-4.1-2.92-3.25-2.34-.64-4.26,1.47-4.27,2.53-.09,2.75,1.12,3.26,3.74,4.27C777.37,558.66,780.05,556.25,779.36,555Z" style="fill:#75031e"/><path d="M688.71,581.8a4.54,4.54,0,0,0-5-3.56c-4.89-.15-6.92,1.5-5.84,3.37.24,2.54,2.05,4.3,4.81,3.75C686.83,584.74,689.52,583.33,688.71,581.8Z" style="fill:#75031e"/><path d="M702.43,650.28c2.37-.93-.47-3-4.31-3-1.86-.24-4.79,1.43-4.46,3-.24,1.77.88,4.28,4.31,3.77C700.12,654.78,704.47,652.12,702.43,650.28Z" style="fill:#75031e"/><path d="M657.25,521.3c1.92-1.2-.69-3.45-3-2.83-4.43-.47-6.33,1.33-7.39,3.57.36,1.48,3.68,3.66,5.65,2.61C657,525.6,659.38,524.28,657.25,521.3Z" style="fill:#75031e"/><path d="M791.28,639.07c.53-1.5-2.44-3.24-5.35-2.92-3.15,0-3.72,1.52-4.53,4,.6,1,2.23,2.67,5.92,3C790.38,643.48,791.92,641.49,791.28,639.07Z" style="fill:#75031e"/><path d="M750.86,571c.34-2.7-2.5-4.25-4.91-4s-4.28,2-5.81,4.36c1.2,1.88,2.92,2.27,5.3,2.46C748.44,573.87,752,572.62,750.86,571Z" style="fill:#75031e"/><path d="M533,421.41c.42-4.45,5.67-6,8.76-8.2,2,.72,8,4.35,8.54,8.21-1.11,4.68-5.8,7.82-11.09,7.26C536.76,429,534.84,426.61,533,421.41Z" style="fill:#75031e"/><path d="M455.8,497.66c2.56-4.15,5.89-9.11,8.13-7.44,7-.83,8.1,1.61,8.75,7.8-1.29,3.42-4.82,7.24-5.94,6.78C462.4,503.71,456.85,500.84,455.8,497.66Z" style="fill:#75031e"/><path d="M596.83,448.59a7.85,7.85,0,0,1,8.66-7.78c3.11-1.19,8.71,2.48,8.33,8.23-2.22,2.81-4.45,6-6.06,6C600.06,453.84,599.54,453.26,596.83,448.59Z" style="fill:#75031e"/><path d="M456.45,404.29c1.09-6,5.87-8.9,8.06-8.14,4.21-.71,9.7,2.16,8.43,6.79-1.36,5-3.09,7-8.81,9.31C459.65,411.8,458.29,409.2,456.45,404.29Z" style="fill:#75031e"/><path d="M545.29,369.24c.13-5.17,3.66-9.11,7.44-9.15,6.16.83,7.4,4.58,9.77,9.43-2.22,2-5.1,6-8.69,8.14C551.09,376.52,547.85,372.23,545.29,369.24Z" style="fill:#75031e"/><path d="M498.3,406.2c1.05-1.73,1-3.17,3.53-2.48,1.87-.4,4.47,1.53,3.68,2.94.44,2.64-.8,3.91-3.26,4C499.81,410.27,498.75,408.84,498.3,406.2Z" style="fill:#75031e"/><path d="M503.39,357.24c-.51-1.43,2.39-3.16,4.15-3.36.73.64,3.62,2,3.69,3.39-.19,2-3.11,3.48-4.52,3.73C504.86,360.61,503,359.23,503.39,357.24Z" style="fill:#75031e"/><path d="M531.15,455.52c-.48-1.86.22-3.24,3.68-3.15.65,0,1.87,1.82,2,3.94.77.88-1,3.2-2.75,2.93C531.36,458.76,531,458.09,531.15,455.52Z" style="fill:#75031e"/><path d="M570.93,439.78c.6-1.82,1.62-3.89,4.11-3.93,1.2.5,3,1.29,3.2,4.58.16.9-.69,2.14-4,3.35C572.71,443.67,571.11,442.28,570.93,439.78Z" style="fill:#75031e"/><path d="M580.52,382c-.86-1.68,2.32-3.39,3.81-4.4,1.14.25,2.62,2.15,2.62,4,.46,2-1.45,3.28-2.91,4.24A3.83,3.83,0,0,1,580.52,382Z" style="fill:#75031e"/><path d="M601.14,396.45c1.23-2.22,1.13-4,3.1-4.67,2.88.36,4.09,1.44,3.8,3.71.68,2.09-1.19,3.08-3,3.9A9.17,9.17,0,0,1,601.14,396.45Z" style="fill:#75031e"/><path d="M499.82,474.18c-1.23-.68,1.49-2.59,2.48-2.58,2.29-.39,3.9.82,3.7,3.43-.19,2.33-.37,3.62-3.7,2.64C500.25,478.67,499.75,476.16,499.82,474.18Z" style="fill:#75031e"/><path d="M471.63,368.4c.36-.88,2.11-3.83,4.48-2.72,2.27-.81,4.12,1.81,3.15,2.44.39,2.76-2.19,3.67-2.39,4.29C473.86,372.91,472.4,371.28,471.63,368.4Z" style="fill:#75031e"/><path d="M564.91,396.28c-2.59-2.19.68-3.9,4.36-4.37,1.37.27,4.93,2.5,4.58,3.48,1.71,2-3.08,3.74-4.59,3.77C564.91,399.85,563.58,398.38,564.91,396.28Z" style="fill:#75031e"/><path d="M549.54,464.14c-.33-1.28,2.35-2.2,3.69-3.47,4.54.26,7,2.56,5,4.14.43,1.19,0,2.79-5.63,4C550.44,467.83,548.18,466.6,549.54,464.14Z" style="fill:#75031e"/><path d="M592.92,335.37c1.12-2.12,2-3.3,4.86-3,4,.24,5.74,1.41,7.83,3.66-.82,2.32-3,3.28-5.39,3.31C595.5,339,594.3,337.09,592.92,335.37Z" style="fill:#75031e"/><path d="M459.37,454.38c1-2.28,1.78-3.43,5.54-3.72s4.7,1.83,4.2,2.71c2.39,2.35-.86,3.63-4.94,4.27C463,457.37,459.35,455.77,459.37,454.38Z" style="fill:#75031e"/><path d="M500.47,385.29c1.06-3,3.11-3.67,4.23-3.43,5.57-1,5.66,1,8.14,3.16a8.54,8.54,0,0,1-6.41,3.71C501.84,388.35,499.61,386.75,500.47,385.29Z" style="fill:#75031e"/><path d="M717.25,407.66c-.76,3.21,5,7.73,8.14,5.59,4.53-.27,7.73-3.8,6.34-7.25a6.34,6.34,0,0,0-7.76-5.93C720.8,398.57,716.88,401.2,717.25,407.66Z" style="fill:#75031e"/><path d="M641.2,332.59c-.9,2.43,3.56,7.21,7.38,6,3.54.52,7.08-3.78,8.46-7.47.15-2.31-5.06-7.06-7.2-5.44C645.43,322.82,641.89,328.59,641.2,332.59Z" style="fill:#75031e"/><path d="M781.84,380.72c.1,3.1,4.49,7.65,9.27,7.76,1.8-1,6.7-4.83,4.83-9,1.88-1.41-.66-6.63-5.65-7.7C787.27,373.65,781.57,375.51,781.84,380.72Z" style="fill:#75031e"/><path d="M642.51,425.14c-.25,4.7,1.66,8.36,5.6,8.56,3.52-1.46,7.34-5.75,6.91-8.25,1.59-5.78-1.6-8.82-6.51-7.7C646.1,417.76,642.62,419.82,642.51,425.14Z" style="fill:#75031e"/><path d="M730.17,459.71c1.58,5,5.23,7.68,9.35,6.31,2.15,1.85,5.13-1.82,6.49-7.38.79-2.05-3.35-5.28-8.17-5.06C734.84,453.35,731.59,455.17,730.17,459.71Z" style="fill:#75031e"/><path d="M683.15,421.87c-.36,1.3,1,3.71,3.73,3.37a4.12,4.12,0,0,0,2.82-4.11c-.88-1.65-2.26-3.35-4.5-3.16C685,418.42,682.18,419.93,683.15,421.87Z" style="fill:#75031e"/><path d="M687.68,470.77c-.14,1.31,1.11,3.87,3.08,3,2.86.3,4.41-.45,2.89-3.08.33-1.32-.59-3.39-2.21-2.73C689.74,467.46,687.87,469.5,687.68,470.77Z" style="fill:#75031e"/><path d="M714.76,373.23c-.2,1.7,1.6,3,3.88,3.53a5.5,5.5,0,0,0,2.23-3.79,3.38,3.38,0,0,0-3.3-3.77C716.9,369.63,714.44,371.24,714.76,373.23Z" style="fill:#75031e"/><path d="M755.14,388.26a3.58,3.58,0,0,0,3.2,3.4c2.74,0,3.41-.38,3.66-3.38,1-1.09-.73-3.65-2.52-3.63A19.11,19.11,0,0,0,755.14,388.26Z" style="fill:#75031e"/><path d="M764.47,446.41c.6,2.86,1.33,3.65,2.81,3.8,1.83.72,3.55-1.44,4.27-2.82.54-2.74-2.07-3.75-3.74-3.95C766.52,443.15,763.63,444.93,764.47,446.41Z" style="fill:#75031e"/><path d="M785.15,432.69c.46,2,1.56,3.7,3.75,4.16,2.14-.8,3.07-2,4.16-4.26-1-1.35-2.3-3.77-4.55-3.51C787.44,429.53,785.35,430.8,785.15,432.69Z" style="fill:#75031e"/><path d="M682.73,353.06c1.5,3.2,1.94,4.56,4.67,4.29,2.31.11,2.48-1.69,2.36-4.28,1.62-.7-.92-3.11-2.45-2.39A7.32,7.32,0,0,0,682.73,353.06Z" style="fill:#75031e"/><path d="M656.82,459.91c0,1.24,1.47,2.73,3.61,3.87,2.31-1.18,3.79-1.54,3.78-3.9-1.34-2.07-2.49-4.15-5-3.12C658.12,456,657.24,458,656.82,459.91Z" style="fill:#75031e"/><path d="M746.93,432.3c2,3,1.63,3.51,5.62,4.6,3.84,0,4.71-2.71,6.54-4.61.11-1.67-3.51-2.93-4.7-3.63C750.3,429,747.82,430.23,746.93,432.3Z" style="fill:#75031e"/><path d="M732.74,363.8c-.76,2.13,2.2,3.75,5.44,4.12,3.66-.34,4.12-1.65,3.93-4.37,1-2.14-1.43-3.74-4.39-2.69C735.09,360.07,733.69,361.17,732.74,363.8Z" style="fill:#75031e"/><path d="M776.36,492.63c2.34,1.39,4.57,3.89,5.6,3.78,5.48,0,6.57-1.75,6.69-3.45-.15-1.54-2.1-4.19-4.82-4C778.58,489.62,778.63,490.92,776.36,492.63Z" style="fill:#75031e"/><path d="M642.71,374.73c1.19,2.31,2.68,3.23,6,3.89,4.52-.22,6.76-1.28,4.32-3.23.52-2.13-2.16-4.17-4.89-4.75A7.31,7.31,0,0,0,642.71,374.73Z" style="fill:#75031e"/><path d="M684.15,443.79c-.81,2.27,3.42,3.6,6.28,3.13,1.5.23,5.7-.89,3.81-3.6,2.55-2.11-2.24-3.58-2.93-2.72C687.38,440.33,685.49,441.67,684.15,443.79Z" style="fill:#75031e"/><polygon points="628 458.68 628 483.68 805.5 546.32 805.5 522.16 628 458.68" style="fill:#75031e"/><polygon points="628 458.68 628 483.68 444.5 546.32 444.5 521.76 628 458.68" style="fill:#75031e"/><polygon points="628 642.68 628 667.68 805.5 730.32 805.5 706.16 628 642.68" style="fill:#75031e"/><polygon points="628 642.68 628 667.68 444.5 730.32 444.5 705.76 628 642.68" style="fill:#75031e"/><polygon points="628 274.68 628 299.68 805.5 362.32 805.5 338.16 628 274.68" style="fill:#75031e"/><polygon points="628 274.68 628 299.68 444.5 362.32 444.5 337.76 628 274.68" style="fill:#75031e"/><polygon points="628 458.68 628 483.68 805.5 546.32 805.5 522.16 628 458.68" style="fill:#75031e"/><polygon points="628 458.68 628 483.68 444.5 546.32 444.5 521.76 628 458.68" style="fill:#75031e"/><polygon points="628 91.68 628 116.68 805.5 179.32 805.5 155.16 628 91.68" style="fill:#75031e"/><polygon points="628 91.68 628 116.68 444.5 179.32 444.5 154.76 628 91.68" style="fill:#75031e"/><polygon points="628 275.68 628 300.68 805.5 363.32 805.5 339.16 628 275.68" style="fill:#75031e"/><polygon points="628 275.68 628 300.68 444.5 363.32 444.5 338.76 628 275.68" style="fill:#75031e"/><polygon points="1098 748 155 748 157 585 0 0 1258 12 1096 585 1098 748" style="fill:none"/></g></g></svg>