<svg xmlns="http://www.w3.org/2000/svg" viewBox="0 0 1259 748"><g id="Layer_2" data-name="Layer 2"><g id="Layer_2-2" data-name="Layer 2"><path d="M0,0,160,585.71,159.84,747h939l.16-161.29L1259,0ZM1079.85,671.77c-8.76,27-118.75,49.92-273,60l-177.5-63.38-183.5,62.9h0c-157-10.79-266.44-35-266.44-63l-.56-191.86c-.21-23.09,56.62-40.4,141.83-51.92l-.34-167.13c0-13.21,35.32-25.15,92.25-33.74l-.25-133.92C412.34,75,509.5,63,629.34,63s217,12,217,26.71v134c56.79,8.59,92,20.52,92,33.71V424.54c84.72,11.5,141.3,28.79,141.51,51.88Z" style="fill:#fffba4"/><path d="M1098.84,585.28q-9.27-2.43-19-4.76v89.66c-8.76,27-118.75,49.92-273,60l-177.5-63.38-183.5,62.9h0c-157-10.78-266.44-35-266.44-63l-.25-86.26q-9.89,2.37-19.32,4.84l-2,162.72h943Z" style="fill:#ff3863"/><path d="M1080,670.68V476.92c-.21-23.09-56.79-40.38-141.5-51.88V257.87c0-13.19-35.21-25.12-92-33.71V90.21c0-14.75-97.15-26.71-217-26.71s-217,12-217,26.71l.25,133.91c-56.94,8.6-92.25,20.54-92.25,33.75L320.83,425c-85.21,11.52-142,28.83-141.83,51.92l.31,104h0l.26,86.26c0,28.08,109.39,52.25,266.43,63l183.5-62.9L806.42,730.5h3.69C962.73,720.29,1071.3,697.5,1080,670.68Z" style="fill:none;stroke:#754c24;stroke-miterlimit:10"/></g></g></svg>