<svg xmlns="http://www.w3.org/2000/svg" viewBox="0 0 1257.93 748"><g id="Layer_2" data-name="Layer 2"><g id="Layer_2-2" data-name="Layer 2"><path d="M0,0,157,585.39,157,747h939l0-161.61L1257.93.08ZM1077,670.18c-8.75,27-118.74,49.92-273,60l-177.5-63.38L443,729.73h0c-157-10.78-266.43-35-266.43-63L176,474.84a14.35,14.35,0,0,1,.61-4.21c0-.31,0-.62,0-.93L176,277.84a11.12,11.12,0,0,1,.56-3.45L176,85.84c0-38.14,201.7-69.05,450.5-69.05S1077,47.7,1077,85.84V473.18a2.5,2.5,0,0,1-.09.25,13.34,13.34,0,0,1,.09,1.41Z" style="fill:#fffba4"/><path d="M1095.84,585.28q-9.27-2.43-19-4.76v89.66c-8.76,27-118.75,49.92-273,60l-177.5-63.38-183.5,62.9h0c-157-10.78-266.44-35-266.44-63l-.25-86.26q-9.89,2.37-19.32,4.84l-2,162.72h943Z" style="fill:#ff3863"/><path d="M1077.29,670.18V580.52l.18,0V474.84q0-.7-.09-1.41a2.5,2.5,0,0,1,.09-.25V85.84c0-33.72-157.67-61.79-366.16-67.84H542.62C334.13,24.05,176.47,52.12,176.47,85.84L177,274.39a11.41,11.41,0,0,0-.55,3.45L177,469.7c0,.31,0,.62.05.93a13.71,13.71,0,0,0-.61,4.21L177,666.7c0,28.07,109.33,52.23,266.29,63l183.47-62.89.09,0,.09,0L803.88,730h3.52C960,719.79,1068.59,697,1077.29,670.18Z" style="fill:none;stroke:#754c24;stroke-miterlimit:10"/></g></g></svg>