<svg xmlns="http://www.w3.org/2000/svg" xmlns:xlink="http://www.w3.org/1999/xlink" viewBox="0 0 1258 748"><defs><clipPath id="clip-path"><polygon points="470.43 327.72 470.14 160.98 596.55 136.41 596.84 303.15 470.43 327.72" style="fill:none"/></clipPath><clipPath id="clip-path-2"><polygon points="645.62 315.73 644.57 149.03 784.52 166.21 785.58 332.91 645.62 315.73" style="fill:none"/></clipPath><clipPath id="clip-path-3"><polygon points="470.85 691.29 471.16 525.69 597.67 500.16 597.36 665.76 470.85 691.29" style="fill:none"/></clipPath><clipPath id="clip-path-4"><polygon points="645.96 676.5 644.92 510.96 786.58 528.36 787.63 693.9 645.96 676.5" style="fill:none"/></clipPath><clipPath id="clip-path-5"><polygon points="470.01 513.85 470.32 347.83 598.79 321.91 598.49 487.92 470.01 513.85" style="fill:none"/></clipPath><clipPath id="clip-path-6"><polygon points="648.11 483.38 647.05 316.62 787.65 333.89 788.71 500.64 648.11 483.38" style="fill:none"/></clipPath></defs><g id="Layer_2" data-name="Layer 2"><g id="Layer_2-2" data-name="Layer 2"><path d="M627,97.68l177.5,63.48a2827.81,2827.81,0,0,1-361-.4Z" style="fill:#fffba4"/><path d="M627,166.73c-65.35,0-127.45-2.14-183.5-6v385h0v167L627,649.68l177.5,63.48v-167h0v-385C750,164.74,690,166.73,627,166.73Z" style="fill:#fffba4"/><line x1="627" y1="107.26" x2="627" y2="666.26" style="fill:none;stroke:#ffe174;stroke-miterlimit:10;stroke-width:9px"/><g style="isolation:isolate"><g style="clip-path:url(#clip-path)"><path d="M531.15,222.82a5.22,5.22,0,0,0-2.1,1,1.72,1.72,0,0,0-1.27-.19c-2.57.5-6.2,5.2-6.06,6.26,1,6,4,7.07,6.49,7.24,5.62-1.62,6.06-5.38,6.23-8.78.94-3.45-.72-6-3.29-5.54" style="fill:#ffe174"/><path d="M591.42,137.4c-4.14.81-6.47,6.19-5.7,9.79.43,3.91,1.1,6.22,5.8,6.16,2.16-1.74,5.58-6.32,4.52-9,1.6-3.63-1.92-7.4-3.88-7h0c-.24,0-.48.05-.71.09" style="fill:#ffe174"/><path d="M477.8,207.91a3.66,3.66,0,0,0-.79.26c-3.14,1.24-6.89,3.88-6.62,8.48-.81,3.82,1,5.74,3.65,5.22a7.47,7.47,0,0,0,2.72-1.22,1.73,1.73,0,0,0,.38-.05c1.55-.3,4.1-1.87,5.47-5.47.32-5.66-2.49-7.67-4.81-7.22" style="fill:#ffe174"/><path d="M592,228.12c-5.73,1.12-8,4.93-6.16,8.88-1.19,2.83,3,6.49,5.38,6h0c3.28-1.87,7.34-4.86,4.61-8.38,1.36-5.86-2.18-6.84-3.6-6.57h0l-.24,0" style="fill:#ffe174"/><path d="M521.21,275.36a7.15,7.15,0,0,0-2.48,1.15,2.44,2.44,0,0,0-1.75-.26c-2.58.51-5.67,4.22-4.85,8.13a5,5,0,0,0,6,5.11,4.83,4.83,0,0,0,.86-.24,3.26,3.26,0,0,0,1-.06c2.44-.47,5.05-3.35,4.2-7.76.1-3.89-.47-6.54-2.92-6.07" style="fill:#ffe174"/><path d="M561.19,233.94c-2.21,1.51-3.42,3-2.63,4.91-.39,1,.91,2.48,2.33,2.21a1.91,1.91,0,0,0,.44-.15.73.73,0,0,0,.36,0c.89-.17,1.65-1.66,2.37-3.5a10.92,10.92,0,0,0-2.87-3.47" style="fill:#ffe174"/><path d="M556.66,282.59a4,4,0,0,0-.55.14c-1.61.39-2.24,1.57-2.11,3.88-.61,1.82.53,2.9,2.59,2.5l.35-.08h0c1.09-.21,3-1.13,2.38-3.31-.26-2.32-.92-3.47-2.68-3.12" style="fill:#ffe174"/><path d="M535.42,192.77a3.22,3.22,0,0,0-.85.3c-1.57.37-3.41,2-2.47,3.3-.8,2.21,1.72,3.15,1.95,3.68,1.57-.68,3.4-3.28,3.74-5.2a1.85,1.85,0,0,0-2.37-2.08" style="fill:#ffe174"/><path d="M500.42,214.94c-1,.19-2.14,1.95-2.67,4.05,1.34,1.16,2,2.4,3.8,2l.2,0c1.12-.34,2.5-1.39,1.68-4.19.95-1.58-.38-2.35-2.34-2-.14,0-.28.06-.42.09a.71.71,0,0,0-.25,0" style="fill:#ffe174"/><path d="M494.66,271c-2.7,1.47-3.8,2.49-3.31,4.12.33,2.34,1.76,3.36,3.22,3.39a.46.46,0,0,0,.2,0c1.05-.2,2.89-2.5,2.74-3.51a37,37,0,0,0-2.85-4" style="fill:#ffe174"/><path d="M477.65,261.25c-2.2.95-3.39,2.7-3.33,3.65.28,2.13.34,3.63,1.73,3.37a5.18,5.18,0,0,0,1.49-.66.17.17,0,0,0,.2.08c.63-.12,2.2-2.16,2.09-2.93a5.69,5.69,0,0,0-2.18-3.51" style="fill:#ffe174"/><path d="M559.05,169c-.81.16-1.75,2-1.8,4.79-.34,1.24,1.67,2.82,2.62,2.75,2-.79,2.35-1.91,3.32-4.28-.29-2-1.24-3.61-4.08-3.26h-.06" style="fill:#ffe174"/><path d="M581.86,266.68c-2.07,1.13-2.82,2.51-2.22,4.45-.63,1.8.11,2.78,2.06,2.41a7.7,7.7,0,0,0,.78-.21,1.65,1.65,0,0,0,.32,0c1.49-.29,1.48-2.09,1.6-3.27-.12-2.25-.22-3.15-2.54-3.34" style="fill:#ffe174"/><path d="M506.7,255.69a2.17,2.17,0,0,0-.42.11c-3.59.83-3.47,1.9-4,4.71.5,1.1.54,2.76,3.44,2.2l.31-.07c2.74-1.19,4.15-2.67,4.33-3.93.76-2-1.7-3.41-3.67-3" style="fill:#ffe174"/><path d="M517.11,187.51c-2.23.43-2.33,2.29-3,3.38-.66,2.15,2.07,3.77,4.87,3.22l.15,0a21.93,21.93,0,0,0,4.29-4.14c-.29-2.09-1.39-3.36-4.31-2.79q-.51.1-1.08.27a5.82,5.82,0,0,0-.89.09" style="fill:#ffe174"/><path d="M482,318a4.3,4.3,0,0,0-3.61,3.86c.11,2.59,1.78,3.12,3.18,3.71,3.32-1.43,4.39-2.16,4.58-5,.17-1.48-.66-2.36-3.63-2.62L482,318" style="fill:#ffe174"/><path d="M591.63,183.07l-.08,0c-2.84,1.39-4.92,3.17-5.69,5.29a5.2,5.2,0,0,0,3.9,1.58.63.63,0,0,0,.22-.07,5.82,5.82,0,0,0,1.71-.07c2.35-.45,2.83-2.48,4.57-4-2-1.23-3.44-3-4.63-2.75" style="fill:#ffe174"/><path d="M557.5,256.54c-2.18.43-4.65,2.4-3.68,4.13a2.49,2.49,0,0,0,2.93,2.54,3.46,3.46,0,0,0,1.4-.65,1.2,1.2,0,0,0,.74.08c1.15-.23,2.08-2,2.12-3,.27-2.93-1.69-3-3-3.19l-.52.07" style="fill:#ffe174"/></g></g><g style="isolation:isolate"><g style="clip-path:url(#clip-path-2)"><path d="M708.83,235.42c-2.35.88-5.39,2.41-4.53,5.79-.61,5.89,4,8.2,7.56,10.51,2.24-1.72,5.42-5.19,5.54-8.91.89-2.49-1.73-5.34-8.57-7.39" style="fill:#ffe174"/><path d="M778,316.74c-2.76-.34-4.95,2.86-6.43,7.44,2.28,2.36,2.88,7.37,8,8l.48,0c1.63-2.2,4.51-3.61,5.47-7.42,1.15-4.1-1.06-7.14-6.18-7.77l-.38,0a3.82,3.82,0,0,0-1-.25" style="fill:#ffe174"/><path d="M653.6,253.43a6.06,6.06,0,0,0-1.28,0,9.88,9.88,0,0,0-1.11-.22c-4.57-.56-6.61,3.67-5.76,8.14.4,2.36,3.49,6.72,5.83,7a2.15,2.15,0,0,0,.57,0c5.78-.49,7.61-1.88,6.34-6.2,1-3.94-.8-8.23-4.59-8.7" style="fill:#ffe174"/><path d="M778.26,225.56c-2.11,0-5.18,4.13-4.58,9.2-1.55,1.32,2.19,6.29,4.74,6.89,3.9-.08,6.44-1.65,5.53-8.2,3-3.36-1.65-6.17-5.69-7.89" style="fill:#ffe174"/><path d="M699.5,182.69a9,9,0,0,0-1.18-.06,5.43,5.43,0,0,0-5.86,6.2c-.93,4.95,2.28,8.4,3.76,8.58a.55.55,0,0,0,.64-.29c5.5.68,8.08-.72,8.63-5.69.54-3.94-1.39-8.17-6-8.74" style="fill:#ffe174"/><path d="M745.33,229.88c-1.23-.15-2.18,1.81-2.23,3.42-.91,1.37.54,2.68,2.65,3.51,1.52-.44,3.55-1.36,3.26-3.62a2.89,2.89,0,0,0-2.3-3,1.7,1.7,0,0,0-.64,0,1.53,1.53,0,0,0-.74-.34" style="fill:#ffe174"/><path d="M739.73,181.79c-.91-.11-2.27,1.68-2.87,2.65a3.89,3.89,0,0,0,3.1,3.85,6,6,0,0,0,.82.17c2.12.26,2.38-1.34,3.05-3.08.45-1.64-1.7-3.15-3.46-3.36l-.25,0a.67.67,0,0,0-.39-.2" style="fill:#ffe174"/><path d="M717,273.35a5.31,5.31,0,0,0-.72-.05c-.3.43-2.91,1.12-1.85,3.7-.6,1,1.27,3,2.29,3.53,2.8-.82,3.38-1.72,3.28-3.22-.52-2.37-1-3.72-3-4" style="fill:#ffe174"/><path d="M679.63,253c-.94-.12-2.67,1.32-3.26,2.68,1.07,1.82,1.75,4,2.87,4.18a.71.71,0,0,0,.25,0c1.55,0,4.2-1.38,3.82-2.32-.4-1.78-1.53-3.84-3.44-4.46a.61.61,0,0,0-.24-.07" style="fill:#ffe174"/><path d="M670.73,196.36c-1-.13-2.3,1.15-2.93,3.39.9,1,2.38,2.71,3.44,4,2.6.24,3.13-1.47,3.79-3-.69-2.51-1.3-3.72-4-4.32a.9.9,0,0,0-.32-.09" style="fill:#ffe174"/><path d="M652.61,207.38h0a3.18,3.18,0,0,0-3.33,3.82c.65,1.26,1.67,2.78,2.81,2.92a1.39,1.39,0,0,0,.72-.1,2.26,2.26,0,0,0,.67.2c1.39.18,1.91-1.6,2.94-2.26-1.24-2.05-2.67-4.44-3.81-4.58" style="fill:#ffe174"/><path d="M744,294.73c-1-.12-1.35,1.6-1.7,2.72-.5,2.19.91,4.23,2.14,4.59,1.69,0,4.47-1.65,3.51-3.79a3.54,3.54,0,0,0-3.43-3.4l-.19,0a1,1,0,0,0-.33-.1" style="fill:#ffe174"/><path d="M768.64,195.37c-1.53.6-3.26,1-3.73,4,.25.81,2.21,3.11,3.67,3.36a3.58,3.58,0,0,0,3-2.86c0-1.93-.75-4.07-3-4.47" style="fill:#ffe174"/><path d="M684.49,211c-3.24.33-4.65,1.48-4.93,3.2,1.62,2.06,2.36,3.19,4.5,3.45l.14,0,1.41.2c3.57.44,4.18-.29,4.34-2.44-1.07-1.27-3.18-3.63-5.46-4.43" style="fill:#ffe174"/><path d="M698.1,279.05c-3,0-3.73,2.19-2.83,3-1,2.83,1.24,4.3,3.51,4.58h.13c1.72.21,5.23-.51,5.43-3.32-.32-1.08-2.23-3-6.24-4.27" style="fill:#ffe174"/><path d="M659.68,150.89a2.46,2.46,0,0,0-1.06.07,5.35,5.35,0,0,0-.92-.19c-2.39-.3-5.39.77-4.87,2.65.27,1.74,2.74,3.51,4,3.66H657c3.28.21,6.37-.29,4.71-3.08,1.82-1.3-.25-2.91-2-3.12" style="fill:#ffe174"/><path d="M778,279c-2.71-.33-3.9,1.52-4.64,2-.42,2.48,1.42,4.18,5.56,4.69.41.05.84.09,1.29.11a2.7,2.7,0,0,0,.39.08c1.76.21,2.83-1.27,4.5-2.81-1.44-2-3.49-3.58-4.78-3.74a1.18,1.18,0,0,0-.69.1A6.88,6.88,0,0,0,778,279" style="fill:#ffe174"/><path d="M740.07,207.61c-1.49-.18-2.57,1-3.18,2.46a3.55,3.55,0,0,0,3.36,4.06,6.63,6.63,0,0,0,1.66,0,2.83,2.83,0,0,0,.62.16,4.33,4.33,0,0,0,3.78-2.15c-.56-1.91-.89-3.2-5.24-4.19a3,3,0,0,0-1-.32" style="fill:#ffe174"/></g></g><g style="isolation:isolate"><g style="clip-path:url(#clip-path-3)"><path d="M530.71,586.21a6.47,6.47,0,0,0-2.3,1.11,5.07,5.07,0,0,0-1.42.07c-2.74.55-4.1,3.6-3.8,8-.67,1.79,1,5.27,3.95,4.68a5,5,0,0,0,2-1,2.48,2.48,0,0,0,1.53.14c2.57-.52,5.46-4.27,4.4-6.38-1-3.32-1.5-7.25-4.35-6.67" style="fill:#ffe174"/><path d="M590.43,501.62c-3.53.71-6.18,5.56-5.68,9,.23,2.7,1.92,6.48,4.33,6a2.85,2.85,0,0,0,.71-.27c5.61-1.32,5.36-5.68,5.52-9.88a3.06,3.06,0,0,0-2.84-5.18,4.14,4.14,0,0,0-.78.25,4.41,4.41,0,0,0-1.26.07" style="fill:#ffe174"/><path d="M476.73,571.16c-2,.45-5.73,3.19-5.67,9.49.22,2.57,2.2,6.35,5.36,5.78,4.64-1.08,7.83-4.91,5.52-9.65.64-2.09-2.53-5.15-5.21-5.62" style="fill:#ffe174"/><path d="M592.47,590.84a2,2,0,0,0-1.12.67,8.43,8.43,0,0,0-1.23.15c-2.85.57-5.28,2.69-5,6.3-.24,6.12,1.12,7.29,6,7a3.12,3.12,0,0,0,1.1,0c2.62-.53,4.05-4.7,5.34-8.36-.57-3.61-3.11-6.18-5-5.79" style="fill:#ffe174"/><path d="M519.85,639.61c-.61.12-1.26.28-2,.49a1.57,1.57,0,0,0-.41,0c-1.7.34-5.37,2.8-6.43,6.87,1.28,4.21,4.84,6.41,8.47,5.68a4.37,4.37,0,0,0,.49-.12,1.28,1.28,0,0,0,.55,0c1.75-.35,3.82-3.88,5.1-7.69.44-5-1.7-6.1-5.81-5.27" style="fill:#ffe174"/><path d="M559.57,597.78c-1.33.26-2,1.86-1,3.73,0,1.65.28,2.86,1.66,2.58a3.45,3.45,0,0,0,.44-.13,1.2,1.2,0,0,0,.62,0c.94-.19,1.68-1.64,2.51-4.18-1-.73-1-2-3.57-2.08a2.24,2.24,0,0,0-.64,0" style="fill:#ffe174"/><path d="M557,644.92a5.52,5.52,0,0,0-3.77,4.3c.92,1.93,1.58,2.91,2.35,2.75a1.17,1.17,0,0,0,.47-.22,2.18,2.18,0,0,0,.58,0c1.48-.3,2.14-2,2.57-2.77.12-2.39-1.31-4-2.2-4" style="fill:#ffe174"/><path d="M535.44,555.48c-2.48,1-4,3.15-3.87,4.43.95,1.4,1.17,2.49,2.68,2.18a5.2,5.2,0,0,0,.63-.18,1.15,1.15,0,0,0,.32,0c1-.2,1.89-1.81,2.33-3.36-.14-2.42-1.55-2.62-2.09-3.06" style="fill:#ffe174"/><path d="M502.77,578.07a2.39,2.39,0,0,0-.77.31,1.13,1.13,0,0,0-.52,0c-1.08.22-2.4,1.87-3.11,3.17,1.13,2.26,1.27,3.05,2.71,2.76a5.44,5.44,0,0,0,.54-.14c2.06-.5,3.67-2.47,2.9-3.33.29-1.25-.3-3.05-1.75-2.75" style="fill:#ffe174"/><path d="M495.2,634.81a4.52,4.52,0,0,0-1.09.39,1.87,1.87,0,0,0-.34,0c-1.39.28-1.92,2.28-2.19,3.53.07,1.74.74,3.26,1.91,3a1.5,1.5,0,0,0,.49-.19,3.27,3.27,0,0,0,.65-.06c1.73-.35,2.23-2,2.82-3.58.33-2-.41-3.51-2.25-3.14" style="fill:#ffe174"/><path d="M477.53,624.43c-.87,1.35-2.5,2.23-3.06,4.41.58,2.36,2.06,2.55,2.46,2.92,2.14-.83,3.83-2.59,3.67-4.38-.82-1.25-1.44-3-3.07-3" style="fill:#ffe174"/><path d="M559.58,532.55c-1.84.37-2.75,2.77-2.05,3.61.24,1.32.24,2.89,2.91,3.37a32.86,32.86,0,0,0,2.48-4.11c.22-2.68-1.94-2.85-2.71-2.92a2.6,2.6,0,0,0-.63,0" style="fill:#ffe174"/><path d="M581.07,630.24c-.76.15-2.4,2.46-1.75,4.08-.1,1.52.24,2.68,2,2.33a5.82,5.82,0,0,0,.87-.26,1.15,1.15,0,0,0,.37,0c.85-.17,1.32-1.57,2.56-4.44-1.11-.48-1.76-2.15-3.42-1.82a2.93,2.93,0,0,0-.43.13.3.3,0,0,0-.19,0" style="fill:#ffe174"/><path d="M507.72,618.65a1.69,1.69,0,0,0-.36.12l-.49.08a6.53,6.53,0,0,0-5.44,5.24c1.3,1,2,2.42,3.63,2.09a3.16,3.16,0,0,0,.74-.24,8.11,8.11,0,0,0,5.06-3.78c.95-2.85-1.76-3.79-3.14-3.51" style="fill:#ffe174"/><path d="M520.75,550.55a6.58,6.58,0,0,0-1,.3h-.07a9.31,9.31,0,0,0-6.3,4.28c1.59.51,2.63,2.05,4.47,1.68a3.67,3.67,0,0,0,.88-.3,10.41,10.41,0,0,0,1.28-.16c2.31-.47,3.8-1.78,2.8-3.2,1-2.19-.38-2.95-2.1-2.61" style="fill:#ffe174"/><path d="M483,681.42c-2.33.47-4.31,2.88-6.08,5.2,1,1.71,3.5,2.11,4.88,2.45a6,6,0,0,0,4.26-5.32c.4-1.17-.42-2.86-2.53-2.43l-.2,0-.33,0" style="fill:#ffe174"/><path d="M590.82,546.63a3.07,3.07,0,0,0-1.11.47,3.41,3.41,0,0,0-1.1,0,3.55,3.55,0,0,0-2.89,4.31,5.33,5.33,0,0,0,4.07,1.88c.45-.05.86-.11,1.25-.19,3.28-.66,4.44-2.39,3.79-3.87.24-1.36-2-3.06-4-2.65" style="fill:#ffe174"/><path d="M557.73,619.14l-.15,0h0c-2,.41-5.67,3.5-5.72,4.43,1.69,1.92,3,3.11,5.13,2.68a4.78,4.78,0,0,0,.83-.24c2.29-.49,3.75-2.85,5-3.9-1.25-1.51-3.71-3.28-5-3" style="fill:#ffe174"/></g></g><g style="isolation:isolate"><g style="clip-path:url(#clip-path-4)"><path d="M710.5,598.74a10.21,10.21,0,0,0-1.38-.09c-2.65-.14-5.2,1.42-6.74,7.38,2,2.28,4.34,5.55,7.86,7l.32,0c3.57.44,5.48-3.82,7.9-6.28-.55-3.13-2.49-7.34-8-8" style="fill:#ffe174"/><path d="M780.59,678.69c-4,.74-6.76,3-8.42,8,1.91,4.59,3.29,5.33,6.84,6a5.59,5.59,0,0,0,1.31.33c3.42.42,5.78-2.81,4.4-4.72.91-3.71-2.17-9.07-4.13-9.59" style="fill:#ffe174"/><path d="M653.81,616.44c-5.93.35-9.93,1.74-7.47,5.76.76,3.7,2.71,7.37,5.41,7.7a3.48,3.48,0,0,0,1.57-.19,4.86,4.86,0,0,0,2,.78c2.52.31,4-2.39,4.22-6.33.17-4.5-3.66-7.15-5.74-7.72" style="fill:#ffe174"/><path d="M779.59,590.74a2.68,2.68,0,0,0-1.31.12,8.07,8.07,0,0,0-1.66-.42c-2.94-.36-3.63,2.16-4.91,6.14.53,3.28,3.78,6.36,5.06,6.51a.39.39,0,0,0,.49-.27,4.54,4.54,0,0,0,2,.75c3.27.4,6.41-3.23,7.8-6.66-.47-2.18-4.57-5.82-7.43-6.17" style="fill:#ffe174"/><path d="M700,545.3c-5.78-.62-9.51,3.12-8.24,8.29-.47,3.71,4,5.73,7.91,6.21l.5.06c.08.28.22.42.41.44,1.07.13,3.63-3.54,5.11-5.66-1.59-4.46-2.21-6.65-5.69-9.34" style="fill:#ffe174"/><path d="M745,592.55c-1.73-.21-3,.57-3.07,2.1a10.4,10.4,0,0,0,3.34,4.49c1.67-.07,2.91-1,4.36-3.13-1.1-1.71-2-3-3.74-3.27a6.48,6.48,0,0,0-.89-.19" style="fill:#ffe174"/><path d="M740.27,544.51c-1.31-.16-3,1.48-3.23,3.25,1,2.24,1.39,3.29,4.25,4.15,1.47-.59,3.28-1.95,3-3.89a5.71,5.71,0,0,0-3.52-3.35,1.19,1.19,0,0,0-.48-.16" style="fill:#ffe174"/><path d="M716,636.06c-.81-.1-2.28,1.25-2.35,3.21.86,2,1.43,2.8,3.52,3.16,1.42,0,2.44-1.38,2.86-2.84.65-1.61-1.3-3.06-3.11-3.29a3.25,3.25,0,0,0-.54,0,.52.52,0,0,0-.38-.22" style="fill:#ffe174"/><path d="M679.43,616.07c-1-.12-2.61,1-3.15,3.53,1.29,1.72,2.17,2.92,3.9,3.77a2.87,2.87,0,0,0,2.69-4.14c.91-.49-.56-2.8-2.3-3a2.07,2.07,0,0,0-.7,0,.83.83,0,0,0-.44-.18" style="fill:#ffe174"/><path d="M671.16,558.89c-1-.12-2.66,1.16-2,3.68-1.08,1.37,1.33,3.1,3.27,4,1.59.08,1.8-1.93,3.28-2.84-.87-3.22-2.65-3.87-4.23-4.74a1,1,0,0,0-.3-.1" style="fill:#ffe174"/><path d="M652.55,569.76c-1.93.61-2.27,2.47-3.49,4,1.1,1.13,1.4,2.89,2.8,3.07a2.68,2.68,0,0,0,1-.1,3,3,0,0,0,.75.19c1.81.22,3.16-1.37,2.76-2.48.53-2.35-1.07-4.31-3.79-4.73" style="fill:#ffe174"/><path d="M744.37,657.6c-.2.41-2.62.68-2.66,2.69.74,1.79,1.68,3.75,2.79,3.89h.16a1.53,1.53,0,0,0,.4.09c1.47.18,2.68-1.52,2.79-2.49.57-2-.87-3.53-3.48-4.19" style="fill:#ffe174"/><path d="M768.12,558.13a5.85,5.85,0,0,0-2.92,3.53c.21,1.52,1.72,3.39,3.25,3.58a1.91,1.91,0,0,0,1-.14c1.31.13,2.36-1.31,2.39-3.05.87-1.09-.6-3.37-3.72-3.92" style="fill:#ffe174"/><path d="M686.26,574.24c-4.18-.23-5.6.6-6.26,2.71a4.66,4.66,0,0,0,3.76,3.91,4.82,4.82,0,0,0,1.45-.07c2.48.25,4.39-.23,4.13-1.89,1.42-2.9-1.91-3.65-3.08-4.66" style="fill:#ffe174"/><path d="M699.35,642.43l-.58,0c-3.38.21-4.55,1.33-3.79,2.93-1.52,2.36,1.61,4.09,2.93,4.25H698c4.09.5,5.31-.61,7.05-2.59a6.55,6.55,0,0,0-5.72-4.55" style="fill:#ffe174"/><path d="M659.15,512.71c-4.28-.15-7,1.22-5.52,2.87-.23,2.46.79,3.42,3.44,4.82a9,9,0,0,0,6.41-3.46c.44-2.08-4-3.29-4.33-4.23" style="fill:#ffe174"/><path d="M780.15,642a4.22,4.22,0,0,0-1.49.08,2.36,2.36,0,0,0-.75-.22c-1.5-.18-3.68.75-2.4,3.11-1.73.65.89,2.91,3.22,3.19a3.4,3.4,0,0,0,1.06,0,5.78,5.78,0,0,0,1.4.36c1.8.22,3.12-.69,4.22-2.26-1.64-2.2-3.21-4-5.26-4.24" style="fill:#ffe174"/><path d="M742.26,570.68a1,1,0,0,0-.29,0c-2.59.35-5.57.88-5.76,3.14.18,1.28,2.14,3.62,6.66,4.2,1.08-.28,3.11-2,4.3-3.54-.26-1.45-3.37-3.61-4.91-3.79" style="fill:#ffe174"/></g></g><g style="isolation:isolate"><g style="clip-path:url(#clip-path-5)"><path d="M541.16,412.28a3.27,3.27,0,0,0-1.17.54,6.41,6.41,0,0,0-1.59.12c-4.18.84-6.6,5.56-5.4,6.77.56,6.41,1.11,7.87,5.83,6.92l.16,0c.29,0,.56-.07.82-.12,3.49-.7,4.83-4,3.68-8.33,1.17-3.21-.13-6.31-2.33-5.87" style="fill:#ffe174"/><path d="M478.69,495.77a1.38,1.38,0,0,0-.27.08h0c-4.39.88-8.38,7.16-8.35,11,.28,1.39,5.19,3.93,6.69,5.62,3.41-2.21,7.07-4.66,6.29-10.47.31-4-2.63-6.59-4.32-6.25" style="fill:#ffe174"/><path d="M590.38,427.27c-1.61.33-3.9,5.37-4.37,8-.38,3.87,1.69,6.62,3.84,6.19a2.91,2.91,0,0,0,1.31-.68,2,2,0,0,0,.53,0c2.18-.45,6.26-4.43,6.9-8.7-1.59-4.09-3.21-5.73-7.27-4.91-.19,0-.38.08-.58.13a.73.73,0,0,0-.36,0" style="fill:#ffe174"/><path d="M479,406.2c-3.52,2.45-8.86,6.55-6.77,10.12-1.32,4.63,1,5.39,6.77,6.12,3.11-2.51,4.94-4.29,4.59-7.39-.8-4.09-2.78-8.06-4.59-8.85" style="fill:#ffe174"/><path d="M549.85,359.25a2.3,2.3,0,0,0-.68.27,3.67,3.67,0,0,0-.93.09c-3.14.63-6.1,4.66-5.85,7.93,1.49,4.91,3.33,7.48,8.3,7,2.32-.81,5-6.32,3.91-8.33.23-4-2.49-7.4-4.75-6.95" style="fill:#ffe174"/><path d="M508.85,408.29a2.07,2.07,0,0,0-.91.6,2,2,0,0,0-.81,0c-1.22.24-1.95,1.71-2.43,3.05.63,2.29.8,3.05,2.41,3.53,1.89-1.08,3.78-3.19,3.19-3.95-.42-2.13-.68-3.37-1.45-3.22" style="fill:#ffe174"/><path d="M512.53,360.23a.39.39,0,0,0-.27.18,1.37,1.37,0,0,0-.57,0c-1.32.27-2.25,2.32-2.67,4.13a2.19,2.19,0,0,0,2.47,2.78h0c1.78-.36,2.52-2.77,2.36-3.55.85-2.49-.63-3.68-1.34-3.53" style="fill:#ffe174"/><path d="M532.44,449.87c-1.09.22-1.41,2.72-1.72,4.23.21,1,.43,3.07,1.57,2.84a1.69,1.69,0,0,0,.63-.3,4.36,4.36,0,0,0,3.6-4.05,3.94,3.94,0,0,0-4-2.73h-.08" style="fill:#ffe174"/><path d="M567.27,428.39a.4.4,0,0,0-.32.25h0c-2.15.43-3.09,2-3.83,3.79.82,1.7,1,2.46,3.68,2.86,1-1.3,2.36-2,2-4.75.64-1-.76-2.31-1.5-2.16" style="fill:#ffe174"/><path d="M573.91,370.37c-1.36,1.08-3.78,2.72-3,4.81s.68,2.38,3,2.3l.24,0a2.72,2.72,0,0,0,1.89-4.17c.47-1-.13-2.42-2.17-2.9" style="fill:#ffe174"/><path d="M590.24,380.59c-.69.14-1.77,2-2,4.71.09,1.77,1.38,2.33,2.74,2.89.85-.69,2.31-2.31,2.36-3.85-.31-3-1.71-3.86-3.07-3.75h0" style="fill:#ffe174"/><path d="M507.69,473c-.47,1.18-2.27,3-2.83,4.27,0,2.2,2.24,3.14,3.27,3.17a1.15,1.15,0,0,0,.37,0c1.29-.26,2.38-2.62,2.65-4.41.25-1.54-2-2.37-3.46-3" style="fill:#ffe174"/><path d="M486,376.36c-1.51.3-1.8,2.47-2.52,3.63.83,1.79.81,3.08,3.65,2.78a.48.48,0,0,0,.21,0c.78-.16,1.91-2.3,2.4-4-.72-1.56-1.11-2.88-2.26-2.65a2.5,2.5,0,0,0-.58.22,2.12,2.12,0,0,0-.9,0" style="fill:#ffe174"/><path d="M562.5,386.74a7.14,7.14,0,0,0-1.35.43c-1.16.39-4.23,2.18-3.79,3.86-.79,2.55,2.29,2.56,5.33,2.34a1.71,1.71,0,0,0,.6,0c1.33-.27,2.17-2,1.71-4.19.58-1.5-.18-2.89-2.5-2.42" style="fill:#ffe174"/><path d="M550.12,455.05a.66.66,0,0,0-.2.06c-3.63,1.58-3.89,2.27-5.38,4.92a3.67,3.67,0,0,0,3.78,2.24,2.17,2.17,0,0,0,1-.46c2.37-.58,5.31-2.69,3.79-3.63.74-1.64-1.54-3.42-3-3.13" style="fill:#ffe174"/><path d="M584.27,324.84c-1.41.28-2.34,2.33-2.69,4.35-1.07,1.29,1.33,2.21,3.55,1.77a4.86,4.86,0,0,0,1.38-.5,4.34,4.34,0,0,0,.52-.09c2.47-.49,4.18-2.12,3.63-3.08.23-3.08-2-3-5.94-2.48a1.68,1.68,0,0,0-.45,0" style="fill:#ffe174"/><path d="M477.34,459.11c-1.09,1.23-3.07,2.81-5,4.75a4,4,0,0,0,4.77,2.81,3.59,3.59,0,0,0,.52-.13,11.81,11.81,0,0,0,5.12-4.25c-1.85-2-2.85-2.7-5.39-3.18" style="fill:#ffe174"/><path d="M509.92,386.62c-2.39.49-2.87,1.55-4,4.26a6.09,6.09,0,0,0,4.65,3c3.52-1.12,4.53-2.52,4.07-4.37.83-2.3-1-3.45-4.7-2.9" style="fill:#ffe174"/></g></g><g style="isolation:isolate"><g style="clip-path:url(#clip-path-6)"><path d="M723.08,398.4c-4.38.2-8.15,4.23-6.46,6.44.8,3.77,3.23,8.05,5.16,8.28a1.24,1.24,0,0,0,.51,0,7.49,7.49,0,0,0,1.71.41c3.51.43,7.43-1.47,5.63-5.18-.24-4.42-4.18-9.42-6.55-9.92" style="fill:#ffe174"/><path d="M654.16,317.49c-4.32.36-7.13,3.88-6.09,7.44,1.39,5.09,2.2,7.86,5.89,8.31.24,0,.5.05.76.06,2.67-1,7.21-1.25,6.45-7.17,1.7-2.47-2.34-7.08-7-8.64" style="fill:#ffe174"/><path d="M779.73,380.78c-1.06-.13-6.35,1.94-4.73,6.68-1.69,3.65,3.19,8.59,8.22,9.67,2.89-.57,4.18-4.55,4.32-7.68,1.81-3.15-1.37-6.48-7.64-8.6a.25.25,0,0,0-.17-.07" style="fill:#ffe174"/><path d="M655.75,408.07a10.92,10.92,0,0,0-2.23,0c-3.9.22-6.73,2.06-5.62,6.7.49,3.6,5.09,6.67,8.26,8.51,2.43-.57,6.21-2.89,5.77-6.69-1.23-4.82-2.18-8-6.18-8.5" style="fill:#ffe174"/><path d="M734.57,450.47c-4.45.38-6.31,4-5.55,8.44-.28,2,3.92,6.61,7.06,7,1.93-.24,4.44-1.8,5.88-6.29.32-2.59-2.57-7.27-7.39-9.2" style="fill:#ffe174"/><path d="M689.07,413.65a1.66,1.66,0,0,0-.94.18,2.14,2.14,0,0,0-.65-.21c-1.11-.13-1.94.93-1.56,2.61a3.2,3.2,0,0,0,1.82,4h0c2.87.3,3-1.15,3.12-2.68s-.49-3.78-1.81-3.94" style="fill:#ffe174"/><path d="M692.38,460.8c-1.29-.15-2.09,1.19-2.69,3.47a4.33,4.33,0,0,0,3.2,3.05,3.46,3.46,0,0,0,.46,0,2.78,2.78,0,0,0,1.22.51c1.43.18,2.32-1.36,1.51-3.47.9-1.86-1.63-2.86-3.05-3.39a2.6,2.6,0,0,0-.65-.19" style="fill:#ffe174"/><path d="M717.43,369c-2.16.09-3.09,1.11-3.67,3.09a3.28,3.28,0,0,0,2.61,3.56h.14a2.6,2.6,0,0,0,1.07.42c1.18.14,1.89-1,2-2.58a7,7,0,0,0-2.16-4.5" style="fill:#ffe174"/><path d="M754.27,389.86a1.2,1.2,0,0,0-.33,0,3.62,3.62,0,0,0-3.89,3.27,4.87,4.87,0,0,0,4.16,3.75h.07c1.33.15,3-1.32,2.9-4.19a4.56,4.56,0,0,0-2.91-2.85" style="fill:#ffe174"/><path d="M761.6,446.78A2.28,2.28,0,0,0,759,449a6.07,6.07,0,0,0,3.16,4.4,1,1,0,0,0,.3.08c1.35.17,3.29-1.78,2.48-3.28.6-1.56-.46-3-2.49-3.22l-.17,0a3.18,3.18,0,0,0-.71-.17" style="fill:#ffe174"/><path d="M782.47,435.8a3.31,3.31,0,0,0-1,.07c-.23,0-.44-.08-.65-.1-2.1-.26-2.6.66-3,2.57.74,2.17.76,3.38,2.56,3.84a4,4,0,0,0,.64.12c2.66.33,3.74-1.81,2.49-3.07.26-2,.13-3.28-1.09-3.43" style="fill:#ffe174"/><path d="M689.27,347.74a.45.45,0,0,0-.23,0l-.16,0c-1.59-.2-2.94,1.07-2.87,3.25s1.48,3.32,3.65,4.28a5.15,5.15,0,0,0,2.15-3.81c-.4-1.45-1.7-3.62-2.54-3.73" style="fill:#ffe174"/><path d="M665.49,446.71c-2,.12-4.06,1.55-3.39,3.62-.19,1.15,1.06,3,2,3.09a.65.65,0,0,0,.65-.31,3.5,3.5,0,0,0,3.78-1.94,8.26,8.26,0,0,0-3-4.46" style="fill:#ffe174"/><path d="M749,431.19c-3,.19-5.1,1.24-6.4,3.42a14.42,14.42,0,0,0,6.17,3.33c4,.27,6.17-1.2,3.82-3.39,2.18-1.43-1.1-2.33-3.59-3.36" style="fill:#ffe174"/><path d="M734.28,363.36c-2.14-.26-3.82,1.23-5.51,1.85,1.6,2.47,4,4.7,5.69,5.18,1.93-.7,6.35-.82,6.45-3.37a9.11,9.11,0,0,0-5-3.4,1,1,0,0,0-.51.05,4.63,4.63,0,0,0-1.14-.31" style="fill:#ffe174"/><path d="M777.25,492.8c-5.09-.31-5.92.44-5.36,3.21a4.79,4.79,0,0,0,3.34,2.9,2.67,2.67,0,0,0,1.08-.09,3.75,3.75,0,0,0,1.31.46c1.51.18,2.51-1.06,3.35-2.83a6.29,6.29,0,0,0-3.72-3.65" style="fill:#ffe174"/><path d="M656.07,364.09a1.92,1.92,0,0,0-.48,0L655,364c-3.67-.46-5.56.64-5.25,2.27-1,1.38,1.19,3.77,3.36,4a2.86,2.86,0,0,0,1,0,5.26,5.26,0,0,0,1.13.27c2.26.28,3.72-1.21,5.07-2.1.18-2.54-2.68-4.17-4.21-4.36" style="fill:#ffe174"/><path d="M692.31,435.54c-.36-.05-.73-.08-1.13-.1l-.15,0c-1.32-.16-3.61.54-3.24,2.9-1.72,1.34,2.3,3,4.92,3.64,2.86-.47,3.89-1.61,4.39-2.55-.68-2.61-2.31-3.57-4.79-3.87" style="fill:#ffe174"/></g></g><polygon points="627 457.68 627 482.68 804.5 545.32 804.5 521.16 627 457.68" style="fill:#ffe174"/><polygon points="627 457.68 627 482.68 443.5 545.32 443.5 520.76 627 457.68" style="fill:#ffe174"/><polygon points="627 641.68 627 666.68 804.5 729.32 804.5 705.16 627 641.68" style="fill:#ffe174"/><polygon points="627 641.68 627 666.68 443.5 729.32 443.5 704.76 627 641.68" style="fill:#ffe174"/><polygon points="627 273.68 627 298.68 804.5 361.32 804.5 337.16 627 273.68" style="fill:#ffe174"/><polygon points="627 273.68 627 298.68 443.5 361.32 443.5 336.76 627 273.68" style="fill:#ffe174"/><polygon points="627 457.68 627 482.68 804.5 545.32 804.5 521.16 627 457.68" style="fill:#ffe174"/><polygon points="627 457.68 627 482.68 443.5 545.32 443.5 520.76 627 457.68" style="fill:#ffe174"/><polygon points="627 90.68 627 115.68 804.5 178.32 804.5 154.16 627 90.68" style="fill:#ffe174"/><polygon points="627 90.68 627 115.68 443.5 178.32 443.5 153.76 627 90.68" style="fill:#ffe174"/><polygon points="627 274.68 627 299.68 804.5 362.32 804.5 338.16 627 274.68" style="fill:#ffe174"/><polygon points="627 274.68 627 299.68 443.5 362.32 443.5 337.76 627 274.68" style="fill:#ffe174"/><polygon points="1098 748 155 748 157 585 0 0 1258 12 1096 585 1098 748" style="fill:none"/></g></g></svg>