<svg xmlns="http://www.w3.org/2000/svg" xmlns:xlink="http://www.w3.org/1999/xlink" viewBox="0 0 631 631"><defs><clipPath id="clip-path"><polygon points="248.73 265.56 248.61 196.11 302.2 185.69 302.33 255.14 248.73 265.56" style="fill:none"/></clipPath><clipPath id="clip-path-2"><polygon points="322.23 260.05 321.79 190.63 381.05 197.91 381.49 267.32 322.23 260.05" style="fill:none"/></clipPath><clipPath id="clip-path-3"><polygon points="248.84 417.43 248.97 348.3 302.1 337.58 301.97 406.71 248.84 417.43" style="fill:none"/></clipPath><clipPath id="clip-path-4"><polygon points="322.23 412.01 321.79 342.48 381.05 349.76 381.49 419.29 322.23 412.01" style="fill:none"/></clipPath><clipPath id="clip-path-5"><polygon points="249.42 342.95 249.55 273.79 302.04 263.2 301.91 332.36 249.42 342.95" style="fill:none"/></clipPath><clipPath id="clip-path-6"><polygon points="323.54 330.89 323.1 261.35 381.8 268.55 382.24 338.1 323.54 330.89" style="fill:none"/></clipPath></defs><g id="Layer_2" data-name="Layer 2"><g id="Layer_2-2" data-name="Layer 2"><rect x="5" y="5" width="621" height="621" rx="35.06" style="fill:#fffba4;stroke:#ff8fa9;stroke-miterlimit:10;stroke-width:10px"/><path d="M363.41,426.82H268.56c-.16,41.42,4.28,86.36-24.52,105.76-2.26,1.52-.84,4.34,2.19,4.34a603.85,603.85,0,0,0,139.51,0c3,0,4.44-2.82,2.19-4.34C359.12,513.18,363.56,468.24,363.41,426.82Z" style="fill:#ff3863"/><path d="M82,431.43c-2.73,7.27-11,11.25-19,8.79s-12.62-10.39-10.8-17.93Q67.06,427.17,82,431.43Z" style="fill:#ff8fa9"/><path d="M547.92,431.19c2.73,7.26,11,11.24,19,8.78s12.62-10.39,10.8-17.93Q562.88,426.93,547.92,431.19Z" style="fill:#ff8fa9"/><path d="M315.4,485.35a15.37,15.37,0,0,0,30.61-.6Q330.71,485.37,315.4,485.35Z" style="fill:#ff8fa9"/><path d="M345.14,484.79A15.38,15.38,0,0,0,375.72,483Q360.45,484.2,345.14,484.79Z" style="fill:#ff8fa9"/><path d="M374.85,483.07a15.39,15.39,0,0,0,30.51-3Q390.14,481.88,374.85,483.07Z" style="fill:#ff8fa9"/><path d="M404.49,480.19A15.42,15.42,0,0,0,434.9,476Q419.72,478.41,404.49,480.19Z" style="fill:#ff8fa9"/><path d="M434,476.15a15.44,15.44,0,0,0,30.26-5.37Q449.2,473.77,434,476.15Z" style="fill:#ff8fa9"/><path d="M463.43,471a15.47,15.47,0,0,0,30.08-6.56Q478.53,468,463.43,471Z" style="fill:#ff8fa9"/><path d="M492.66,464.59a15.51,15.51,0,0,0,29.87-7.75Q507.65,461,492.66,464.59Z" style="fill:#ff8fa9"/><path d="M521.68,457.08a15.2,15.2,0,0,0,18.84,8.9c8-2.4,12.57-10.3,10.78-17.85Q536.57,452.92,521.68,457.08Z" style="fill:#ff8fa9"/><path d="M548.09,449.94c3.7,6.82,12.39,9.64,19.95,6.12s10.54-16.16,7.71-23.38C566.44,437.25,557.54,445.77,548.09,449.94Z" style="fill:#ff8fa9"/><path d="M80.36,448.13c-1.78,7.55,2.83,15.45,10.79,17.85a15.21,15.21,0,0,0,18.84-8.9Q95.11,452.91,80.36,448.13Z" style="fill:#ff8fa9"/><path d="M109.14,456.84A15.51,15.51,0,0,0,139,464.59Q124,461,109.14,456.84Z" style="fill:#ff8fa9"/><path d="M138.15,464.39A15.47,15.47,0,0,0,168.24,471Q153.15,468,138.15,464.39Z" style="fill:#ff8fa9"/><path d="M167.38,470.78a15.44,15.44,0,0,0,30.26,5.37Q182.46,473.77,167.38,470.78Z" style="fill:#ff8fa9"/><path d="M196.77,476a15.42,15.42,0,0,0,30.41,4.18Q211.94,478.41,196.77,476Z" style="fill:#ff8fa9"/><path d="M226.31,480.09a15.39,15.39,0,0,0,30.51,3Q241.54,481.89,226.31,480.09Z" style="fill:#ff8fa9"/><path d="M256,483a15.38,15.38,0,0,0,30.58,1.79Q271.23,484.2,256,483Z" style="fill:#ff8fa9"/><path d="M285.65,484.75a15.38,15.38,0,0,0,30.62.6Q301,485.37,285.65,484.75Z" style="fill:#ff8fa9"/><path d="M578.71,414.26c0-34-117.9-61.54-263.32-61.54S52.06,380.27,52.06,414.26c0,1.59-.06,8-.06,9.63,0,34,117.9,61.54,263.33,61.54s263.32-27.55,263.32-61.54C578.65,422.3,578.71,415.91,578.71,414.26Z" style="fill:#ff8fa9"/><ellipse cx="315.83" cy="414.26" rx="263.32" ry="61.54" style="fill:#ff3863"/><path d="M81.85,450.19c-3.7,6.82-12.39,9.64-19.95,6.12s-10.54-16.16-7.71-23.38C63.5,437.5,72.4,446,81.85,450.19Z" style="fill:#ff8fa9"/><rect x="121.88" y="132.66" width="387.24" height="304.35" style="fill:#ff8fa9"/><polygon points="511.84 441.4 117.07 441.4 117.91 373.16 52.18 128.26 578.82 133.29 511 373.16 511.84 441.4" style="fill:none"/><path d="M314.24,169.12l74.31,26.57a1183.61,1183.61,0,0,1-151.13-.17Z" style="fill:#fffba4"/><path d="M314.24,198c-27.35,0-53.35-.89-76.82-2.5V356.7h0v69.91l76.82-26.41,74.31,26.58V356.87h0V195.69C365.75,197.19,340.63,198,314.24,198Z" style="fill:#fffba4"/><line x1="314.24" y1="173.13" x2="314.24" y2="407.14" style="fill:none;stroke:#ffe174;stroke-miterlimit:10;stroke-width:9px"/><g style="isolation:isolate"><g style="clip-path:url(#clip-path)"><path d="M273.22,221.36c-1.8.45-2.88,1.75-2,2.92-.66,2.83,1.12,3.82,2.15,3.62l.13,0a14.41,14.41,0,0,0,2.59-3.67c-.16-2.43-.84-2.78-2.84-2.84" style="fill:#c478ff"/><path d="M299.52,186.21l-.17.07c-2.07.63-2.12,1.22-2.45,3.58-.41,1,.26,2.28,1.93,1.95a3.16,3.16,0,0,0,.59-.17h0c.58-.11,2-.92,2.69-3.47-.83-1.09-2-2.08-2.62-2" style="fill:#c3ff76"/><path d="M251.85,215.05a2.93,2.93,0,0,0-.37.1c-1.32.63-3.42,1.86-2.84,3.12-.09,1.62,1.41,3.34,2.05,3.21a.21.21,0,0,0,.11,0A6.59,6.59,0,0,0,254,217.3c0-1.14-.67-2.53-2.13-2.25" style="fill:#ff7676"/><path d="M299.48,223.81a1.45,1.45,0,0,0-.59.28.43.43,0,0,0-.37-.07c-.7.13-1.86,1.5-2.42,3.61.54,1.12,1.33,2.16,2.33,2a1.5,1.5,0,0,0,.52-.21,2.37,2.37,0,0,0,.84,0c1.45-.28,2.22-2,2.49-3.6-.65-.68-1.67-2.2-2.8-2" style="fill:#ff7676"/><path d="M268.28,243.9c-1.49.29-1.86,1.2-2.5,3.18,0,1.9,1.42,3,3.65,2.63.28-.21,1.86-2.41,2.5-3.21-.51-2.5-1.48-3-3.09-2.68h0a4.25,4.25,0,0,0-.53.07" style="fill:#76fff5"/><path d="M286.34,226.51a2.33,2.33,0,0,0-1,1.67c0,.46.64,1.32,1.05,1.24a.21.21,0,0,0,.12-.07,1.65,1.65,0,0,0,1.25-1.37c0-1.2-.43-1.61-1.41-1.47h0" style="fill:#c3ff76"/><path d="M284.74,246.84a1.52,1.52,0,0,0-1.25,1.21c.31,1.15,1.05,1.46,1.53,1.41.26-.11,1-1.15.8-1.48,0-1-.29-1.24-1.08-1.14" style="fill:#ff7676"/><path d="M275.61,208.86c-.68.13-.88.71-.9,1.9-.27.45,0,1,.76.83a2,2,0,0,0,.46-.16.32.32,0,0,0,.27.06c.36-.07.73-.67.4-1.6.24-.43-.53-1.09-.81-1.06l-.18,0" style="fill:#ffe174"/><path d="M261.81,217.92l-.28.08a3,3,0,0,0-1.29,1.75c.52.84,1,1.4,1.65,1.27l.08,0a2.72,2.72,0,0,0,1-1.85c.09-.67-.27-1.39-1.13-1.23" style="fill:#ffe174"/><path d="M258.56,242l-.17,0a5.11,5.11,0,0,0-1.16,1.9c.3.26.51.92,1.12.81a1.81,1.81,0,0,0,.35-.14h.15a1.76,1.76,0,0,0,1-1.3c0-1-.5-1.46-1.26-1.31" style="fill:#c478ff"/><path d="M251.73,237.5c-1.09.33-1.63,1-1.19,1.75-.25.73.05,1.67.78,1.53l.11,0a1.47,1.47,0,0,0,1-1.89c.45-.62,0-1-.73-1.36" style="fill:#ff76e2"/><path d="M285.92,199.38a1.29,1.29,0,0,0-1.1,1.26c.11,1,.64,1.58,1.4,1.56a2.39,2.39,0,0,0,1.11-1.78c.14-.67-.4-1.2-.72-1.14a.31.31,0,0,0-.13.06,2.42,2.42,0,0,0-.56,0" style="fill:#ffe174"/><path d="M295.53,240.1c-1,.44-1.06.67-1,1.4-.06,1.12.41,1.66,1,1.54l.07,0a1.91,1.91,0,0,0,1-1.58,1.52,1.52,0,0,0-1.05-1.34" style="fill:#ffe174"/><path d="M264.11,235.21c-1.22.6-1.86,1.15-2.05,2s.19,1.22,1.42,1l.52-.12a2.33,2.33,0,0,0,.38,0c.83-.16,1.43-.8.78-1.51.91-.8,0-1.48-1.05-1.31" style="fill:#c3ff76"/><path d="M269.2,206.25c-1.24.37-2.47,1.4-2.2,2,0,1,.6,1.12,1.88,1.06a.77.77,0,0,0,.3,0c.7-.14,1.62-1,1.09-1.68.43-.64-.44-1.47-1.07-1.41" style="fill:#c3ff76"/><path d="M253.58,261.5c-1.17.3-2.16.89-2.12,2.06.73.67.62,1.34,2,1.08a4.2,4.2,0,0,0,1.7-1.69c.7-1-.63-1.43-1.6-1.45" style="fill:#ffe174"/><path d="M298.88,204.93a3.36,3.36,0,0,0-2.07,2.32,3.92,3.92,0,0,0,2.28.86c.92-.45,2.08-1,1.68-1.9.35-.89-.69-1.36-1.89-1.28" style="fill:#ff76e2"/><path d="M284.79,235.78c-1,.19-1.15.75-1.85,1.56.59.89.85,1.3,2.08,1.06l.37-.09a1.64,1.64,0,0,0,.4,0c.76-.14,1-.69,1.21-1.53.41-.86-.42-1.22-1.12-1.08l-.19.05a4.56,4.56,0,0,0-.9.07" style="fill:#ff76e2"/></g></g><g style="isolation:isolate"><g style="clip-path:url(#clip-path-2)"><path d="M349.73,227.31a.68.68,0,0,0-.29,0c-1.11,0-3.27,1.1-2.5,1.72a2.53,2.53,0,0,0,2.09,3.77l.19,0a2.38,2.38,0,0,0,.56.13c1.76.22,2.39-1.62,2.54-2.39-.54-2.05-1.84-3.18-2.59-3.27" style="fill:#c478ff"/><path d="M378.37,260.2c-2.32.08-3.29,1.08-2.77,3.44.37,1,.45,3,2.41,3.26l.33,0a7.31,7.31,0,0,0,3.06-3.25c-.79-1-2.41-3.37-3-3.47" style="fill:#c3ff76"/><path d="M324.88,234.36a.77.77,0,0,0-.42,0c-.63.18-2.48.51-2.35,2.16-.58,1.72,1.31,3.7,2.76,3.87a1.34,1.34,0,0,0,.4,0c1.89,0,2.8-.94,2.72-3.08-.81-.78-2-2.87-3.11-3" style="fill:#76fff5"/><path d="M377.53,222.74c-1.38.33-2.44,1.53-3.11,3.35a44.77,44.77,0,0,0,3.1,3.44c1.5-.62,2.9-.95,3.71-3.23-.35-1.57-1.48-2.56-3.7-3.56" style="fill:#76fff5"/><path d="M344.88,205.06h-.1l-.25,0c-2.31-.28-3.71.88-3.75,2.25.8,1.39,1.22,3.34,3.38,3.81,1.8.21,2.86-1.69,3.42-2.36-.67-2.54-2.21-3.61-2.7-3.67" style="fill:#c3ff76"/><path d="M363.85,224.26c-.43.21-1.3.21-1.28,1.26A3.62,3.62,0,0,0,363.7,227h.07c1,.13,1.49-.54,1.47-.9-.1-1.23-.38-1.74-1.39-1.86" style="fill:#ff76e2"/><path d="M362.06,204.31H362c-.52-.07-1.32.61-1.64.91.11.95.57,1.93,1.31,2h.15c.81.1,1.11-.75,1.11-1.33a1.27,1.27,0,0,0-.84-1.62" style="fill:#ffe174"/><path d="M352.28,242.37c-1.16.16-1.69.61-1.33,1.75a1.5,1.5,0,0,0,1.2,1.25h0c.32,0,1.14-.31.87-1.5.45-.26-.32-1.1-.76-1.51" style="fill:#76fff5"/><path d="M337.11,234.39a.88.88,0,0,0-.31,0,2.81,2.81,0,0,0-1.9,1c.25.55,1,1.46,1.36,1.51h.08c1.16-.05,1.65-.36,1.54-1.22s-.32-1.26-.77-1.32" style="fill:#ffe174"/><path d="M333,210.12c-1,.21-1.23.53-1.61,1.68.46.46.92,1.29,1.2,1.33a.15.15,0,0,0,.09,0,1.46,1.46,0,0,0,1.57-1.08,4.41,4.41,0,0,0-1.25-1.91" style="fill:#76fff5"/><path d="M325.19,215.19H325c-.89,0-1.26.14-1,1-.43.6,0,1.33,1.07,1.45l.26,0a1.11,1.11,0,0,0,.46.2c.52.06.74-.56.34-1.42.17-.35-.21-1.17-1-1.27" style="fill:#c478ff"/><path d="M364,251.82a.58.58,0,0,0-.3.06,1.06,1.06,0,0,0-.23,0,1.17,1.17,0,0,0-1.31.85,2.58,2.58,0,0,0,1.86,2.06c.31-.17,1.1-.62.92-1.46-.15-.52-.44-1.4-.94-1.46" style="fill:#ff7676"/><path d="M374.14,210.21a1,1,0,0,0-.41,0c-.74,0-1.3.52-1.23.94,0,.74.09,1.67.89,1.77a1.4,1.4,0,0,0,.29,0,.47.47,0,0,0,.16,0c.45.06.92-.41,1-1.18,0-.95-.17-1.54-.69-1.6" style="fill:#c3ff76"/><path d="M338.9,216.66c-1.8-.12-2.49.7-2.15,1.32a2,2,0,0,0,1.66,1.51,2.68,2.68,0,0,0,.63,0l.16,0c1.09.13,1.95-.17,1-1.19.82-.49-.18-1.34-1.29-1.65" style="fill:#ff76e2"/><path d="M344.16,245.17c-1.17-.15-1.74.63-1.7,1.2-.27.73.77,1.32,2,1.47l.47,0,.2,0c.66.08,1.42-.12,1-1.09.67-.53-.77-1.26-1.54-1.58a1.53,1.53,0,0,0-.36-.07" style="fill:#ff76e2"/><path d="M327.54,191.34a2.44,2.44,0,0,0-.47,0h0c-1.52-.19-1.4.44-2.2,1.07,0,.38,1,1.31,2.21,1.46h.15a2.36,2.36,0,0,0,.46.1c1,.12,2-.27,1.29-.95-.11-1.09-.68-1.59-1.41-1.68" style="fill:#ff7676"/><path d="M378.45,245.14a1.69,1.69,0,0,0-.55,0l-.25,0c-1-.12-1.62.38-1.38,1.29-.2.54.86,1.26,1.25,1.55l.2,0c1.61.2,2.5-.4,2.63-1.05-.49-1-1-1.67-1.9-1.77" style="fill:#ffe174"/><path d="M362.5,215.08c-1.72-.11-2,.66-2.7,1,1,.83,1,1.5,3.05,2.1.81,0,1.95-.59,1.44-1.36a2.54,2.54,0,0,0-1.79-1.78" style="fill:#ff7676"/></g></g><g style="isolation:isolate"><g style="clip-path:url(#clip-path-3)"><path d="M273.26,373.34c-1.79.46-2.86,1.77-2,2.93-.67,2.83,1.1,3.81,2.11,3.6l.13,0a14.73,14.73,0,0,0,2.58-3.68c-.15-2.42-.83-2.78-2.8-2.82" style="fill:#c3ff76"/><path d="M299.43,338.12a.51.51,0,0,0-.17.07c-2,.64-2.1,1.23-2.43,3.59-.42,1,.24,2.27,1.9,1.93a3.16,3.16,0,0,0,.59-.17h0c.57-.11,2-.93,2.67-3.48-.82-1.07-2-2.06-2.59-1.93" style="fill:#ff76e2"/><path d="M252.11,367.18a2.47,2.47,0,0,0-.36.11c-1.32.63-3.4,1.87-2.82,3.12-.1,1.62,1.38,3.32,2,3.2l.11-.05a6.67,6.67,0,0,0,3.16-4.14c0-1.14-.65-2.53-2.1-2.24" style="fill:#ff7676"/><path d="M299.26,375.63a1.38,1.38,0,0,0-.59.28.42.42,0,0,0-.37-.07c-.69.14-1.84,1.52-2.4,3.62.53,1.12,1.3,2.15,2.3,2a1.53,1.53,0,0,0,.51-.21,2.15,2.15,0,0,0,.84,0c1.43-.29,2.2-2,2.47-3.6-.64-.67-1.64-2.19-2.76-2" style="fill:#ff7676"/><path d="M268.29,395.86c-1.49.3-1.85,1.22-2.49,3.19,0,1.89,1.39,2.95,3.6,2.61.27-.22,1.85-2.43,2.49-3.23-.5-2.48-1.46-3-3.05-2.65h0a3.85,3.85,0,0,0-.52.07" style="fill:#ff7676"/><path d="M286.24,378.4a2.35,2.35,0,0,0-1,1.68c0,.45.63,1.3,1,1.22a.38.38,0,0,0,.13-.06,1.66,1.66,0,0,0,1.23-1.38c0-1.19-.42-1.61-1.38-1.45h0" style="fill:#ffe174"/><path d="M284.58,398.7a1.51,1.51,0,0,0-1.24,1.21c.3,1.15,1,1.46,1.5,1.4.26-.12,1-1.16.8-1.48,0-1-.28-1.24-1.06-1.13" style="fill:#ff76e2"/><path d="M275.67,360.86c-.67.13-.87.71-.89,1.9-.27.44,0,1,.75.82a2.25,2.25,0,0,0,.45-.16.31.31,0,0,0,.26.06c.36-.08.73-.68.41-1.6.24-.43-.53-1.09-.8-1.05l-.18,0" style="fill:#ffe174"/><path d="M262,370l-.28.09a3.09,3.09,0,0,0-1.29,1.75c.52.83,1,1.39,1.64,1.26l.07,0a2.79,2.79,0,0,0,1-1.86c.1-.67-.26-1.39-1.11-1.22" style="fill:#ffe174"/><path d="M258.88,394.1l-.18,0c-.73.24-.92.67-1.1,1.82-.21.51.11,1.16.65,1.06a.9.9,0,0,0,.27-.12c.81-.22,1.62-.71,1.42-1.81-.26-.5-.35-1.14-1.06-1" style="fill:#76fff5"/><path d="M251.44,389.83c-.52.1-1.06,1.12-.75,1.57-.37,1,.38,1.31,1,1.52a2,2,0,0,0,1.1-1.9c.07-.77-.28-1.21-1.23-1.2h-.08" style="fill:#ff76e2"/><path d="M286,351.29c-.57.12-.79.93-1.26,1.27a1.45,1.45,0,0,0,1.52,1.42l0,0a.41.41,0,0,0,.11,0,1.32,1.32,0,0,0,.68-1.88c.1-.25-.22-.84-.81-.79a.66.66,0,0,0-.28,0" style="fill:#76fff5"/><path d="M294.71,392.13a1,1,0,0,0-.43,1.45c0,.94.57,1,1.09,1.34a3.44,3.44,0,0,0,1.15-1.79.93.93,0,0,0-1.13-1.1,1.21,1.21,0,0,0-.41.15.33.33,0,0,0-.27-.05" style="fill:#76fff5"/><path d="M264.32,387.07c-1.66.61-2.1,1.21-2.13,1.89-.62.89.74,1.69,1.5,1.55.7-.58,2.48-1.16,1.81-2.22.31-.89-.52-1.24-1.18-1.22" style="fill:#c478ff"/><path d="M268.22,358.89a2.27,2.27,0,0,0-1.58,1.54c.05,1.08,1.56,1.3,2.38,1.27a3,3,0,0,0,1.88-2c.25-.89-.43-1.2-1.3-1a3.38,3.38,0,0,0-.73.26,1.59,1.59,0,0,0-.65,0" style="fill:#c478ff"/><path d="M253.82,413.44c-1.08.22-2,1.41-2,2s1.22,1.13,1.44,1.09h0l.11,0c1.63-.33,2.5-1.48,1.72-1.87.77-.84-.91-1-1.19-1.22l-.13,0" style="fill:#c3ff76"/><path d="M298.74,356.8a3.4,3.4,0,0,0-2.07,2.33,4,4,0,0,0,2.26.84c.91-.45,2.07-1.05,1.67-1.9.35-.89-.68-1.36-1.86-1.27" style="fill:#c3ff76"/><path d="M284.66,387.66c-1,.2-1.14.75-1.83,1.57.58.88.83,1.29,2.05,1l.37-.08a2.3,2.3,0,0,0,.4-.05c.75-.15,1-.7,1.2-1.54.41-.86-.41-1.21-1.11-1.07l-.18.05a5.46,5.46,0,0,0-.9.08" style="fill:#c478ff"/></g></g><g style="isolation:isolate"><g style="clip-path:url(#clip-path-4)"><path d="M349.73,379.27a.67.67,0,0,0-.29,0c-1.11,0-3.27,1.1-2.5,1.71a2.55,2.55,0,0,0,2.1,3.78h.18a2.5,2.5,0,0,0,.56.13c1.76.22,2.39-1.61,2.54-2.39-.54-2.05-1.84-3.18-2.59-3.27" style="fill:#ffe174"/><path d="M378.37,412.16c-2.32.09-3.29,1.08-2.76,3.44.36,1,.44,3,2.4,3.26l.33,0a7.33,7.33,0,0,0,3.06-3.24c-.79-1-2.41-3.39-3-3.48" style="fill:#76fff5"/><path d="M324.88,386.32a.87.87,0,0,0-.42.05c-.63.18-2.48.51-2.35,2.16-.58,1.73,1.32,3.7,2.77,3.88h.39c1.89-.05,2.8-1,2.72-3.09-.81-.77-2-2.87-3.11-3" style="fill:#c3ff76"/><path d="M377.53,374.7c-1.38.33-2.44,1.53-3.11,3.36.75,1,2.46,2.76,3.1,3.43,1.5-.62,2.9-.95,3.71-3.24-.35-1.56-1.48-2.55-3.7-3.55" style="fill:#ff76e2"/><path d="M344.88,357h-.09l-.26,0c-2.31-.28-3.71.88-3.75,2.25.8,1.39,1.23,3.35,3.38,3.81,1.8.2,2.86-1.69,3.42-2.35-.67-2.54-2.21-3.62-2.7-3.68" style="fill:#ff7676"/><path d="M363.85,376.22c-.42.22-1.3.21-1.28,1.26a3.74,3.74,0,0,0,1.13,1.5h.07c1,.12,1.49-.55,1.47-.91-.1-1.22-.38-1.74-1.39-1.86" style="fill:#ffe174"/><path d="M362.06,356.28H362c-.52-.06-1.32.62-1.64.92.11.94.57,1.93,1.31,2h.15c.81.1,1.11-.74,1.11-1.33a1.25,1.25,0,0,0-.84-1.61" style="fill:#76fff5"/><path d="M352.28,394.34c-1.16.15-1.69.6-1.33,1.74a1.52,1.52,0,0,0,1.2,1.26h0c.32,0,1.14-.31.87-1.5.45-.25-.32-1.09-.76-1.5" style="fill:#c3ff76"/><path d="M337.12,386.36a.89.89,0,0,0-.32,0,2.81,2.81,0,0,0-1.9,1c.26.55,1,1.47,1.36,1.51h.08c1.16-.05,1.66-.36,1.54-1.21s-.32-1.27-.76-1.32" style="fill:#76fff5"/><path d="M333,362.09c-1,.2-1.23.52-1.61,1.67.46.46.92,1.29,1.2,1.33l.09,0a1.43,1.43,0,0,0,1.57-1.08,4.38,4.38,0,0,0-1.25-1.89" style="fill:#ffe174"/><path d="M325.19,367.16H325c-.9,0-1.27.15-1,1-.43.61,0,1.33,1.08,1.46l.25,0a1.07,1.07,0,0,0,.46.19c.52.07.74-.55.34-1.41.17-.35-.21-1.18-1-1.27" style="fill:#c478ff"/><path d="M364,403.78a.58.58,0,0,0-.3.06l-.23,0a1.17,1.17,0,0,0-1.31.85,2.59,2.59,0,0,0,1.86,2.07c.31-.17,1.1-.62.92-1.47-.15-.52-.44-1.4-.94-1.46" style="fill:#ff76e2"/><path d="M374.14,362.17a1.23,1.23,0,0,0-.41,0c-.74,0-1.3.51-1.23.93,0,.75.09,1.68.89,1.77a.94.94,0,0,0,.29,0,.47.47,0,0,0,.16,0c.45.06.92-.41,1-1.18,0-.95-.17-1.54-.69-1.6" style="fill:#c478ff"/><path d="M338.9,368.61c-1.8-.11-2.49.7-2.15,1.33a2.06,2.06,0,0,0,1.67,1.51,2.6,2.6,0,0,0,.62,0l.16,0c1.09.14,1.95-.17,1-1.2.82-.48-.18-1.33-1.29-1.65" style="fill:#ffe174"/><path d="M344.17,397.13c-1.18-.14-1.75.64-1.71,1.2-.27.74.77,1.33,2,1.47l.47,0,.2,0c.66.08,1.42-.12,1-1.09.67-.53-.77-1.26-1.54-1.58a2.41,2.41,0,0,0-.35-.07" style="fill:#c478ff"/><path d="M326.8,343.1c-.22,0-1.66.35-1.61,1.23s1.07,1.27,2.33,1.51a.52.52,0,0,0,.2.08c.57.06,1.87-.43,1.12-1.28.88-.89-.13-1.26-2-1.54" style="fill:#ff76e2"/><path d="M378.26,397a2.54,2.54,0,0,0-.39,0h-.09c-.59-.08-1.55.6-2.41,1.23a1.8,1.8,0,0,0,1.65,1.17,3.45,3.45,0,0,0,.65,0l.41.07c1.14.14,2-.29,1.66-1,.39-.5-.56-1.37-1.48-1.49" style="fill:#ff7676"/><path d="M362.5,367c-1.72-.11-2,.66-2.7,1,1,.83,1,1.51,3.05,2.1.81,0,1.95-.59,1.44-1.35A2.55,2.55,0,0,0,362.5,367" style="fill:#c3ff76"/></g></g><g style="isolation:isolate"><g style="clip-path:url(#clip-path-5)"><path d="M276.82,301.43c-1.63.33-2.2,1.4-1.73,3.28-.14.83,1.17,2.47,2,2.3a.54.54,0,0,0,.23-.11h.09c1-.2,2.14-2,3-4.11-.69-.38-1-1.69-2.81-1.45a5.76,5.76,0,0,0-.77.1" style="fill:#76fff5"/><path d="M252,335.71c-2.25.48-3.08,2.83-2.38,3.57-.91,2.16.06,3.33,2.3,3.15a.25.25,0,0,0,.12,0c.84-.17,2.83-2.53,2.51-3.46a4,4,0,0,0-2.55-3.25" style="fill:#ff76e2"/><path d="M298.47,307.12c-1.36.28-2.09,2.36-1.37,2.89a2.69,2.69,0,0,0,2.59,2.88,1.51,1.51,0,0,0,.37,0c1.16-.23,1.36-2,1.89-3.9-.1-1.62-.7-2.05-2.93-1.86a1.68,1.68,0,0,0-.55,0" style="fill:#ff7676"/><path d="M251.52,298.58c-.82.88-2.08,2-1.77,3.44-.75,2.54.26,2.84,1.7,3.33,2.24-1,3-2.72,2.31-3.5.62-2-.69-3.09-2.24-3.27" style="fill:#c3ff76"/><path d="M281.79,278.85c-2,.41-2.59,1.4-2,3.73-.5.83.79,2.59,2,2.36.86-.37,2.77-2.65,2.06-3.79,0-1.38-.79-2.54-1.39-2.42l-.07,0-.57.1" style="fill:#c478ff"/><path d="M264.21,299.2a1.78,1.78,0,0,0-1.13,1.91c0,.35.6,1,.94.89h0c1.15-.33,1.49-1.06,1.36-1.62,0-1.05-.28-1.1-1.2-1.18" style="fill:#ffe174"/><path d="M265.87,279.2c-.89.18-1.17.64-1.36,1.79,0,.58.72,1.33,1.25,1.22h.1c.58-.12,1.17-1.17,1.07-2.08.29-.4,0-1.11-.81-.95h0l-.21,0" style="fill:#ffe174"/><path d="M275.3,316.43a7.31,7.31,0,0,0-1.7,1.76c.24,1.1.52,1.49,1.5,1.29h.06c.49-.19,1.32-1.09,1.29-1.37a3.29,3.29,0,0,0-1.15-1.67" style="fill:#ffe174"/><path d="M288.78,307.62a1.27,1.27,0,0,0-1,1.43,1.46,1.46,0,0,0,1,1.2.85.85,0,0,0,.23,0,1.12,1.12,0,0,0,.85-1.51c.54-.7,0-1.17-.65-1.09a.92.92,0,0,0-.37,0" style="fill:#ffe174"/><path d="M292,283.28a1.76,1.76,0,0,0-1.26,2,1.15,1.15,0,0,0,.94,1.08,1.55,1.55,0,0,0,.31,0c.87-.18,1.32-1,.91-1.36.35-1.26-.48-1.44-.9-1.69" style="fill:#ffe174"/><path d="M298.87,287.91c-.51.1-1.09,1-1.24,1.39.35.74.82,1.29,1.28,1.2a.78.78,0,0,0,.36-.22h.05c.24-.05.73-.81,1.13-1.54a1.34,1.34,0,0,0-1.47-.85h-.11" style="fill:#ff76e2"/><path d="M264.25,326.64a1.52,1.52,0,0,0-.95,1.53,1.35,1.35,0,0,0,1.52,1.28,3.43,3.43,0,0,0,.72-2,.71.71,0,0,0-.82-.84l-.15.05a.6.6,0,0,0-.32,0" style="fill:#c478ff"/><path d="M255.31,285.73a1.72,1.72,0,0,0-1.07,1.73c-.07.79.35,1.23,1.06,1.09a1.53,1.53,0,0,0,.26-.08.16.16,0,0,0,.12,0,2.54,2.54,0,0,0,1.2-1.91,1.17,1.17,0,0,0-1.25-.82.58.58,0,0,0-.32,0" style="fill:#ff7676"/><path d="M287.12,290.06a7.43,7.43,0,0,0-2.56,2,2.74,2.74,0,0,0,2.52.8l.14,0a1,1,0,0,0,.43,0c.72-.15,1.42-1,1.25-1.55a3.19,3.19,0,0,0-1.78-1.22" style="fill:#c3ff76"/><path d="M282,318.85l-.21.07a4.63,4.63,0,0,0-2.34,1.87c.39.83,1.08,1,2.28.74l.38-.09.27,0c.65-.13,1-.67,1.27-1.48a1.51,1.51,0,0,0-1.65-1.08" style="fill:#c3ff76"/><path d="M296.36,264.35a1.57,1.57,0,0,0-1.44,1.79c.6.48.94.92,1.71.76a1.54,1.54,0,0,0,.42-.13h.11a2.23,2.23,0,0,0,1.51-1.48c.72-.88-1-1.14-1.7-1h0a3.81,3.81,0,0,0-.59.07" style="fill:#ff76e2"/><path d="M251.23,320.84c-.8.16-1.52.93-1.08,1.76a1,1,0,0,0,1.1,1.15l.06,0c1.71-.59,2.43-1.32,2.61-1.93a1.61,1.61,0,0,0-2-1l-.23.06a1.36,1.36,0,0,0-.45,0" style="fill:#76fff5"/><path d="M265.77,289.9c-1,.39-2.39,1.4-2.12,2a2.32,2.32,0,0,0,2.42,1c.23-.39,1.85-1.38,1-1.91.64-.6-.78-1.12-1.29-1.12" style="fill:#ff76e2"/></g></g><g style="isolation:isolate"><g style="clip-path:url(#clip-path-6)"><path d="M354.53,295.25c-.92.33-2.69.6-2.49,3.09-.61,1,.32,2.89,2.79,3.51l.25,0c1.8.23,2.15-1.06,2.87-3.67a6.59,6.59,0,0,0-3.42-3" style="fill:#c478ff"/><path d="M325.4,261.63c-2-.25-2.84.87-1.92,2.23-.75,2.32.14,3,2.55,3.26h.12a.58.58,0,0,0,.26.09c.83.1,2.13-1.13,2.58-2,.36-2.25-2.12-3.14-3-3.47a5.22,5.22,0,0,0-.63-.11" style="fill:#ff7676"/><path d="M379.13,287.8a2.73,2.73,0,0,0-2.6,2.35c-.9,2.47.24,2.94,2.15,3.78a3.28,3.28,0,0,0,.41.08c2.16.26,2.75-1.67,2.85-3.27-.66-1.45-.88-2.3-2.53-2.87l-.28-.07" style="fill:#ff76e2"/><path d="M325,299.18a1.49,1.49,0,0,0-1.21,2.38c-.29,1.51.69,3.2,1.54,3.3a.64.64,0,0,0,.44-.1,3,3,0,0,0,.72.19c1.39.17,2.37-.9,1.77-2.2.61-1.93.14-3.13-1.46-3.33a4.69,4.69,0,0,0-1.12,0,1.58,1.58,0,0,0-.68-.25" style="fill:#76fff5"/><path d="M359.84,317.49a1,1,0,0,0-.3,0h0c-1.32-.16-2.75.36-2.17,3-.7.59.09,2.58,2.9,3.08.65,0,1.65-1.23,1.6-3.15.7-1.76-1-2.8-2-2.93" style="fill:#c3ff76"/><path d="M340,301.17l-.24,0c-.38,0-1.07.41-1.07,1.61-.09.32.8,1.22,1.25,1.28h0a1.82,1.82,0,0,0,.29.08c.8.09,1-.86,1-1.31a1.28,1.28,0,0,0-1.29-1.64" style="fill:#ffe174"/><path d="M341.78,321.41c-.59,0-1.45.22-1.44,1.18a2.45,2.45,0,0,0,1.75,1.53c.94.09,1.29-.34.94-1.59.12-.59-.58-1-1.25-1.12" style="fill:#ffe174"/><path d="M352.18,282.92H352a1.69,1.69,0,0,0-1.73,1c.37,1,.7,1.61,1.34,1.69a1.59,1.59,0,0,0,.56,0,.26.26,0,0,0,.16.09c.33,0,.84-.48,1.13-.84a1.77,1.77,0,0,0-1.32-1.89" style="fill:#ff76e2"/><path d="M367.1,291.13c-.32,0-.88.69-1,1.33s.8,1.5,1.57,1.86h.07c.66.08,1.22-.5.65-1.51.27-1-.07-1.34-1.22-1.65l-.09,0" style="fill:#ffe174"/><path d="M370.48,315c-.47-.06-1,.42-.93,1.44-.23.67.18,1.13,1,1.22a1.91,1.91,0,0,0,.42,0,.43.43,0,0,0,.24.1c.49.06,1.1-.57.78-.92.49-1.05-.18-1.48-1.38-1.84l-.11,0" style="fill:#ff7676"/><path d="M379,310.22a10.93,10.93,0,0,0-1.82,1.29,2.23,2.23,0,0,0,1.5,1.87l.09,0c.55.07,1.28-.85,1.56-1.49a5.32,5.32,0,0,0-1.33-1.69" style="fill:#ffe174"/><path d="M340.67,274a.25.25,0,0,0-.19.05,2.27,2.27,0,0,0-.38-.09c-.85-.1-1.16.49-1.32,1.12-.16.94.66,1.23,1.42,1.74.62,0,1.21-.64,1.08-1.69a1,1,0,0,0-.61-1.13" style="fill:#ffe174"/><path d="M330.33,315.36c-1,0-1.55.66-1.46,1.36,0,.4.95,1.19,1.55,1.59h.08c.68.08,1.25-.48,1.31-1.59,0-.73-1.09-1.07-1.48-1.37" style="fill:#ff76e2"/><path d="M365.6,308.69c-1.13-.1-2,.66-3,1.15a3.66,3.66,0,0,0,2.42,1.65,2.13,2.13,0,0,0,.44,0l.2.05a1.73,1.73,0,0,0,1.79-1c.21-.79-.94-1.36-1.88-1.84" style="fill:#ffe174"/><path d="M359.81,280a3.45,3.45,0,0,0-3,1.26c.59.89,1,1.58,2.08,1.72a3.09,3.09,0,0,0,.54,0c.87-.08,2-.24,2.06-1.18a2.85,2.85,0,0,0-1.72-1.82" style="fill:#76fff5"/><path d="M376.66,334.3c-1.22.05-1.59.7-2.37,1.46-.13.25.93,1.28,2.28,1.65.74.08,2.71-.33,1.9-1.25a1.92,1.92,0,0,0-1.81-1.86" style="fill:#76fff5"/><path d="M326.19,280.75a4.23,4.23,0,0,0-.73,0c-.55,0-1.44.39-1.3,1.28-.58.41.67,1.14,1.71,1.57a2.82,2.82,0,0,0,2.5-1.08,2.2,2.2,0,0,0-2.18-1.73" style="fill:#c3ff76"/><path d="M341,310.31c-1.21-.15-1.71.4-1.26,1.27-.07.65,1.17,1.41,2.33,1.62l.23.06c.61.07,1-.56,1.56-1.49-.46-.33-1-1.12-1.61-1.2h-.18a5.31,5.31,0,0,0-1.07-.26" style="fill:#c478ff"/></g></g><polygon points="314.24 319.82 314.24 330.29 388.55 356.51 388.55 346.4 314.24 319.82" style="fill:#ffe174"/><polygon points="314.24 319.82 314.24 330.29 237.43 356.51 237.43 346.23 314.24 319.82" style="fill:#ffe174"/><polygon points="314.24 396.85 314.24 407.32 388.55 433.54 388.55 423.43 314.24 396.85" style="fill:#ffe174"/><polygon points="314.24 396.85 314.24 407.32 237.43 433.54 237.43 423.26 314.24 396.85" style="fill:#ffe174"/><polygon points="314.24 242.8 314.24 253.26 388.55 279.48 388.55 269.37 314.24 242.8" style="fill:#ffe174"/><polygon points="314.24 242.8 314.24 253.26 237.43 279.48 237.43 269.2 314.24 242.8" style="fill:#ffe174"/><polygon points="314.24 319.82 314.24 330.29 388.55 356.51 388.55 346.4 314.24 319.82" style="fill:#ffe174"/><polygon points="314.24 319.82 314.24 330.29 237.43 356.51 237.43 346.23 314.24 319.82" style="fill:#ffe174"/><polygon points="314.24 166.19 314.24 176.65 388.55 202.87 388.55 192.76 314.24 166.19" style="fill:#ffe174"/><polygon points="314.24 166.19 314.24 176.65 237.43 202.87 237.43 192.59 314.24 166.19" style="fill:#ffe174"/><polygon points="314.24 243.22 314.24 253.68 388.55 279.9 388.55 269.79 314.24 243.22" style="fill:#ffe174"/><polygon points="314.24 243.22 314.24 253.68 237.43 279.9 237.43 269.62 314.24 243.22" style="fill:#ffe174"/><path d="M52.19,128.26l65.73,245.07V441H511V373.33l67.79-245ZM503.07,408.82c-3.66,11.31-49.71,20.9-114.29,25.13l-74.3-26.53-76.82,26.33h0c-65.74-4.51-111.54-14.63-111.54-26.38l-.24-80.32a5.93,5.93,0,0,1,.26-1.77c0-.13,0-.26,0-.39l-.24-80.31a4.54,4.54,0,0,1,.24-1.45l-.24-78.93c0-16,84.44-28.91,188.6-28.91s188.59,12.94,188.59,28.91V326.35a.49.49,0,0,1,0,.11,5.65,5.65,0,0,1,0,.59Z" style="fill:#fffba4"/><path d="M511,373.28q-3.88-1-7.95-2v37.53c-3.67,11.31-49.71,20.9-114.29,25.13L314.4,407.42l-76.82,26.33h0C171.84,429.24,126,419.12,126,407.37l-.1-36.11q-4.14,1-8.09,2L117,441.4H511.79Z" style="fill:#ff3863"/><path d="M503.18,408.82V371.29l.08,0V327.05a5.65,5.65,0,0,0,0-.59s0-.07,0-.11V164.2c0-14.12-66-25.87-153.29-28.4H279.35c-87.28,2.53-153.28,14.28-153.28,28.4l.23,78.93a4.83,4.83,0,0,0-.23,1.45l.23,80.31c0,.13,0,.26,0,.39a5.92,5.92,0,0,0-.25,1.77l.24,80.32c0,11.75,45.76,21.86,111.47,26.38l76.81-26.33,0,0,0,0,74.07,26.45h1.47C454.09,429.59,499.54,420.05,503.18,408.82Z" style="fill:none;stroke:#754c24;stroke-miterlimit:10"/><path d="M220.1,376.05c-.76,0-1.54,0-2.31-.11a44.82,44.82,0,0,1-11.34-3,37.47,37.47,0,0,0-8.13-2.32,39.39,39.39,0,0,0-9.15.46,41.84,41.84,0,0,1-11.08.37,45.21,45.21,0,0,1-12-4,37.65,37.65,0,0,0-7.25-2.67,48.94,48.94,0,0,0-9.29-.65c-4,0-7.8,0-11.36-1.27a28.33,28.33,0,0,1-16.81-15.25,4.6,4.6,0,1,1,8.29-4,19.07,19.07,0,0,0,11.54,10.55c2.11.73,5.16.74,8.39.76a56.41,56.41,0,0,1,11.06.83,44.55,44.55,0,0,1,9.15,3.28c3.26,1.44,6.35,2.81,9.56,3.27a35.14,35.14,0,0,0,8.64-.4,47.42,47.42,0,0,1,11.31-.48,44.24,44.24,0,0,1,10.25,2.82,37.91,37.91,0,0,0,9,2.49,35.73,35.73,0,0,0,8.76-.76,46,46,0,0,1,11.23-.89,4.6,4.6,0,0,1-.74,9.18,38.27,38.27,0,0,0-9,.8A53.87,53.87,0,0,1,220.1,376.05Z" style="fill:#f7f6df"/><path d="M220.1,302.37c-.76,0-1.54,0-2.31-.11a44.82,44.82,0,0,1-11.34-3,37.47,37.47,0,0,0-8.13-2.32,39.39,39.39,0,0,0-9.15.46,41.84,41.84,0,0,1-11.08.37,44.85,44.85,0,0,1-12-4,38.32,38.32,0,0,0-7.25-2.67,48.94,48.94,0,0,0-9.29-.65c-4,0-7.8,0-11.36-1.27A28.33,28.33,0,0,1,121.4,274a4.6,4.6,0,1,1,8.29-4,19.07,19.07,0,0,0,11.54,10.55c2.11.73,5.16.75,8.39.76a56.41,56.41,0,0,1,11.06.83,44.55,44.55,0,0,1,9.15,3.28c3.26,1.44,6.35,2.81,9.56,3.27a35.14,35.14,0,0,0,8.64-.4,47.42,47.42,0,0,1,11.31-.48,44.24,44.24,0,0,1,10.25,2.82,37.91,37.91,0,0,0,9,2.49,35.73,35.73,0,0,0,8.76-.76,46,46,0,0,1,11.23-.89,4.6,4.6,0,0,1-.74,9.18,38.27,38.27,0,0,0-9,.8A53.87,53.87,0,0,1,220.1,302.37Z" style="fill:#f7f6df"/><path d="M390,377.66a4.61,4.61,0,0,1-.37-9.2,37.65,37.65,0,0,0,8.92-2.33A44.4,44.4,0,0,1,409,363.44a46.36,46.36,0,0,1,11.27.73,35.42,35.42,0,0,0,8.71.62,37.2,37.2,0,0,0,9.22-2.76,44,44,0,0,1,9.88-3,50.09,50.09,0,0,1,11.3,0,33,33,0,0,0,8.55,0c3.72-.75,7.1-2.64,10.37-4.47a45.67,45.67,0,0,1,7.32-3.57c2.2-.76,4.28-1.39,6.29-2,3.48-1.05,8.73-2.63,9.36-3.94a4.6,4.6,0,0,1,8.29,4c-2.39,5-8.23,6.72-15,8.75-1.92.58-3.91,1.18-5.94,1.88a41.3,41.3,0,0,0-5.83,2.9c-3.71,2.08-7.91,4.43-13,5.47-3.67.74-7.46.43-11.12.13a42.23,42.23,0,0,0-9.25-.09,37.25,37.25,0,0,0-7.82,2.46A45.16,45.16,0,0,1,430,373.94a42.92,42.92,0,0,1-11.07-.66,38.92,38.92,0,0,0-9.07-.67,37.52,37.52,0,0,0-8.33,2.22,44.46,44.46,0,0,1-11.19,2.81Z" style="fill:#f7f6df"/><path d="M390,304a4.61,4.61,0,0,1-.37-9.2,37.65,37.65,0,0,0,8.92-2.33A44.89,44.89,0,0,1,409,289.76a46.36,46.36,0,0,1,11.27.73,35.42,35.42,0,0,0,8.71.62,37.2,37.2,0,0,0,9.22-2.76,44,44,0,0,1,9.88-3,50.09,50.09,0,0,1,11.3,0,33,33,0,0,0,8.55,0c3.72-.75,7.1-2.64,10.37-4.47a45.67,45.67,0,0,1,7.32-3.57c2.2-.76,4.28-1.39,6.29-2,3.48-1.05,8.73-2.63,9.36-3.94a4.6,4.6,0,0,1,8.29,4c-2.39,5-8.23,6.72-15,8.76-1.92.57-3.91,1.17-5.94,1.87a41.3,41.3,0,0,0-5.83,2.9c-3.71,2.08-7.91,4.44-13,5.47-3.67.74-7.46.43-11.12.13a42.23,42.23,0,0,0-9.25-.09,37.25,37.25,0,0,0-7.82,2.46A45.56,45.56,0,0,1,430,300.27,43.37,43.37,0,0,1,419,299.6a38.92,38.92,0,0,0-9.07-.67,37.52,37.52,0,0,0-8.33,2.22A44.46,44.46,0,0,1,390.37,304Z" style="fill:#f7f6df"/><path d="M390,228.62a4.6,4.6,0,0,1-.37-9.19,37.65,37.65,0,0,0,8.92-2.33A44.41,44.41,0,0,1,409,214.4a46.87,46.87,0,0,1,11.27.73,36,36,0,0,0,8.71.63,37.67,37.67,0,0,0,9.22-2.77,44.51,44.51,0,0,1,9.88-3,50.09,50.09,0,0,1,11.3,0,33,33,0,0,0,8.55,0c3.72-.75,7.1-2.65,10.37-4.48a46.46,46.46,0,0,1,7.32-3.56c2.2-.76,4.28-1.39,6.29-2,3.48-1,8.73-2.63,9.36-3.93a4.6,4.6,0,1,1,8.29,4c-2.39,5-8.23,6.71-15,8.75-1.92.58-3.91,1.18-5.94,1.88a40.25,40.25,0,0,0-5.83,2.9c-3.71,2.08-7.91,4.43-13,5.47a40.22,40.22,0,0,1-11.12.13,41.64,41.64,0,0,0-9.25-.1,37.92,37.92,0,0,0-7.82,2.47A46,46,0,0,1,430,224.91a42.48,42.48,0,0,1-11.07-.67,39.47,39.47,0,0,0-9.07-.67,37.57,37.57,0,0,0-8.33,2.23,44.89,44.89,0,0,1-11.19,2.81Z" style="fill:#f7f6df"/><path d="M220.1,227c-.76,0-1.54,0-2.31-.1a44.82,44.82,0,0,1-11.34-3,37.47,37.47,0,0,0-8.13-2.32,40,40,0,0,0-9.15.46,41.84,41.84,0,0,1-11.08.38,45.21,45.21,0,0,1-12-4,38.41,38.41,0,0,0-7.25-2.68,48.93,48.93,0,0,0-9.29-.64c-4,0-7.8,0-11.36-1.28a28.3,28.3,0,0,1-16.81-15.25,4.6,4.6,0,0,1,8.29-4,19,19,0,0,0,11.54,10.55c2.11.73,5.16.75,8.39.77a57.14,57.14,0,0,1,11.06.82,45.18,45.18,0,0,1,9.15,3.29,37.46,37.46,0,0,0,9.56,3.26,34.65,34.65,0,0,0,8.64-.4,47.43,47.43,0,0,1,11.31-.47,44.24,44.24,0,0,1,10.25,2.82,37.91,37.91,0,0,0,9,2.49,36.74,36.74,0,0,0,8.76-.76,46,46,0,0,1,11.23-.89,4.6,4.6,0,0,1-.74,9.18,38.78,38.78,0,0,0-9,.79A53.87,53.87,0,0,1,220.1,227Z" style="fill:#f7f6df"/><polygon points="511.84 441.4 117.07 441.4 117.91 373.16 52.18 128.26 578.82 133.29 511 373.16 511.84 441.4" style="fill:none"/><path d="M326.42,128.19a4,4,0,0,1,3,3h-3.84Z" style="fill:#fdf5bd;stroke:#754c24;stroke-linecap:round;stroke-linejoin:round"/><path d="M302,131.93a4,4,0,0,1,3,3h-3.85Z" style="fill:#fdf5bd;stroke:#754c24;stroke-linecap:round;stroke-linejoin:round"/><path d="M325.56,131.18c6.42-.87,10.6,1,11.81,6.48h-9.89Z" style="fill:#f3f9f1;stroke:#754c24;stroke-linecap:round;stroke-linejoin:round"/><path d="M327.48,140.19v-2.53s13.38-5.48,13.38,8-11.95,11-11.95,11Z" style="fill:#f3f9f1;stroke:#754c24;stroke-linecap:round;stroke-linejoin:round"/><path d="M327.48,140.89c11.74.73,10.42,21.66-1.31,20.93Q337.42,148.55,327.48,140.89Z" style="fill:#fdf5bd;stroke:#754c24;stroke-linecap:round;stroke-linejoin:round"/><path d="M297.5,136.76,296.3,134s12.11-1,11.67,4.87S298.36,144.57,297.5,136.76Z" style="fill:#f3f9f1;stroke:#754c24;stroke-linecap:round;stroke-linejoin:round"/><path d="M297.91,142.65s-7.23-1-5.81-7c0,0,13.86,2.49,15.13,4S305.15,143.66,297.91,142.65Z" style="fill:#fdf5bd;stroke:#754c24;stroke-linecap:round;stroke-linejoin:round"/><path d="M319.93,119.8a8.11,8.11,0,0,0-8.06,0c-3.48,2-8,6-8,13,0,11.46,1.44,10.37,12,10.37s12,1.09,12-10.37C327.91,125.76,323.42,121.81,319.93,119.8Z" style="fill:#ff3c00;stroke:#754c24;stroke-linecap:round;stroke-linejoin:round"/><path d="M327.48,140.89c12.6,5.41,3.81,25.84-8.79,20.43C326,155.87,328.7,149,327.48,140.89Z" style="fill:#f3f9f1;stroke:#754c24;stroke-linecap:round;stroke-linejoin:round"/><path d="M327.48,140.89s5.91,26.65-23,20.18C317.75,159.09,325.57,152.5,327.48,140.89Z" style="fill:#fdf5bd;stroke:#754c24;stroke-linecap:round;stroke-linejoin:round"/><path d="M327.48,140.89a4.62,4.62,0,0,0-6.05.75c-3,3,0,14.45-19.92,15.44C301.51,168,330.4,159.08,327.48,140.89Z" style="fill:#f3f9f1;stroke:#754c24;stroke-linecap:round;stroke-linejoin:round"/><path d="M321.43,141.64s-9.46,15-27.89,11.46C298.81,165.93,326.7,154.47,321.43,141.64Z" style="fill:#fdf5bd;stroke:#754c24;stroke-linecap:round;stroke-linejoin:round"/><path d="M321.43,141.64s-6.74-5.93-8.46,2c-1.52,7-24.49,3.11-19.93,9C300.63,162.34,324.34,145.21,321.43,141.64Z" style="fill:#f3f9f1;stroke:#754c24;stroke-linecap:round;stroke-linejoin:round"/><path d="M291.53,142.53a1.25,1.25,0,0,1,2-.95c3.17,2.52,10.45,6.66,17.92-.43,2.49-2.5,4.43-1.54,4.43-1.54C316.19,154.1,291.11,155.47,291.53,142.53Z" style="fill:#fdf5bd;stroke:#754c24;stroke-linecap:round;stroke-linejoin:round"/><path d="M313.7,139.65c-5.09-3.42-14,3.49-22.53.44C291.37,150.32,313.9,149.88,313.7,139.65Z" style="fill:#f3f9f1;stroke:#754c24;stroke-linecap:round;stroke-linejoin:round"/><path d="M315.9,122.21v1.26" style="fill:#fdf5bd;stroke:#754c24;stroke-linecap:round;stroke-linejoin:round"/><path d="M311.37,122.34c0,.41-.08.82-.11,1.24" style="fill:#fdf5bd;stroke:#754c24;stroke-linecap:round;stroke-linejoin:round"/><path d="M320.44,122.34c0,.41.08.82.11,1.24" style="fill:#fdf5bd;stroke:#754c24;stroke-linecap:round;stroke-linejoin:round"/><path d="M315.9,133.17v1.26" style="fill:#fdf5bd;stroke:#754c24;stroke-linecap:round;stroke-linejoin:round"/><path d="M310.2,133.11c0,.41,0,.83.05,1.24" style="fill:#fdf5bd;stroke:#754c24;stroke-linecap:round;stroke-linejoin:round"/><path d="M321.61,133.11c0,.41,0,.83-.06,1.24" style="fill:#fdf5bd;stroke:#754c24;stroke-linecap:round;stroke-linejoin:round"/><path d="M327.32,133c0,.38-.07.77-.11,1.16" style="fill:#fdf5bd;stroke:#754c24;stroke-linecap:round;stroke-linejoin:round"/><path d="M304.49,133c0,.38.07.77.11,1.16" style="fill:#fdf5bd;stroke:#754c24;stroke-linecap:round;stroke-linejoin:round"/><path d="M313.2,127.16c0,.42,0,.83,0,1.25" style="fill:#fdf5bd;stroke:#754c24;stroke-linecap:round;stroke-linejoin:round"/><path d="M307.25,127.3c0,.4-.05.8-.07,1.2" style="fill:#fdf5bd;stroke:#754c24;stroke-linecap:round;stroke-linejoin:round"/><path d="M319.15,127.16c0,.42,0,.84,0,1.26" style="fill:#fdf5bd;stroke:#754c24;stroke-linecap:round;stroke-linejoin:round"/><path d="M325.1,127.32c0,.4,0,.8.07,1.2" style="fill:#fdf5bd;stroke:#754c24;stroke-linecap:round;stroke-linejoin:round"/><path d="M313.32,137.52l.06,1.25" style="fill:#fdf5bd;stroke:#754c24;stroke-linecap:round;stroke-linejoin:round"/><path d="M307.64,137.21c.06.4.13.8.2,1.2" style="fill:#fdf5bd;stroke:#754c24;stroke-linecap:round;stroke-linejoin:round"/><path d="M319,137.5c0,.42,0,.84-.07,1.26" style="fill:#fdf5bd;stroke:#754c24;stroke-linecap:round;stroke-linejoin:round"/><path d="M324.68,137.17c-.06.4-.13.79-.21,1.19" style="fill:#fdf5bd;stroke:#754c24;stroke-linecap:round;stroke-linejoin:round"/><path d="M368.64,127.36a4,4,0,0,1,3,3h-3.85Z" style="fill:#fdf5bd;stroke:#754c24;stroke-linecap:round;stroke-linejoin:round"/><path d="M344.23,131.09a4,4,0,0,1,3,3h-3.85Z" style="fill:#fdf5bd;stroke:#754c24;stroke-linecap:round;stroke-linejoin:round"/><path d="M367.78,130.35c6.43-.87,10.6,1,11.82,6.47h-9.89Z" style="fill:#f3f9f1;stroke:#754c24;stroke-linecap:round;stroke-linejoin:round"/><path d="M369.71,139.35v-2.53s13.38-5.48,13.38,8-12,11-12,11Z" style="fill:#f3f9f1;stroke:#754c24;stroke-linecap:round;stroke-linejoin:round"/><path d="M369.71,140.05c11.73.73,10.42,21.67-1.32,20.93Q379.64,147.7,369.71,140.05Z" style="fill:#fdf5bd;stroke:#754c24;stroke-linecap:round;stroke-linejoin:round"/><path d="M339.72,135.92l-1.2-2.78s12.12-1,11.67,4.87S340.59,143.73,339.72,135.92Z" style="fill:#f3f9f1;stroke:#754c24;stroke-linecap:round;stroke-linejoin:round"/><path d="M340.14,141.82s-7.24-1-5.81-7c0,0,13.86,2.49,15.12,4S347.37,142.82,340.14,141.82Z" style="fill:#fdf5bd;stroke:#754c24;stroke-linecap:round;stroke-linejoin:round"/><path d="M362.16,119a8.11,8.11,0,0,0-8.06,0c-3.49,2-8,6-8,13,0,11.46,1.44,10.37,12,10.37s12,1.09,12-10.37C370.13,124.92,365.65,121,362.16,119Z" style="fill:#ff3c00;stroke:#754c24;stroke-linecap:round;stroke-linejoin:round"/><path d="M369.71,140.05c12.59,5.41,3.81,25.85-8.79,20.43C368.25,155,370.93,148.14,369.71,140.05Z" style="fill:#f3f9f1;stroke:#754c24;stroke-linecap:round;stroke-linejoin:round"/><path d="M369.71,140.05s5.9,26.66-23,20.18C360,158.25,367.8,151.66,369.71,140.05Z" style="fill:#fdf5bd;stroke:#754c24;stroke-linecap:round;stroke-linejoin:round"/><path d="M369.71,140.05a4.63,4.63,0,0,0-6,.76c-3,3,0,14.44-19.93,15.44C343.73,167.21,372.62,158.24,369.71,140.05Z" style="fill:#f3f9f1;stroke:#754c24;stroke-linecap:round;stroke-linejoin:round"/><path d="M363.66,140.81s-9.46,14.94-27.89,11.45C341,165.09,368.93,153.63,363.66,140.81Z" style="fill:#fdf5bd;stroke:#754c24;stroke-linecap:round;stroke-linejoin:round"/><path d="M363.66,140.81s-6.74-5.93-8.47,2c-1.52,7-24.48,3.11-19.92,9C342.85,161.51,366.57,144.37,363.66,140.81Z" style="fill:#f3f9f1;stroke:#754c24;stroke-linecap:round;stroke-linejoin:round"/><path d="M333.76,141.69a1.25,1.25,0,0,1,2-.95c3.17,2.52,10.46,6.67,17.93-.43,2.49-2.49,4.43-1.54,4.43-1.54C358.42,153.27,333.34,154.64,333.76,141.69Z" style="fill:#fdf5bd;stroke:#754c24;stroke-linecap:round;stroke-linejoin:round"/><path d="M355.93,138.81c-5.09-3.42-14,3.5-22.54.44C333.59,149.48,356.12,149.05,355.93,138.81Z" style="fill:#f3f9f1;stroke:#754c24;stroke-linecap:round;stroke-linejoin:round"/><path d="M358.13,121.37v1.26" style="fill:#fdf5bd;stroke:#754c24;stroke-linecap:round;stroke-linejoin:round"/><path d="M353.59,121.5c0,.41-.07.83-.11,1.24" style="fill:#fdf5bd;stroke:#754c24;stroke-linecap:round;stroke-linejoin:round"/><path d="M362.67,121.5c0,.41.07.83.11,1.24" style="fill:#fdf5bd;stroke:#754c24;stroke-linecap:round;stroke-linejoin:round"/><path d="M358.13,132.33v1.26" style="fill:#fdf5bd;stroke:#754c24;stroke-linecap:round;stroke-linejoin:round"/><path d="M352.42,132.28l.06,1.23" style="fill:#fdf5bd;stroke:#754c24;stroke-linecap:round;stroke-linejoin:round"/><path d="M363.84,132.28l-.06,1.23" style="fill:#fdf5bd;stroke:#754c24;stroke-linecap:round;stroke-linejoin:round"/><path d="M369.54,132.11c0,.39-.07.77-.11,1.16" style="fill:#fdf5bd;stroke:#754c24;stroke-linecap:round;stroke-linejoin:round"/><path d="M346.72,132.11c0,.39.06.77.11,1.16" style="fill:#fdf5bd;stroke:#754c24;stroke-linecap:round;stroke-linejoin:round"/><path d="M355.43,126.32l0,1.26" style="fill:#fdf5bd;stroke:#754c24;stroke-linecap:round;stroke-linejoin:round"/><path d="M349.48,126.47c0,.4-.05.8-.07,1.2" style="fill:#fdf5bd;stroke:#754c24;stroke-linecap:round;stroke-linejoin:round"/><path d="M361.37,126.33l0,1.25" style="fill:#fdf5bd;stroke:#754c24;stroke-linecap:round;stroke-linejoin:round"/><path d="M367.32,126.49c0,.39.06.79.08,1.19" style="fill:#fdf5bd;stroke:#754c24;stroke-linecap:round;stroke-linejoin:round"/><path d="M355.55,136.68l.06,1.26" style="fill:#fdf5bd;stroke:#754c24;stroke-linecap:round;stroke-linejoin:round"/><path d="M349.87,136.38c.06.4.12.8.19,1.2" style="fill:#fdf5bd;stroke:#754c24;stroke-linecap:round;stroke-linejoin:round"/><path d="M361.23,136.67c0,.41-.05.83-.08,1.25" style="fill:#fdf5bd;stroke:#754c24;stroke-linecap:round;stroke-linejoin:round"/><path d="M366.91,136.33l-.21,1.2" style="fill:#fdf5bd;stroke:#754c24;stroke-linecap:round;stroke-linejoin:round"/><path d="M410.86,129.87a4,4,0,0,1,3,3H410Z" style="fill:#fdf5bd;stroke:#754c24;stroke-linecap:round;stroke-linejoin:round"/><path d="M386.46,133.6a4,4,0,0,1,3,3H385.6Z" style="fill:#fdf5bd;stroke:#754c24;stroke-linecap:round;stroke-linejoin:round"/><path d="M410,132.86c6.42-.87,10.6,1,11.81,6.47h-9.89Z" style="fill:#f3f9f1;stroke:#754c24;stroke-linecap:round;stroke-linejoin:round"/><path d="M411.93,141.87v-2.54s13.38-5.48,13.38,8-11.95,11-11.95,11Z" style="fill:#f3f9f1;stroke:#754c24;stroke-linecap:round;stroke-linejoin:round"/><path d="M411.93,142.56c11.74.74,10.42,21.67-1.31,20.93Q421.87,150.23,411.93,142.56Z" style="fill:#fdf5bd;stroke:#754c24;stroke-linecap:round;stroke-linejoin:round"/><path d="M382,138.43l-1.2-2.78s12.11-1,11.67,4.87S382.81,146.24,382,138.43Z" style="fill:#f3f9f1;stroke:#754c24;stroke-linecap:round;stroke-linejoin:round"/><path d="M382.36,144.33s-7.23-1-5.81-7c0,0,13.86,2.49,15.13,4S389.6,145.34,382.36,144.33Z" style="fill:#fdf5bd;stroke:#754c24;stroke-linecap:round;stroke-linejoin:round"/><path d="M404.38,121.48a8.11,8.11,0,0,0-8.06,0c-3.48,2-8,6-8,13,0,11.46,1.44,10.37,12,10.37s12,1.09,12-10.37C412.36,127.44,407.87,123.49,404.38,121.48Z" style="fill:#ff3c00;stroke:#754c24;stroke-linecap:round;stroke-linejoin:round"/><path d="M411.93,142.56c12.6,5.42,3.81,25.85-8.79,20.43C410.48,157.54,413.15,150.65,411.93,142.56Z" style="fill:#f3f9f1;stroke:#754c24;stroke-linecap:round;stroke-linejoin:round"/><path d="M411.93,142.56s5.91,26.66-23,20.18C402.2,160.76,410,154.18,411.93,142.56Z" style="fill:#fdf5bd;stroke:#754c24;stroke-linecap:round;stroke-linejoin:round"/><path d="M411.93,142.56a4.63,4.63,0,0,0-6.05.76c-3,3,0,14.44-19.92,15.44C386,169.72,414.85,160.75,411.93,142.56Z" style="fill:#f3f9f1;stroke:#754c24;stroke-linecap:round;stroke-linejoin:round"/><path d="M405.88,143.32s-9.46,14.94-27.89,11.45C383.26,167.6,411.15,156.14,405.88,143.32Z" style="fill:#fdf5bd;stroke:#754c24;stroke-linecap:round;stroke-linejoin:round"/><path d="M405.88,143.32s-6.74-5.93-8.46,2c-1.53,7-24.49,3.11-19.93,9C385.08,164,408.79,146.88,405.88,143.32Z" style="fill:#f3f9f1;stroke:#754c24;stroke-linecap:round;stroke-linejoin:round"/><path d="M376,144.2a1.25,1.25,0,0,1,2-.94c3.17,2.51,10.45,6.66,17.92-.44,2.49-2.49,4.43-1.54,4.43-1.54C400.64,155.78,375.56,157.15,376,144.2Z" style="fill:#fdf5bd;stroke:#754c24;stroke-linecap:round;stroke-linejoin:round"/><path d="M398.15,141.33c-5.09-3.43-14,3.49-22.53.43C375.82,152,398.35,151.56,398.15,141.33Z" style="fill:#f3f9f1;stroke:#754c24;stroke-linecap:round;stroke-linejoin:round"/><path d="M400.35,123.88v1.27" style="fill:#fdf5bd;stroke:#754c24;stroke-linecap:round;stroke-linejoin:round"/><path d="M395.82,124c0,.41-.08.83-.11,1.24" style="fill:#fdf5bd;stroke:#754c24;stroke-linecap:round;stroke-linejoin:round"/><path d="M404.89,124c0,.41.08.83.11,1.24" style="fill:#fdf5bd;stroke:#754c24;stroke-linecap:round;stroke-linejoin:round"/><path d="M400.35,134.84v1.26" style="fill:#fdf5bd;stroke:#754c24;stroke-linecap:round;stroke-linejoin:round"/><path d="M394.65,134.79c0,.41,0,.82.05,1.23" style="fill:#fdf5bd;stroke:#754c24;stroke-linecap:round;stroke-linejoin:round"/><path d="M406.06,134.79c0,.41,0,.82-.06,1.23" style="fill:#fdf5bd;stroke:#754c24;stroke-linecap:round;stroke-linejoin:round"/><path d="M411.77,134.62c0,.39-.07.77-.11,1.16" style="fill:#fdf5bd;stroke:#754c24;stroke-linecap:round;stroke-linejoin:round"/><path d="M388.94,134.62c0,.39.07.77.11,1.16" style="fill:#fdf5bd;stroke:#754c24;stroke-linecap:round;stroke-linejoin:round"/><path d="M397.65,128.83c0,.42,0,.84,0,1.26" style="fill:#fdf5bd;stroke:#754c24;stroke-linecap:round;stroke-linejoin:round"/><path d="M391.7,129c0,.4-.05.8-.07,1.2" style="fill:#fdf5bd;stroke:#754c24;stroke-linecap:round;stroke-linejoin:round"/><path d="M403.6,128.84c0,.42,0,.83,0,1.25" style="fill:#fdf5bd;stroke:#754c24;stroke-linecap:round;stroke-linejoin:round"/><path d="M409.55,129c0,.4.05.79.07,1.19" style="fill:#fdf5bd;stroke:#754c24;stroke-linecap:round;stroke-linejoin:round"/><path d="M397.77,139.19l.06,1.26" style="fill:#fdf5bd;stroke:#754c24;stroke-linecap:round;stroke-linejoin:round"/><path d="M392.09,138.89c.06.4.13.8.2,1.2" style="fill:#fdf5bd;stroke:#754c24;stroke-linecap:round;stroke-linejoin:round"/><path d="M403.45,139.18c0,.42,0,.83-.07,1.25" style="fill:#fdf5bd;stroke:#754c24;stroke-linecap:round;stroke-linejoin:round"/><path d="M409.13,138.84q-.09.6-.21,1.2" style="fill:#fdf5bd;stroke:#754c24;stroke-linecap:round;stroke-linejoin:round"/><path d="M453.09,136.57a4,4,0,0,1,3,3h-3.85Z" style="fill:#fdf5bd;stroke:#754c24;stroke-linecap:round;stroke-linejoin:round"/><path d="M428.68,140.3a4,4,0,0,1,3,3h-3.85Z" style="fill:#fdf5bd;stroke:#754c24;stroke-linecap:round;stroke-linejoin:round"/><path d="M452.23,139.56c6.43-.87,10.6,1,11.82,6.47h-9.9Z" style="fill:#f3f9f1;stroke:#754c24;stroke-linecap:round;stroke-linejoin:round"/><path d="M454.15,148.56V146s13.38-5.48,13.38,8-11.95,11-11.95,11Z" style="fill:#f3f9f1;stroke:#754c24;stroke-linecap:round;stroke-linejoin:round"/><path d="M454.15,149.26c11.74.73,10.43,21.67-1.31,20.93Q464.09,156.92,454.15,149.26Z" style="fill:#fdf5bd;stroke:#754c24;stroke-linecap:round;stroke-linejoin:round"/><path d="M424.17,145.13l-1.2-2.78s12.12-1,11.67,4.87S425,152.94,424.17,145.13Z" style="fill:#f3f9f1;stroke:#754c24;stroke-linecap:round;stroke-linejoin:round"/><path d="M424.59,151s-7.24-1-5.81-7c0,0,13.86,2.49,15.12,4S431.82,152,424.59,151Z" style="fill:#fdf5bd;stroke:#754c24;stroke-linecap:round;stroke-linejoin:round"/><path d="M446.61,128.18a8.11,8.11,0,0,0-8.06,0c-3.49,2-8,5.95-8,13,0,11.46,1.44,10.37,12,10.37s12,1.09,12-10.37C454.58,134.13,450.1,130.19,446.61,128.18Z" style="fill:#ff3c00;stroke:#754c24;stroke-linecap:round;stroke-linejoin:round"/><path d="M454.15,149.26c12.6,5.41,3.82,25.85-8.78,20.43C452.7,164.24,455.38,157.35,454.15,149.26Z" style="fill:#f3f9f1;stroke:#754c24;stroke-linecap:round;stroke-linejoin:round"/><path d="M454.15,149.26s5.91,26.66-23,20.18C444.42,167.46,452.25,160.87,454.15,149.26Z" style="fill:#fdf5bd;stroke:#754c24;stroke-linecap:round;stroke-linejoin:round"/><path d="M454.15,149.26a4.62,4.62,0,0,0-6,.76c-3,3,0,14.44-19.93,15.44C428.18,176.42,457.07,167.45,454.15,149.26Z" style="fill:#f3f9f1;stroke:#754c24;stroke-linecap:round;stroke-linejoin:round"/><path d="M448.11,150s-9.47,14.94-27.9,11.45C425.48,174.3,453.38,162.84,448.11,150Z" style="fill:#fdf5bd;stroke:#754c24;stroke-linecap:round;stroke-linejoin:round"/><path d="M448.11,150s-6.74-5.93-8.47,2c-1.52,7-24.48,3.11-19.92,9C427.3,170.72,451,153.58,448.11,150Z" style="fill:#f3f9f1;stroke:#754c24;stroke-linecap:round;stroke-linejoin:round"/><path d="M418.21,150.9a1.25,1.25,0,0,1,2-1c3.17,2.52,10.46,6.67,17.93-.43,2.49-2.49,4.43-1.54,4.43-1.54C442.87,162.48,417.79,163.85,418.21,150.9Z" style="fill:#fdf5bd;stroke:#754c24;stroke-linecap:round;stroke-linejoin:round"/><path d="M440.38,148c-5.09-3.42-14,3.5-22.54.44C418,158.69,440.57,158.26,440.38,148Z" style="fill:#f3f9f1;stroke:#754c24;stroke-linecap:round;stroke-linejoin:round"/><path d="M442.58,130.58v1.26" style="fill:#fdf5bd;stroke:#754c24;stroke-linecap:round;stroke-linejoin:round"/><path d="M438,130.71c0,.41-.08.83-.11,1.24" style="fill:#fdf5bd;stroke:#754c24;stroke-linecap:round;stroke-linejoin:round"/><path d="M447.12,130.71c0,.41.07.83.11,1.24" style="fill:#fdf5bd;stroke:#754c24;stroke-linecap:round;stroke-linejoin:round"/><path d="M442.58,141.54v1.26" style="fill:#fdf5bd;stroke:#754c24;stroke-linecap:round;stroke-linejoin:round"/><path d="M436.87,141.49l.06,1.23" style="fill:#fdf5bd;stroke:#754c24;stroke-linecap:round;stroke-linejoin:round"/><path d="M448.28,141.49c0,.41,0,.82,0,1.23" style="fill:#fdf5bd;stroke:#754c24;stroke-linecap:round;stroke-linejoin:round"/><path d="M454,141.32c0,.39-.07.77-.11,1.16" style="fill:#fdf5bd;stroke:#754c24;stroke-linecap:round;stroke-linejoin:round"/><path d="M431.17,141.32c0,.39.06.77.11,1.16" style="fill:#fdf5bd;stroke:#754c24;stroke-linecap:round;stroke-linejoin:round"/><path d="M439.88,135.53l0,1.26" style="fill:#fdf5bd;stroke:#754c24;stroke-linecap:round;stroke-linejoin:round"/><path d="M433.93,135.68c0,.4-.05.8-.07,1.2" style="fill:#fdf5bd;stroke:#754c24;stroke-linecap:round;stroke-linejoin:round"/><path d="M445.82,135.54l0,1.25" style="fill:#fdf5bd;stroke:#754c24;stroke-linecap:round;stroke-linejoin:round"/><path d="M451.77,135.7c0,.39.06.79.08,1.19" style="fill:#fdf5bd;stroke:#754c24;stroke-linecap:round;stroke-linejoin:round"/><path d="M440,145.89l.06,1.26" style="fill:#fdf5bd;stroke:#754c24;stroke-linecap:round;stroke-linejoin:round"/><path d="M434.32,145.59c.06.4.12.8.19,1.2" style="fill:#fdf5bd;stroke:#754c24;stroke-linecap:round;stroke-linejoin:round"/><path d="M445.68,145.88c0,.41-.05.83-.08,1.25" style="fill:#fdf5bd;stroke:#754c24;stroke-linecap:round;stroke-linejoin:round"/><path d="M451.36,145.54l-.21,1.2" style="fill:#fdf5bd;stroke:#754c24;stroke-linecap:round;stroke-linejoin:round"/><path d="M284.19,130.71a4,4,0,0,1,3,3h-3.85Z" style="fill:#fdf5bd;stroke:#754c24;stroke-linecap:round;stroke-linejoin:round"/><path d="M259.78,134.44a4,4,0,0,1,3,3h-3.84Z" style="fill:#fdf5bd;stroke:#754c24;stroke-linecap:round;stroke-linejoin:round"/><path d="M283.33,133.69c6.43-.86,10.6,1,11.82,6.48h-9.89Z" style="fill:#f3f9f1;stroke:#754c24;stroke-linecap:round;stroke-linejoin:round"/><path d="M285.26,142.7v-2.53s13.38-5.48,13.38,8-12,11-12,11Z" style="fill:#f3f9f1;stroke:#754c24;stroke-linecap:round;stroke-linejoin:round"/><path d="M285.26,143.4c11.73.73,10.42,21.67-1.32,20.93Q295.19,151.05,285.26,143.4Z" style="fill:#fdf5bd;stroke:#754c24;stroke-linecap:round;stroke-linejoin:round"/><path d="M255.27,139.27l-1.2-2.78s12.12-1,11.67,4.87S256.14,147.08,255.27,139.27Z" style="fill:#f3f9f1;stroke:#754c24;stroke-linecap:round;stroke-linejoin:round"/><path d="M255.69,145.16s-7.24-1-5.81-7c0,0,13.86,2.49,15.12,4S262.92,146.17,255.69,145.16Z" style="fill:#fdf5bd;stroke:#754c24;stroke-linecap:round;stroke-linejoin:round"/><path d="M277.71,122.32a8.06,8.06,0,0,0-8.06,0c-3.49,2-8,6-8,13,0,11.46,1.44,10.37,12,10.37s12,1.09,12-10.37C285.68,128.27,281.2,124.33,277.71,122.32Z" style="fill:#ff3c00;stroke:#754c24;stroke-linecap:round;stroke-linejoin:round"/><path d="M285.26,143.4c12.59,5.41,3.81,25.85-8.79,20.43C283.8,158.38,286.48,151.49,285.26,143.4Z" style="fill:#f3f9f1;stroke:#754c24;stroke-linecap:round;stroke-linejoin:round"/><path d="M285.26,143.4s5.9,26.66-23,20.18C275.52,161.6,283.35,155,285.26,143.4Z" style="fill:#fdf5bd;stroke:#754c24;stroke-linecap:round;stroke-linejoin:round"/><path d="M285.26,143.4a4.63,4.63,0,0,0-6.05.76c-3,3,0,14.44-19.92,15.44C259.29,170.55,288.18,161.59,285.26,143.4Z" style="fill:#f3f9f1;stroke:#754c24;stroke-linecap:round;stroke-linejoin:round"/><path d="M279.21,144.16s-9.46,14.94-27.89,11.45C256.58,168.44,284.48,157,279.21,144.16Z" style="fill:#fdf5bd;stroke:#754c24;stroke-linecap:round;stroke-linejoin:round"/><path d="M279.21,144.16s-6.74-5.93-8.47,2c-1.52,7-24.48,3.11-19.92,9C258.4,164.85,282.12,147.72,279.21,144.16Z" style="fill:#f3f9f1;stroke:#754c24;stroke-linecap:round;stroke-linejoin:round"/><path d="M249.31,145a1.25,1.25,0,0,1,2-.95c3.17,2.52,10.46,6.66,17.93-.43,2.49-2.49,4.43-1.54,4.43-1.54C274,156.61,248.89,158,249.31,145Z" style="fill:#fdf5bd;stroke:#754c24;stroke-linecap:round;stroke-linejoin:round"/><path d="M271.48,142.16c-5.09-3.42-14,3.5-22.54.44C249.14,152.83,271.67,152.4,271.48,142.16Z" style="fill:#f3f9f1;stroke:#754c24;stroke-linecap:round;stroke-linejoin:round"/><path d="M273.68,124.72V126" style="fill:#fdf5bd;stroke:#754c24;stroke-linecap:round;stroke-linejoin:round"/><path d="M269.14,124.85c0,.41-.07.83-.11,1.24" style="fill:#fdf5bd;stroke:#754c24;stroke-linecap:round;stroke-linejoin:round"/><path d="M278.22,124.85c0,.41.07.83.11,1.24" style="fill:#fdf5bd;stroke:#754c24;stroke-linecap:round;stroke-linejoin:round"/><path d="M273.68,135.68v1.26" style="fill:#fdf5bd;stroke:#754c24;stroke-linecap:round;stroke-linejoin:round"/><path d="M268,135.62l.06,1.24" style="fill:#fdf5bd;stroke:#754c24;stroke-linecap:round;stroke-linejoin:round"/><path d="M279.39,135.62l-.06,1.24" style="fill:#fdf5bd;stroke:#754c24;stroke-linecap:round;stroke-linejoin:round"/><path d="M285.09,135.46c0,.39-.07.77-.11,1.16" style="fill:#fdf5bd;stroke:#754c24;stroke-linecap:round;stroke-linejoin:round"/><path d="M262.27,135.46c0,.39.06.77.11,1.16" style="fill:#fdf5bd;stroke:#754c24;stroke-linecap:round;stroke-linejoin:round"/><path d="M271,129.67l0,1.25" style="fill:#fdf5bd;stroke:#754c24;stroke-linecap:round;stroke-linejoin:round"/><path d="M265,129.81c0,.41,0,.81-.07,1.21" style="fill:#fdf5bd;stroke:#754c24;stroke-linecap:round;stroke-linejoin:round"/><path d="M276.92,129.68l0,1.25" style="fill:#fdf5bd;stroke:#754c24;stroke-linecap:round;stroke-linejoin:round"/><path d="M282.87,129.84c0,.39.06.79.08,1.19" style="fill:#fdf5bd;stroke:#754c24;stroke-linecap:round;stroke-linejoin:round"/><path d="M271.1,140l.06,1.26" style="fill:#fdf5bd;stroke:#754c24;stroke-linecap:round;stroke-linejoin:round"/><path d="M265.42,139.72c.06.41.12.81.19,1.21" style="fill:#fdf5bd;stroke:#754c24;stroke-linecap:round;stroke-linejoin:round"/><path d="M276.78,140c0,.41,0,.83-.08,1.25" style="fill:#fdf5bd;stroke:#754c24;stroke-linecap:round;stroke-linejoin:round"/><path d="M282.46,139.68l-.21,1.19" style="fill:#fdf5bd;stroke:#754c24;stroke-linecap:round;stroke-linejoin:round"/><path d="M242,132a4,4,0,0,1,3,3h-3.84Z" style="fill:#fdf5bd;stroke:#754c24;stroke-linecap:round;stroke-linejoin:round"/><path d="M217.56,135.7a4,4,0,0,1,3,3H216.7Z" style="fill:#fdf5bd;stroke:#754c24;stroke-linecap:round;stroke-linejoin:round"/><path d="M241.11,135c6.42-.87,10.6,1,11.81,6.48H243Z" style="fill:#f3f9f1;stroke:#754c24;stroke-linecap:round;stroke-linejoin:round"/><path d="M243,144v-2.53s13.38-5.48,13.38,8-12,10.95-12,10.95Z" style="fill:#f3f9f1;stroke:#754c24;stroke-linecap:round;stroke-linejoin:round"/><path d="M243,144.65c11.74.74,10.42,21.67-1.31,20.93Q253,152.32,243,144.65Z" style="fill:#fdf5bd;stroke:#754c24;stroke-linecap:round;stroke-linejoin:round"/><path d="M213.05,140.52l-1.2-2.78s12.11-1,11.67,4.88S213.91,148.34,213.05,140.52Z" style="fill:#f3f9f1;stroke:#754c24;stroke-linecap:round;stroke-linejoin:round"/><path d="M213.46,146.42s-7.23-1-5.81-7c0,0,13.86,2.49,15.13,4S220.7,147.43,213.46,146.42Z" style="fill:#fdf5bd;stroke:#754c24;stroke-linecap:round;stroke-linejoin:round"/><path d="M235.48,123.57a8.11,8.11,0,0,0-8.06,0c-3.48,2-8,6-8,13,0,11.46,1.44,10.37,12,10.37s12,1.09,12-10.37C243.46,129.53,239,125.58,235.48,123.57Z" style="fill:#ff3c00;stroke:#754c24;stroke-linecap:round;stroke-linejoin:round"/><path d="M243,144.65c12.6,5.42,3.81,25.85-8.79,20.44C241.58,159.64,244.25,152.75,243,144.65Z" style="fill:#f3f9f1;stroke:#754c24;stroke-linecap:round;stroke-linejoin:round"/><path d="M243,144.65s5.91,26.66-23,20.19C233.3,162.86,241.12,156.27,243,144.65Z" style="fill:#fdf5bd;stroke:#754c24;stroke-linecap:round;stroke-linejoin:round"/><path d="M243,144.65a4.63,4.63,0,0,0-6.05.76c-3,3,0,14.45-19.92,15.44C217.06,171.81,246,162.84,243,144.65Z" style="fill:#f3f9f1;stroke:#754c24;stroke-linecap:round;stroke-linejoin:round"/><path d="M237,145.41s-9.46,14.94-27.89,11.46C214.36,169.69,242.25,158.24,237,145.41Z" style="fill:#fdf5bd;stroke:#754c24;stroke-linecap:round;stroke-linejoin:round"/><path d="M237,145.41s-6.74-5.93-8.46,2c-1.52,7-24.49,3.11-19.93,9C216.18,166.11,239.89,149,237,145.41Z" style="fill:#f3f9f1;stroke:#754c24;stroke-linecap:round;stroke-linejoin:round"/><path d="M207.08,146.3a1.25,1.25,0,0,1,2-1c3.17,2.52,10.45,6.66,17.92-.44,2.49-2.49,4.43-1.54,4.43-1.54C231.74,157.87,206.66,159.24,207.08,146.3Z" style="fill:#fdf5bd;stroke:#754c24;stroke-linecap:round;stroke-linejoin:round"/><path d="M229.25,143.42c-5.09-3.42-14,3.49-22.53.43C206.92,154.09,229.45,153.65,229.25,143.42Z" style="fill:#f3f9f1;stroke:#754c24;stroke-linecap:round;stroke-linejoin:round"/><path d="M231.45,126v1.26" style="fill:#fdf5bd;stroke:#754c24;stroke-linecap:round;stroke-linejoin:round"/><path d="M226.92,126.1c0,.42-.08.83-.11,1.25" style="fill:#fdf5bd;stroke:#754c24;stroke-linecap:round;stroke-linejoin:round"/><path d="M236,126.1c0,.42.08.83.11,1.25" style="fill:#fdf5bd;stroke:#754c24;stroke-linecap:round;stroke-linejoin:round"/><path d="M231.45,136.94v1.26" style="fill:#fdf5bd;stroke:#754c24;stroke-linecap:round;stroke-linejoin:round"/><path d="M225.75,136.88c0,.41,0,.82.05,1.24" style="fill:#fdf5bd;stroke:#754c24;stroke-linecap:round;stroke-linejoin:round"/><path d="M237.16,136.88c0,.41,0,.82,0,1.24" style="fill:#fdf5bd;stroke:#754c24;stroke-linecap:round;stroke-linejoin:round"/><path d="M242.87,136.72c0,.38-.07.77-.11,1.15" style="fill:#fdf5bd;stroke:#754c24;stroke-linecap:round;stroke-linejoin:round"/><path d="M220,136.72c0,.38.07.77.11,1.15" style="fill:#fdf5bd;stroke:#754c24;stroke-linecap:round;stroke-linejoin:round"/><path d="M228.75,130.92c0,.42,0,.84,0,1.26" style="fill:#fdf5bd;stroke:#754c24;stroke-linecap:round;stroke-linejoin:round"/><path d="M222.8,131.07c0,.4-.05.8-.07,1.2" style="fill:#fdf5bd;stroke:#754c24;stroke-linecap:round;stroke-linejoin:round"/><path d="M234.7,130.93l0,1.25" style="fill:#fdf5bd;stroke:#754c24;stroke-linecap:round;stroke-linejoin:round"/><path d="M240.65,131.09c0,.4,0,.8.07,1.19" style="fill:#fdf5bd;stroke:#754c24;stroke-linecap:round;stroke-linejoin:round"/><path d="M228.87,141.29l.06,1.25" style="fill:#fdf5bd;stroke:#754c24;stroke-linecap:round;stroke-linejoin:round"/><path d="M223.19,141c.06.4.13.8.2,1.2" style="fill:#fdf5bd;stroke:#754c24;stroke-linecap:round;stroke-linejoin:round"/><path d="M234.55,141.27c0,.42,0,.84-.07,1.25" style="fill:#fdf5bd;stroke:#754c24;stroke-linecap:round;stroke-linejoin:round"/><path d="M240.23,140.94c-.06.39-.13.79-.21,1.19" style="fill:#fdf5bd;stroke:#754c24;stroke-linecap:round;stroke-linejoin:round"/><path d="M199.74,137.82a4,4,0,0,1,3,3h-3.85Z" style="fill:#fdf5bd;stroke:#754c24;stroke-linecap:round;stroke-linejoin:round"/><path d="M175.33,141.56a4,4,0,0,1,3,3h-3.84Z" style="fill:#fdf5bd;stroke:#754c24;stroke-linecap:round;stroke-linejoin:round"/><path d="M198.88,140.81c6.43-.87,10.6,1,11.82,6.48h-9.89Z" style="fill:#f3f9f1;stroke:#754c24;stroke-linecap:round;stroke-linejoin:round"/><path d="M200.81,149.82v-2.53s13.38-5.48,13.38,8-12,11-12,11Z" style="fill:#f3f9f1;stroke:#754c24;stroke-linecap:round;stroke-linejoin:round"/><path d="M200.81,150.51c11.73.74,10.42,21.67-1.32,20.94Q210.74,158.18,200.81,150.51Z" style="fill:#fdf5bd;stroke:#754c24;stroke-linecap:round;stroke-linejoin:round"/><path d="M170.82,146.38l-1.2-2.78s12.12-1,11.67,4.88S171.69,154.2,170.82,146.38Z" style="fill:#f3f9f1;stroke:#754c24;stroke-linecap:round;stroke-linejoin:round"/><path d="M171.24,152.28s-7.24-1-5.81-7c0,0,13.86,2.5,15.12,4S178.47,153.29,171.24,152.28Z" style="fill:#fdf5bd;stroke:#754c24;stroke-linecap:round;stroke-linejoin:round"/><path d="M193.26,129.43a8.11,8.11,0,0,0-8.06,0c-3.49,2-8,6-8,13,0,11.46,1.45,10.36,12,10.36s12,1.1,12-10.36C201.24,135.39,196.75,131.44,193.26,129.43Z" style="fill:#ff3c00;stroke:#754c24;stroke-linecap:round;stroke-linejoin:round"/><path d="M200.81,150.51c12.59,5.42,3.81,25.85-8.79,20.44C199.35,165.5,202,158.61,200.81,150.51Z" style="fill:#f3f9f1;stroke:#754c24;stroke-linecap:round;stroke-linejoin:round"/><path d="M200.81,150.51s5.9,26.66-23,20.19C191.07,168.72,198.9,162.13,200.81,150.51Z" style="fill:#fdf5bd;stroke:#754c24;stroke-linecap:round;stroke-linejoin:round"/><path d="M200.81,150.51a4.63,4.63,0,0,0-6.05.76c-3,3,0,14.45-19.92,15.44C174.84,177.67,203.73,168.71,200.81,150.51Z" style="fill:#f3f9f1;stroke:#754c24;stroke-linecap:round;stroke-linejoin:round"/><path d="M194.76,151.27s-9.46,14.94-27.89,11.46C172.13,175.56,200,164.1,194.76,151.27Z" style="fill:#fdf5bd;stroke:#754c24;stroke-linecap:round;stroke-linejoin:round"/><path d="M194.76,151.27s-6.74-5.93-8.47,2c-1.52,7-24.48,3.11-19.92,9C174,172,197.67,154.84,194.76,151.27Z" style="fill:#f3f9f1;stroke:#754c24;stroke-linecap:round;stroke-linejoin:round"/><path d="M164.86,152.16a1.25,1.25,0,0,1,2-.95c3.18,2.52,10.46,6.66,17.93-.44,2.49-2.49,4.43-1.54,4.43-1.54C189.52,163.73,164.44,165.1,164.86,152.16Z" style="fill:#fdf5bd;stroke:#754c24;stroke-linecap:round;stroke-linejoin:round"/><path d="M187,149.28c-5.09-3.42-14,3.49-22.54.43C164.69,160,187.22,159.51,187,149.28Z" style="fill:#f3f9f1;stroke:#754c24;stroke-linecap:round;stroke-linejoin:round"/><path d="M189.23,131.84v1.26" style="fill:#fdf5bd;stroke:#754c24;stroke-linecap:round;stroke-linejoin:round"/><path d="M184.69,132c0,.42-.07.83-.11,1.25" style="fill:#fdf5bd;stroke:#754c24;stroke-linecap:round;stroke-linejoin:round"/><path d="M193.77,132c0,.42.07.83.11,1.25" style="fill:#fdf5bd;stroke:#754c24;stroke-linecap:round;stroke-linejoin:round"/><path d="M189.23,142.8v1.26" style="fill:#fdf5bd;stroke:#754c24;stroke-linecap:round;stroke-linejoin:round"/><path d="M183.52,142.74l.06,1.24" style="fill:#fdf5bd;stroke:#754c24;stroke-linecap:round;stroke-linejoin:round"/><path d="M194.94,142.74l-.06,1.24" style="fill:#fdf5bd;stroke:#754c24;stroke-linecap:round;stroke-linejoin:round"/><path d="M200.64,142.58c0,.38-.06.77-.11,1.15" style="fill:#fdf5bd;stroke:#754c24;stroke-linecap:round;stroke-linejoin:round"/><path d="M177.82,142.58c0,.38.06.77.11,1.15" style="fill:#fdf5bd;stroke:#754c24;stroke-linecap:round;stroke-linejoin:round"/><path d="M186.53,136.79l0,1.25" style="fill:#fdf5bd;stroke:#754c24;stroke-linecap:round;stroke-linejoin:round"/><path d="M180.58,136.93c0,.4-.05.8-.07,1.2" style="fill:#fdf5bd;stroke:#754c24;stroke-linecap:round;stroke-linejoin:round"/><path d="M192.47,136.79l0,1.26" style="fill:#fdf5bd;stroke:#754c24;stroke-linecap:round;stroke-linejoin:round"/><path d="M198.42,137c0,.4.06.8.08,1.2" style="fill:#fdf5bd;stroke:#754c24;stroke-linecap:round;stroke-linejoin:round"/><path d="M186.65,147.15l.06,1.25" style="fill:#fdf5bd;stroke:#754c24;stroke-linecap:round;stroke-linejoin:round"/><path d="M181,146.84c.06.4.12.8.19,1.2" style="fill:#fdf5bd;stroke:#754c24;stroke-linecap:round;stroke-linejoin:round"/><path d="M192.33,147.13c0,.42-.05.84-.08,1.26" style="fill:#fdf5bd;stroke:#754c24;stroke-linecap:round;stroke-linejoin:round"/><path d="M198,146.8,197.8,148" style="fill:#fdf5bd;stroke:#754c24;stroke-linecap:round;stroke-linejoin:round"/><path d="M484.15,150.05a5.12,5.12,0,0,1,3.86,3.86h-5Z" style="fill:#fdf5bd;stroke:#754c24;stroke-linecap:round;stroke-linejoin:round"/><path d="M452.59,154.88a5.14,5.14,0,0,1,3.87,3.86h-5Z" style="fill:#fdf5bd;stroke:#754c24;stroke-linecap:round;stroke-linejoin:round"/><path d="M483,153.91c8.3-1.12,13.7,1.29,15.27,8.37H485.52Z" style="fill:#f3f9f1;stroke:#754c24;stroke-linecap:round;stroke-linejoin:round"/><path d="M485.52,165.56v-3.28s17.3-7.08,17.3,10.3-15.45,14.17-15.45,14.17Z" style="fill:#f3f9f1;stroke:#754c24;stroke-linecap:round;stroke-linejoin:round"/><path d="M485.52,166.45c15.18,1,13.48,28-1.7,27.06Q498.37,176.37,485.52,166.45Z" style="fill:#fdf5bd;stroke:#754c24;stroke-linecap:round;stroke-linejoin:round"/><path d="M446.76,161.11l-1.55-3.59s15.66-1.3,15.08,6.3S447.88,171.22,446.76,161.11Z" style="fill:#f3f9f1;stroke:#754c24;stroke-linecap:round;stroke-linejoin:round"/><path d="M447.3,168.74s-9.36-1.31-7.52-9c0,0,17.92,3.22,19.56,5.16S456.65,170,447.3,168.74Z" style="fill:#fdf5bd;stroke:#754c24;stroke-linecap:round;stroke-linejoin:round"/><path d="M475.77,139.2a10.48,10.48,0,0,0-10.42,0C460.84,141.8,455,146.9,455,156c0,14.81,1.86,13.4,15.52,13.4s15.52,1.41,15.52-13.4C486.08,146.9,480.28,141.8,475.77,139.2Z" style="fill:#ff3c00;stroke:#754c24;stroke-linecap:round;stroke-linejoin:round"/><path d="M485.52,166.45c16.29,7,4.93,33.42-11.36,26.42C483.65,185.82,487.1,176.92,485.52,166.45Z" style="fill:#f3f9f1;stroke:#754c24;stroke-linecap:round;stroke-linejoin:round"/><path d="M485.52,166.45s7.64,34.47-29.71,26.1C472.94,190,483.06,181.47,485.52,166.45Z" style="fill:#fdf5bd;stroke:#754c24;stroke-linecap:round;stroke-linejoin:round"/><path d="M485.52,166.45a6,6,0,0,0-7.81,1c-3.87,3.87,0,18.68-25.76,20C452,201.56,489.3,190,485.52,166.45Z" style="fill:#f3f9f1;stroke:#754c24;stroke-linecap:round;stroke-linejoin:round"/><path d="M477.71,167.43s-12.24,19.32-36.07,14.81C448.46,198.83,484.52,184,477.71,167.43Z" style="fill:#fdf5bd;stroke:#754c24;stroke-linecap:round;stroke-linejoin:round"/><path d="M477.71,167.43S469,159.77,466.76,170c-2,9-31.66,4-25.76,11.59C450.81,194.19,481.47,172,477.71,167.43Z" style="fill:#f3f9f1;stroke:#754c24;stroke-linecap:round;stroke-linejoin:round"/><path d="M439.05,168.58a1.61,1.61,0,0,1,2.6-1.23c4.1,3.26,13.52,8.62,23.18-.56,3.22-3.22,5.73-2,5.73-2C470.93,183.54,438.51,185.31,439.05,168.58Z" style="fill:#fdf5bd;stroke:#754c24;stroke-linecap:round;stroke-linejoin:round"/><path d="M467.71,164.86c-6.58-4.43-18.07,4.51-29.13.56C438.83,178.65,468,178.09,467.71,164.86Z" style="fill:#f3f9f1;stroke:#754c24;stroke-linecap:round;stroke-linejoin:round"/><path d="M470.56,142.31v1.63" style="fill:#fdf5bd;stroke:#754c24;stroke-linecap:round;stroke-linejoin:round"/><path d="M464.71,142.47c-.06.54-.11,1.08-.15,1.61" style="fill:#fdf5bd;stroke:#754c24;stroke-linecap:round;stroke-linejoin:round"/><path d="M476.41,142.47l.15,1.61" style="fill:#fdf5bd;stroke:#754c24;stroke-linecap:round;stroke-linejoin:round"/><path d="M470.56,156.48v1.63" style="fill:#fdf5bd;stroke:#754c24;stroke-linecap:round;stroke-linejoin:round"/><path d="M463.18,156.4c0,.54.05,1.07.08,1.6" style="fill:#fdf5bd;stroke:#754c24;stroke-linecap:round;stroke-linejoin:round"/><path d="M477.93,156.4c0,.54,0,1.07-.07,1.6" style="fill:#fdf5bd;stroke:#754c24;stroke-linecap:round;stroke-linejoin:round"/><path d="M485.31,156.18q-.06.75-.15,1.5" style="fill:#fdf5bd;stroke:#754c24;stroke-linecap:round;stroke-linejoin:round"/><path d="M455.81,156.18c0,.5.09,1,.14,1.5" style="fill:#fdf5bd;stroke:#754c24;stroke-linecap:round;stroke-linejoin:round"/><path d="M467.06,148.7l0,1.63" style="fill:#fdf5bd;stroke:#754c24;stroke-linecap:round;stroke-linejoin:round"/><path d="M459.38,148.9c0,.51-.07,1-.1,1.55" style="fill:#fdf5bd;stroke:#754c24;stroke-linecap:round;stroke-linejoin:round"/><path d="M474.75,148.71c0,.54,0,1.08,0,1.62" style="fill:#fdf5bd;stroke:#754c24;stroke-linecap:round;stroke-linejoin:round"/><path d="M482.44,148.92c0,.52.07,1,.1,1.55" style="fill:#fdf5bd;stroke:#754c24;stroke-linecap:round;stroke-linejoin:round"/><path d="M467.22,162.1l.09,1.62" style="fill:#fdf5bd;stroke:#754c24;stroke-linecap:round;stroke-linejoin:round"/><path d="M459.89,161.7c.08.51.17,1,.27,1.55" style="fill:#fdf5bd;stroke:#754c24;stroke-linecap:round;stroke-linejoin:round"/><path d="M474.56,162.08c0,.54-.07,1.08-.1,1.62" style="fill:#fdf5bd;stroke:#754c24;stroke-linecap:round;stroke-linejoin:round"/><path d="M481.89,161.64c-.09.51-.18,1-.28,1.54" style="fill:#fdf5bd;stroke:#754c24;stroke-linecap:round;stroke-linejoin:round"/><path d="M173.1,150.05a5.12,5.12,0,0,1,3.86,3.86h-5Z" style="fill:#fdf5bd;stroke:#754c24;stroke-linecap:round;stroke-linejoin:round"/><path d="M141.55,154.88a5.12,5.12,0,0,1,3.86,3.86h-5Z" style="fill:#fdf5bd;stroke:#754c24;stroke-linecap:round;stroke-linejoin:round"/><path d="M172,153.91c8.31-1.12,13.71,1.29,15.28,8.37H174.48Z" style="fill:#f3f9f1;stroke:#754c24;stroke-linecap:round;stroke-linejoin:round"/><path d="M174.48,165.56v-3.28s17.3-7.08,17.3,10.3-15.46,14.17-15.46,14.17Z" style="fill:#f3f9f1;stroke:#754c24;stroke-linecap:round;stroke-linejoin:round"/><path d="M174.48,166.45c15.17,1,13.47,28-1.7,27.06Q187.32,176.37,174.48,166.45Z" style="fill:#fdf5bd;stroke:#754c24;stroke-linecap:round;stroke-linejoin:round"/><path d="M135.72,161.11l-1.56-3.59s15.67-1.3,15.09,6.3S136.83,171.22,135.72,161.11Z" style="fill:#f3f9f1;stroke:#754c24;stroke-linecap:round;stroke-linejoin:round"/><path d="M136.25,168.74s-9.35-1.31-7.51-9c0,0,17.92,3.22,19.55,5.16S145.6,170,136.25,168.74Z" style="fill:#fdf5bd;stroke:#754c24;stroke-linecap:round;stroke-linejoin:round"/><path d="M164.72,139.2a10.48,10.48,0,0,0-10.42,0C149.79,141.8,144,146.9,144,156c0,14.81,1.86,13.4,15.52,13.4S175,170.77,175,156C175,146.9,169.23,141.8,164.72,139.2Z" style="fill:#ff3c00;stroke:#754c24;stroke-linecap:round;stroke-linejoin:round"/><path d="M174.48,166.45c16.28,7,4.93,33.42-11.36,26.42C172.6,185.82,176.06,176.92,174.48,166.45Z" style="fill:#f3f9f1;stroke:#754c24;stroke-linecap:round;stroke-linejoin:round"/><path d="M174.48,166.45s7.64,34.47-29.71,26.1C161.9,190,172,181.47,174.48,166.45Z" style="fill:#fdf5bd;stroke:#754c24;stroke-linecap:round;stroke-linejoin:round"/><path d="M174.48,166.45a6,6,0,0,0-7.82,1c-3.86,3.87,0,18.68-25.76,20C140.9,201.56,178.25,190,174.48,166.45Z" style="fill:#f3f9f1;stroke:#754c24;stroke-linecap:round;stroke-linejoin:round"/><path d="M166.66,167.43s-12.23,19.32-36.06,14.81C137.41,198.83,173.47,184,166.66,167.43Z" style="fill:#fdf5bd;stroke:#754c24;stroke-linecap:round;stroke-linejoin:round"/><path d="M166.66,167.43S158,159.77,155.71,170c-2,9-31.65,4-25.76,11.59C139.76,194.19,170.42,172,166.66,167.43Z" style="fill:#f3f9f1;stroke:#754c24;stroke-linecap:round;stroke-linejoin:round"/><path d="M128,168.58a1.61,1.61,0,0,1,2.6-1.23c4.1,3.26,13.51,8.62,23.17-.56,3.22-3.22,5.73-2,5.73-2C159.89,183.54,127.46,185.31,128,168.58Z" style="fill:#fdf5bd;stroke:#754c24;stroke-linecap:round;stroke-linejoin:round"/><path d="M156.66,164.86c-6.58-4.43-18.06,4.51-29.13.56C127.79,178.65,156.92,178.09,156.66,164.86Z" style="fill:#f3f9f1;stroke:#754c24;stroke-linecap:round;stroke-linejoin:round"/><path d="M159.51,142.31v1.63" style="fill:#fdf5bd;stroke:#754c24;stroke-linecap:round;stroke-linejoin:round"/><path d="M153.66,142.47l-.15,1.61" style="fill:#fdf5bd;stroke:#754c24;stroke-linecap:round;stroke-linejoin:round"/><path d="M165.36,142.47c.06.54.1,1.08.15,1.61" style="fill:#fdf5bd;stroke:#754c24;stroke-linecap:round;stroke-linejoin:round"/><path d="M159.51,156.48v1.63" style="fill:#fdf5bd;stroke:#754c24;stroke-linecap:round;stroke-linejoin:round"/><path d="M152.14,156.4c0,.54,0,1.07.07,1.6" style="fill:#fdf5bd;stroke:#754c24;stroke-linecap:round;stroke-linejoin:round"/><path d="M166.89,156.4c0,.54,0,1.07-.08,1.6" style="fill:#fdf5bd;stroke:#754c24;stroke-linecap:round;stroke-linejoin:round"/><path d="M174.26,156.18q-.06.75-.15,1.5" style="fill:#fdf5bd;stroke:#754c24;stroke-linecap:round;stroke-linejoin:round"/><path d="M144.76,156.18q.06.75.15,1.5" style="fill:#fdf5bd;stroke:#754c24;stroke-linecap:round;stroke-linejoin:round"/><path d="M156,148.7l0,1.63" style="fill:#fdf5bd;stroke:#754c24;stroke-linecap:round;stroke-linejoin:round"/><path d="M148.33,148.9c0,.51-.07,1-.09,1.55" style="fill:#fdf5bd;stroke:#754c24;stroke-linecap:round;stroke-linejoin:round"/><path d="M163.7,148.71c0,.54,0,1.08,0,1.62" style="fill:#fdf5bd;stroke:#754c24;stroke-linecap:round;stroke-linejoin:round"/><path d="M171.39,148.92c0,.52.07,1,.1,1.55" style="fill:#fdf5bd;stroke:#754c24;stroke-linecap:round;stroke-linejoin:round"/><path d="M156.18,162.1c0,.54,0,1.08.08,1.62" style="fill:#fdf5bd;stroke:#754c24;stroke-linecap:round;stroke-linejoin:round"/><path d="M148.85,161.7c.08.51.17,1,.26,1.55" style="fill:#fdf5bd;stroke:#754c24;stroke-linecap:round;stroke-linejoin:round"/><path d="M163.51,162.08c0,.54-.06,1.08-.1,1.62" style="fill:#fdf5bd;stroke:#754c24;stroke-linecap:round;stroke-linejoin:round"/><path d="M170.84,161.64c-.08.51-.18,1-.28,1.54" style="fill:#fdf5bd;stroke:#754c24;stroke-linecap:round;stroke-linejoin:round"/><path d="M437.71,157.44a6.14,6.14,0,0,1,4.61,4.61h-5.94Z" style="fill:#fdf5bd;stroke:#754c24;stroke-linecap:round;stroke-linejoin:round"/><path d="M400,163.2a6.15,6.15,0,0,1,4.62,4.61h-5.94Z" style="fill:#fdf5bd;stroke:#754c24;stroke-linecap:round;stroke-linejoin:round"/><path d="M436.38,162.05c9.92-1.34,16.36,1.54,18.24,10H439.35Z" style="fill:#f3f9f1;stroke:#754c24;stroke-linecap:round;stroke-linejoin:round"/><path d="M439.35,176V172S460,163.59,460,184.34s-18.45,16.91-18.45,16.91Z" style="fill:#f3f9f1;stroke:#754c24;stroke-linecap:round;stroke-linejoin:round"/><path d="M439.35,177c18.11,1.14,16.09,33.44-2,32.3Q454.69,188.84,439.35,177Z" style="fill:#fdf5bd;stroke:#754c24;stroke-linecap:round;stroke-linejoin:round"/><path d="M393.09,170.65l-1.86-4.29s18.7-1.55,18,7.52S394.42,182.71,393.09,170.65Z" style="fill:#f3f9f1;stroke:#754c24;stroke-linecap:round;stroke-linejoin:round"/><path d="M393.72,179.75s-11.16-1.56-9-10.78c0,0,21.39,3.84,23.34,6.15S404.89,181.3,393.72,179.75Z" style="fill:#fdf5bd;stroke:#754c24;stroke-linecap:round;stroke-linejoin:round"/><path d="M427.71,144.49a12.5,12.5,0,0,0-12.44,0c-5.38,3.1-12.31,9.19-12.31,20,0,17.69,2.23,16,18.53,16s18.52,1.69,18.52-16C440,153.68,433.09,147.59,427.71,144.49Z" style="fill:#ff3c00;stroke:#754c24;stroke-linecap:round;stroke-linejoin:round"/><path d="M439.35,177c19.44,8.36,5.88,39.89-13.56,31.53C437.11,200.14,441.24,189.51,439.35,177Z" style="fill:#f3f9f1;stroke:#754c24;stroke-linecap:round;stroke-linejoin:round"/><path d="M439.35,177s9.12,41.14-35.46,31.15C424.33,205.11,436.41,194.94,439.35,177Z" style="fill:#fdf5bd;stroke:#754c24;stroke-linecap:round;stroke-linejoin:round"/><path d="M439.35,177a7.14,7.14,0,0,0-9.33,1.17c-4.61,4.61,0,22.29-30.74,23.83C399.28,218.93,443.86,205.09,439.35,177Z" style="fill:#f3f9f1;stroke:#754c24;stroke-linecap:round;stroke-linejoin:round"/><path d="M430,178.19s-14.6,23.06-43,17.68C395.11,215.66,438.15,198,430,178.19Z" style="fill:#fdf5bd;stroke:#754c24;stroke-linecap:round;stroke-linejoin:round"/><path d="M430,178.19S419.62,169,417,181.26c-2.34,10.77-37.78,4.8-30.74,13.84C397.91,210.13,434.51,183.69,430,178.19Z" style="fill:#f3f9f1;stroke:#754c24;stroke-linecap:round;stroke-linejoin:round"/><path d="M383.88,179.56A1.93,1.93,0,0,1,387,178.1c4.89,3.88,16.13,10.27,27.66-.68,3.84-3.84,6.84-2.37,6.84-2.37C421.93,197.42,383.23,199.53,383.88,179.56Z" style="fill:#fdf5bd;stroke:#754c24;stroke-linecap:round;stroke-linejoin:round"/><path d="M418.09,175.12c-7.85-5.28-21.57,5.39-34.77.67C383.62,191.58,418.39,190.91,418.09,175.12Z" style="fill:#f3f9f1;stroke:#754c24;stroke-linecap:round;stroke-linejoin:round"/><path d="M421.49,148.2v2" style="fill:#fdf5bd;stroke:#754c24;stroke-linecap:round;stroke-linejoin:round"/><path d="M414.51,148.4c-.06.64-.12,1.28-.17,1.92" style="fill:#fdf5bd;stroke:#754c24;stroke-linecap:round;stroke-linejoin:round"/><path d="M428.46,148.4q.1,1,.18,1.92" style="fill:#fdf5bd;stroke:#754c24;stroke-linecap:round;stroke-linejoin:round"/><path d="M421.49,165.11v1.95" style="fill:#fdf5bd;stroke:#754c24;stroke-linecap:round;stroke-linejoin:round"/><path d="M412.69,165c0,.64.05,1.27.09,1.91" style="fill:#fdf5bd;stroke:#754c24;stroke-linecap:round;stroke-linejoin:round"/><path d="M430.29,165c0,.64-.05,1.27-.09,1.91" style="fill:#fdf5bd;stroke:#754c24;stroke-linecap:round;stroke-linejoin:round"/><path d="M439.09,164.76c0,.59-.11,1.19-.18,1.78" style="fill:#fdf5bd;stroke:#754c24;stroke-linecap:round;stroke-linejoin:round"/><path d="M403.88,164.76c.05.59.11,1.19.18,1.78" style="fill:#fdf5bd;stroke:#754c24;stroke-linecap:round;stroke-linejoin:round"/><path d="M417.32,155.84c0,.64,0,1.29,0,1.93" style="fill:#fdf5bd;stroke:#754c24;stroke-linecap:round;stroke-linejoin:round"/><path d="M408.15,156.07c0,.62-.09,1.23-.12,1.85" style="fill:#fdf5bd;stroke:#754c24;stroke-linecap:round;stroke-linejoin:round"/><path d="M426.49,155.85c0,.64,0,1.29,0,1.93" style="fill:#fdf5bd;stroke:#754c24;stroke-linecap:round;stroke-linejoin:round"/><path d="M435.66,156.1c0,.62.09,1.23.12,1.84" style="fill:#fdf5bd;stroke:#754c24;stroke-linecap:round;stroke-linejoin:round"/><path d="M417.51,171.82c0,.65.07,1.29.1,1.94" style="fill:#fdf5bd;stroke:#754c24;stroke-linecap:round;stroke-linejoin:round"/><path d="M408.77,171.34c.1.61.21,1.23.32,1.85" style="fill:#fdf5bd;stroke:#754c24;stroke-linecap:round;stroke-linejoin:round"/><path d="M426.26,171.8l-.12,1.93" style="fill:#fdf5bd;stroke:#754c24;stroke-linecap:round;stroke-linejoin:round"/><path d="M435,171.27c-.11.61-.22,1.22-.34,1.83" style="fill:#fdf5bd;stroke:#754c24;stroke-linecap:round;stroke-linejoin:round"/><path d="M236.34,157.44a6.15,6.15,0,0,1,4.62,4.61H235Z" style="fill:#fdf5bd;stroke:#754c24;stroke-linecap:round;stroke-linejoin:round"/><path d="M198.68,163.2a6.14,6.14,0,0,1,4.61,4.61h-5.93Z" style="fill:#fdf5bd;stroke:#754c24;stroke-linecap:round;stroke-linejoin:round"/><path d="M235,162.05c9.91-1.34,16.36,1.54,18.23,10H238Z" style="fill:#f3f9f1;stroke:#754c24;stroke-linecap:round;stroke-linejoin:round"/><path d="M238,176V172s20.64-8.45,20.64,12.3-18.44,16.91-18.44,16.91Z" style="fill:#f3f9f1;stroke:#754c24;stroke-linecap:round;stroke-linejoin:round"/><path d="M238,177c18.11,1.14,16.08,33.44-2,32.3Q253.32,188.84,238,177Z" style="fill:#fdf5bd;stroke:#754c24;stroke-linecap:round;stroke-linejoin:round"/><path d="M191.72,170.65l-1.85-4.29s18.7-1.55,18,7.52S193.06,182.71,191.72,170.65Z" style="fill:#f3f9f1;stroke:#754c24;stroke-linecap:round;stroke-linejoin:round"/><path d="M192.36,179.75s-11.16-1.56-9-10.78c0,0,21.38,3.84,23.33,6.15S203.52,181.3,192.36,179.75Z" style="fill:#fdf5bd;stroke:#754c24;stroke-linecap:round;stroke-linejoin:round"/><path d="M226.34,144.49a12.48,12.48,0,0,0-12.43,0c-5.39,3.1-12.31,9.19-12.31,20,0,17.69,2.22,16,18.52,16s18.53,1.69,18.53-16C238.65,153.68,231.73,147.59,226.34,144.49Z" style="fill:#ff3c00;stroke:#754c24;stroke-linecap:round;stroke-linejoin:round"/><path d="M238,177c19.44,8.36,5.88,39.89-13.56,31.53C235.75,200.14,239.87,189.51,238,177Z" style="fill:#f3f9f1;stroke:#754c24;stroke-linecap:round;stroke-linejoin:round"/><path d="M238,177s9.11,41.14-35.47,31.15C223,205.11,235.05,194.94,238,177Z" style="fill:#fdf5bd;stroke:#754c24;stroke-linecap:round;stroke-linejoin:round"/><path d="M238,177a7.14,7.14,0,0,0-9.33,1.17c-4.61,4.61,0,22.29-30.75,23.83C197.91,218.93,242.49,205.09,238,177Z" style="fill:#f3f9f1;stroke:#754c24;stroke-linecap:round;stroke-linejoin:round"/><path d="M228.66,178.19s-14.61,23.06-43,17.68C193.74,215.66,236.79,198,228.66,178.19Z" style="fill:#fdf5bd;stroke:#754c24;stroke-linecap:round;stroke-linejoin:round"/><path d="M228.66,178.19s-10.4-9.15-13.07,3.07c-2.35,10.77-37.78,4.8-30.74,13.84C196.55,210.13,233.14,183.69,228.66,178.19Z" style="fill:#f3f9f1;stroke:#754c24;stroke-linecap:round;stroke-linejoin:round"/><path d="M182.52,179.56a1.92,1.92,0,0,1,3.1-1.46c4.9,3.88,16.14,10.27,27.67-.68,3.84-3.84,6.83-2.37,6.83-2.37C220.57,197.42,181.87,199.53,182.52,179.56Z" style="fill:#fdf5bd;stroke:#754c24;stroke-linecap:round;stroke-linejoin:round"/><path d="M216.72,175.12c-7.85-5.28-21.56,5.39-34.76.67C182.26,191.58,217,190.91,216.72,175.12Z" style="fill:#f3f9f1;stroke:#754c24;stroke-linecap:round;stroke-linejoin:round"/><path d="M220.12,148.2v2" style="fill:#fdf5bd;stroke:#754c24;stroke-linecap:round;stroke-linejoin:round"/><path d="M213.15,148.4l-.18,1.92" style="fill:#fdf5bd;stroke:#754c24;stroke-linecap:round;stroke-linejoin:round"/><path d="M227.1,148.4l.18,1.92" style="fill:#fdf5bd;stroke:#754c24;stroke-linecap:round;stroke-linejoin:round"/><path d="M220.12,165.11v1.95" style="fill:#fdf5bd;stroke:#754c24;stroke-linecap:round;stroke-linejoin:round"/><path d="M211.32,165l.09,1.91" style="fill:#fdf5bd;stroke:#754c24;stroke-linecap:round;stroke-linejoin:round"/><path d="M228.93,165l-.09,1.91" style="fill:#fdf5bd;stroke:#754c24;stroke-linecap:round;stroke-linejoin:round"/><path d="M237.73,164.76c0,.59-.11,1.19-.18,1.78" style="fill:#fdf5bd;stroke:#754c24;stroke-linecap:round;stroke-linejoin:round"/><path d="M202.52,164.76c0,.59.11,1.19.18,1.78" style="fill:#fdf5bd;stroke:#754c24;stroke-linecap:round;stroke-linejoin:round"/><path d="M216,155.84c0,.64,0,1.29,0,1.93" style="fill:#fdf5bd;stroke:#754c24;stroke-linecap:round;stroke-linejoin:round"/><path d="M206.78,156.07c0,.62-.08,1.23-.11,1.85" style="fill:#fdf5bd;stroke:#754c24;stroke-linecap:round;stroke-linejoin:round"/><path d="M225.13,155.85c0,.64,0,1.29,0,1.93" style="fill:#fdf5bd;stroke:#754c24;stroke-linecap:round;stroke-linejoin:round"/><path d="M234.3,156.1c0,.62.09,1.23.12,1.84" style="fill:#fdf5bd;stroke:#754c24;stroke-linecap:round;stroke-linejoin:round"/><path d="M216.15,171.82c0,.65.06,1.29.1,1.94" style="fill:#fdf5bd;stroke:#754c24;stroke-linecap:round;stroke-linejoin:round"/><path d="M207.41,171.34c.1.61.2,1.23.32,1.85" style="fill:#fdf5bd;stroke:#754c24;stroke-linecap:round;stroke-linejoin:round"/><path d="M224.89,171.8c0,.64-.07,1.29-.12,1.93" style="fill:#fdf5bd;stroke:#754c24;stroke-linecap:round;stroke-linejoin:round"/><path d="M233.63,171.27q-.15.91-.33,1.83" style="fill:#fdf5bd;stroke:#754c24;stroke-linecap:round;stroke-linejoin:round"/><polygon points="511.84 451.77 117.07 451.77 117.91 383.53 52.18 138.63 578.82 143.66 511 383.53 511.84 451.77" style="fill:none"/><path d="M270.06,162.64c0,1.56-7.92,1.56-7.92,0V103.76c0,1.14,7.92,1.14,7.92,0Z" style="fill:#ffb18d"/><path d="M262.14,155.28c1.48,3.92,3.9,6.67,7.92,7.41" style="fill:none;stroke:#ff8fa9;stroke-linecap:round;stroke-linejoin:round;stroke-width:5px"/><path d="M262.14,145.16c1.48,3.92,3.9,6.68,7.92,7.42" style="fill:none;stroke:#ff8fa9;stroke-linecap:round;stroke-linejoin:round;stroke-width:5px"/><path d="M262.14,135.05c1.48,3.92,3.9,6.67,7.92,7.41" style="fill:none;stroke:#ff8fa9;stroke-linecap:round;stroke-linejoin:round;stroke-width:5px"/><path d="M262.14,124.93c1.48,3.92,3.9,6.68,7.92,7.42" style="fill:none;stroke:#ff8fa9;stroke-linecap:round;stroke-linejoin:round;stroke-width:5px"/><path d="M262.14,114.82c1.48,3.92,3.9,6.67,7.92,7.41" style="fill:none;stroke:#ff8fa9;stroke-linecap:round;stroke-linejoin:round;stroke-width:5px"/><path d="M262.14,104.71c1.48,3.91,3.9,6.67,7.92,7.41" style="fill:none;stroke:#ff8fa9;stroke-linecap:round;stroke-linejoin:round;stroke-width:5px"/><ellipse cx="266.1" cy="103.76" rx="3.96" ry="0.94" style="fill:#ff8fa9"/><path d="M266.1,103.76a6.19,6.19,0,0,1-.38-2.83c.19-1.51,0-1.85,0-1.85" style="fill:none;stroke:#252b39;stroke-linecap:round;stroke-linejoin:round;stroke-width:2px"/><path d="M268,100.18a2.27,2.27,0,0,1-4.53,0c0-1.25,3-3.78,2.26-6.8C267.23,94.52,268,98.93,268,100.18Z" style="fill:#fbb03b"/><path d="M287.24,172.56c0,1.73-8.77,1.73-8.77,0V107.38c0,1.27,8.77,1.27,8.77,0Z" style="fill:#95ffaf"/><path d="M278.47,164.41c1.64,4.34,4.31,7.39,8.77,8.21" style="fill:none;stroke:#d9ff97;stroke-linecap:round;stroke-linejoin:round;stroke-width:5px"/><path d="M278.47,153.22c1.64,4.33,4.31,7.38,8.77,8.2" style="fill:none;stroke:#d9ff97;stroke-linecap:round;stroke-linejoin:round;stroke-width:5px"/><path d="M278.47,142c1.64,4.34,4.31,7.39,8.77,8.2" style="fill:none;stroke:#d9ff97;stroke-linecap:round;stroke-linejoin:round;stroke-width:5px"/><path d="M278.47,130.82c1.64,4.34,4.31,7.39,8.77,8.21" style="fill:none;stroke:#d9ff97;stroke-linecap:round;stroke-linejoin:round;stroke-width:5px"/><path d="M278.47,119.63c1.64,4.33,4.31,7.38,8.77,8.2" style="fill:none;stroke:#d9ff97;stroke-linecap:round;stroke-linejoin:round;stroke-width:5px"/><path d="M278.47,108.43c1.64,4.34,4.31,7.38,8.77,8.2" style="fill:none;stroke:#d9ff97;stroke-linecap:round;stroke-linejoin:round;stroke-width:5px"/><ellipse cx="282.85" cy="107.38" rx="4.39" ry="1.04" style="fill:#d9ff97"/><path d="M282.85,107.38a6.83,6.83,0,0,1-.42-3.13c.21-1.67,0-2,0-2" style="fill:none;stroke:#252b39;stroke-linecap:round;stroke-linejoin:round;stroke-width:2px"/><path d="M284.94,103.41a2.51,2.51,0,1,1-5,0c0-1.38,3.34-4.17,2.5-7.51C284.11,97.15,284.94,102,284.94,103.41Z" style="fill:#fbb03b"/><path d="M355.89,172.56c0,1.73-8.77,1.73-8.77,0V107.38c0,1.27,8.77,1.27,8.77,0Z" style="fill:#a4bcff"/><path d="M347.12,164.41c1.64,4.34,4.32,7.39,8.77,8.21" style="fill:none;stroke:#a6ffe2;stroke-linecap:round;stroke-linejoin:round;stroke-width:5px"/><path d="M347.12,153.22c1.64,4.33,4.32,7.38,8.77,8.2" style="fill:none;stroke:#a6ffe2;stroke-linecap:round;stroke-linejoin:round;stroke-width:5px"/><path d="M347.12,142c1.64,4.34,4.32,7.39,8.77,8.2" style="fill:none;stroke:#a6ffe2;stroke-linecap:round;stroke-linejoin:round;stroke-width:5px"/><path d="M347.12,130.82c1.64,4.34,4.32,7.39,8.77,8.21" style="fill:none;stroke:#a6ffe2;stroke-linecap:round;stroke-linejoin:round;stroke-width:5px"/><path d="M347.12,119.63c1.64,4.33,4.32,7.38,8.77,8.2" style="fill:none;stroke:#a6ffe2;stroke-linecap:round;stroke-linejoin:round;stroke-width:5px"/><path d="M347.12,108.43c1.64,4.34,4.32,7.38,8.77,8.2" style="fill:none;stroke:#a6ffe2;stroke-linecap:round;stroke-linejoin:round;stroke-width:5px"/><ellipse cx="351.51" cy="107.38" rx="4.39" ry="1.04" style="fill:#a6ffe2"/><path d="M351.51,107.38a6.68,6.68,0,0,1-.42-3.13c.21-1.67,0-2,0-2" style="fill:none;stroke:#252b39;stroke-linecap:round;stroke-linejoin:round;stroke-width:2px"/><path d="M353.6,103.41a2.51,2.51,0,1,1-5,0c0-1.38,3.35-4.17,2.51-7.51C352.76,97.15,353.6,102,353.6,103.41Z" style="fill:#fbb03b"/><path d="M368.86,165.57c0,1.56-7.92,1.56-7.92,0V106.69c0,1.14,7.92,1.14,7.92,0Z" style="fill:#ffb18d"/><path d="M360.94,158.21c1.48,3.92,3.9,6.67,7.92,7.41" style="fill:none;stroke:#ff8fa9;stroke-linecap:round;stroke-linejoin:round;stroke-width:5px"/><path d="M360.94,148.09c1.48,3.92,3.9,6.68,7.92,7.42" style="fill:none;stroke:#ff8fa9;stroke-linecap:round;stroke-linejoin:round;stroke-width:5px"/><path d="M360.94,138c1.48,3.92,3.9,6.67,7.92,7.41" style="fill:none;stroke:#ff8fa9;stroke-linecap:round;stroke-linejoin:round;stroke-width:5px"/><path d="M360.94,127.86c1.48,3.92,3.9,6.68,7.92,7.42" style="fill:none;stroke:#ff8fa9;stroke-linecap:round;stroke-linejoin:round;stroke-width:5px"/><path d="M360.94,117.75c1.48,3.92,3.9,6.67,7.92,7.41" style="fill:none;stroke:#ff8fa9;stroke-linecap:round;stroke-linejoin:round;stroke-width:5px"/><path d="M360.94,107.64c1.48,3.91,3.9,6.67,7.92,7.41" style="fill:none;stroke:#ff8fa9;stroke-linecap:round;stroke-linejoin:round;stroke-width:5px"/><ellipse cx="364.9" cy="106.69" rx="3.96" ry="0.94" style="fill:#ff8fa9"/><path d="M364.9,106.69a6,6,0,0,1-.38-2.83c.19-1.51,0-1.85,0-1.85" style="fill:none;stroke:#252b39;stroke-linecap:round;stroke-linejoin:round;stroke-width:2px"/><path d="M366.79,103.11a2.27,2.27,0,0,1-4.53,0c0-1.25,3-3.78,2.26-6.8C366,97.45,366.79,101.86,366.79,103.11Z" style="fill:#fbb03b"/><path d="M342.07,159.29c0,1.57-7.93,1.57-7.93,0V100.41c0,1.14,7.93,1.14,7.93,0Z" style="fill:#95ffaf"/><path d="M334.14,151.93c1.49,3.92,3.9,6.67,7.93,7.41" style="fill:none;stroke:#d9ff97;stroke-linecap:round;stroke-linejoin:round;stroke-width:5px"/><path d="M334.14,141.81c1.49,3.92,3.9,6.68,7.93,7.42" style="fill:none;stroke:#d9ff97;stroke-linecap:round;stroke-linejoin:round;stroke-width:5px"/><path d="M334.14,131.7c1.49,3.92,3.9,6.67,7.93,7.41" style="fill:none;stroke:#d9ff97;stroke-linecap:round;stroke-linejoin:round;stroke-width:5px"/><path d="M334.14,121.59c1.49,3.91,3.9,6.67,7.93,7.41" style="fill:none;stroke:#d9ff97;stroke-linecap:round;stroke-linejoin:round;stroke-width:5px"/><path d="M334.14,111.47c1.49,3.92,3.9,6.67,7.93,7.41" style="fill:none;stroke:#d9ff97;stroke-linecap:round;stroke-linejoin:round;stroke-width:5px"/><path d="M334.14,101.36c1.49,3.92,3.9,6.67,7.93,7.41" style="fill:none;stroke:#d9ff97;stroke-linecap:round;stroke-linejoin:round;stroke-width:5px"/><ellipse cx="338.11" cy="100.41" rx="3.96" ry="0.94" style="fill:#d9ff97"/><path d="M338.11,100.41a6,6,0,0,1-.38-2.83c.19-1.51,0-1.85,0-1.85" style="fill:none;stroke:#252b39;stroke-linecap:round;stroke-linejoin:round;stroke-width:2px"/><path d="M340,96.83a2.27,2.27,0,0,1-4.53,0c0-1.25,3-3.78,2.27-6.8C339.24,91.17,340,95.58,340,96.83Z" style="fill:#fbb03b"/><path d="M301.46,159.29c0,1.57-7.92,1.57-7.92,0V100.41c0,1.14,7.92,1.14,7.92,0Z" style="fill:#a4bcff"/><path d="M293.54,151.93c1.48,3.92,3.9,6.67,7.92,7.41" style="fill:none;stroke:#a6ffe2;stroke-linecap:round;stroke-linejoin:round;stroke-width:5px"/><path d="M293.54,141.81c1.48,3.92,3.9,6.68,7.92,7.42" style="fill:none;stroke:#a6ffe2;stroke-linecap:round;stroke-linejoin:round;stroke-width:5px"/><path d="M293.54,131.7c1.48,3.92,3.9,6.67,7.92,7.41" style="fill:none;stroke:#a6ffe2;stroke-linecap:round;stroke-linejoin:round;stroke-width:5px"/><path d="M293.54,121.59c1.48,3.91,3.9,6.67,7.92,7.41" style="fill:none;stroke:#a6ffe2;stroke-linecap:round;stroke-linejoin:round;stroke-width:5px"/><path d="M293.54,111.47c1.48,3.92,3.9,6.67,7.92,7.41" style="fill:none;stroke:#a6ffe2;stroke-linecap:round;stroke-linejoin:round;stroke-width:5px"/><path d="M293.54,101.36c1.48,3.92,3.9,6.67,7.92,7.41" style="fill:none;stroke:#a6ffe2;stroke-linecap:round;stroke-linejoin:round;stroke-width:5px"/><ellipse cx="297.5" cy="100.41" rx="3.96" ry="0.94" style="fill:#a6ffe2"/><path d="M297.5,100.41a6,6,0,0,1-.38-2.83c.19-1.51,0-1.85,0-1.85" style="fill:none;stroke:#252b39;stroke-linecap:round;stroke-linejoin:round;stroke-width:2px"/><path d="M299.39,96.83a2.27,2.27,0,0,1-4.53,0c0-1.25,3-3.78,2.26-6.8C298.63,91.17,299.39,95.58,299.39,96.83Z" style="fill:#fbb03b"/><polygon points="511.84 450.33 117.07 450.33 117.91 382.09 52.18 137.19 578.82 142.21 511 382.09 511.84 450.33" style="fill:none"/></g></g></svg>