<svg xmlns="http://www.w3.org/2000/svg" viewBox="0 0 260 260"><g id="Layer_2" data-name="Layer 2"><g id="Layer_1-2" data-name="Layer 1"><rect x="5" y="5" width="250" height="250" rx="35.06" style="fill:#fffba4;stroke:#ff8fa9;stroke-miterlimit:10;stroke-width:10px"/><path d="M131.31,48.75c-55.22,0-100,6.87-100,15.33l.13,42.23a2.59,2.59,0,0,0-.13.77l.13,42.23a2.59,2.59,0,0,0-.13.77l.13,42.59c0,8.46,44.77,15.32,100,15.32,53.54,0,97.25-6.44,99.87-14.55V64.08C231.31,55.62,186.54,48.75,131.31,48.75Z" style="fill:#f9f9f7;stroke:#754c24;stroke-linecap:round;stroke-linejoin:round"/><path d="M236.4,192.05c0,3.1-3.3,5.62-7.39,5.62s-7.39-2.52-7.39-5.62c0-2.64,3.2-5.4,6-7.54a2.43,2.43,0,0,1,2.84,0C233,186.51,236.4,189.47,236.4,192.05Z" style="fill:#f9fafc;stroke:#754c24;stroke-miterlimit:10"/><path d="M228.74,195.11c0,3.35-3.57,6.06-8,6.06s-8-2.71-8-6.06c0-2.84,3.45-5.81,6.45-8.13a2.63,2.63,0,0,1,3.05,0C225.07,189.15,228.74,192.33,228.74,195.11Z" style="fill:#f9fafc;stroke:#754c24;stroke-miterlimit:10"/><path d="M220.85,196.72c0,3.55-3.78,6.42-8.44,6.42s-8.45-2.87-8.45-6.42c0-3,3.66-6.16,6.83-8.62a2.78,2.78,0,0,1,3.24,0C217,190.4,220.85,193.77,220.85,196.72Z" style="fill:#f9fafc;stroke:#754c24;stroke-miterlimit:10"/><path d="M210.56,199.06c0,3.95-4.21,7.15-9.4,7.15s-9.4-3.2-9.4-7.15c0-3.35,4.08-6.85,7.61-9.58a3.09,3.09,0,0,1,3.6,0C206.23,192,210.56,195.78,210.56,199.06Z" style="fill:#f9fafc;stroke:#754c24;stroke-miterlimit:10"/><path d="M198.29,200.85c0,4.05-4.31,7.33-9.63,7.33S179,204.9,179,200.85c0-3.44,4.17-7,7.79-9.83a3.18,3.18,0,0,1,3.7,0C193.85,193.64,198.29,197.49,198.29,200.85Z" style="fill:#f9fafc;stroke:#754c24;stroke-miterlimit:10"/><path d="M185.81,203.29c0,4.39-4.69,8-10.47,8s-10.47-3.57-10.47-8c0-3.74,4.54-7.64,8.47-10.68a3.44,3.44,0,0,1,4,0C181,195.45,185.81,199.63,185.81,203.29Z" style="fill:#f9fafc;stroke:#754c24;stroke-miterlimit:10"/><path d="M23.6,192.05c0,3.1,3.3,5.62,7.39,5.62s7.39-2.52,7.39-5.62c0-2.64-3.2-5.4-6-7.54a2.43,2.43,0,0,0-2.84,0C27,186.51,23.6,189.47,23.6,192.05Z" style="fill:#f9fafc;stroke:#754c24;stroke-miterlimit:10"/><path d="M31.26,195.11c0,3.35,3.57,6.06,8,6.06s8-2.71,8-6.06c0-2.84-3.45-5.81-6.45-8.13a2.63,2.63,0,0,0-3,0C34.93,189.15,31.26,192.33,31.26,195.11Z" style="fill:#f9fafc;stroke:#754c24;stroke-miterlimit:10"/><path d="M39.15,196.72c0,3.55,3.78,6.42,8.44,6.42S56,200.27,56,196.72c0-3-3.66-6.16-6.83-8.62a2.78,2.78,0,0,0-3.24,0C43,190.4,39.15,193.77,39.15,196.72Z" style="fill:#f9fafc;stroke:#754c24;stroke-miterlimit:10"/><path d="M49.44,199.06c0,3.95,4.21,7.15,9.4,7.15s9.4-3.2,9.4-7.15c0-3.35-4.08-6.85-7.61-9.58a3.09,3.09,0,0,0-3.6,0C53.77,192,49.44,195.78,49.44,199.06Z" style="fill:#f9fafc;stroke:#754c24;stroke-miterlimit:10"/><path d="M61.71,200.85c0,4.05,4.31,7.33,9.63,7.33S81,204.9,81,200.85c0-3.44-4.17-7-7.79-9.83a3.18,3.18,0,0,0-3.7,0C66.15,193.64,61.71,197.49,61.71,200.85Z" style="fill:#f9fafc;stroke:#754c24;stroke-miterlimit:10"/><path d="M74.19,203.29c0,4.39,4.69,8,10.47,8s10.47-3.57,10.47-8c0-3.74-4.54-7.64-8.47-10.68a3.44,3.44,0,0,0-4,0C79,195.45,74.19,199.63,74.19,203.29Z" style="fill:#f9fafc;stroke:#754c24;stroke-miterlimit:10"/></g></g></svg>