<svg xmlns="http://www.w3.org/2000/svg" viewBox="0 0 260 260"><g id="Layer_2" data-name="Layer 2"><g id="Layer_1-2" data-name="Layer 1"><rect x="5" y="5" width="250" height="250" rx="35.06" style="fill:#fffba4;stroke:#ff8fa9;stroke-miterlimit:10;stroke-width:10px"/><path d="M130,65.49c-55.23,0-100,6.86-100,15.33l.12,42.23a2.58,2.58,0,0,0-.12.77l.12,42.23a2.58,2.58,0,0,0-.12.77l.13,42.59c0,8.46,44.77,15.32,100,15.32,53.53,0,97.24-6.45,99.87-14.55V80.82C230,72.35,185.23,65.49,130,65.49Z" style="fill:#f9f9f7;stroke:#754c24;stroke-linecap:round;stroke-linejoin:round"/><path d="M89.86,84c0,.85-4.32.85-4.32,0V51.92c0,.62,4.32.62,4.32,0Z" style="fill:#ffb18d"/><path d="M85.54,80c.81,2.13,2.12,3.63,4.32,4" style="fill:none;stroke:#ff8fa9;stroke-linecap:round;stroke-linejoin:round"/><path d="M85.54,74.48c.81,2.13,2.12,3.63,4.32,4" style="fill:none;stroke:#ff8fa9;stroke-linecap:round;stroke-linejoin:round"/><path d="M85.54,69c.81,2.13,2.12,3.63,4.32,4" style="fill:none;stroke:#ff8fa9;stroke-linecap:round;stroke-linejoin:round"/><path d="M85.54,63.46c.81,2.13,2.12,3.63,4.32,4" style="fill:none;stroke:#ff8fa9;stroke-linecap:round;stroke-linejoin:round"/><path d="M85.54,58c.81,2.13,2.12,3.63,4.32,4" style="fill:none;stroke:#ff8fa9;stroke-linecap:round;stroke-linejoin:round"/><path d="M85.54,52.44c.81,2.13,2.12,3.63,4.32,4" style="fill:none;stroke:#ff8fa9;stroke-linecap:round;stroke-linejoin:round"/><ellipse cx="87.7" cy="51.92" rx="2.16" ry="0.51" style="fill:#ff8fa9"/><path d="M87.7,51.92a3.32,3.32,0,0,1-.21-1.54c.11-.82,0-1,0-1" style="fill:none;stroke:#252b39;stroke-linecap:round;stroke-linejoin:round"/><path d="M88.73,50a1.24,1.24,0,0,1-2.47,0c0-.68,1.64-2.06,1.23-3.7C88.32,46.88,88.73,49.29,88.73,50Z" style="fill:#fbb03b"/><path d="M154.8,74.37c0,.86-4.31.86-4.31,0V42.3c0,.62,4.31.62,4.31,0Z" style="fill:#ffb18d"/><path d="M150.49,70.36c.81,2.14,2.12,3.64,4.31,4" style="fill:none;stroke:#ff8fa9;stroke-linecap:round;stroke-linejoin:round"/><path d="M150.49,64.85c.81,2.14,2.12,3.64,4.31,4" style="fill:none;stroke:#ff8fa9;stroke-linecap:round;stroke-linejoin:round"/><path d="M150.49,59.34c.81,2.14,2.12,3.64,4.31,4" style="fill:none;stroke:#ff8fa9;stroke-linecap:round;stroke-linejoin:round"/><path d="M150.49,53.83c.81,2.14,2.12,3.64,4.31,4" style="fill:none;stroke:#ff8fa9;stroke-linecap:round;stroke-linejoin:round"/><path d="M150.49,48.32c.81,2.14,2.12,3.64,4.31,4" style="fill:none;stroke:#ff8fa9;stroke-linecap:round;stroke-linejoin:round"/><path d="M150.49,42.81c.81,2.14,2.12,3.64,4.31,4" style="fill:none;stroke:#ff8fa9;stroke-linecap:round;stroke-linejoin:round"/><ellipse cx="152.65" cy="42.3" rx="2.16" ry="0.51" style="fill:#ff8fa9"/><path d="M152.65,42.3a3.34,3.34,0,0,1-.21-1.55c.1-.82,0-1,0-1" style="fill:none;stroke:#252b39;stroke-linecap:round;stroke-linejoin:round"/><path d="M153.67,40.34a1.23,1.23,0,1,1-2.46,0c0-.68,1.64-2.05,1.23-3.7C153.26,37.26,153.67,39.66,153.67,40.34Z" style="fill:#fbb03b"/><path d="M219.75,81.25c0,.85-4.32.85-4.32,0V49.17c0,.62,4.32.62,4.32,0Z" style="fill:#ffb18d"/><path d="M215.43,77.24c.81,2.13,2.13,3.63,4.32,4" style="fill:none;stroke:#ff8fa9;stroke-linecap:round;stroke-linejoin:round"/><path d="M215.43,71.73c.81,2.13,2.13,3.63,4.32,4" style="fill:none;stroke:#ff8fa9;stroke-linecap:round;stroke-linejoin:round"/><path d="M215.43,66.22c.81,2.13,2.13,3.63,4.32,4" style="fill:none;stroke:#ff8fa9;stroke-linecap:round;stroke-linejoin:round"/><path d="M215.43,60.71c.81,2.13,2.13,3.63,4.32,4" style="fill:none;stroke:#ff8fa9;stroke-linecap:round;stroke-linejoin:round"/><path d="M215.43,55.2c.81,2.13,2.13,3.63,4.32,4" style="fill:none;stroke:#ff8fa9;stroke-linecap:round;stroke-linejoin:round"/><path d="M215.43,49.69c.81,2.13,2.13,3.63,4.32,4" style="fill:none;stroke:#ff8fa9;stroke-linecap:round;stroke-linejoin:round"/><ellipse cx="217.59" cy="49.17" rx="2.16" ry="0.51" style="fill:#ff8fa9"/><path d="M217.59,49.17a3.24,3.24,0,0,1-.2-1.54c.1-.82,0-1,0-1" style="fill:none;stroke:#252b39;stroke-linecap:round;stroke-linejoin:round"/><path d="M218.62,47.22a1.24,1.24,0,0,1-2.47,0c0-.68,1.65-2.06,1.24-3.7C218.21,44.13,218.62,46.54,218.62,47.22Z" style="fill:#fbb03b"/><path d="M68.21,75.75c0,.85-4.32.85-4.32,0V43.67c0,.62,4.32.62,4.32,0Z" style="fill:#95ffaf"/><path d="M63.89,71.74c.81,2.13,2.12,3.63,4.32,4" style="fill:none;stroke:#d9ff97;stroke-linecap:round;stroke-linejoin:round"/><path d="M63.89,66.23c.81,2.13,2.12,3.63,4.32,4" style="fill:none;stroke:#d9ff97;stroke-linecap:round;stroke-linejoin:round"/><path d="M63.89,60.72c.81,2.13,2.12,3.63,4.32,4" style="fill:none;stroke:#d9ff97;stroke-linecap:round;stroke-linejoin:round"/><path d="M63.89,55.21c.81,2.13,2.12,3.63,4.32,4" style="fill:none;stroke:#d9ff97;stroke-linecap:round;stroke-linejoin:round"/><path d="M63.89,49.7c.81,2.13,2.12,3.63,4.32,4" style="fill:none;stroke:#d9ff97;stroke-linecap:round;stroke-linejoin:round"/><path d="M63.89,44.19c.81,2.13,2.12,3.63,4.32,4" style="fill:none;stroke:#d9ff97;stroke-linecap:round;stroke-linejoin:round"/><ellipse cx="66.05" cy="43.67" rx="2.16" ry="0.51" style="fill:#d9ff97"/><path d="M66.05,43.67a3.32,3.32,0,0,1-.21-1.54c.11-.82,0-1,0-1" style="fill:none;stroke:#252b39;stroke-linecap:round;stroke-linejoin:round"/><path d="M67.08,41.72a1.24,1.24,0,0,1-2.47,0c0-.68,1.64-2.06,1.23-3.7C66.67,38.63,67.08,41,67.08,41.72Z" style="fill:#fbb03b"/><path d="M176.45,79.87c0,.86-4.31.86-4.31,0V47.8c0,.62,4.31.62,4.31,0Z" style="fill:#95ffaf"/><path d="M172.14,75.86c.8,2.14,2.12,3.64,4.31,4" style="fill:none;stroke:#d9ff97;stroke-linecap:round;stroke-linejoin:round"/><path d="M172.14,70.35c.8,2.14,2.12,3.64,4.31,4" style="fill:none;stroke:#d9ff97;stroke-linecap:round;stroke-linejoin:round"/><path d="M172.14,64.84c.8,2.14,2.12,3.64,4.31,4" style="fill:none;stroke:#d9ff97;stroke-linecap:round;stroke-linejoin:round"/><path d="M172.14,59.33c.8,2.14,2.12,3.64,4.31,4" style="fill:none;stroke:#d9ff97;stroke-linecap:round;stroke-linejoin:round"/><path d="M172.14,53.82c.8,2.14,2.12,3.64,4.31,4" style="fill:none;stroke:#d9ff97;stroke-linecap:round;stroke-linejoin:round"/><path d="M172.14,48.31c.8,2.14,2.12,3.64,4.31,4" style="fill:none;stroke:#d9ff97;stroke-linecap:round;stroke-linejoin:round"/><ellipse cx="174.29" cy="47.8" rx="2.16" ry="0.51" style="fill:#d9ff97"/><path d="M174.29,47.8a3.42,3.42,0,0,1-.2-1.55c.1-.82,0-1,0-1" style="fill:none;stroke:#252b39;stroke-linecap:round;stroke-linejoin:round"/><path d="M175.32,45.84a1.23,1.23,0,1,1-2.46,0c0-.68,1.64-2.05,1.23-3.7C174.91,42.76,175.32,45.16,175.32,45.84Z" style="fill:#fbb03b"/><path d="M111.51,73c0,.85-4.32.85-4.32,0V40.92c0,.62,4.32.62,4.32,0Z" style="fill:#95ffaf"/><path d="M107.19,69c.81,2.13,2.12,3.63,4.32,4" style="fill:none;stroke:#d9ff97;stroke-linecap:round;stroke-linejoin:round"/><path d="M107.19,63.48c.81,2.13,2.12,3.63,4.32,4" style="fill:none;stroke:#d9ff97;stroke-linecap:round;stroke-linejoin:round"/><path d="M107.19,58c.81,2.13,2.12,3.63,4.32,4" style="fill:none;stroke:#d9ff97;stroke-linecap:round;stroke-linejoin:round"/><path d="M107.19,52.46c.81,2.13,2.12,3.63,4.32,4" style="fill:none;stroke:#d9ff97;stroke-linecap:round;stroke-linejoin:round"/><path d="M107.19,47c.81,2.13,2.12,3.63,4.32,4" style="fill:none;stroke:#d9ff97;stroke-linecap:round;stroke-linejoin:round"/><path d="M107.19,41.44c.81,2.13,2.12,3.63,4.32,4" style="fill:none;stroke:#d9ff97;stroke-linecap:round;stroke-linejoin:round"/><ellipse cx="109.35" cy="40.92" rx="2.16" ry="0.51" style="fill:#d9ff97"/><path d="M109.35,40.92a3.32,3.32,0,0,1-.21-1.54c.1-.82,0-1,0-1" style="fill:none;stroke:#252b39;stroke-linecap:round;stroke-linejoin:round"/><path d="M110.38,39a1.24,1.24,0,0,1-2.47,0c0-.68,1.64-2.06,1.23-3.7C110,35.88,110.38,38.29,110.38,39Z" style="fill:#fbb03b"/><path d="M46.56,78.5c0,.85-4.32.85-4.32,0V46.42c0,.62,4.32.62,4.32,0Z" style="fill:#a4bcff"/><path d="M42.24,74.49c.81,2.13,2.13,3.63,4.32,4" style="fill:none;stroke:#a6ffe2;stroke-linecap:round;stroke-linejoin:round"/><path d="M42.24,69c.81,2.13,2.13,3.63,4.32,4" style="fill:none;stroke:#a6ffe2;stroke-linecap:round;stroke-linejoin:round"/><path d="M42.24,63.47c.81,2.13,2.13,3.63,4.32,4" style="fill:none;stroke:#a6ffe2;stroke-linecap:round;stroke-linejoin:round"/><path d="M42.24,58c.81,2.13,2.13,3.63,4.32,4" style="fill:none;stroke:#a6ffe2;stroke-linecap:round;stroke-linejoin:round"/><path d="M42.24,52.45c.81,2.13,2.13,3.63,4.32,4" style="fill:none;stroke:#a6ffe2;stroke-linecap:round;stroke-linejoin:round"/><path d="M42.24,46.94c.81,2.13,2.13,3.63,4.32,4" style="fill:none;stroke:#a6ffe2;stroke-linecap:round;stroke-linejoin:round"/><ellipse cx="44.4" cy="46.42" rx="2.16" ry="0.51" style="fill:#a6ffe2"/><path d="M44.4,46.42a3.32,3.32,0,0,1-.21-1.54c.11-.82,0-1,0-1" style="fill:none;stroke:#252b39;stroke-linecap:round;stroke-linejoin:round"/><path d="M45.43,44.47a1.24,1.24,0,0,1-2.47,0c0-.68,1.65-2.06,1.23-3.7C45,41.38,45.43,43.79,45.43,44.47Z" style="fill:#fbb03b"/><path d="M133.16,82.62c0,.86-4.32.86-4.32,0V50.55c0,.62,4.32.62,4.32,0Z" style="fill:#a4bcff"/><path d="M128.84,78.61c.81,2.14,2.12,3.64,4.32,4" style="fill:none;stroke:#a6ffe2;stroke-linecap:round;stroke-linejoin:round"/><path d="M128.84,73.1c.81,2.14,2.12,3.64,4.32,4" style="fill:none;stroke:#a6ffe2;stroke-linecap:round;stroke-linejoin:round"/><path d="M128.84,67.59c.81,2.14,2.12,3.64,4.32,4" style="fill:none;stroke:#a6ffe2;stroke-linecap:round;stroke-linejoin:round"/><path d="M128.84,62.08c.81,2.14,2.12,3.64,4.32,4" style="fill:none;stroke:#a6ffe2;stroke-linecap:round;stroke-linejoin:round"/><path d="M128.84,56.57c.81,2.14,2.12,3.64,4.32,4" style="fill:none;stroke:#a6ffe2;stroke-linecap:round;stroke-linejoin:round"/><path d="M128.84,51.06c.81,2.14,2.12,3.64,4.32,4" style="fill:none;stroke:#a6ffe2;stroke-linecap:round;stroke-linejoin:round"/><ellipse cx="131" cy="50.55" rx="2.16" ry="0.51" style="fill:#a6ffe2"/><path d="M131,50.55a3.34,3.34,0,0,1-.21-1.55c.1-.82,0-1,0-1" style="fill:none;stroke:#252b39;stroke-linecap:round;stroke-linejoin:round"/><path d="M132,48.59a1.23,1.23,0,1,1-2.46,0c0-.68,1.64-2.05,1.23-3.7C131.61,45.51,132,47.91,132,48.59Z" style="fill:#fbb03b"/><path d="M198.1,77.12c0,.86-4.31.86-4.31,0V45.05c0,.62,4.31.62,4.31,0Z" style="fill:#a4bcff"/><path d="M193.79,73.11c.8,2.14,2.12,3.64,4.31,4" style="fill:none;stroke:#a6ffe2;stroke-linecap:round;stroke-linejoin:round"/><path d="M193.79,67.6c.8,2.14,2.12,3.64,4.31,4" style="fill:none;stroke:#a6ffe2;stroke-linecap:round;stroke-linejoin:round"/><path d="M193.79,62.09c.8,2.14,2.12,3.64,4.31,4" style="fill:none;stroke:#a6ffe2;stroke-linecap:round;stroke-linejoin:round"/><path d="M193.79,56.58c.8,2.14,2.12,3.64,4.31,4" style="fill:none;stroke:#a6ffe2;stroke-linecap:round;stroke-linejoin:round"/><path d="M193.79,51.07c.8,2.14,2.12,3.64,4.31,4" style="fill:none;stroke:#a6ffe2;stroke-linecap:round;stroke-linejoin:round"/><path d="M193.79,45.56c.8,2.14,2.12,3.64,4.31,4" style="fill:none;stroke:#a6ffe2;stroke-linecap:round;stroke-linejoin:round"/><ellipse cx="195.94" cy="45.05" rx="2.16" ry="0.51" style="fill:#a6ffe2"/><path d="M195.94,45.05a3.42,3.42,0,0,1-.2-1.55c.1-.82,0-1,0-1" style="fill:none;stroke:#252b39;stroke-linecap:round;stroke-linejoin:round"/><path d="M197,43.09a1.24,1.24,0,1,1-2.47,0c0-.68,1.65-2.05,1.24-3.7C196.56,40,197,42.41,197,43.09Z" style="fill:#fbb03b"/></g></g></svg>