<svg xmlns="http://www.w3.org/2000/svg" viewBox="0 0 260 260"><g id="Layer_2" data-name="Layer 2"><g id="Layer_1-2" data-name="Layer 1"><rect x="5" y="5" width="250" height="250" rx="35.06" style="fill:#ff8fa9;stroke:#fffba4;stroke-miterlimit:10;stroke-width:10px"/><ellipse cx="133.38" cy="154.38" rx="100" ry="15.33" style="fill:#fff;stroke:#754c24;stroke-linecap:round;stroke-linejoin:round"/><path d="M33.38,154.38c0,8.46,44.77,15.33,100,15.33s100-6.87,100-15.33v43.36c-2.63,8.11-46.34,14.55-99.87,14.55-55.23,0-100-6.86-100-15.32Z" style="fill:#fff;stroke:#754c24;stroke-linecap:round;stroke-linejoin:round"/><ellipse cx="133.38" cy="111.38" rx="100" ry="15.33" style="fill:#fff;stroke:#754c24;stroke-linecap:round;stroke-linejoin:round"/><path d="M33.38,111.38c0,8.46,44.77,15.33,100,15.33s100-6.87,100-15.33v43.36c-2.63,8.11-46.34,14.55-99.87,14.55-55.23,0-100-6.86-100-15.32Z" style="fill:#fff;stroke:#754c24;stroke-linecap:round;stroke-linejoin:round"/><ellipse cx="133.38" cy="68.38" rx="100" ry="15.33" style="fill:#fff;stroke:#754c24;stroke-linecap:round;stroke-linejoin:round"/><path d="M33.38,68.38c0,8.46,44.77,15.33,100,15.33s100-6.87,100-15.33v43.36c-2.63,8.11-46.34,14.55-99.87,14.55-55.23,0-100-6.86-100-15.32Z" style="fill:#fff;stroke:#754c24;stroke-linecap:round;stroke-linejoin:round"/></g></g></svg>