<svg xmlns="http://www.w3.org/2000/svg" viewBox="0 0 1259.6 449.66"><g id="Layer_2" data-name="Layer 2"><g id="Layer_2-2" data-name="Layer 2"><path d="M744.25,177H517.66c-.36,98.93,10.24,206.3-58.56,252.63-5.39,3.63-2,10.37,5.22,10.37a1442,1442,0,0,0,333.26,0c7.22,0,10.62-6.74,5.23-10.37C734,383.3,744.61,275.93,744.25,177Z" style="fill:#ff3863"/><path d="M72.07,188c-6.52,17.35-26.22,26.87-45.33,21S-3.4,184.19.94,166.17Q36.35,177.84,72.07,188Z" style="fill:#ff8fa9"/><path d="M1185,187.43c6.52,17.35,26.22,26.87,45.33,21s30.14-24.82,25.81-42.84Q1220.71,177.25,1185,187.43Z" style="fill:#ff8fa9"/><path d="M629.55,316.81c1.49,18.48,17.57,33,37.22,32.65s35.15-15.55,35.92-34.07Q666.14,316.83,629.55,316.81Z" style="fill:#ff8fa9"/><path d="M700.6,315.47c2.2,18.4,18.84,32.33,38.47,31.17s34.54-16.91,34.58-35.44Q737.17,314.07,700.6,315.47Z" style="fill:#ff8fa9"/><path d="M771.57,311.36c2.92,18.3,20.1,31.57,39.68,29.65s33.88-18.25,33.2-36.77Q808.08,308.53,771.57,311.36Z" style="fill:#ff8fa9"/><path d="M842.37,304.48c3.64,18.17,21.33,30.76,40.85,28.07S916.4,313,915,294.51Q878.78,300.23,842.37,304.48Z" style="fill:#ff8fa9"/><path d="M912.93,294.83c4.34,18,22.54,29.9,42,26.45s32.45-20.86,30.33-39.27Q949.18,289.15,912.93,294.83Z" style="fill:#ff8fa9"/><path d="M983.16,282.42c5.05,17.83,23.72,29,43,24.77s31.67-22.13,28.84-40.45Q1019.21,275.32,983.16,282.42Z" style="fill:#ff8fa9"/><path d="M1053,267.23c5.74,17.63,24.87,28,44,23s30.86-23.38,27.31-41.57Q1088.81,258.7,1053,267.23Z" style="fill:#ff8fa9"/><path d="M1122.31,249.28c6.43,17.38,26,27,45,21.27s30-24.6,25.76-42.64Q1157.85,239.33,1122.31,249.28Z" style="fill:#ff8fa9"/><path d="M1185.38,232.23c8.85,16.29,29.62,23,47.67,14.61s25.18-38.59,18.4-55.84C1229.23,201.91,1208,222.26,1185.38,232.23Z" style="fill:#ff8fa9"/><path d="M68.13,227.91c-4.26,18,6.74,36.91,25.75,42.64s38.57-3.89,45-21.27Q103.34,239.32,68.13,227.91Z" style="fill:#ff8fa9"/><path d="M136.86,248.71c-3.55,18.19,8.14,36.6,27.31,41.57s38.3-5.42,44-23Q172.39,258.71,136.86,248.71Z" style="fill:#ff8fa9"/><path d="M206.17,266.74C203.33,285.06,215.7,303,235,307.19s38-6.94,43-24.77Q242,275.31,206.17,266.74Z" style="fill:#ff8fa9"/><path d="M276,282c-2.12,18.41,10.91,35.83,30.33,39.27s37.62-8.43,42-26.45Q312,289.16,276,282Z" style="fill:#ff8fa9"/><path d="M346.19,294.51c-1.4,18.48,12.27,35.37,31.79,38s37.21-9.89,40.84-28.07Q382.43,300.22,346.19,294.51Z" style="fill:#ff8fa9"/><path d="M416.74,304.24c-.68,18.52,13.62,34.86,33.2,36.77s36.76-11.35,39.68-29.65Q453.13,308.53,416.74,304.24Z" style="fill:#ff8fa9"/><path d="M487.54,311.2c0,18.53,14.95,34.3,34.58,35.44s36.27-12.77,38.47-31.17Q524,314.06,487.54,311.2Z" style="fill:#ff8fa9"/><path d="M558.5,315.39c.77,18.52,16.27,33.69,35.92,34.07s35.74-14.17,37.22-32.65Q595.07,316.84,558.5,315.39Z" style="fill:#ff8fa9"/><path d="M1258.52,147c0-81.19-281.61-147-629-147S.52,65.81.52,147c0,3.8-.14,19.06-.14,23,0,81.19,281.61,147,629,147s629-65.81,629-147C1258.38,166.2,1258.52,150.94,1258.52,147Z" style="fill:#ff8fa9"/><ellipse cx="630.6" cy="147" rx="629" ry="147" style="fill:#ff3863"/><path d="M71.68,232.82c-8.84,16.3-29.61,23-47.67,14.61s-25.18-38.58-18.4-55.84C27.84,202.51,49.11,222.86,71.68,232.82Z" style="fill:#ff8fa9"/></g></g></svg>