<svg xmlns="http://www.w3.org/2000/svg" viewBox="0 0 260 260"><g id="Layer_2" data-name="Layer 2"><g id="Layer_1-2" data-name="Layer 1"><rect x="5" y="5" width="250" height="250" rx="35.06" style="fill:#ff8fa9;stroke:#fffba4;stroke-miterlimit:10;stroke-width:10px"/><path d="M230,152.46V66.07c0-8.46-44.77-15.32-100-15.32S30,57.61,30,66.07l.12,42.24a2.51,2.51,0,0,0-.12.76l.13,42.59h0a3,3,0,0,0-.13.9l.13,42.58c0,6.24,24.28,11.6,59.14,14l40.73-14,39.4,14.07c34.24-2.24,58.66-7.33,60.6-13.32V152.57S230,152.49,230,152.46Z" style="fill:#fff;stroke:#754c24;stroke-linecap:round;stroke-linejoin:round"/><path d="M129.67,68l39.71,14.2a632.74,632.74,0,0,1-80.76-.09Z" style="fill:#66290e"/><path d="M129.67,83.39c-14.62,0-28.51-.47-41-1.33v86.13h0v37.36l41-14.11,39.71,14.2V168.28h0V82.15C157.19,83,143.77,83.39,129.67,83.39Z" style="fill:#66290e"/><line x1="129.67" y1="70.09" x2="129.67" y2="195.14" style="fill:none;stroke:#541f0a;stroke-miterlimit:10;stroke-width:9px"/><path d="M109.34,97.42a6.47,6.47,0,0,1-1.7,1.75,1.62,1.62,0,0,1-1.49-2.23c-.56-.74.15-1.35,1.33-1.41C108.79,95.78,109.24,96.05,109.34,97.42Z" style="fill:#541f0a"/><path d="M126.5,80.24c-.46,1.36-1.42,1.65-1.79,1.63-1.38.21-1.95-.68-1.65-1.26.22-1.27.25-1.59,1.61-1.72C125,78.74,125.9,79.48,126.5,80.24Z" style="fill:#541f0a"/><path d="M94.85,91.21a3,3,0,0,1-2.09,2c-.37.15-1.47-1-1.41-2-.38-.76,1-1.21,1.87-1.42A1.4,1.4,0,0,1,94.85,91.21Z" style="fill:#541f0a"/><path d="M126.55,101.13c-.21,1-.88,2-2.19,1.64-.83.27-1.46-.49-1.87-1.29.44-1.34,1.46-2,1.83-1.66C125.22,99.38,126.05,100.6,126.55,101.13Z" style="fill:#541f0a"/><path d="M106.6,109.34c-.42.38-1.46,1.43-1.64,1.52-1.47-.06-2.37-.8-2.4-1.86.47-1.14.72-1.59,2-1.48C105.63,107.52,106.27,107.9,106.6,109.34Z" style="fill:#541f0a"/><path d="M117,100.78a.82.82,0,0,1-.83.63c-.25.15-.76-.5-.76-.78.09-.54.56-.87.67-.82A.84.84,0,0,1,117,100.78Z" style="fill:#541f0a"/><path d="M115.72,111.66c.14.21-.36.7-.53.74a1.22,1.22,0,0,1-1-1c.07-.33.36-.5.82-.54S115.72,111.13,115.72,111.66Z" style="fill:#541f0a"/><path d="M109.71,89.54c.27.69-.18,1-.44.78-.69.16-1-.25-.8-.51,0-.71.17-1,.71-1C109.36,88.87,109.87,89.33,109.71,89.54Z" style="fill:#541f0a"/><path d="M100.74,93.2c-.11.36-.24.78-.65.92s-.78-.34-1.13-.88a1.41,1.41,0,0,1,.85-.83A.73.73,0,0,1,100.74,93.2Z" style="fill:#541f0a"/><path d="M98.66,106.26c-.16.45-.52.68-.74.59-.58.19-.73-.32-1-.52a2.15,2.15,0,0,1,.76-.93A.79.79,0,0,1,98.66,106.26Z" style="fill:#541f0a"/><path d="M93.83,103c.11.64-.16.86-.67.93s-.76-.53-.59-.93c-.29-.47.06-.77.79-.84C93.84,102.43,94.13,102.71,93.83,103Z" style="fill:#541f0a"/><path d="M116.76,85.44c-.1.53-.31.64-.72.87a1.08,1.08,0,0,1-.93-1c.06-.44.39-.68,1.1-.54C116.4,84.63,116.87,85,116.76,85.44Z" style="fill:#541f0a"/><path d="M122.79,109.19a.85.85,0,0,1-.65.77c-.44,0-.77-.32-.73-1,0-.4,0-.53.69-.66A1.1,1.1,0,0,1,122.79,109.19Z" style="fill:#541f0a"/><path d="M102.17,103.07c.49.54-.1.84-.76.74-1.07.06-1.48-.14-1.28-.68s.55-.69,1.35-.89C102.17,102.26,102.77,102.73,102.17,103.07Z" style="fill:#541f0a"/><path d="M105.56,87.61c.4.53-.46.92-.91.8-.85-.11-1.26-.27-1.24-.8-.18-.38.63-.82,1.45-.89C105.27,86.75,105.84,87.31,105.56,87.61Z" style="fill:#541f0a"/><path d="M95.59,116.66a2,2,0,0,1-1.12.76c-.92,0-.84-.37-1.32-.82,0-.65.62-.87,1.39-.91C95.18,115.8,96.05,116.18,95.59,116.66Z" style="fill:#541f0a"/><path d="M125.94,90.25a3.25,3.25,0,0,1-1.45.75c-.68,0-1.13-.43-1-.77-.12-.54.5-.92.74-.78C125.29,89.48,125.86,89.77,125.94,90.25Z" style="fill:#541f0a"/><path d="M116.74,105.6c0,.37-.41.7-1.08.74-.92.1-1.75-.3-1.4-.91-.29-.17.47-.64,1.41-.55C115.87,104.65,116.41,105,116.74,105.6Z" style="fill:#541f0a"/><path d="M150.06,100.78c-.37-1.26-1.32-1.78-1.71-1.61-.65.07-1.94.83-1.49,1.13-.56,1.1.16,2,1.34,1.94C149.51,102.49,150,101.26,150.06,100.78Z" style="fill:#541f0a"/><path d="M167.22,117.15c-.47-.49-1.42-1.71-1.79-1.72-1.38.21-2,.82-1.66,2.1.23.58.26,1.76,1.62,1.63A5.05,5.05,0,0,0,167.22,117.15Z" style="fill:#541f0a"/><path d="M135.57,106.2c-.55-.43-1.37-1.74-2.09-1.4-.38.14-1.48.45-1.41,1.36-.39,1.09,1,2.14,1.86,1.93A1.64,1.64,0,0,0,135.57,106.2Z" style="fill:#541f0a"/><path d="M167.26,96.43c-.21-.85-.87-1.32-2.19-1.72a3.28,3.28,0,0,0-1.86,2.07,21.1,21.1,0,0,0,1.83,1.7A3.45,3.45,0,0,0,167.26,96.43Z" style="fill:#541f0a"/><path d="M147.32,89c-.42-1.47-1.46-1.93-1.65-1.84-1.46-.06-2.36.71-2.39,1.5.47.72.72,1.77,2,1.88C146.34,90.51,147,89.39,147.32,89Z" style="fill:#541f0a"/><path d="M157.75,97.42c-.05-.67-.22-.93-.82-.94-.25.15-.77.21-.77.8a1.76,1.76,0,0,0,.67.74C157.47,98.05,157.76,97.62,157.75,97.42Z" style="fill:#541f0a"/><path d="M156.44,86.38c.13-.66-.37-.86-.53-.83-.32,0-.8.42-1,.62.07.53.35,1.07.82,1S156.43,86.72,156.44,86.38Z" style="fill:#541f0a"/><path d="M150.43,108.1c.27-.17-.19-.58-.44-.78-.69.16-1,.46-.8,1.06a.72.72,0,0,0,.71.61A.65.65,0,0,0,150.43,108.1Z" style="fill:#541f0a"/><path d="M141.45,104.61c-.1-.51-.23-.79-.64-.64a2,2,0,0,0-1.13.68c.16.32.66.83.85.74C141.22,105.28,141.52,105.08,141.45,104.61Z" style="fill:#541f0a"/><path d="M139.37,91.72a2,2,0,0,0-.73-1c-.59.18-.74.37-1,1,.3.25.61.75.76.63A1,1,0,0,0,139.37,91.72Z" style="fill:#541f0a"/><path d="M134.55,94.73c.11-.22-.16-.71-.68-.63s-.76.17-.58.64c-.29.39.06.79.78.72C134.56,95.72,134.84,95.3,134.55,94.73Z" style="fill:#541f0a"/><path d="M157.48,112.51c-.1-.33-.32-.93-.73-.7a.81.81,0,0,0-.92.55,1.26,1.26,0,0,0,1.1,1C157.12,113.27,157.59,113,157.48,112.51Z" style="fill:#541f0a"/><path d="M163.51,88.83c0-.64-.14-1-.65-.79-.44,0-.78.38-.74.6,0,.46.06,1,.7.9C163.11,89.62,163.46,89.31,163.51,88.83Z" style="fill:#541f0a"/><path d="M142.89,94.8c.49-.33-.11-.73-.77-.83-1.06.06-1.48.56-1.27.88a1,1,0,0,0,1.35.68C142.89,95.55,143.48,95.32,142.89,94.8Z" style="fill:#541f0a"/><path d="M146.27,110.21c.4-.34-.45-.65-.91-.77-.84-.11-1.26.43-1.23.77-.18.48.63.74,1.45.67C146,110.91,146.56,110.77,146.27,110.21Z" style="fill:#541f0a"/><path d="M136.3,81.54a.84.84,0,0,0-1.11-.81c-.92,0-.85.33-1.33.75,0,.21.63.69,1.4.65C135.89,82.24,136.76,81.92,136.3,81.54Z" style="fill:#541f0a"/><path d="M166.66,107.93c-.35-.61-.71-1-1.45-.82-.69-.06-1.13.27-1,.8-.11.31.51.64.74.78C166,108.72,166.58,108.31,166.66,107.93Z" style="fill:#541f0a"/><path d="M157.45,92.4a.9.9,0,0,0-1.08-.83c-.92.11-1.75.41-1.39.66-.3.69.47.93,1.41,1C156.58,93,157.13,92.7,157.45,92.4Z" style="fill:#541f0a"/><path d="M109.14,178.68c-.17.72-.39,1.73-1.53,1.25a2.57,2.57,0,0,1-1.94-1.62c0-.65.87-1.53,1.62-1.33C108.44,176.65,109.06,177.23,109.14,178.68Z" style="fill:#541f0a"/><path d="M126.14,161.89c-.2.54-.71,1.61-1.71,1.33a1.3,1.3,0,0,1-1.46-1.67,1.27,1.27,0,0,1,1.74-1.22C125.58,159.7,126.29,161,126.14,161.89Z" style="fill:#541f0a"/><path d="M94.51,172.65c0,.7-.5,1.71-1.28,1.74a2.72,2.72,0,0,1-2.27-2c.42-.31,1.35-1.48,2.09-1.72C94.23,171.07,94.45,171.49,94.51,172.65Z" style="fill:#541f0a"/><path d="M126.43,182.59a2.23,2.23,0,0,1-2.1,1.91,2.67,2.67,0,0,1-1.81-1.84c.35-1.29,1.14-2,1.9-1.72C125.73,180.94,126.45,181.4,126.43,182.59Z" style="fill:#541f0a"/><path d="M106.22,190.32c.35,1.13-.33,1.72-1.27,1.42-1.37.41-2.2-.41-1.9-1.65a1.72,1.72,0,0,1,1.53-1.14C105.76,188.9,106.54,189.31,106.22,190.32Z" style="fill:#541f0a"/><path d="M117.18,181.86c-.08.29-.48.83-.73.75-.7,0-.86-.41-.94-.92s.2-.75.56-.7C116.88,181.09,117,181.43,117.18,181.86Z" style="fill:#541f0a"/><path d="M116,192.8c0,.29-.45.86-.87.66-.23.07-.58-.1-.92-.69a1,1,0,0,1,1.07-.61A.6.6,0,0,1,116,192.8Z" style="fill:#541f0a"/><path d="M109.93,171a1,1,0,0,1-.7.79c-.57-.18-1.11-.56-1.06-.85.07-.54.3-.84.82-.84A.92.92,0,0,1,109.93,171Z" style="fill:#541f0a"/><path d="M100.62,174.34c.06.63-.13.74-.85.76-.25,0-.8-.08-.75-.76.22-.24.54-.81,1-.81C100.46,173.75,100.88,174.1,100.62,174.34Z" style="fill:#541f0a"/><path d="M98.68,187.35c.13.64-.4.82-.94.85a.48.48,0,0,1-.61-.63c.12-.62.24-.84.73-.88S98.49,187,98.68,187.35Z" style="fill:#541f0a"/><path d="M93.91,184.28c.1.44-.35.83-.73.93-.38-.18-.88-.44-.63-1-.22-.3.18-.85.55-.79C93.72,183.57,94,183.86,93.91,184.28Z" style="fill:#541f0a"/><path d="M116.64,166.46c.33.72-.27,1-.53,1a1.1,1.1,0,0,1-1-.95c.36-.16.49-.7,1-.54S116.7,166.34,116.64,166.46Z" style="fill:#541f0a"/><path d="M122.92,190.37c0,.28-.37.61-.76.86-.35-.26-.72-.34-.72-.87-.3-.46.15-.93.46-.7C122.51,189.49,123,190,122.92,190.37Z" style="fill:#541f0a"/><path d="M102.36,184.19c.44.67-.73.79-1.2,1-.5,0-1.41-.6-1-1,0-.37.32-.66,1.41-.81C102,183.44,102.56,183.73,102.36,184.19Z" style="fill:#541f0a"/><path d="M105.9,168.87a1.46,1.46,0,0,1-1.24.92c-.54-.08-1.54-.37-1.59-1a1.16,1.16,0,0,1,1.48-.6C105.32,168,106.11,168.28,105.9,168.87Z" style="fill:#541f0a"/><path d="M95.52,197.69c.53.31-.08.87-1.21.85-.13,0-1-.4-1-.78s.63-.93,1.38-.89C94.92,197,96,197.31,95.52,197.69Z" style="fill:#541f0a"/><path d="M125.58,171.31c.27.52-.5.72-1.11.87a3.37,3.37,0,0,1-1.49-.72,1.6,1.6,0,0,1,1.37-1.06C125.13,170.48,125.81,170.86,125.58,171.31Z" style="fill:#541f0a"/><path d="M116.51,186.76c-.19.51-.34.81-1.06.7a1.41,1.41,0,0,1-1.61-.8c.57-.47.6-.8,1.81-.61C116.13,186,116.8,186.29,116.51,186.76Z" style="fill:#541f0a"/><path d="M150.06,182c-.37-1.26-1.32-1.77-1.71-1.6-.65.07-1.94.83-1.49,1.12a1.28,1.28,0,0,0,1.34,1.95C149.51,183.7,150,182.47,150.06,182Z" style="fill:#541f0a"/><path d="M167.22,198.36c-.47-.49-1.42-1.71-1.79-1.72-1.38.21-2,.82-1.66,2.09.23.58.26,1.76,1.62,1.64A5.05,5.05,0,0,0,167.22,198.36Z" style="fill:#541f0a"/><path d="M135.57,187.41c-.55-.43-1.37-1.75-2.09-1.41-.38.15-1.48.46-1.41,1.37-.39,1.09,1,2.14,1.86,1.93A1.64,1.64,0,0,0,135.57,187.41Z" style="fill:#541f0a"/><path d="M167.26,177.64c-.21-.85-.87-1.32-2.19-1.72a3.26,3.26,0,0,0-1.86,2.07,21.1,21.1,0,0,0,1.83,1.7C165.93,179.24,166.77,179,167.26,177.64Z" style="fill:#541f0a"/><path d="M147.32,170.19c-.42-1.47-1.46-1.93-1.65-1.84-1.46-.06-2.36.71-2.39,1.5.47.72.72,1.77,2,1.88C146.34,171.72,147,170.6,147.32,170.19Z" style="fill:#541f0a"/><path d="M157.75,178.63c-.05-.67-.22-.94-.82-.94-.25.15-.77.21-.77.79a1.74,1.74,0,0,0,.67.75C157.47,179.25,157.76,178.83,157.75,178.63Z" style="fill:#541f0a"/><path d="M156.44,167.59c.13-.66-.37-.87-.53-.83-.32,0-.8.42-1,.62.07.53.35,1.06.82,1S156.43,167.93,156.44,167.59Z" style="fill:#541f0a"/><path d="M150.43,189.31c.27-.17-.19-.59-.44-.78-.69.16-1,.45-.8,1.06a.72.72,0,0,0,.71.61A.65.65,0,0,0,150.43,189.31Z" style="fill:#541f0a"/><path d="M141.45,185.82c-.1-.51-.23-.79-.64-.65a2,2,0,0,0-1.13.69c.16.31.66.83.85.74C141.22,186.49,141.52,186.28,141.45,185.82Z" style="fill:#541f0a"/><path d="M139.37,172.93a2,2,0,0,0-.73-1c-.59.19-.74.38-1,1,.3.25.61.76.76.64A1,1,0,0,0,139.37,172.93Z" style="fill:#541f0a"/><path d="M134.55,175.94c.11-.22-.16-.71-.68-.63s-.76.17-.58.64c-.29.39.06.78.78.72C134.56,176.93,134.84,176.5,134.55,175.94Z" style="fill:#541f0a"/><path d="M157.48,193.71c-.1-.32-.32-.92-.73-.69a.81.81,0,0,0-.92.55,1.26,1.26,0,0,0,1.1,1C157.12,194.48,157.59,194.17,157.48,193.71Z" style="fill:#541f0a"/><path d="M163.51,170c0-.64-.14-1-.65-.79-.44,0-.78.38-.74.6,0,.46.06,1,.7.9C163.11,170.83,163.46,170.52,163.51,170Z" style="fill:#541f0a"/><path d="M142.89,176c.49-.32-.11-.72-.77-.82-1.06.06-1.48.55-1.27.88a1,1,0,0,0,1.35.67C142.89,176.75,143.48,176.53,142.89,176Z" style="fill:#541f0a"/><path d="M146.27,191.42c.4-.34-.45-.65-.91-.78-.84-.1-1.26.44-1.23.78-.18.48.63.74,1.45.67C146,192.12,146.56,192,146.27,191.42Z" style="fill:#541f0a"/><path d="M136.3,162.75a.83.83,0,0,0-1.11-.81c-.92,0-.85.33-1.33.75,0,.21.63.69,1.4.65S136.76,163.13,136.3,162.75Z" style="fill:#541f0a"/><path d="M166.66,189.13c-.35-.6-.71-1-1.45-.81-.69-.06-1.13.27-1,.79-.11.32.51.65.74.79C166,189.93,166.58,189.51,166.66,189.13Z" style="fill:#541f0a"/><path d="M157.45,173.61a.9.9,0,0,0-1.08-.83c-.92.11-1.75.41-1.39.66-.3.69.47.93,1.41,1C156.58,174.22,157.13,173.91,157.45,173.61Z" style="fill:#541f0a"/><path d="M108.67,140.37c-.36-1.26.18-1.77,1.65-1.6,1.2.07,1.41.83,1.87,1.12-.56,1.11-1.35,2-2,2C109.62,142.09,108.56,140.86,108.67,140.37Z" style="fill:#541f0a"/><path d="M91.82,156.75c-.46-.49.09-1.71,1.57-1.72a3,3,0,0,1,1.7,2.09c.23.58-1.24,1.76-1.74,1.64C91.87,158.6,91.23,157.85,91.82,156.75Z" style="fill:#541f0a"/><path d="M123.26,145.79c-.54-.42.14-1.74,1.27-1.4,1.48.15,1.88.46,2,1.37-.39,1.08-.51,2.14-1.5,1.93A2.05,2.05,0,0,1,123.26,145.79Z" style="fill:#541f0a"/><path d="M91.87,136c-.21-.85.63-1.32,1.17-1.72,1,.28,1.9,1,1.49,2.07.44.52,0,1.37-1.53,1.7C92,137.63,91.38,137.36,91.87,136Z" style="fill:#541f0a"/><path d="M111.75,128.58c-.42-1.48,0-1.93,1.71-1.84.39-.06,1,.7,1,1.5.47.72-.79,1.77-1.36,1.88C112.28,130.11,111.41,129,111.75,128.58Z" style="fill:#541f0a"/><path d="M100.7,137a.83.83,0,0,1,.75-.94c.61.15.8.21.8.79.09.33-.14.7-.9.75C101.12,137.64,100.71,137.22,100.7,137Z" style="fill:#541f0a"/><path d="M101.63,126c.13-.66.34-.87,1-.83s.77.42.57.62c.07.53-.35,1.06-.74,1A1,1,0,0,1,101.63,126Z" style="fill:#541f0a"/><path d="M107.7,147.7a3.44,3.44,0,0,1,1.12-.78,2.32,2.32,0,0,1,.77,1.06c0,.15-.53.56-.86.61C108.05,148.6,107.86,148.36,107.7,147.7Z" style="fill:#541f0a"/><path d="M117.07,144.21c-.11-.51.46-.79.92-.65s.79.36.43.69c.17.31,0,.82-.71.73A1.08,1.08,0,0,1,117.07,144.21Z" style="fill:#541f0a"/><path d="M119,131.31c-.17-.41.18-.88.82-1,.29.19.84.38.61,1,.3.25-.1.76-.81.64A.85.85,0,0,1,119,131.31Z" style="fill:#541f0a"/><path d="M123.59,134.33c.11-.22.54-.71.89-.63a1.16,1.16,0,0,1,1,.63c-.29.4-.64.79-.78.73C124.29,135.32,123.88,134.89,123.59,134.33Z" style="fill:#541f0a"/><path d="M100.88,152.1c-.1-.33.38-.92.84-.69.36-.07.72.26.64.55a1.4,1.4,0,0,1-.46,1A1.07,1.07,0,0,1,100.88,152.1Z" style="fill:#541f0a"/><path d="M94.83,128.43c0-.64.56-1,.92-.79a1,1,0,0,1,.83.6c0,.46-.65,1-.88.9C95.13,129.22,94.78,128.91,94.83,128.43Z" style="fill:#541f0a"/><path d="M114.93,134.39a4,4,0,0,1,1.69-.82,2.72,2.72,0,0,1,1.18.88c.14.41-.55.87-1.11.67A2.34,2.34,0,0,1,114.93,134.39Z" style="fill:#541f0a"/><path d="M111.6,149.81a2.43,2.43,0,0,1,1.55-.78,1.24,1.24,0,0,1,1.23.77.87.87,0,0,1-1,.67C112.41,150.51,111.88,150.37,111.6,149.81Z" style="fill:#541f0a"/><path d="M121.76,121.13c-.08-.72.55-.92,1.35-.81.44,0,1.61.34,1.13.75a1.07,1.07,0,0,1-1.06.66C122.45,121.84,122.22,121.52,121.76,121.13Z" style="fill:#541f0a"/><path d="M92.16,147.52c-.34-.6.39-1,1-.81a1.39,1.39,0,0,1,1.49.79c-.12.32-.6.65-1.73.78C92.61,148.32,92.08,147.9,92.16,147.52Z" style="fill:#541f0a"/><path d="M101.3,132c0-.49.7-.86,1.38-.82a3.3,3.3,0,0,1,1.07.66c-.3.69-.63.93-1.06,1C101.53,132.61,101,132.3,101.3,132Z" style="fill:#541f0a"/><path d="M149.83,137c-.36.59.19,1.58,1.65,1.75,1.2.07,1.41-.67,1.87-2.23a3.31,3.31,0,0,0-2-1.41C150.78,135.38,149.73,135.65,149.83,137Z" style="fill:#541f0a"/><path d="M133,119.83c-.46,1.37.08,1.65,1.57,1.64.47.21,1.4-.68,1.7-1.26.22-1.27-1.25-1.59-1.75-1.72C133,118.34,132.39,119.08,133,119.83Z" style="fill:#541f0a"/><path d="M164.43,130.81c-.55,1.42.13,1.61,1.26,1.95,1.48.15,1.88-1,1.95-2-.39-.77-.51-1.22-1.49-1.43C165.42,129.19,164.46,130.13,164.43,130.81Z" style="fill:#541f0a"/><path d="M133,140.73c-.2,1,.63,2,1.17,1.63,1,.28,1.9-.49,1.49-1.28.44-1.34,0-2-1.52-1.66A.9.9,0,0,0,133,140.73Z" style="fill:#541f0a"/><path d="M152.91,148.94c-.42.38,0,1.43,1.71,1.51a1.8,1.8,0,0,0,1-1.85c.48-1.14-.78-1.59-1.36-1.48C153.44,147.11,152.58,147.49,152.91,148.94Z" style="fill:#541f0a"/><path d="M141.87,140.38c-.06.19.48.63.74.62.62.15.8-.49.8-.77.09-.54-.14-.87-.9-.82C142.29,139.43,141.88,139.71,141.87,140.38Z" style="fill:#541f0a"/><path d="M142.79,151.26a1.19,1.19,0,0,0,1,.73c.56,0,.77-.27.57-.94.07-.34-.34-.5-.74-.54S142.79,150.73,142.79,151.26Z" style="fill:#541f0a"/><path d="M148.86,129.13c.27.7.52,1,1.13.79.17.16.55-.25.76-.51a.84.84,0,0,0-.85-.95A1.17,1.17,0,0,0,148.86,129.13Z" style="fill:#541f0a"/><path d="M158.23,132.8c-.1.36.47.78.92.92s.79-.34.44-.88c.16-.55,0-.74-.72-.83C158.7,131.9,158.29,132.4,158.23,132.8Z" style="fill:#541f0a"/><path d="M160.18,145.86c-.16.45.19.68.83.59.28.19.83-.32.6-.52.3-.62-.09-.81-.8-.93C160.51,145,160.16,145.25,160.18,145.86Z" style="fill:#541f0a"/><path d="M164.75,142.61a1.06,1.06,0,0,0,.89.93c.33.06.81-.53,1-.93a2.45,2.45,0,0,0-.78-.84A7.3,7.3,0,0,0,164.75,142.61Z" style="fill:#541f0a"/><path d="M142,125c-.1.54.39.65.84.88a.88.88,0,0,0,.65-1c.05-.45-.32-.68-.47-.54A.8.8,0,0,0,142,125Z" style="fill:#541f0a"/><path d="M136,148.79c0,.22.56.6.92.77s.79-.32.83-1c0-.41-.65-.53-.87-.67C136.3,148,135.94,148.41,136,148.79Z" style="fill:#541f0a"/><path d="M156.09,142.67a1.82,1.82,0,0,0,1.69.74,1.19,1.19,0,0,0,1.19-.69c.13-.45-.56-.68-1.11-.89A4.13,4.13,0,0,0,156.09,142.67Z" style="fill:#541f0a"/><path d="M152.76,127.21c.4.53.65.92,1.55.79.52-.1,1.2-.27,1.23-.79a1.38,1.38,0,0,0-1-.9A2.48,2.48,0,0,0,152.76,127.21Z" style="fill:#541f0a"/><path d="M162.92,156.26c-.07.14.56.64,1.35.75.44,0,1.62-.36,1.14-.81,0-.65-.48-.88-1.07-.92C163.62,155.4,163.39,155.78,162.92,156.26Z" style="fill:#541f0a"/><path d="M133.32,129.85c-.34.26.4.58,1,.75a2,2,0,0,0,1.48-.77c-.12-.55-.59-.92-1.72-.78C133.77,129.08,133.24,129.36,133.32,129.85Z" style="fill:#541f0a"/><path d="M142.46,145.19c0,.37.7.71,1.39.75.44.1.71-.3,1.06-.92-.29-.16-.63-.63-1-.54C142.7,144.24,142.14,144.63,142.46,145.19Z" style="fill:#541f0a"/><polygon points="129.67 148.48 129.67 154.07 169.38 168.09 169.38 162.68 129.67 148.48" style="fill:#541f0a"/><polygon points="129.67 148.48 129.67 154.07 88.62 168.09 88.62 162.59 129.67 148.48" style="fill:#541f0a"/><polygon points="129.67 189.65 129.67 195.24 169.38 209.25 169.38 203.85 129.67 189.65" style="fill:#541f0a"/><polygon points="129.67 189.65 129.67 195.24 88.62 209.25 88.62 203.76 129.67 189.65" style="fill:#541f0a"/><polygon points="129.67 107.32 129.67 112.91 169.38 126.92 169.38 121.52 129.67 107.32" style="fill:#541f0a"/><polygon points="129.67 107.32 129.67 112.91 88.62 126.92 88.62 121.43 129.67 107.32" style="fill:#541f0a"/><polygon points="129.67 148.48 129.67 154.07 169.38 168.09 169.38 162.68 129.67 148.48" style="fill:#541f0a"/><polygon points="129.67 148.48 129.67 154.07 88.62 168.09 88.62 162.59 129.67 148.48" style="fill:#541f0a"/><polygon points="129.67 66.38 129.67 71.97 169.38 85.98 169.38 80.58 129.67 66.38" style="fill:#541f0a"/><polygon points="129.67 66.38 129.67 71.97 88.62 85.98 88.62 80.49 129.67 66.38" style="fill:#541f0a"/><polygon points="129.67 107.54 129.67 113.14 169.38 127.15 169.38 121.74 129.67 107.54" style="fill:#541f0a"/><polygon points="129.67 107.54 129.67 113.14 88.62 127.15 88.62 121.65 129.67 107.54" style="fill:#541f0a"/></g></g></svg>