<svg xmlns="http://www.w3.org/2000/svg" xmlns:xlink="http://www.w3.org/1999/xlink" viewBox="0 0 260 260"><defs><clipPath id="clip-path"><polygon points="94.66 119.49 94.59 82.37 123.24 76.8 123.31 113.92 94.66 119.49" style="fill:none"/></clipPath><clipPath id="clip-path-2"><polygon points="133.94 116.53 133.7 79.44 165.38 83.33 165.61 120.42 133.94 116.53" style="fill:none"/></clipPath><clipPath id="clip-path-3"><polygon points="94.72 200.65 94.79 163.7 123.18 157.97 123.11 194.92 94.72 200.65" style="fill:none"/></clipPath><clipPath id="clip-path-4"><polygon points="133.94 197.75 133.7 160.59 165.38 164.48 165.61 201.64 133.94 197.75" style="fill:none"/></clipPath><clipPath id="clip-path-5"><polygon points="95.13 160.83 95.19 123.87 123.16 118.23 123.09 155.19 95.13 160.83" style="fill:none"/></clipPath><clipPath id="clip-path-6"><polygon points="134.69 154.41 134.46 117.24 165.78 121.08 166.01 158.25 134.69 154.41" style="fill:none"/></clipPath></defs><g id="Layer_2" data-name="Layer 2"><g id="Layer_1-2" data-name="Layer 1"><rect x="5" y="5" width="250" height="250" rx="35.06" style="fill:#ff8fa9;stroke:#fffba4;stroke-miterlimit:10;stroke-width:10px"/><path d="M230,152.46V66.07c0-8.46-44.77-15.32-100-15.32S30,57.61,30,66.07l.12,42.24a2.51,2.51,0,0,0-.12.76l.13,42.59h0a3,3,0,0,0-.13.9l.13,42.58c0,6.24,24.28,11.6,59.14,14l40.73-14,39.4,14.07c34.24-2.24,58.66-7.33,60.6-13.32V152.57S230,152.49,230,152.46Z" style="fill:#fff;stroke:#754c24;stroke-linecap:round;stroke-linejoin:round"/><path d="M129.67,68l39.71,14.2a632.74,632.74,0,0,1-80.76-.09Z" style="fill:#fffba4"/><path d="M129.67,83.39c-14.62,0-28.51-.47-41-1.33v86.13h0v37.36l41-14.11,39.71,14.2V168.28h0V82.15C157.19,83,143.77,83.39,129.67,83.39Z" style="fill:#fffba4"/><line x1="129.67" y1="70.09" x2="129.67" y2="195.14" style="fill:none;stroke:#ffe174;stroke-miterlimit:10;stroke-width:9px"/><g style="isolation:isolate"><g style="clip-path:url(#clip-path)"><path d="M107.75,95.86c-1,.24-1.54.94-1.08,1.57-.36,1.51.6,2,1.15,1.93l.07,0a8.4,8.4,0,0,0,1.38-2c-.09-1.3-.45-1.49-1.52-1.53" style="fill:#c478ff"/><path d="M121.8,77.08l-.09,0c-1.1.33-1.13.65-1.31,1.91-.22.55.14,1.22,1,1l.31-.09h0c.31-.06,1.07-.5,1.44-1.86-.44-.58-1.06-1.11-1.4-1" style="fill:#c3ff76"/><path d="M96.32,92.49l-.19.06c-.7.33-1.83,1-1.51,1.66-.05.87.74,1.79,1.09,1.72l.06,0a3.57,3.57,0,0,0,1.69-2.21c0-.61-.35-1.36-1.14-1.21" style="fill:#ff7676"/><path d="M121.78,97.17a.74.74,0,0,0-.31.15.27.27,0,0,0-.2,0c-.38.07-1,.81-1.3,1.93.29.6.71,1.16,1.25,1.06a.77.77,0,0,0,.27-.11,1.42,1.42,0,0,0,.46,0c.78-.15,1.19-1.08,1.33-1.93-.35-.36-.89-1.18-1.5-1.06" style="fill:#ff7676"/><path d="M105.12,107.9c-.81.16-1,.65-1.35,1.7,0,1,.76,1.59,2,1.42.15-.12,1-1.3,1.34-1.73-.27-1.33-.8-1.59-1.67-1.42a2,2,0,0,0-.27,0" style="fill:#76fff5"/><path d="M114.76,98.62a1.23,1.23,0,0,0-.52.89c0,.25.34.7.56.66a.15.15,0,0,0,.07,0,.9.9,0,0,0,.66-.74c0-.64-.22-.86-.74-.78h0" style="fill:#c3ff76"/><path d="M113.9,109.48a.82.82,0,0,0-.66.65c.16.61.56.78.81.75s.54-.62.43-.79c0-.51-.16-.67-.58-.61" style="fill:#ff7676"/><path d="M109,89.18c-.36.07-.47.39-.49,1-.14.23,0,.52.41.44a.9.9,0,0,0,.25-.08.17.17,0,0,0,.14,0c.2,0,.39-.36.21-.85.14-.23-.28-.59-.43-.57H109" style="fill:#ffe174"/><path d="M101.64,94l-.14,0a1.66,1.66,0,0,0-.69.94c.28.44.54.74.89.67h0a1.53,1.53,0,0,0,.52-1c0-.35-.15-.74-.62-.65" style="fill:#ffe174"/><path d="M99.91,106.88l-.09,0a2.73,2.73,0,0,0-.62,1c.16.14.27.49.6.43a.48.48,0,0,0,.19-.08h.08a1,1,0,0,0,.52-.69c0-.54-.27-.79-.68-.71" style="fill:#c478ff"/><path d="M96.27,104.49c-.59.17-.87.52-.65.93-.13.39,0,.9.43.82h.06a.79.79,0,0,0,.55-1c.23-.33,0-.56-.39-.73" style="fill:#ff76e2"/><path d="M114.53,84.12a.7.7,0,0,0-.59.67c.07.54.35.84.76.83a1.27,1.27,0,0,0,.59-1c.08-.36-.22-.64-.39-.61l-.06,0a1,1,0,0,0-.31,0" style="fill:#ffe174"/><path d="M119.67,105.88c-.52.23-.57.36-.56.74,0,.61.22.9.56.83h0a1.08,1.08,0,0,0,.53-.85.82.82,0,0,0-.57-.71" style="fill:#ffe174"/><path d="M102.88,103.27c-.65.32-1,.61-1.1,1.07s.1.65.76.52l.28-.07a.65.65,0,0,0,.2,0c.45-.08.77-.42.43-.81.48-.42,0-.79-.57-.69" style="fill:#c3ff76"/><path d="M105.6,87.79c-.67.2-1.32.74-1.17,1.09,0,.51.32.6,1,.57h.16c.38-.07.86-.51.58-.9.23-.34-.24-.79-.57-.75" style="fill:#c3ff76"/><path d="M97.26,117.31c-.63.17-1.16.48-1.14,1.1.39.36.33.72,1.08.58a2.26,2.26,0,0,0,.91-.9c.37-.53-.34-.77-.85-.78" style="fill:#ffe174"/><path d="M121.46,87.08a1.84,1.84,0,0,0-1.11,1.25,2.27,2.27,0,0,0,1.22.46c.5-.25,1.12-.57.9-1,.19-.48-.37-.73-1-.69" style="fill:#ff76e2"/><path d="M113.94,103.57c-.54.1-.63.4-1,.83.32.48.46.7,1.14.57l.18,0,.2,0c.41-.08.52-.38.65-.82s-.23-.66-.6-.59l-.1,0a2.11,2.11,0,0,0-.47,0" style="fill:#ff76e2"/></g></g><g style="isolation:isolate"><g style="clip-path:url(#clip-path-2)"><path d="M148.64,99a.41.41,0,0,0-.16,0c-.59,0-1.75.58-1.33.91a1.35,1.35,0,0,0,1.12,2h.09a1.28,1.28,0,0,0,.3.07c1,.11,1.28-.86,1.36-1.28A2.3,2.3,0,0,0,148.64,99" style="fill:#c478ff"/><path d="M163.94,116.62c-1.24,0-1.75.57-1.48,1.84.2.55.24,1.6,1.29,1.73l.17,0a3.84,3.84,0,0,0,1.63-1.74c-.41-.52-1.28-1.8-1.61-1.85" style="fill:#c3ff76"/><path d="M135.35,102.81a.42.42,0,0,0-.22,0c-.34.11-1.32.28-1.26,1.16-.31.93.71,2,1.49,2.08a.74.74,0,0,0,.21,0c1,0,1.49-.51,1.45-1.65-.44-.42-1.08-1.54-1.67-1.61" style="fill:#76fff5"/><path d="M163.49,96.6a2.55,2.55,0,0,0-1.66,1.79,24.69,24.69,0,0,0,1.66,1.84c.8-.33,1.55-.51,2-1.73-.2-.84-.8-1.36-2-1.9" style="fill:#76fff5"/><path d="M146.05,87.16H146l-.15,0c-1.24-.15-2,.47-2,1.21.43.73.66,1.78,1.81,2,1,.12,1.53-.9,1.83-1.26a2.61,2.61,0,0,0-1.44-2" style="fill:#c3ff76"/><path d="M156.18,97.41c-.22.12-.69.12-.68.68a1.81,1.81,0,0,0,.6.79h0c.55.07.79-.29.78-.49,0-.65-.2-.92-.74-1" style="fill:#ff76e2"/><path d="M155.23,86.76h-.06c-.28,0-.7.33-.87.49.06.51.3,1,.7,1.08h.09c.42,0,.59-.4.58-.71.11-.58-.26-.84-.44-.86" style="fill:#ffe174"/><path d="M150,107.09c-.63.08-.91.33-.72.94a.83.83,0,0,0,.65.67h0c.16,0,.61-.16.46-.8.24-.14-.17-.59-.4-.81" style="fill:#76fff5"/><path d="M141.9,102.83a.5.5,0,0,0-.17,0,1.5,1.5,0,0,0-1,.54c.14.29.54.78.72.81h0c.62,0,.89-.19.83-.64s-.18-.68-.41-.71" style="fill:#ffe174"/><path d="M139.69,89.85c-.53.12-.66.29-.86.9.24.25.49.7.64.72h.05a.8.8,0,0,0,.84-.59,2.47,2.47,0,0,0-.67-1" style="fill:#76fff5"/><path d="M135.52,92.57h-.1c-.48,0-.68.08-.53.55-.23.31,0,.7.59.77h.13a.62.62,0,0,0,.25.1c.27,0,.38-.29.18-.75.09-.19-.12-.63-.52-.68" style="fill:#c478ff"/><path d="M156.27,112.14a.24.24,0,0,0-.16,0l-.12,0a.61.61,0,0,0-.7.45,1.39,1.39,0,0,0,1,1.11c.17-.09.59-.34.49-.79-.07-.27-.23-.75-.5-.78" style="fill:#ff7676"/><path d="M161.68,89.91a.53.53,0,0,0-.21,0c-.4,0-.71.27-.67.49,0,.4,0,.9.48,1h.15l.08,0c.25,0,.5-.22.54-.63s-.09-.82-.37-.85" style="fill:#c3ff76"/><path d="M142.85,93.35c-1-.06-1.33.37-1.15.71a1.08,1.08,0,0,0,.89.8,1.21,1.21,0,0,0,.33,0h.1c.57.07,1-.09.52-.64.44-.26-.1-.72-.69-.88" style="fill:#ff76e2"/><path d="M145.66,108.58c-.63-.07-.93.35-.91.65-.15.39.42.71,1.06.79h.24l.11,0c.35,0,.75-.07.51-.58.36-.29-.41-.68-.82-.85l-.19,0" style="fill:#ff76e2"/><path d="M136.77,79.82h-.24c-.83-.1-.76.24-1.19.58,0,.2.52.7,1.18.78h.08l.24,0c.52.06,1-.14.69-.51-.06-.59-.36-.85-.76-.9" style="fill:#ff7676"/><path d="M164,108.57a.71.71,0,0,0-.29,0l-.13,0c-.54-.06-.87.21-.74.69-.11.29.45.68.67.84h.11c.86.11,1.33-.22,1.39-.56-.26-.53-.53-.9-1-1" style="fill:#ffe174"/><path d="M155.46,92.51c-.92-.06-1.06.36-1.44.55.51.45.55.81,1.63,1.13.43,0,1-.32.77-.73a1.36,1.36,0,0,0-1-.95" style="fill:#ff7676"/></g></g><g style="isolation:isolate"><g style="clip-path:url(#clip-path-3)"><path d="M107.77,177.08c-1,.25-1.53.95-1.08,1.57-.36,1.5.58,2,1.13,1.92l.07,0a7.74,7.74,0,0,0,1.38-2c-.09-1.3-.44-1.48-1.5-1.51" style="fill:#c3ff76"/><path d="M121.75,158.26l-.09,0c-1.09.35-1.12.66-1.3,1.93-.22.54.14,1.21,1,1l.31-.09h0c.3-.06,1.06-.5,1.42-1.86-.43-.57-1-1.1-1.38-1" style="fill:#ff76e2"/><path d="M96.46,173.79l-.19.05c-.7.35-1.82,1-1.5,1.68,0,.86.73,1.77,1.08,1.7l.05,0A3.6,3.6,0,0,0,97.59,175c0-.6-.34-1.35-1.13-1.19" style="fill:#ff7676"/><path d="M121.67,178.31a.77.77,0,0,0-.32.15.23.23,0,0,0-.2,0,2.7,2.7,0,0,0-1.28,1.93c.27.6.69,1.15,1.22,1a.71.71,0,0,0,.28-.11,1.14,1.14,0,0,0,.45,0c.77-.16,1.18-1.08,1.32-1.93-.34-.36-.88-1.16-1.47-1" style="fill:#ff7676"/><path d="M105.11,189.12c-.79.16-1,.64-1.33,1.7,0,1,.74,1.57,1.93,1.39.14-.11,1-1.29,1.33-1.72-.26-1.32-.78-1.59-1.62-1.42h0l-.28,0" style="fill:#ff7676"/><path d="M114.71,179.79a1.23,1.23,0,0,0-.53.89c0,.24.34.7.56.66l.07,0a.9.9,0,0,0,.66-.74c0-.63-.23-.86-.74-.77h0" style="fill:#ffe174"/><path d="M113.82,190.63a.83.83,0,0,0-.67.65c.16.61.55.78.81.75s.54-.62.43-.79c0-.51-.16-.66-.57-.61" style="fill:#ff76e2"/><path d="M109.06,170.41c-.36.07-.47.38-.48,1-.15.24,0,.51.4.44l.24-.09a.17.17,0,0,0,.14,0c.2,0,.39-.36.22-.85.13-.23-.28-.59-.43-.56h-.09" style="fill:#ffe174"/><path d="M101.74,175.29a.44.44,0,0,0-.15.05,1.55,1.55,0,0,0-.69.93c.28.44.53.74.88.67h0a1.5,1.5,0,0,0,.51-1c0-.36-.14-.74-.59-.65" style="fill:#ffe174"/><path d="M100.08,188.17l-.09,0c-.39.12-.49.36-.59,1-.11.29.07.63.35.57l.14-.06c.43-.11.87-.37.77-1-.15-.27-.19-.6-.58-.53" style="fill:#76fff5"/><path d="M96.11,185.89c-.28.06-.57.6-.4.84-.2.54.2.7.51.81a1.08,1.08,0,0,0,.59-1c0-.41-.15-.65-.66-.64h0" style="fill:#ff76e2"/><path d="M114.59,165.29c-.31.07-.42.51-.68.69a.77.77,0,0,0,.81.75h.09a.71.71,0,0,0,.37-1,.41.41,0,0,0-.45-.43h-.14" style="fill:#76fff5"/><path d="M119.23,187.12a.55.55,0,0,0-.23.78c0,.5.31.51.59.72a1.94,1.94,0,0,0,.61-1,.5.5,0,0,0-.61-.59.74.74,0,0,0-.22.08.17.17,0,0,0-.14,0" style="fill:#76fff5"/><path d="M103,184.42c-.88.33-1.12.64-1.14,1-.33.47.4.89.81.83.37-.31,1.32-.62,1-1.19.17-.47-.27-.66-.63-.65" style="fill:#c478ff"/><path d="M105.08,169.36a1.23,1.23,0,0,0-.85.82c0,.58.83.69,1.27.68a1.6,1.6,0,0,0,1-1.09c.13-.47-.24-.63-.7-.54a1.49,1.49,0,0,0-.39.13.78.78,0,0,0-.34,0" style="fill:#c478ff"/><path d="M97.39,198.5a1.41,1.41,0,0,0-1.06,1.08c0,.36.66.61.77.58h.07c.87-.18,1.33-.79.92-1,.41-.45-.49-.55-.64-.66h-.06" style="fill:#c3ff76"/><path d="M121.38,168.25a1.79,1.79,0,0,0-1.1,1.24,2.11,2.11,0,0,0,1.2.45c.5-.25,1.11-.56.9-1,.19-.47-.37-.72-1-.67" style="fill:#c3ff76"/><path d="M113.87,184.73c-.53.11-.62.4-1,.84.32.47.45.69,1.12.56l.18,0a1.06,1.06,0,0,0,.2,0c.41-.08.52-.37.65-.82s-.22-.65-.59-.58l-.1,0a2.94,2.94,0,0,0-.47,0" style="fill:#c478ff"/></g></g><g style="isolation:isolate"><g style="clip-path:url(#clip-path-4)"><path d="M148.64,180.25a.29.29,0,0,0-.16,0c-.59,0-1.75.58-1.33.91a1.35,1.35,0,0,0,1.12,2h.09a2,2,0,0,0,.31.07c.94.11,1.27-.87,1.35-1.28a2.28,2.28,0,0,0-1.38-1.75" style="fill:#ffe174"/><path d="M163.94,197.82c-1.24.05-1.75.59-1.48,1.84.2.56.24,1.62,1.29,1.75h.17a3.89,3.89,0,0,0,1.63-1.74c-.41-.52-1.28-1.8-1.61-1.86" style="fill:#76fff5"/><path d="M135.36,184a.46.46,0,0,0-.23,0c-.34.09-1.32.27-1.26,1.15-.31.92.71,2,1.49,2.07h.21c1,0,1.49-.51,1.45-1.65-.44-.41-1.08-1.53-1.66-1.6" style="fill:#c3ff76"/><path d="M163.49,177.81a2.55,2.55,0,0,0-1.66,1.79,24.69,24.69,0,0,0,1.66,1.84c.8-.34,1.55-.5,2-1.73-.2-.84-.8-1.37-2-1.9" style="fill:#ff76e2"/><path d="M146.05,168.36H146l-.14,0c-1.24-.15-2,.46-2,1.2.43.74.66,1.78,1.81,2,1,.11,1.53-.9,1.83-1.26a2.66,2.66,0,0,0-1.44-2" style="fill:#ff7676"/><path d="M156.18,178.62c-.22.12-.69.11-.68.68a1.75,1.75,0,0,0,.6.79h.05c.54.06.78-.29.77-.49,0-.66-.2-.93-.74-1" style="fill:#ffe174"/><path d="M155.23,168h-.06c-.28,0-.7.32-.87.49.06.5.3,1,.7,1.08h.09c.42.05.59-.4.58-.71.11-.59-.26-.85-.44-.87" style="fill:#76fff5"/><path d="M150,188.3c-.63.08-.91.33-.72.93a.83.83,0,0,0,.65.67h0c.16,0,.61-.16.46-.8.24-.13-.17-.58-.4-.8" style="fill:#c3ff76"/><path d="M141.9,184a.52.52,0,0,0-.17,0,1.49,1.49,0,0,0-1,.53c.14.31.53.79.72.81,0,0,0,0,0,0,.62,0,.89-.19.83-.65s-.18-.68-.41-.71" style="fill:#76fff5"/><path d="M139.69,171.07c-.53.11-.66.28-.86.89.24.25.49.69.64.71h.05a.79.79,0,0,0,.84-.58,2.29,2.29,0,0,0-.67-1" style="fill:#ffe174"/><path d="M135.52,173.78h-.1c-.48,0-.68.08-.53.55-.22.32,0,.71.57.77h.15a.53.53,0,0,0,.25.11c.27,0,.38-.3.18-.76.09-.18-.12-.63-.52-.67" style="fill:#c478ff"/><path d="M156.27,193.35a.24.24,0,0,0-.16,0l-.12,0a.62.62,0,0,0-.7.45,1.39,1.39,0,0,0,1,1.12c.17-.1.59-.34.49-.79-.07-.28-.23-.75-.5-.78" style="fill:#ff76e2"/><path d="M161.68,171.11a.53.53,0,0,0-.21,0c-.4,0-.71.28-.67.5,0,.4,0,.89.48,1h.15l.09,0c.24,0,.49-.23.53-.63s-.09-.82-.37-.86" style="fill:#c478ff"/><path d="M142.85,174.55c-1-.05-1.33.38-1.15.72a1.08,1.08,0,0,0,.89.8,1.24,1.24,0,0,0,.33,0l.1,0c.57.07,1-.1.52-.64.44-.26-.1-.71-.69-.89" style="fill:#ffe174"/><path d="M145.67,189.79c-.63-.07-.94.34-.92.65-.14.39.41.7,1,.78l.26,0,.11,0c.35,0,.75-.07.51-.59.36-.28-.41-.67-.82-.84l-.18,0" style="fill:#c478ff"/><path d="M136.38,160.92c-.11,0-.89.19-.86.66s.58.67,1.25.81a.23.23,0,0,0,.11,0c.3,0,1-.23.6-.69.46-.47-.08-.67-1.1-.82" style="fill:#ff76e2"/><path d="M163.89,189.75h-.27c-.32,0-.82.33-1.29.65a1,1,0,0,0,.88.63,1.36,1.36,0,0,0,.35,0l.22,0c.61.07,1.08-.15.89-.53.21-.27-.29-.73-.78-.79" style="fill:#ff7676"/><path d="M155.46,173.72c-.92-.06-1.06.35-1.44.56.51.43.55.8,1.63,1.12.43,0,1-.32.77-.73a1.38,1.38,0,0,0-1-.95" style="fill:#c3ff76"/></g></g><g style="isolation:isolate"><g style="clip-path:url(#clip-path-5)"><path d="M109.69,138.66c-.88.17-1.19.74-.93,1.75-.08.44.62,1.33,1.08,1.23a.29.29,0,0,0,.13,0h0c.53-.11,1.15-1.08,1.59-2.2-.37-.2-.54-.9-1.5-.78a2.37,2.37,0,0,0-.41.06" style="fill:#76fff5"/><path d="M96.41,157c-1.2.25-1.64,1.51-1.27,1.91-.48,1.15,0,1.77,1.23,1.68h.06c.45-.09,1.52-1.36,1.35-1.85A2.18,2.18,0,0,0,96.41,157" style="fill:#ff76e2"/><path d="M121.25,141.7c-.73.15-1.12,1.27-.73,1.55a1.44,1.44,0,0,0,1.39,1.54.58.58,0,0,0,.19,0c.62-.12.73-1.07,1-2.08,0-.87-.37-1.1-1.57-1a.71.71,0,0,0-.29,0" style="fill:#ff7676"/><path d="M96.16,137.14c-.43.47-1.11,1.06-.94,1.84-.4,1.35.13,1.51.91,1.78,1.19-.55,1.58-1.45,1.23-1.88a1.27,1.27,0,0,0-1.2-1.74" style="fill:#c3ff76"/><path d="M112.34,126.6c-1.09.22-1.38.74-1.08,2-.27.44.43,1.38,1.06,1.26.46-.2,1.48-1.41,1.1-2,0-.73-.42-1.35-.74-1.29h0l-.3.06" style="fill:#c478ff"/><path d="M102.94,137.47a1,1,0,0,0-.6,1c0,.19.32.52.51.48h0c.61-.18.8-.58.73-.87,0-.56-.15-.59-.65-.63" style="fill:#ffe174"/><path d="M103.83,126.79c-.47.09-.62.34-.72.94,0,.32.38.71.66.66h0a1.1,1.1,0,0,0,.58-1.11c.15-.21,0-.59-.43-.51h0l-.11,0" style="fill:#ffe174"/><path d="M108.87,146.68a3.63,3.63,0,0,0-.9.94c.12.58.27.8.8.69h0c.27-.11.71-.59.7-.73a1.74,1.74,0,0,0-.62-.9" style="fill:#ffe174"/><path d="M116.07,142a.7.7,0,0,0-.55.77.83.83,0,0,0,.52.64l.13,0a.6.6,0,0,0,.45-.81c.29-.37,0-.62-.35-.58a.45.45,0,0,0-.2,0" style="fill:#ffe174"/><path d="M117.79,129a.94.94,0,0,0-.67,1.07.62.62,0,0,0,.51.58.41.41,0,0,0,.16,0c.47-.09.7-.56.49-.72.18-.68-.26-.77-.49-.91" style="fill:#ffe174"/><path d="M121.46,131.44c-.27.05-.57.53-.66.74.19.4.43.69.68.64a.37.37,0,0,0,.2-.11h0c.13,0,.39-.43.6-.83-.14-.42-.52-.44-.79-.45h-.06" style="fill:#ff76e2"/><path d="M103,152.14a.79.79,0,0,0-.5.81.71.71,0,0,0,.81.68,1.8,1.8,0,0,0,.38-1.06.37.37,0,0,0-.44-.44l-.08,0a.33.33,0,0,0-.17,0" style="fill:#c478ff"/><path d="M98.19,130.27a.92.92,0,0,0-.58.92c0,.43.2.67.58.59l.13,0h.07a1.41,1.41,0,0,0,.64-1,.66.66,0,0,0-.68-.45.29.29,0,0,0-.16,0" style="fill:#ff7676"/><path d="M115.19,132.58a4.17,4.17,0,0,0-1.38,1.07,1.49,1.49,0,0,0,1.37.43h.06a.89.89,0,0,0,.23,0c.39-.08.76-.52.67-.83a1.71,1.71,0,0,0-1-.66" style="fill:#c3ff76"/><path d="M112.47,148l-.11,0a2.43,2.43,0,0,0-1.25,1c.21.44.57.52,1.21.4l.21,0,.13,0c.35-.07.55-.35.69-.8a.81.81,0,0,0-.88-.57" style="fill:#c3ff76"/><path d="M120.13,118.84a.86.86,0,0,0-.78,1c.32.25.51.49.93.4l.21-.06h.05a1.16,1.16,0,0,0,.82-.8c.38-.47-.54-.61-.9-.54h0a1.55,1.55,0,0,0-.31,0" style="fill:#ff76e2"/><path d="M96,149c-.43.09-.81.5-.58.94a.57.57,0,0,0,.6.62h0c.91-.31,1.3-.71,1.4-1a.88.88,0,0,0-1.09-.56l-.12,0a.91.91,0,0,0-.23,0" style="fill:#76fff5"/><path d="M103.78,132.51c-.52.2-1.28.74-1.14,1.06a1.26,1.26,0,0,0,1.3.55c.12-.21,1-.74.53-1,.34-.32-.42-.59-.69-.58" style="fill:#ff76e2"/></g></g><g style="isolation:isolate"><g style="clip-path:url(#clip-path-6)"><path d="M151.21,135.35c-.49.18-1.44.32-1.34,1.65-.32.53.17,1.54,1.5,1.87l.14,0c1,.12,1.14-.57,1.52-2a3.56,3.56,0,0,0-1.82-1.57" style="fill:#c478ff"/><path d="M135.64,117.38c-1.09-.13-1.52.46-1,1.19-.4,1.25.07,1.58,1.36,1.74H136a.39.39,0,0,0,.14.05c.45,0,1.14-.6,1.39-1.08.18-1.2-1.14-1.67-1.58-1.85l-.34-.06" style="fill:#ff7676"/><path d="M164.35,131.37a1.45,1.45,0,0,0-1.39,1.25c-.48,1.32.13,1.58,1.15,2l.21,0c1.16.14,1.48-.9,1.53-1.75-.35-.78-.47-1.23-1.35-1.54l-.15,0" style="fill:#ff76e2"/><path d="M135.43,137.44a.8.8,0,0,0-.65,1.28c-.16.81.37,1.71.82,1.77a.34.34,0,0,0,.24-.06,1.13,1.13,0,0,0,.38.1c.75.1,1.27-.48.95-1.18.33-1,.08-1.67-.78-1.77a2,2,0,0,0-.6,0,1,1,0,0,0-.36-.14" style="fill:#76fff5"/><path d="M154,147.23h-.18c-.7-.08-1.46.2-1.15,1.61-.38.32,0,1.39,1.55,1.66.35,0,.88-.67.85-1.69a1.18,1.18,0,0,0-1.07-1.57" style="fill:#c3ff76"/><path d="M143.44,138.51h-.14c-.2,0-.57.22-.58.86,0,.18.44.66.68.69l.15,0c.43,0,.56-.46.57-.7a.69.69,0,0,0-.68-.88" style="fill:#ffe174"/><path d="M144.39,149.33c-.32,0-.78.11-.77.62a1.31,1.31,0,0,0,.94.83c.49,0,.69-.18.5-.86.06-.31-.32-.51-.67-.59" style="fill:#ffe174"/><path d="M149.94,128.76h-.07a.88.88,0,0,0-.92.53c.19.56.38.86.72.9a.75.75,0,0,0,.29,0,.2.2,0,0,0,.09.05c.17,0,.44-.26.6-.46a.94.94,0,0,0-.71-1" style="fill:#ff76e2"/><path d="M157.92,133.15c-.17,0-.48.36-.52.71s.42.8.84,1h0c.35,0,.64-.28.34-.82.14-.51,0-.71-.65-.87a.06.06,0,0,0-.05,0" style="fill:#ffe174"/><path d="M159.73,145.89c-.25,0-.52.22-.5.78-.12.36.09.6.53.65H160a.21.21,0,0,0,.12,0c.26,0,.59-.3.42-.49.26-.56-.09-.8-.73-1h-.06" style="fill:#ff7676"/><path d="M164.3,143.35a4.44,4.44,0,0,0-1,.69,1.18,1.18,0,0,0,.79,1h0c.3,0,.69-.45.83-.79a2.88,2.88,0,0,0-.7-.9" style="fill:#ffe174"/><path d="M143.79,124a.1.1,0,0,0-.1,0,.84.84,0,0,0-.2-.05c-.45-.06-.62.26-.7.59-.09.51.35.66.76.94a.72.72,0,0,0,.57-.91.52.52,0,0,0-.33-.6" style="fill:#ffe174"/><path d="M138.27,146.1c-.51,0-.83.35-.78.72,0,.21.51.64.83.85h0c.36,0,.67-.26.7-.85,0-.39-.58-.58-.79-.73" style="fill:#ff76e2"/><path d="M157.12,142.53c-.61-.06-1.06.35-1.59.61a2,2,0,0,0,1.3.89h.23l.1,0a.92.92,0,0,0,1-.55c.12-.42-.5-.73-1-1" style="fill:#ffe174"/><path d="M154,127.19a1.86,1.86,0,0,0-1.58.68c.32.47.53.85,1.12.92h.28c.47-.05,1.08-.13,1.1-.63a1.51,1.51,0,0,0-.92-1" style="fill:#76fff5"/><path d="M163,156.21c-.65,0-.86.37-1.27.78-.07.14.5.69,1.22.89.39,0,1.45-.18,1-.66a1,1,0,0,0-1-1" style="fill:#76fff5"/><path d="M136.06,127.6a2.42,2.42,0,0,0-.39,0c-.3,0-.77.21-.69.68-.32.22.35.61.91.83a1.48,1.48,0,0,0,1.33-.57,1.17,1.17,0,0,0-1.16-.92" style="fill:#c3ff76"/><path d="M144,143.39c-.64-.07-.91.22-.67.68,0,.35.63.75,1.25.87a.27.27,0,0,0,.12,0c.33,0,.55-.29.83-.8-.25-.17-.52-.59-.86-.63h-.09a2.62,2.62,0,0,0-.58-.15" style="fill:#c478ff"/></g></g><polygon points="129.67 148.48 129.67 154.07 169.38 168.09 169.38 162.68 129.67 148.48" style="fill:#ffe174"/><polygon points="129.67 148.48 129.67 154.07 88.62 168.09 88.62 162.59 129.67 148.48" style="fill:#ffe174"/><polygon points="129.67 189.65 129.67 195.24 169.38 209.25 169.38 203.85 129.67 189.65" style="fill:#ffe174"/><polygon points="129.67 189.65 129.67 195.24 88.62 209.25 88.62 203.76 129.67 189.65" style="fill:#ffe174"/><polygon points="129.67 107.32 129.67 112.91 169.38 126.92 169.38 121.52 129.67 107.32" style="fill:#ffe174"/><polygon points="129.67 107.32 129.67 112.91 88.62 126.92 88.62 121.43 129.67 107.32" style="fill:#ffe174"/><polygon points="129.67 148.48 129.67 154.07 169.38 168.09 169.38 162.68 129.67 148.48" style="fill:#ffe174"/><polygon points="129.67 148.48 129.67 154.07 88.62 168.09 88.62 162.59 129.67 148.48" style="fill:#ffe174"/><polygon points="129.67 66.38 129.67 71.97 169.38 85.98 169.38 80.58 129.67 66.38" style="fill:#ffe174"/><polygon points="129.67 66.38 129.67 71.97 88.62 85.98 88.62 80.49 129.67 66.38" style="fill:#ffe174"/><polygon points="129.67 107.54 129.67 113.14 169.38 127.15 169.38 121.74 129.67 107.54" style="fill:#ffe174"/><polygon points="129.67 107.54 129.67 113.14 88.62 127.15 88.62 121.65 129.67 107.54" style="fill:#ffe174"/></g></g></svg>