<svg xmlns="http://www.w3.org/2000/svg" viewBox="0 0 260 260"><g id="Layer_2" data-name="Layer 2"><g id="Layer_1-2" data-name="Layer 1"><rect x="5" y="5" width="250" height="250" rx="35.06" style="fill:#fffba4;stroke:#ff8fa9;stroke-miterlimit:10;stroke-width:10px"/><path d="M130,50.38c-55.23,0-100,6.86-100,15.33l.12,42.23a2.53,2.53,0,0,0-.12.77l.12,42.23a2.53,2.53,0,0,0-.12.77l.13,42.58c0,8.47,44.77,15.33,100,15.33,53.53,0,97.24-6.45,99.87-14.55V65.71C230,57.24,185.23,50.38,130,50.38Z" style="fill:#f9f9f7;stroke:#754c24;stroke-linecap:round;stroke-linejoin:round"/><path d="M80.53,178.34q-.6,0-1.2-.06a23,23,0,0,1-5.88-1.56,19.87,19.87,0,0,0-4.22-1.2,21,21,0,0,0-4.75.24,22,22,0,0,1-5.74.2,23.72,23.72,0,0,1-6.21-2.06,20.2,20.2,0,0,0-3.76-1.39,25.88,25.88,0,0,0-4.82-.33,18.05,18.05,0,0,1-5.89-.66,14.7,14.7,0,0,1-8.72-7.91,2.39,2.39,0,1,1,4.3-2.07,9.93,9.93,0,0,0,6,5.47,15.15,15.15,0,0,0,4.36.39,29.15,29.15,0,0,1,5.73.43,23.38,23.38,0,0,1,4.75,1.7,19.33,19.33,0,0,0,5,1.7A18.44,18.44,0,0,0,63.9,171a25.15,25.15,0,0,1,5.86-.25,23.63,23.63,0,0,1,5.32,1.46,19.13,19.13,0,0,0,4.69,1.3,19,19,0,0,0,4.54-.4,24.15,24.15,0,0,1,5.82-.46,2.39,2.39,0,1,1-.38,4.76,19.82,19.82,0,0,0-4.67.42A28.41,28.41,0,0,1,80.53,178.34Z" style="fill:#6a1c00"/><path d="M80.53,140.13q-.6,0-1.2-.06a22.61,22.61,0,0,1-5.88-1.56,19.87,19.87,0,0,0-4.22-1.2,21,21,0,0,0-4.75.24,22,22,0,0,1-5.74.2,23.72,23.72,0,0,1-6.21-2.06,20.2,20.2,0,0,0-3.76-1.39A25.88,25.88,0,0,0,44,134a18.05,18.05,0,0,1-5.89-.66,14.7,14.7,0,0,1-8.72-7.91,2.39,2.39,0,1,1,4.3-2.07,9.93,9.93,0,0,0,6,5.47,15.15,15.15,0,0,0,4.36.39,29.93,29.93,0,0,1,5.73.43,24,24,0,0,1,4.75,1.7,19.33,19.33,0,0,0,5,1.7,18.44,18.44,0,0,0,4.48-.21,25.15,25.15,0,0,1,5.86-.25A23.14,23.14,0,0,1,75.08,134a19.54,19.54,0,0,0,4.69,1.29,19,19,0,0,0,4.54-.4,24.15,24.15,0,0,1,5.82-.46,2.39,2.39,0,0,1-.38,4.76,19.82,19.82,0,0,0-4.67.42A28.41,28.41,0,0,1,80.53,140.13Z" style="fill:#6a1c00"/><path d="M168.63,179.17a2.39,2.39,0,0,1-.18-4.77,19.13,19.13,0,0,0,4.62-1.2,23.24,23.24,0,0,1,5.44-1.4,23.86,23.86,0,0,1,5.84.38,18.62,18.62,0,0,0,4.52.32,19.48,19.48,0,0,0,4.78-1.43,23,23,0,0,1,5.12-1.56,26.13,26.13,0,0,1,5.87,0,16.81,16.81,0,0,0,4.43,0,18.74,18.74,0,0,0,5.38-2.32,24.5,24.5,0,0,1,3.79-1.85c1.14-.39,2.22-.72,3.27-1,1.8-.54,4.52-1.36,4.85-2a2.39,2.39,0,0,1,4.3,2.07c-1.24,2.57-4.27,3.49-7.78,4.54-1,.3-2,.61-3.07,1a20.59,20.59,0,0,0-3,1.5,22.89,22.89,0,0,1-6.77,2.84,20.58,20.58,0,0,1-5.76.06,22.08,22.08,0,0,0-4.8,0,19.3,19.3,0,0,0-4.06,1.27,23.81,23.81,0,0,1-6,1.74,22,22,0,0,1-5.75-.35,20.34,20.34,0,0,0-4.7-.35,19.81,19.81,0,0,0-4.32,1.16,23.15,23.15,0,0,1-5.8,1.45Z" style="fill:#6a1c00"/><path d="M168.63,141a2.39,2.39,0,0,1-.18-4.77,19.13,19.13,0,0,0,4.62-1.2,23.24,23.24,0,0,1,5.44-1.4,23.86,23.86,0,0,1,5.84.38,18.62,18.62,0,0,0,4.52.32,19.48,19.48,0,0,0,4.78-1.43,23,23,0,0,1,5.12-1.56,26.13,26.13,0,0,1,5.87,0,16.39,16.39,0,0,0,4.43,0,18.74,18.74,0,0,0,5.38-2.32,24.42,24.42,0,0,1,3.79-1.84c1.14-.4,2.22-.73,3.27-1,1.8-.54,4.52-1.36,4.85-2a2.39,2.39,0,0,1,4.3,2.08c-1.24,2.56-4.27,3.48-7.78,4.53-1,.3-2,.62-3.07,1a20.59,20.59,0,0,0-3,1.5A22.89,22.89,0,0,1,210,136a21,21,0,0,1-5.76.07,21.48,21.48,0,0,0-4.8-.05,19.3,19.3,0,0,0-4.06,1.27,23.81,23.81,0,0,1-6,1.74,22,22,0,0,1-5.75-.35,20.34,20.34,0,0,0-4.7-.35,19.81,19.81,0,0,0-4.32,1.16,23.6,23.6,0,0,1-5.8,1.46Z" style="fill:#6a1c00"/><path d="M168.63,101.89a2.39,2.39,0,0,1-.18-4.77,19.65,19.65,0,0,0,4.62-1.21,23.24,23.24,0,0,1,5.44-1.4,23.86,23.86,0,0,1,5.84.38,18.62,18.62,0,0,0,4.52.32,19.05,19.05,0,0,0,4.78-1.43,23.53,23.53,0,0,1,5.12-1.56,26.1,26.1,0,0,1,5.87,0,17.25,17.25,0,0,0,4.43,0,19,19,0,0,0,5.38-2.32,23.62,23.62,0,0,1,3.79-1.85c1.14-.4,2.22-.72,3.27-1,1.8-.54,4.52-1.36,4.85-2a2.39,2.39,0,0,1,4.3,2.08c-1.24,2.57-4.27,3.48-7.78,4.54-1,.3-2,.61-3.07,1a20.59,20.59,0,0,0-3,1.5A22.89,22.89,0,0,1,210,96.93a21,21,0,0,1-5.76.07,21.48,21.48,0,0,0-4.8,0,19.37,19.37,0,0,0-4.06,1.28,23.81,23.81,0,0,1-6,1.73,22,22,0,0,1-5.75-.35,20.31,20.31,0,0,0-4.7-.34,19.2,19.2,0,0,0-4.32,1.15,23.6,23.6,0,0,1-5.8,1.46Z" style="fill:#6a1c00"/><path d="M80.53,101.05c-.4,0-.8,0-1.2,0a23.43,23.43,0,0,1-5.88-1.56,19.36,19.36,0,0,0-4.22-1.21,21,21,0,0,0-4.75.24,22,22,0,0,1-5.74.2,23.36,23.36,0,0,1-6.21-2.06,20.11,20.11,0,0,0-3.76-1.38A25.06,25.06,0,0,0,44,94.89a18.05,18.05,0,0,1-5.89-.66,14.7,14.7,0,0,1-8.72-7.91,2.39,2.39,0,1,1,4.3-2.07,9.91,9.91,0,0,0,6,5.47,15.11,15.11,0,0,0,4.36.4,29.88,29.88,0,0,1,5.73.42,23.41,23.41,0,0,1,4.75,1.71,19.68,19.68,0,0,0,5,1.69,18,18,0,0,0,4.48-.21,24.63,24.63,0,0,1,5.86-.24A22.63,22.63,0,0,1,75.08,95a19.54,19.54,0,0,0,4.69,1.29,18.54,18.54,0,0,0,4.54-.4,24.15,24.15,0,0,1,5.82-.46,2.39,2.39,0,0,1-.38,4.77,19.79,19.79,0,0,0-4.67.41A28.41,28.41,0,0,1,80.53,101.05Z" style="fill:#6a1c00"/></g></g></svg>