<svg xmlns="http://www.w3.org/2000/svg" viewBox="0 0 260 260"><g id="Layer_2" data-name="Layer 2"><g id="Layer_1-2" data-name="Layer 1"><rect x="5" y="5" width="250" height="250" rx="35.06" style="fill:#fffba4;stroke:#ff8fa9;stroke-miterlimit:10;stroke-width:10px"/><path d="M130,66.22c-55.23,0-100,6.86-100,15.33l.12,42.23a2.53,2.53,0,0,0-.12.77l.12,42.23a2.53,2.53,0,0,0-.12.77l.13,42.58c0,8.47,44.77,15.33,100,15.33,53.53,0,97.24-6.45,99.87-14.55V81.55C230,73.08,185.23,66.22,130,66.22Z" style="fill:#f9f9f7;stroke:#754c24;stroke-linecap:round;stroke-linejoin:round"/><path d="M158.26,53.48A2.08,2.08,0,0,1,159.82,55h-2Z" style="fill:#fdf5bd;stroke:#754c24;stroke-linecap:round;stroke-linejoin:round;stroke-width:0.5px"/><path d="M145.52,55.43A2.08,2.08,0,0,1,147.08,57h-2Z" style="fill:#fdf5bd;stroke:#754c24;stroke-linecap:round;stroke-linejoin:round;stroke-width:0.5px"/><path d="M157.81,55c3.35-.46,5.53.52,6.16,3.38h-5.16Z" style="fill:#f3f9f1;stroke:#754c24;stroke-linecap:round;stroke-linejoin:round;stroke-width:0.5px"/><path d="M158.81,59.74V58.42s7-2.86,7,4.15-6.23,5.72-6.23,5.72Z" style="fill:#f3f9f1;stroke:#754c24;stroke-linecap:round;stroke-linejoin:round;stroke-width:0.5px"/><path d="M158.81,60.1c6.13.38,5.44,11.31-.68,10.92Q164,64.1,158.81,60.1Z" style="fill:#fdf5bd;stroke:#754c24;stroke-linecap:round;stroke-linejoin:round;stroke-width:0.5px"/><path d="M143.17,57.94l-.63-1.45s6.32-.52,6.09,2.55S143.62,62,143.17,57.94Z" style="fill:#f3f9f1;stroke:#754c24;stroke-linecap:round;stroke-linejoin:round;stroke-width:0.5px"/><path d="M143.38,61s-3.77-.52-3-3.64c0,0,7.23,1.3,7.89,2.08S147.16,61.55,143.38,61Z" style="fill:#fdf5bd;stroke:#754c24;stroke-linecap:round;stroke-linejoin:round;stroke-width:0.5px"/><path d="M152.2,52.08s2.39-5.5.13-13.29a9,9,0,0,1-.7-4.25l.7.28c-.24.44-.4.68,0,2.55C153.47,40.91,154.64,47.53,152.2,52.08Z" style="fill:#ff2b37"/><path d="M160.56,55.76a7.51,7.51,0,0,1-7.78,7.51,7.69,7.69,0,0,1-7-9.84,5,5,0,0,1,5.7-3.78,13,13,0,0,0,2.92-.14C157.68,49.1,160.56,52.13,160.56,55.76Z" style="fill:#ff2b37"/><path d="M158.81,60.1c6.58,2.83,2,13.49-4.58,10.66C158.05,67.92,159.45,64.32,158.81,60.1Z" style="fill:#f3f9f1;stroke:#754c24;stroke-linecap:round;stroke-linejoin:round;stroke-width:0.5px"/><path d="M158.81,60.1s3.09,13.91-12,10.53C153.73,69.6,157.82,66.16,158.81,60.1Z" style="fill:#fdf5bd;stroke:#754c24;stroke-linecap:round;stroke-linejoin:round;stroke-width:0.5px"/><path d="M158.81,60.1a2.41,2.41,0,0,0-3.15.4c-1.56,1.55,0,7.53-10.4,8C145.26,74.27,160.34,69.59,158.81,60.1Z" style="fill:#f3f9f1;stroke:#754c24;stroke-linecap:round;stroke-linejoin:round;stroke-width:0.5px"/><path d="M155.66,60.5a14.44,14.44,0,0,1-14.56,6C143.85,73.17,158.41,67.19,155.66,60.5Z" style="fill:#fdf5bd;stroke:#754c24;stroke-linecap:round;stroke-linejoin:round;stroke-width:0.5px"/><path d="M155.66,60.5s-3.52-3.1-4.42,1c-.8,3.64-12.78,1.62-10.4,4.67C144.8,71.3,157.17,62.36,155.66,60.5Z" style="fill:#f3f9f1;stroke:#754c24;stroke-linecap:round;stroke-linejoin:round;stroke-width:0.5px"/><path d="M140.05,61a.65.65,0,0,1,1-.5c1.66,1.32,5.46,3.48,9.36-.22,1.3-1.3,2.31-.81,2.31-.81C152.92,67,139.83,67.71,140.05,61Z" style="fill:#fdf5bd;stroke:#754c24;stroke-linecap:round;stroke-linejoin:round;stroke-width:0.5px"/><path d="M151.62,59.46c-2.65-1.79-7.29,1.82-11.76.22C140,65,151.72,64.8,151.62,59.46Z" style="fill:#f3f9f1;stroke:#754c24;stroke-linecap:round;stroke-linejoin:round;stroke-width:0.5px"/><path d="M148.38,51l.78.35s-1.49.22-1.74,2.94C147.29,53,147.17,51.77,148.38,51Z" style="fill:#f3f9f1"/><path d="M179.3,53.48A2.08,2.08,0,0,1,180.86,55h-2Z" style="fill:#fdf5bd;stroke:#754c24;stroke-linecap:round;stroke-linejoin:round;stroke-width:0.5px"/><path d="M166.56,55.43A2.08,2.08,0,0,1,168.12,57h-2Z" style="fill:#fdf5bd;stroke:#754c24;stroke-linecap:round;stroke-linejoin:round;stroke-width:0.5px"/><path d="M178.85,55c3.35-.46,5.53.52,6.16,3.38h-5.16Z" style="fill:#f3f9f1;stroke:#754c24;stroke-linecap:round;stroke-linejoin:round;stroke-width:0.5px"/><path d="M179.85,59.74V58.42s7-2.86,7,4.15-6.23,5.72-6.23,5.72Z" style="fill:#f3f9f1;stroke:#754c24;stroke-linecap:round;stroke-linejoin:round;stroke-width:0.5px"/><path d="M179.85,60.1c6.13.38,5.44,11.31-.68,10.92Q185,64.1,179.85,60.1Z" style="fill:#fdf5bd;stroke:#754c24;stroke-linecap:round;stroke-linejoin:round;stroke-width:0.5px"/><path d="M164.21,57.94l-.63-1.45S169.9,56,169.67,59,164.66,62,164.21,57.94Z" style="fill:#f3f9f1;stroke:#754c24;stroke-linecap:round;stroke-linejoin:round;stroke-width:0.5px"/><path d="M164.42,61s-3.77-.52-3-3.64c0,0,7.23,1.3,7.89,2.08S168.2,61.55,164.42,61Z" style="fill:#fdf5bd;stroke:#754c24;stroke-linecap:round;stroke-linejoin:round;stroke-width:0.5px"/><path d="M173.24,52.08s2.39-5.5.13-13.29a9,9,0,0,1-.7-4.25l.7.28c-.24.44-.4.68,0,2.55C174.51,40.91,175.68,47.53,173.24,52.08Z" style="fill:#ff2b37"/><path d="M181.6,55.76a7.51,7.51,0,0,1-7.78,7.51,7.69,7.69,0,0,1-7-9.84,5,5,0,0,1,5.7-3.78,13,13,0,0,0,2.92-.14C178.72,49.1,181.6,52.13,181.6,55.76Z" style="fill:#ff2b37"/><path d="M179.85,60.1c6.58,2.83,2,13.49-4.58,10.66C179.09,67.92,180.49,64.32,179.85,60.1Z" style="fill:#f3f9f1;stroke:#754c24;stroke-linecap:round;stroke-linejoin:round;stroke-width:0.5px"/><path d="M179.85,60.1s3.09,13.91-12,10.53C174.77,69.6,178.86,66.16,179.85,60.1Z" style="fill:#fdf5bd;stroke:#754c24;stroke-linecap:round;stroke-linejoin:round;stroke-width:0.5px"/><path d="M179.85,60.1a2.41,2.41,0,0,0-3.15.4c-1.56,1.55,0,7.53-10.4,8C166.3,74.27,181.38,69.59,179.85,60.1Z" style="fill:#f3f9f1;stroke:#754c24;stroke-linecap:round;stroke-linejoin:round;stroke-width:0.5px"/><path d="M176.7,60.5a14.44,14.44,0,0,1-14.56,6C164.89,73.17,179.45,67.19,176.7,60.5Z" style="fill:#fdf5bd;stroke:#754c24;stroke-linecap:round;stroke-linejoin:round;stroke-width:0.5px"/><path d="M176.7,60.5s-3.52-3.1-4.42,1c-.8,3.64-12.78,1.62-10.4,4.67C165.84,71.3,178.21,62.36,176.7,60.5Z" style="fill:#f3f9f1;stroke:#754c24;stroke-linecap:round;stroke-linejoin:round;stroke-width:0.5px"/><path d="M161.09,61a.65.65,0,0,1,1-.5c1.66,1.32,5.46,3.48,9.36-.22,1.3-1.3,2.31-.81,2.31-.81C174,67,160.87,67.71,161.09,61Z" style="fill:#fdf5bd;stroke:#754c24;stroke-linecap:round;stroke-linejoin:round;stroke-width:0.5px"/><path d="M172.66,59.46c-2.65-1.79-7.29,1.82-11.76.22C161,65,172.76,64.8,172.66,59.46Z" style="fill:#f3f9f1;stroke:#754c24;stroke-linecap:round;stroke-linejoin:round;stroke-width:0.5px"/><path d="M169.42,51l.78.35s-1.49.22-1.74,2.94C168.33,53,168.21,51.77,169.42,51Z" style="fill:#f3f9f1"/><path d="M135.9,53.92a2.08,2.08,0,0,1,1.56,1.56h-2Z" style="fill:#fdf5bd;stroke:#754c24;stroke-linecap:round;stroke-linejoin:round;stroke-width:0.5px"/><path d="M123.16,55.87a2.05,2.05,0,0,1,1.56,1.55h-2Z" style="fill:#fdf5bd;stroke:#754c24;stroke-linecap:round;stroke-linejoin:round;stroke-width:0.5px"/><path d="M135.45,55.48c3.36-.46,5.54.52,6.17,3.37h-5.16Z" style="fill:#f3f9f1;stroke:#754c24;stroke-linecap:round;stroke-linejoin:round;stroke-width:0.5px"/><path d="M136.46,60.18V58.85s7-2.86,7,4.16-6.24,5.72-6.24,5.72Z" style="fill:#f3f9f1;stroke:#754c24;stroke-linecap:round;stroke-linejoin:round;stroke-width:0.5px"/><path d="M136.46,60.54c6.12.38,5.44,11.31-.69,10.92Q141.64,64.54,136.46,60.54Z" style="fill:#fdf5bd;stroke:#754c24;stroke-linecap:round;stroke-linejoin:round;stroke-width:0.5px"/><path d="M120.81,58.38l-.63-1.45s6.33-.52,6.09,2.55S121.26,62.46,120.81,58.38Z" style="fill:#f3f9f1;stroke:#754c24;stroke-linecap:round;stroke-linejoin:round;stroke-width:0.5px"/><path d="M121,61.46s-3.78-.53-3-3.65c0,0,7.23,1.3,7.89,2.08S124.8,62,121,61.46Z" style="fill:#fdf5bd;stroke:#754c24;stroke-linecap:round;stroke-linejoin:round;stroke-width:0.5px"/><path d="M129.84,52.52s2.4-5.5.14-13.29a9,9,0,0,1-.7-4.25l.7.27c-.24.44-.4.69,0,2.56C131.12,41.35,132.29,48,129.84,52.52Z" style="fill:#ff2b37"/><path d="M138.2,56.2a7.51,7.51,0,0,1-7.78,7.51,7.68,7.68,0,0,1-6.95-9.84,5,5,0,0,1,5.7-3.78,13.62,13.62,0,0,0,2.92-.14C135.32,49.53,138.2,52.57,138.2,56.2Z" style="fill:#ff2b37"/><path d="M136.46,60.54c6.57,2.82,2,13.49-4.59,10.66C135.7,68.36,137.1,64.76,136.46,60.54Z" style="fill:#f3f9f1;stroke:#754c24;stroke-linecap:round;stroke-linejoin:round;stroke-width:0.5px"/><path d="M136.46,60.54s3.08,13.91-12,10.53C131.38,70,135.46,66.6,136.46,60.54Z" style="fill:#fdf5bd;stroke:#754c24;stroke-linecap:round;stroke-linejoin:round;stroke-width:0.5px"/><path d="M136.46,60.54a2.42,2.42,0,0,0-3.16.39c-1.56,1.56,0,7.54-10.4,8.06C122.9,74.71,138,70,136.46,60.54Z" style="fill:#f3f9f1;stroke:#754c24;stroke-linecap:round;stroke-linejoin:round;stroke-width:0.5px"/><path d="M133.3,60.93a14.43,14.43,0,0,1-14.55,6C121.49,73.61,136.05,67.63,133.3,60.93Z" style="fill:#fdf5bd;stroke:#754c24;stroke-linecap:round;stroke-linejoin:round;stroke-width:0.5px"/><path d="M133.3,60.93s-3.52-3.09-4.42,1c-.79,3.64-12.77,1.63-10.39,4.68C122.44,71.74,134.82,62.79,133.3,60.93Z" style="fill:#f3f9f1;stroke:#754c24;stroke-linecap:round;stroke-linejoin:round;stroke-width:0.5px"/><path d="M117.7,61.4a.65.65,0,0,1,1-.5c1.65,1.31,5.45,3.48,9.35-.23,1.3-1.3,2.32-.8,2.32-.8C130.57,67.44,117.48,68.15,117.7,61.4Z" style="fill:#fdf5bd;stroke:#754c24;stroke-linecap:round;stroke-linejoin:round;stroke-width:0.5px"/><path d="M129.27,59.89c-2.66-1.78-7.3,1.83-11.76.23C117.61,65.46,129.37,65.23,129.27,59.89Z" style="fill:#f3f9f1;stroke:#754c24;stroke-linecap:round;stroke-linejoin:round;stroke-width:0.5px"/><path d="M126,51.41l.78.34s-1.48.22-1.73,3C124.93,53.45,124.81,52.21,126,51.41Z" style="fill:#f3f9f1"/><path d="M114,55.23a2.08,2.08,0,0,1,1.56,1.56h-2Z" style="fill:#fdf5bd;stroke:#754c24;stroke-linecap:round;stroke-linejoin:round;stroke-width:0.5px"/><path d="M101.25,57.18a2.08,2.08,0,0,1,1.56,1.56h-2Z" style="fill:#fdf5bd;stroke:#754c24;stroke-linecap:round;stroke-linejoin:round;stroke-width:0.5px"/><path d="M113.54,56.79c3.35-.45,5.53.52,6.16,3.38h-5.16Z" style="fill:#f3f9f1;stroke:#754c24;stroke-linecap:round;stroke-linejoin:round;stroke-width:0.5px"/><path d="M114.54,61.49V60.17s7-2.86,7,4.16-6.24,5.72-6.24,5.72Z" style="fill:#f3f9f1;stroke:#754c24;stroke-linecap:round;stroke-linejoin:round;stroke-width:0.5px"/><path d="M114.54,61.85c6.13.39,5.44,11.31-.69,10.93Q119.73,65.85,114.54,61.85Z" style="fill:#fdf5bd;stroke:#754c24;stroke-linecap:round;stroke-linejoin:round;stroke-width:0.5px"/><path d="M98.89,59.7l-.62-1.45s6.32-.53,6.09,2.54S99.35,63.78,98.89,59.7Z" style="fill:#f3f9f1;stroke:#754c24;stroke-linecap:round;stroke-linejoin:round;stroke-width:0.5px"/><path d="M99.11,62.78s-3.78-.53-3-3.65c0,0,7.23,1.3,7.89,2.08S102.89,63.3,99.11,62.78Z" style="fill:#fdf5bd;stroke:#754c24;stroke-linecap:round;stroke-linejoin:round;stroke-width:0.5px"/><path d="M107.93,53.83s2.39-5.49.13-13.29a9,9,0,0,1-.7-4.25l.7.28c-.24.44-.4.68,0,2.55C109.2,42.66,110.37,49.28,107.93,53.83Z" style="fill:#ff2b37"/><path d="M116.29,57.51A7.53,7.53,0,0,1,108.51,65a7.7,7.7,0,0,1-7-9.84,5,5,0,0,1,5.7-3.79,13.61,13.61,0,0,0,2.92-.13C113.41,50.85,116.29,53.88,116.29,57.51Z" style="fill:#ff2b37"/><path d="M114.54,61.85c6.57,2.83,2,13.49-4.58,10.67C113.78,69.67,115.18,66.08,114.54,61.85Z" style="fill:#f3f9f1;stroke:#754c24;stroke-linecap:round;stroke-linejoin:round;stroke-width:0.5px"/><path d="M114.54,61.85s3.08,13.91-12,10.54C109.46,71.35,113.55,67.91,114.54,61.85Z" style="fill:#fdf5bd;stroke:#754c24;stroke-linecap:round;stroke-linejoin:round;stroke-width:0.5px"/><path d="M114.54,61.85a2.41,2.41,0,0,0-3.15.4c-1.56,1.56,0,7.54-10.4,8.06C101,76,116.06,71.35,114.54,61.85Z" style="fill:#f3f9f1;stroke:#754c24;stroke-linecap:round;stroke-linejoin:round;stroke-width:0.5px"/><path d="M111.39,62.25a14.44,14.44,0,0,1-14.56,6C99.58,74.92,114.13,68.94,111.39,62.25Z" style="fill:#fdf5bd;stroke:#754c24;stroke-linecap:round;stroke-linejoin:round;stroke-width:0.5px"/><path d="M111.39,62.25s-3.52-3.1-4.42,1c-.8,3.64-12.78,1.62-10.4,4.68C100.53,73.05,112.9,64.11,111.39,62.25Z" style="fill:#f3f9f1;stroke:#754c24;stroke-linecap:round;stroke-linejoin:round;stroke-width:0.5px"/><path d="M95.78,62.71a.65.65,0,0,1,1-.49c1.66,1.31,5.46,3.47,9.36-.23,1.3-1.3,2.31-.8,2.31-.8C108.65,68.75,95.56,69.47,95.78,62.71Z" style="fill:#fdf5bd;stroke:#754c24;stroke-linecap:round;stroke-linejoin:round;stroke-width:0.5px"/><path d="M107.35,61.21c-2.66-1.79-7.29,1.82-11.76.23C95.69,66.78,107.45,66.55,107.35,61.21Z" style="fill:#f3f9f1;stroke:#754c24;stroke-linecap:round;stroke-linejoin:round;stroke-width:0.5px"/><path d="M104.11,52.73l.77.34s-1.48.22-1.73,2.94C103,54.77,102.9,53.53,104.11,52.73Z" style="fill:#f3f9f1"/><path d="M91.85,55.89a2.08,2.08,0,0,1,1.56,1.56h-2Z" style="fill:#fdf5bd;stroke:#754c24;stroke-linecap:round;stroke-linejoin:round;stroke-width:0.5px"/><path d="M79.11,57.84a2.08,2.08,0,0,1,1.56,1.56h-2Z" style="fill:#fdf5bd;stroke:#754c24;stroke-linecap:round;stroke-linejoin:round;stroke-width:0.5px"/><path d="M91.4,57.45c3.35-.46,5.53.52,6.17,3.38H92.4Z" style="fill:#f3f9f1;stroke:#754c24;stroke-linecap:round;stroke-linejoin:round;stroke-width:0.5px"/><path d="M92.4,62.15V60.83s7-2.86,7,4.16-6.24,5.71-6.24,5.71Z" style="fill:#f3f9f1;stroke:#754c24;stroke-linecap:round;stroke-linejoin:round;stroke-width:0.5px"/><path d="M92.4,62.51c6.13.39,5.44,11.31-.68,10.92Q97.59,66.51,92.4,62.51Z" style="fill:#fdf5bd;stroke:#754c24;stroke-linecap:round;stroke-linejoin:round;stroke-width:0.5px"/><path d="M76.76,60.36l-.63-1.46s6.32-.52,6.09,2.55S77.21,64.43,76.76,60.36Z" style="fill:#f3f9f1;stroke:#754c24;stroke-linecap:round;stroke-linejoin:round;stroke-width:0.5px"/><path d="M77,63.43s-3.77-.52-3-3.64c0,0,7.24,1.3,7.89,2.08S80.75,64,77,63.43Z" style="fill:#fdf5bd;stroke:#754c24;stroke-linecap:round;stroke-linejoin:round;stroke-width:0.5px"/><path d="M85.79,54.49s2.39-5.5.14-13.29a8.87,8.87,0,0,1-.7-4.25l.7.28c-.24.44-.41.68,0,2.55C87.07,43.32,88.24,49.94,85.79,54.49Z" style="fill:#ff2b37"/><path d="M94.15,58.17a7.51,7.51,0,0,1-7.78,7.51,7.69,7.69,0,0,1-7-9.84,5,5,0,0,1,5.7-3.78A13,13,0,0,0,88,51.92C91.27,51.51,94.15,54.54,94.15,58.17Z" style="fill:#ff2b37"/><path d="M92.4,62.51c6.58,2.83,2,13.49-4.58,10.66C91.65,70.33,93,66.73,92.4,62.51Z" style="fill:#f3f9f1;stroke:#754c24;stroke-linecap:round;stroke-linejoin:round;stroke-width:0.5px"/><path d="M92.4,62.51s3.09,13.91-12,10.53C87.33,72,91.41,68.57,92.4,62.51Z" style="fill:#fdf5bd;stroke:#754c24;stroke-linecap:round;stroke-linejoin:round;stroke-width:0.5px"/><path d="M92.4,62.51a2.41,2.41,0,0,0-3.15.4c-1.56,1.56,0,7.53-10.4,8C78.85,76.68,93.93,72,92.4,62.51Z" style="fill:#f3f9f1;stroke:#754c24;stroke-linecap:round;stroke-linejoin:round;stroke-width:0.5px"/><path d="M89.25,62.91a14.44,14.44,0,0,1-14.56,6C77.44,75.58,92,69.6,89.25,62.91Z" style="fill:#fdf5bd;stroke:#754c24;stroke-linecap:round;stroke-linejoin:round;stroke-width:0.5px"/><path d="M89.25,62.91s-3.52-3.1-4.42,1c-.79,3.64-12.78,1.62-10.4,4.67C78.39,73.71,90.77,64.77,89.25,62.91Z" style="fill:#f3f9f1;stroke:#754c24;stroke-linecap:round;stroke-linejoin:round;stroke-width:0.5px"/><path d="M73.65,63.37a.65.65,0,0,1,1-.5c1.65,1.32,5.45,3.48,9.35-.22,1.3-1.3,2.31-.81,2.31-.81C86.51,69.41,73.43,70.12,73.65,63.37Z" style="fill:#fdf5bd;stroke:#754c24;stroke-linecap:round;stroke-linejoin:round;stroke-width:0.5px"/><path d="M85.21,61.87c-2.65-1.79-7.29,1.82-11.75.22C73.56,67.43,85.32,67.21,85.21,61.87Z" style="fill:#f3f9f1;stroke:#754c24;stroke-linecap:round;stroke-linejoin:round;stroke-width:0.5px"/><path d="M82,53.38l.78.35S81.27,54,81,56.67C80.88,55.42,80.76,54.18,82,53.38Z" style="fill:#f3f9f1"/><path d="M69.71,58.74a2.08,2.08,0,0,1,1.56,1.56h-2Z" style="fill:#fdf5bd;stroke:#754c24;stroke-linecap:round;stroke-linejoin:round;stroke-width:0.5px"/><path d="M57,60.69a2.08,2.08,0,0,1,1.56,1.56h-2Z" style="fill:#fdf5bd;stroke:#754c24;stroke-linecap:round;stroke-linejoin:round;stroke-width:0.5px"/><path d="M69.26,60.3c3.36-.46,5.54.52,6.17,3.38H70.27Z" style="fill:#f3f9f1;stroke:#754c24;stroke-linecap:round;stroke-linejoin:round;stroke-width:0.5px"/><path d="M70.27,65V63.68s7-2.86,7,4.15S71,73.55,71,73.55Z" style="fill:#f3f9f1;stroke:#754c24;stroke-linecap:round;stroke-linejoin:round;stroke-width:0.5px"/><path d="M70.27,65.36c6.12.38,5.44,11.31-.69,10.92Q75.46,69.37,70.27,65.36Z" style="fill:#fdf5bd;stroke:#754c24;stroke-linecap:round;stroke-linejoin:round;stroke-width:0.5px"/><path d="M54.62,63.2,54,61.75s6.32-.52,6.09,2.55S55.07,67.28,54.62,63.2Z" style="fill:#f3f9f1;stroke:#754c24;stroke-linecap:round;stroke-linejoin:round;stroke-width:0.5px"/><path d="M54.84,66.28s-3.78-.52-3-3.64c0,0,7.23,1.3,7.89,2.08S58.61,66.81,54.84,66.28Z" style="fill:#fdf5bd;stroke:#754c24;stroke-linecap:round;stroke-linejoin:round;stroke-width:0.5px"/><path d="M63.66,57.34s2.39-5.5.13-13.29a9,9,0,0,1-.7-4.25l.7.28c-.24.44-.4.68,0,2.55C64.93,46.17,66.1,52.79,63.66,57.34Z" style="fill:#ff2b37"/><path d="M72,61a7.51,7.51,0,0,1-7.78,7.51,7.69,7.69,0,0,1-7-9.84A5,5,0,0,1,63,54.91a13,13,0,0,0,2.92-.14C69.14,54.36,72,57.39,72,61Z" style="fill:#ff2b37"/><path d="M70.27,65.36c6.57,2.83,2,13.49-4.59,10.66C69.51,73.18,70.91,69.58,70.27,65.36Z" style="fill:#f3f9f1;stroke:#754c24;stroke-linecap:round;stroke-linejoin:round;stroke-width:0.5px"/><path d="M70.27,65.36s3.08,13.91-12,10.53C65.19,74.86,69.27,71.42,70.27,65.36Z" style="fill:#fdf5bd;stroke:#754c24;stroke-linecap:round;stroke-linejoin:round;stroke-width:0.5px"/><path d="M70.27,65.36a2.42,2.42,0,0,0-3.16.4c-1.56,1.55,0,7.53-10.39,8C56.72,79.53,71.79,74.85,70.27,65.36Z" style="fill:#f3f9f1;stroke:#754c24;stroke-linecap:round;stroke-linejoin:round;stroke-width:0.5px"/><path d="M67.11,65.76a14.43,14.43,0,0,1-14.55,6C55.31,78.43,69.86,72.45,67.11,65.76Z" style="fill:#fdf5bd;stroke:#754c24;stroke-linecap:round;stroke-linejoin:round;stroke-width:0.5px"/><path d="M67.11,65.76s-3.51-3.1-4.42,1c-.79,3.64-12.77,1.62-10.39,4.67C56.26,76.56,68.63,67.62,67.11,65.76Z" style="fill:#f3f9f1;stroke:#754c24;stroke-linecap:round;stroke-linejoin:round;stroke-width:0.5px"/><path d="M51.51,66.22a.65.65,0,0,1,1.05-.5C54.22,67,58,69.2,61.91,65.5c1.3-1.3,2.32-.81,2.32-.81C64.38,72.26,51.29,73,51.51,66.22Z" style="fill:#fdf5bd;stroke:#754c24;stroke-linecap:round;stroke-linejoin:round;stroke-width:0.5px"/><path d="M63.08,64.72c-2.66-1.79-7.29,1.82-11.76.22C51.42,70.28,63.18,70.06,63.08,64.72Z" style="fill:#f3f9f1;stroke:#754c24;stroke-linecap:round;stroke-linejoin:round;stroke-width:0.5px"/><path d="M59.84,56.23l.77.35s-1.48.22-1.73,2.94C58.75,58.27,58.62,57,59.84,56.23Z" style="fill:#f3f9f1"/><path d="M202.31,58.3a2.08,2.08,0,0,1,1.56,1.56h-2Z" style="fill:#fdf5bd;stroke:#754c24;stroke-linecap:round;stroke-linejoin:round;stroke-width:0.5px"/><path d="M189.57,60.25a2.08,2.08,0,0,1,1.56,1.56h-2Z" style="fill:#fdf5bd;stroke:#754c24;stroke-linecap:round;stroke-linejoin:round;stroke-width:0.5px"/><path d="M201.86,59.86c3.35-.45,5.53.52,6.17,3.38h-5.17Z" style="fill:#f3f9f1;stroke:#754c24;stroke-linecap:round;stroke-linejoin:round;stroke-width:0.5px"/><path d="M202.86,64.56V63.24s7-2.86,7,4.16-6.24,5.71-6.24,5.71Z" style="fill:#f3f9f1;stroke:#754c24;stroke-linecap:round;stroke-linejoin:round;stroke-width:0.5px"/><path d="M202.86,64.92c6.13.39,5.44,11.31-.68,10.92Q208,68.93,202.86,64.92Z" style="fill:#fdf5bd;stroke:#754c24;stroke-linecap:round;stroke-linejoin:round;stroke-width:0.5px"/><path d="M187.22,62.77l-.63-1.45s6.33-.53,6.09,2.54S187.67,66.84,187.22,62.77Z" style="fill:#f3f9f1;stroke:#754c24;stroke-linecap:round;stroke-linejoin:round;stroke-width:0.5px"/><path d="M187.43,65.84s-3.77-.52-3-3.64c0,0,7.24,1.3,7.89,2.08S191.21,66.37,187.43,65.84Z" style="fill:#fdf5bd;stroke:#754c24;stroke-linecap:round;stroke-linejoin:round;stroke-width:0.5px"/><path d="M196.25,56.9s2.39-5.5.14-13.29a8.87,8.87,0,0,1-.7-4.25l.7.28c-.24.44-.41.68,0,2.55C197.53,45.73,198.7,52.35,196.25,56.9Z" style="fill:#ff2b37"/><path d="M204.61,60.58a7.53,7.53,0,0,1-7.78,7.52,7.7,7.7,0,0,1-7-9.84,5,5,0,0,1,5.7-3.79,13.58,13.58,0,0,0,2.92-.13C201.73,53.92,204.61,57,204.61,60.58Z" style="fill:#ff2b37"/><path d="M202.86,64.92c6.58,2.83,2,13.49-4.58,10.66C202.11,72.74,203.5,69.15,202.86,64.92Z" style="fill:#f3f9f1;stroke:#754c24;stroke-linecap:round;stroke-linejoin:round;stroke-width:0.5px"/><path d="M202.86,64.92s3.09,13.91-12,10.53C197.79,74.42,201.87,71,202.86,64.92Z" style="fill:#fdf5bd;stroke:#754c24;stroke-linecap:round;stroke-linejoin:round;stroke-width:0.5px"/><path d="M202.86,64.92a2.41,2.41,0,0,0-3.15.4c-1.56,1.56,0,7.53-10.4,8.05C189.31,79.09,204.39,74.41,202.86,64.92Z" style="fill:#f3f9f1;stroke:#754c24;stroke-linecap:round;stroke-linejoin:round;stroke-width:0.5px"/><path d="M199.71,65.32a14.46,14.46,0,0,1-14.56,6C187.9,78,202.46,72,199.71,65.32Z" style="fill:#fdf5bd;stroke:#754c24;stroke-linecap:round;stroke-linejoin:round;stroke-width:0.5px"/><path d="M199.71,65.32s-3.52-3.1-4.42,1C194.5,70,182.51,68,184.89,71,188.85,76.12,201.23,67.18,199.71,65.32Z" style="fill:#f3f9f1;stroke:#754c24;stroke-linecap:round;stroke-linejoin:round;stroke-width:0.5px"/><path d="M184.11,65.78a.65.65,0,0,1,1-.5c1.65,1.32,5.45,3.48,9.35-.22,1.3-1.3,2.31-.81,2.31-.81C197,71.82,183.89,72.53,184.11,65.78Z" style="fill:#fdf5bd;stroke:#754c24;stroke-linecap:round;stroke-linejoin:round;stroke-width:0.5px"/><path d="M195.67,64.28c-2.65-1.79-7.29,1.82-11.75.22C184,69.84,195.78,69.62,195.67,64.28Z" style="fill:#f3f9f1;stroke:#754c24;stroke-linecap:round;stroke-linejoin:round;stroke-width:0.5px"/><path d="M192.43,55.8l.78.34s-1.48.22-1.73,2.94C191.34,57.83,191.22,56.59,192.43,55.8Z" style="fill:#f3f9f1"/><path d="M219,65.59a2.7,2.7,0,0,1,2,2h-2.6Z" style="fill:#fdf5bd;stroke:#754c24;stroke-linecap:round;stroke-linejoin:round;stroke-width:0.5px"/><path d="M202.49,68.11a2.68,2.68,0,0,1,2,2h-2.59Z" style="fill:#fdf5bd;stroke:#754c24;stroke-linecap:round;stroke-linejoin:round;stroke-width:0.5px"/><path d="M218.37,67.61c4.34-.59,7.15.68,8,4.37h-6.67Z" style="fill:#f3f9f1;stroke:#754c24;stroke-linecap:round;stroke-linejoin:round;stroke-width:0.5px"/><path d="M219.67,73.69V72s9-3.7,9,5.37-8.07,7.4-8.07,7.4Z" style="fill:#f3f9f1;stroke:#754c24;stroke-linecap:round;stroke-linejoin:round;stroke-width:0.5px"/><path d="M219.67,74.16c7.92.49,7,14.61-.89,14.11Q226.37,79.33,219.67,74.16Z" style="fill:#fdf5bd;stroke:#754c24;stroke-linecap:round;stroke-linejoin:round;stroke-width:0.5px"/><path d="M199.45,71.37l-.82-1.88s8.18-.67,7.88,3.29S200,76.64,199.45,71.37Z" style="fill:#f3f9f1;stroke:#754c24;stroke-linecap:round;stroke-linejoin:round;stroke-width:0.5px"/><path d="M199.72,75.35s-4.88-.68-3.91-4.72c0,0,9.34,1.68,10.2,2.69S204.6,76,199.72,75.35Z" style="fill:#fdf5bd;stroke:#754c24;stroke-linecap:round;stroke-linejoin:round;stroke-width:0.5px"/><path d="M211.12,63.79s3.09-7.11.18-17.18a11.54,11.54,0,0,1-.91-5.5l.91.36c-.32.57-.52.88,0,3.3C212.77,49.35,214.28,57.91,211.12,63.79Z" style="fill:#ff2b37"/><path d="M221.93,68.55a9.73,9.73,0,0,1-10.06,9.71,9.94,9.94,0,0,1-9-12.72c.9-3.18,3.35-5.24,7.36-4.89a17.72,17.72,0,0,0,3.78-.18C218.21,59.93,221.93,63.85,221.93,68.55Z" style="fill:#ff2b37"/><path d="M219.67,74.16c8.5,3.65,2.57,17.43-5.93,13.78C218.69,84.26,220.49,79.62,219.67,74.16Z" style="fill:#f3f9f1;stroke:#754c24;stroke-linecap:round;stroke-linejoin:round;stroke-width:0.5px"/><path d="M219.67,74.16s4,18-15.5,13.61C213.11,86.43,218.38,82,219.67,74.16Z" style="fill:#fdf5bd;stroke:#754c24;stroke-linecap:round;stroke-linejoin:round;stroke-width:0.5px"/><path d="M219.67,74.16a3.12,3.12,0,0,0-4.08.51c-2,2,0,9.74-13.44,10.41C202.15,92.47,221.64,86.43,219.67,74.16Z" style="fill:#f3f9f1;stroke:#754c24;stroke-linecap:round;stroke-linejoin:round;stroke-width:0.5px"/><path d="M215.59,74.67s-6.38,10.08-18.81,7.72C200.33,91.05,219.14,83.32,215.59,74.67Z" style="fill:#fdf5bd;stroke:#754c24;stroke-linecap:round;stroke-linejoin:round;stroke-width:0.5px"/><path d="M215.59,74.67s-4.55-4-5.71,1.34c-1,4.71-16.52,2.1-13.44,6C201.56,88.63,217.55,77.07,215.59,74.67Z" style="fill:#f3f9f1;stroke:#754c24;stroke-linecap:round;stroke-linejoin:round;stroke-width:0.5px"/><path d="M195.42,75.26a.84.84,0,0,1,1.36-.63c2.14,1.69,7.05,4.49,12.09-.3,1.68-1.68,3-1,3-1C212.06,83.07,195.14,84,195.42,75.26Z" style="fill:#fdf5bd;stroke:#754c24;stroke-linecap:round;stroke-linejoin:round;stroke-width:0.5px"/><path d="M210.37,73.32c-3.43-2.31-9.42,2.36-15.19.3C195.31,80.52,210.51,80.23,210.37,73.32Z" style="fill:#f3f9f1;stroke:#754c24;stroke-linecap:round;stroke-linejoin:round;stroke-width:0.5px"/><path d="M206.18,62.36l1,.44s-1.92.28-2.24,3.8C204.77,65,204.62,63.39,206.18,62.36Z" style="fill:#f3f9f1"/><path d="M55.67,65.16a2.68,2.68,0,0,1,2,2h-2.6Z" style="fill:#fdf5bd;stroke:#754c24;stroke-linecap:round;stroke-linejoin:round;stroke-width:0.5px"/><path d="M39.21,67.68a2.66,2.66,0,0,1,2,2H38.63Z" style="fill:#fdf5bd;stroke:#754c24;stroke-linecap:round;stroke-linejoin:round;stroke-width:0.5px"/><path d="M55.09,67.17c4.34-.58,7.15.68,8,4.37H56.39Z" style="fill:#f3f9f1;stroke:#754c24;stroke-linecap:round;stroke-linejoin:round;stroke-width:0.5px"/><path d="M56.39,73.25V71.54s9-3.7,9,5.38-8.07,7.39-8.07,7.39Z" style="fill:#f3f9f1;stroke:#754c24;stroke-linecap:round;stroke-linejoin:round;stroke-width:0.5px"/><path d="M56.39,73.72c7.92.49,7,14.61-.89,14.12Q63.09,78.89,56.39,73.72Z" style="fill:#fdf5bd;stroke:#754c24;stroke-linecap:round;stroke-linejoin:round;stroke-width:0.5px"/><path d="M36.17,70.93l-.82-1.87s8.18-.68,7.88,3.28S36.75,76.2,36.17,70.93Z" style="fill:#f3f9f1;stroke:#754c24;stroke-linecap:round;stroke-linejoin:round;stroke-width:0.5px"/><path d="M36.44,74.91s-4.88-.68-3.91-4.71c0,0,9.34,1.68,10.2,2.68S41.32,75.59,36.44,74.91Z" style="fill:#fdf5bd;stroke:#754c24;stroke-linecap:round;stroke-linejoin:round;stroke-width:0.5px"/><path d="M47.84,63.35s3.09-7.11.18-17.18a11.51,11.51,0,0,1-.91-5.49L48,41c-.32.57-.52.89,0,3.31C49.49,48.91,51,57.47,47.84,63.35Z" style="fill:#ff2b37"/><path d="M58.65,68.11a9.72,9.72,0,0,1-10.06,9.71,9.94,9.94,0,0,1-9-12.72c.9-3.18,3.35-5.24,7.36-4.89A17.72,17.72,0,0,0,50.74,60C54.93,59.49,58.65,63.41,58.65,68.11Z" style="fill:#ff2b37"/><path d="M56.39,73.72c8.5,3.65,2.57,17.43-5.93,13.78C55.41,83.82,57.21,79.18,56.39,73.72Z" style="fill:#f3f9f1;stroke:#754c24;stroke-linecap:round;stroke-linejoin:round;stroke-width:0.5px"/><path d="M56.39,73.72s4,18-15.5,13.61C49.83,86,55.1,81.55,56.39,73.72Z" style="fill:#fdf5bd;stroke:#754c24;stroke-linecap:round;stroke-linejoin:round;stroke-width:0.5px"/><path d="M56.39,73.72a3.12,3.12,0,0,0-4.08.51c-2,2,0,9.74-13.44,10.41C38.87,92,58.36,86,56.39,73.72Z" style="fill:#f3f9f1;stroke:#754c24;stroke-linecap:round;stroke-linejoin:round;stroke-width:0.5px"/><path d="M52.31,74.23S45.93,84.31,33.5,82C37.05,90.61,55.87,82.88,52.31,74.23Z" style="fill:#fdf5bd;stroke:#754c24;stroke-linecap:round;stroke-linejoin:round;stroke-width:0.5px"/><path d="M52.31,74.23s-4.55-4-5.71,1.34c-1,4.71-16.52,2.1-13.44,6.05C38.28,88.19,54.27,76.63,52.31,74.23Z" style="fill:#f3f9f1;stroke:#754c24;stroke-linecap:round;stroke-linejoin:round;stroke-width:0.5px"/><path d="M32.14,74.83a.84.84,0,0,1,1.36-.64c2.14,1.69,7,4.49,12.09-.3,1.68-1.68,3-1,3-1C48.78,82.63,31.86,83.56,32.14,74.83Z" style="fill:#fdf5bd;stroke:#754c24;stroke-linecap:round;stroke-linejoin:round;stroke-width:0.5px"/><path d="M47.09,72.88c-3.43-2.3-9.42,2.36-15.19.3C32,80.08,47.23,79.79,47.09,72.88Z" style="fill:#f3f9f1;stroke:#754c24;stroke-linecap:round;stroke-linejoin:round;stroke-width:0.5px"/><path d="M42.9,61.92l1,.44s-1.92.29-2.24,3.8C41.49,64.56,41.34,63,42.9,61.92Z" style="fill:#f3f9f1"/><path d="M193.65,69.45a3.2,3.2,0,0,1,2.41,2.41H193Z" style="fill:#fdf5bd;stroke:#754c24;stroke-linecap:round;stroke-linejoin:round;stroke-width:0.5px"/><path d="M173.93,72.46a3.22,3.22,0,0,1,2.41,2.42h-3.1Z" style="fill:#fdf5bd;stroke:#754c24;stroke-linecap:round;stroke-linejoin:round;stroke-width:0.5px"/><path d="M193,71.86c5.19-.7,8.57.81,9.55,5.23h-8Z" style="fill:#f3f9f1;stroke:#754c24;stroke-linecap:round;stroke-linejoin:round;stroke-width:0.5px"/><path d="M194.51,79.14v-2s10.81-4.42,10.81,6.44-9.66,8.85-9.66,8.85Z" style="fill:#f3f9f1;stroke:#754c24;stroke-linecap:round;stroke-linejoin:round;stroke-width:0.5px"/><path d="M194.51,79.7c9.48.59,8.42,17.5-1.07,16.91Q202.53,85.89,194.51,79.7Z" style="fill:#fdf5bd;stroke:#754c24;stroke-linecap:round;stroke-linejoin:round;stroke-width:0.5px"/><path d="M170.29,76.36l-1-2.24s9.79-.81,9.43,3.93S171,82.67,170.29,76.36Z" style="fill:#f3f9f1;stroke:#754c24;stroke-linecap:round;stroke-linejoin:round;stroke-width:0.5px"/><path d="M170.62,81.13s-5.85-.82-4.69-5.65c0,0,11.19,2,12.21,3.22S176.46,81.94,170.62,81.13Z" style="fill:#fdf5bd;stroke:#754c24;stroke-linecap:round;stroke-linejoin:round;stroke-width:0.5px"/><path d="M184.27,67.28s3.7-8.51.21-20.57c-1.52-4.17-1.09-6.58-1.09-6.58l1.09.43c-.37.68-.62,1,0,3.95C186.24,50,188.05,60.24,184.27,67.28Z" style="fill:#ff2b37"/><path d="M197.21,73a11.63,11.63,0,0,1-12,11.63c-7.63-.26-12.85-7.88-10.77-15.23,1.07-3.81,4-6.28,8.82-5.86a21.38,21.38,0,0,0,4.52-.21C192.75,62.66,197.21,67.36,197.21,73Z" style="fill:#ff2b37"/><path d="M194.51,79.7c10.17,4.37,3.08,20.88-7.1,16.51C193.33,91.8,195.49,86.24,194.51,79.7Z" style="fill:#f3f9f1;stroke:#754c24;stroke-linecap:round;stroke-linejoin:round;stroke-width:0.5px"/><path d="M194.51,79.7s4.77,21.54-18.57,16.3C186.65,94.4,193,89.08,194.51,79.7Z" style="fill:#fdf5bd;stroke:#754c24;stroke-linecap:round;stroke-linejoin:round;stroke-width:0.5px"/><path d="M194.51,79.7a3.75,3.75,0,0,0-4.89.61c-2.41,2.42,0,11.67-16.09,12.48C173.53,101.64,196.87,94.39,194.51,79.7Z" style="fill:#f3f9f1;stroke:#754c24;stroke-linecap:round;stroke-linejoin:round;stroke-width:0.5px"/><path d="M189.62,80.31S182,92.38,167.09,89.57C171.34,99.93,193.88,90.67,189.62,80.31Z" style="fill:#fdf5bd;stroke:#754c24;stroke-linecap:round;stroke-linejoin:round;stroke-width:0.5px"/><path d="M189.62,80.31s-5.44-4.79-6.84,1.61c-1.23,5.64-19.78,2.51-16.09,7.24C172.81,97,192,83.19,189.62,80.31Z" style="fill:#f3f9f1;stroke:#754c24;stroke-linecap:round;stroke-linejoin:round;stroke-width:0.5px"/><path d="M165.47,81a1,1,0,0,1,1.62-.77c2.57,2,8.45,5.38,14.48-.35,2-2,3.58-1.25,3.58-1.25C185.39,90.38,165.13,91.48,165.47,81Z" style="fill:#fdf5bd;stroke:#754c24;stroke-linecap:round;stroke-linejoin:round;stroke-width:0.5px"/><path d="M183.37,78.7c-4.11-2.76-11.28,2.82-18.2.35C165.33,87.32,183.53,87,183.37,78.7Z" style="fill:#f3f9f1;stroke:#754c24;stroke-linecap:round;stroke-linejoin:round;stroke-width:0.5px"/><path d="M178.36,65.57l1.2.53s-2.3.34-2.68,4.55C176.67,68.73,176.48,66.81,178.36,65.57Z" style="fill:#f3f9f1"/><path d="M88.88,68.79A3.21,3.21,0,0,1,91.3,71.2H88.19Z" style="fill:#fdf5bd;stroke:#754c24;stroke-linecap:round;stroke-linejoin:round;stroke-width:0.5px"/><path d="M69.17,71.81a3.2,3.2,0,0,1,2.41,2.41H68.47Z" style="fill:#fdf5bd;stroke:#754c24;stroke-linecap:round;stroke-linejoin:round;stroke-width:0.5px"/><path d="M88.19,71.2c5.19-.7,8.57.81,9.55,5.23h-8Z" style="fill:#f3f9f1;stroke:#754c24;stroke-linecap:round;stroke-linejoin:round;stroke-width:0.5px"/><path d="M89.74,78.48v-2s10.81-4.42,10.81,6.44-9.65,8.86-9.65,8.86Z" style="fill:#f3f9f1;stroke:#754c24;stroke-linecap:round;stroke-linejoin:round;stroke-width:0.5px"/><path d="M89.74,79c9.49.6,8.43,17.51-1.06,16.91Q97.77,85.24,89.74,79Z" style="fill:#fdf5bd;stroke:#754c24;stroke-linecap:round;stroke-linejoin:round;stroke-width:0.5px"/><path d="M65.52,75.7l-1-2.24s9.79-.81,9.43,3.94S66.22,82,65.52,75.7Z" style="fill:#f3f9f1;stroke:#754c24;stroke-linecap:round;stroke-linejoin:round;stroke-width:0.5px"/><path d="M65.86,80.47s-5.85-.82-4.7-5.65c0,0,11.2,2,12.22,3.22S71.7,81.28,65.86,80.47Z" style="fill:#fdf5bd;stroke:#754c24;stroke-linecap:round;stroke-linejoin:round;stroke-width:0.5px"/><path d="M79.51,66.63s3.7-8.52.21-20.58c-1.53-4.17-1.09-6.58-1.09-6.58l1.09.43c-.38.68-.63,1.06,0,4C81.48,49.33,83.29,59.58,79.51,66.63Z" style="fill:#ff2b37"/><path d="M92.45,72.32A11.64,11.64,0,0,1,80.4,84c-7.63-.25-12.84-7.88-10.77-15.23,1.08-3.81,4-6.27,8.83-5.85A20.77,20.77,0,0,0,83,62.65C88,62,92.45,66.7,92.45,72.32Z" style="fill:#ff2b37"/><path d="M89.74,79c10.18,4.38,3.08,20.88-7.09,16.51C88.57,91.15,90.73,85.58,89.74,79Z" style="fill:#f3f9f1;stroke:#754c24;stroke-linecap:round;stroke-linejoin:round;stroke-width:0.5px"/><path d="M89.74,79s4.78,21.54-18.56,16.31C81.88,93.75,88.2,88.42,89.74,79Z" style="fill:#fdf5bd;stroke:#754c24;stroke-linecap:round;stroke-linejoin:round;stroke-width:0.5px"/><path d="M89.74,79a3.74,3.74,0,0,0-4.88.61c-2.41,2.42,0,11.67-16.1,12.48C68.76,101,92.1,93.74,89.74,79Z" style="fill:#f3f9f1;stroke:#754c24;stroke-linecap:round;stroke-linejoin:round;stroke-width:0.5px"/><path d="M84.86,79.65s-7.65,12.08-22.53,9.26C66.58,99.27,89.12,90,84.86,79.65Z" style="fill:#fdf5bd;stroke:#754c24;stroke-linecap:round;stroke-linejoin:round;stroke-width:0.5px"/><path d="M84.86,79.65S79.41,74.86,78,81.26c-1.23,5.64-19.78,2.51-16.1,7.25C68.05,96.38,87.21,82.53,84.86,79.65Z" style="fill:#f3f9f1;stroke:#754c24;stroke-linecap:round;stroke-linejoin:round;stroke-width:0.5px"/><path d="M60.71,80.37a1,1,0,0,1,1.62-.77c2.56,2,8.45,5.39,14.48-.35,2-2,3.58-1.24,3.58-1.24C80.63,89.72,60.37,90.83,60.71,80.37Z" style="fill:#fdf5bd;stroke:#754c24;stroke-linecap:round;stroke-linejoin:round;stroke-width:0.5px"/><path d="M78.61,78c-4.11-2.76-11.29,2.83-18.2.35C60.57,86.66,78.77,86.31,78.61,78Z" style="fill:#f3f9f1;stroke:#754c24;stroke-linecap:round;stroke-linejoin:round;stroke-width:0.5px"/><path d="M73.59,64.91l1.21.53s-2.3.34-2.68,4.56C71.91,68.07,71.72,66.15,73.59,64.91Z" style="fill:#f3f9f1"/></g></g></svg>