<svg xmlns="http://www.w3.org/2000/svg" viewBox="0 0 260 260"><g id="Layer_2" data-name="Layer 2"><g id="Layer_1-2" data-name="Layer 1"><rect x="5" y="5" width="250" height="250" rx="35.06" style="fill:#ff8fa9;stroke:#fffba4;stroke-miterlimit:10;stroke-width:10px"/><path d="M230,152.46V66.07c0-8.46-44.77-15.32-100-15.32S30,57.61,30,66.07l.12,42.24a2.51,2.51,0,0,0-.12.76l.13,42.59h0a3,3,0,0,0-.13.9l.13,42.58c0,6.24,24.28,11.6,59.14,14l40.73-14,39.4,14.07c34.24-2.24,58.66-7.33,60.6-13.32V152.57S230,152.49,230,152.46Z" style="fill:#fff;stroke:#754c24;stroke-linecap:round;stroke-linejoin:round"/><path d="M130.67,68l39.71,14.2a632.74,632.74,0,0,1-80.76-.09Z" style="fill:#870722"/><path d="M130.67,83.39c-14.62,0-28.51-.47-41-1.33v86.13h0v37.36l41-14.11,39.71,14.2V168.28h0V82.15C158.19,83,144.77,83.39,130.67,83.39Z" style="fill:#870722"/><line x1="130.67" y1="70.09" x2="130.67" y2="195.14" style="fill:none;stroke:#75031e;stroke-miterlimit:10;stroke-width:9px"/><path d="M110.08,97.19c.09.86-.24,2-1.4,1.52-1.4.16-1.57-.53-1.44-1.52a1.32,1.32,0,0,1,.87-1.73C109.43,95.54,110.5,96.5,110.08,97.19Z" style="fill:#75031e"/><path d="M126.82,80.69c.58.93-.18,1.32-1.53,1.69-.29-.18-1.55-1.14-1.4-1.61-.29-1.09.42-1.73,2-1.84C126.8,78.69,127.06,79.55,126.82,80.69Z" style="fill:#75031e"/><path d="M95.29,91.64a1.5,1.5,0,0,1-1.42,1.62,1.68,1.68,0,0,1-1.49-1.52c-.5-1.23.5-2,2-2C94.51,89.46,95.89,90.83,95.29,91.64Z" style="fill:#75031e"/><path d="M127,101.41c.24.52-.19,1.37-1.55,1.54-.92-.16-1.19-1-1.47-1.84s.81-1.79,1.38-1.27C126.18,99.74,127.38,100.66,127,101.41Z" style="fill:#75031e"/><path d="M107,109.23c0,.7-.68,1.32-1.69,1.31-.48.19-1.7-.47-1.17-1.24-.5-1.4.36-2,1.41-1.54C106.82,107.51,107.59,108.05,107,109.23Z" style="fill:#75031e"/><path d="M118,100.5c.23.48-.47.86-.78,1-.45-.09-.57-.36-.74-.91.1-.27.52-.69.83-.66S118.09,100.23,118,100.5Z" style="fill:#75031e"/><path d="M116.89,111.47c-.12.55-.17.86-.64.82-.7.14-.75-.26-.74-.81s0-.79.56-.73C116.52,110.66,116.8,111.05,116.89,111.47Z" style="fill:#75031e"/><path d="M111,89.61a1.59,1.59,0,0,1-.74.86c-.72,0-1.15-.29-1.13-.68.17-.67.48-.85.95-.91C110.36,88.77,111,89.32,111,89.61Z" style="fill:#75031e"/><path d="M101.57,93.25c.14.45-.34.69-.64.68a.68.68,0,0,1-.85-.54c0-.66.54-1.08.66-.81A.72.72,0,0,1,101.57,93.25Z" style="fill:#75031e"/><path d="M99.69,106.27c-.19.49-.18.81-.71.58-.61.06-1-.22-1-.67s.37-.83.91-.61A.71.71,0,0,1,99.69,106.27Z" style="fill:#75031e"/><path d="M94.91,103.24c.27.37-.45.67-.87.52-.23.08-.66-.38-.72-.73.15-.4.43-.88.89-.7C94.82,102.26,95,102.57,94.91,103.24Z" style="fill:#75031e"/><path d="M117.88,85.28c-.27.72-.37,1-1,1a1.14,1.14,0,0,1-.74-.8c0-.34.62-.75.74-1C117.27,84.72,117.86,84.86,117.88,85.28Z" style="fill:#75031e"/><path d="M123.65,109.05c.08.66-.23.7-.56,1a1.33,1.33,0,0,1-.86-1c.09-.24.21-.74,1-.6C123.45,108.49,123.83,108.83,123.65,109.05Z" style="fill:#75031e"/><path d="M103.8,103.2c-.57.38-.94.7-1.48.59-1,.06-1.36-.14-1.44-.79.39-.41.42-.73,1.44-.72A4.07,4.07,0,0,1,103.8,103.2Z" style="fill:#75031e"/><path d="M107.08,87.51c-.08.58-.58,1.07-1.64.79a1.64,1.64,0,0,1-1.35-.64c.1-.6,1.11-.94,1.21-.68A1.82,1.82,0,0,1,107.08,87.51Z" style="fill:#75031e"/><path d="M96.65,116.42c.25.39-.65.83-1.37.9-.47.05-1.18-.39-.71-.75-.19-.34.43-.83,1.25-.82C96.12,115.68,97,115.94,96.65,116.42Z" style="fill:#75031e"/><path d="M126.73,90.25c.22.35-.71.8-1.22.73s-1.41-.29-1.53-1c.54-.33.91-.75,1.36-.61C126.44,89.35,126.72,89.7,126.73,90.25Z" style="fill:#75031e"/><path d="M117.58,105.67c.23.19-.41.74-1.52.8-.11-.23-1.19-.48-.64-.87-.2-.54.45-.82,1-.73A1.17,1.17,0,0,1,117.58,105.67Z" style="fill:#75031e"/><path d="M150.86,100.83a2.15,2.15,0,0,0-1.53-2.11,1.89,1.89,0,0,0-.32,3.77A2.75,2.75,0,0,0,150.86,100.83Z" style="fill:#75031e"/><path d="M167.85,117.59a2.05,2.05,0,0,0-1.7-2c-1.06.12-1.77.66-1.46,1.68,0,1.34.37,1.78,1.74,2.14C167.3,118.76,168,118.55,167.85,117.59Z" style="fill:#75031e"/><path d="M136.23,106.43c0-1.16-.5-1.64-1.28-1.62-1.45-.22-1.86.42-2.28,1.35.42,1.53,1.36,1.87,2.09,1.63C135.94,108.21,136.17,107.12,136.23,106.43Z" style="fill:#75031e"/><path d="M168.15,96.68c-.06-.8-1.14-1.48-2.11-1.44-1.06-.32-1.71.22-1.81,1.51a4.38,4.38,0,0,0,1.9,1.64A1.92,1.92,0,0,0,168.15,96.68Z" style="fill:#75031e"/><path d="M147.94,88.76c.35-.73-.34-1.64-1.27-2-1.37.42-2.21,1.1-1.9,1.71.17,1.39.75,2.17,1.53,2.22A1.64,1.64,0,0,0,147.94,88.76Z" style="fill:#75031e"/><path d="M158.89,97.3a.94.94,0,0,0-.73-.82c-.7,0-.86.29-.93.65a.62.62,0,0,0,.56.86C158.6,98.09,158.68,97.73,158.89,97.3Z" style="fill:#75031e"/><path d="M157.67,86.31c0-.57-.45-.7-.88-.9-.22.06-.58.6-.92.87.08.57.57.81,1.07,1A.79.79,0,0,0,157.67,86.31Z" style="fill:#75031e"/><path d="M151.65,108.34c-.05-.49-.35-.89-.7-.78a.75.75,0,0,0-1.07.72.83.83,0,0,0,.83.72C151.42,109.1,151.58,108.76,151.65,108.34Z" style="fill:#75031e"/><path d="M142.33,104.54a.73.73,0,0,0-.84-.8c-.26,0-.81.61-.75.8a.94.94,0,0,0,1,.76C142.17,105.52,142.6,105.17,142.33,104.54Z" style="fill:#75031e"/><path d="M140.4,91.6c.13-.23-.41-.75-.94-.72s-.77.38-.61.94c.12.25.24.73.73.68S140.21,92.13,140.4,91.6Z" style="fill:#75031e"/><path d="M135.63,94.79a.57.57,0,0,0-.73-.63c-.39-.18-.88.26-.64.61-.22.56.19.72.55.78A.64.64,0,0,0,135.63,94.79Z" style="fill:#75031e"/><path d="M158.35,112.33c.34-.15-.27-.55-.52-.61s-1,.32-1,.61c.36.71.5.87,1,1S158.41,113.06,158.35,112.33Z" style="fill:#75031e"/><path d="M164.64,88.8c0-.58-.38-1-.76-.7-.35-.26-.72.36-.72.7-.3.4.14.63.45.86C164.23,89.49,164.73,89.24,164.64,88.8Z" style="fill:#75031e"/><path d="M144.08,94.71c.44-.2-.74-.78-1.2-.54-.5,0-1.41.09-1,.53,0,.49.31.91,1.41.76C143.73,95.52,144.28,95.11,144.08,94.71Z" style="fill:#75031e"/><path d="M147.62,110.25a1.16,1.16,0,0,0-1.25-.64c-.54-.08-1.54.33-1.58.59a2.65,2.65,0,0,0,1.48,1C147,111,147.83,110.53,147.62,110.25Z" style="fill:#75031e"/><path d="M137.24,81.36c.52-.56-.08-.7-1.21-.72-.13,0-1,.31-1,.79s.63.63,1.38.68C136.63,82.25,137.75,81.84,137.24,81.36Z" style="fill:#75031e"/><path d="M167.3,107.78c.26-.35-.51-.85-1.11-.7-.35,0-.95.42-1.5.85.12.38.62.63,1.37.5C166.84,108.51,167.53,108.19,167.3,107.78Z" style="fill:#75031e"/><path d="M158.22,92.35a1.24,1.24,0,0,0-1.05-.86c-1,.05-1.19.5-1.61.76.57.39.6.76,1.8,1C157.84,93.15,158.52,92.75,158.22,92.35Z" style="fill:#75031e"/><path d="M110.34,178.63a6.47,6.47,0,0,1-1.7,1.75,1.62,1.62,0,0,1-1.49-2.23c-.56-.75.15-1.35,1.33-1.41C109.79,177,110.24,177.26,110.34,178.63Z" style="fill:#75031e"/><path d="M127.5,161.45c-.46,1.36-1.42,1.64-1.79,1.63-1.38.21-1.95-.68-1.65-1.26.22-1.27.25-1.59,1.61-1.72C126,160,126.9,160.69,127.5,161.45Z" style="fill:#75031e"/><path d="M95.85,172.42a3.07,3.07,0,0,1-2.09,2c-.37.15-1.47-1.05-1.41-2-.38-.77,1-1.22,1.87-1.43A1.41,1.41,0,0,1,95.85,172.42Z" style="fill:#75031e"/><path d="M127.55,182.34c-.21,1-.88,2-2.19,1.64-.83.27-1.46-.5-1.87-1.29.44-1.34,1.46-2,1.83-1.66C126.22,180.59,127.05,181.81,127.55,182.34Z" style="fill:#75031e"/><path d="M107.6,190.55c-.42.38-1.46,1.43-1.64,1.51-1.47-.05-2.37-.79-2.4-1.85.47-1.14.72-1.59,2-1.48C106.63,188.73,107.27,189.1,107.6,190.55Z" style="fill:#75031e"/><path d="M118,182a.8.8,0,0,1-.83.62c-.25.15-.76-.49-.76-.77.09-.54.56-.87.67-.82C117.75,181,118,181.32,118,182Z" style="fill:#75031e"/><path d="M116.72,192.87c.14.21-.36.7-.53.73a1.19,1.19,0,0,1-1-.94c.07-.33.36-.5.82-.54S116.72,192.34,116.72,192.87Z" style="fill:#75031e"/><path d="M110.71,170.74c.27.7-.18,1-.44.79-.69.16-1-.25-.8-.51,0-.71.17-1,.71-1C110.36,170.08,110.87,170.53,110.71,170.74Z" style="fill:#75031e"/><path d="M101.74,174.41c-.11.36-.24.78-.65.92s-.78-.34-1.13-.88a1.41,1.41,0,0,1,.85-.83A.72.72,0,0,1,101.74,174.41Z" style="fill:#75031e"/><path d="M99.66,187.47c-.16.45-.52.68-.74.59-.58.19-.73-.32-1-.52a2.15,2.15,0,0,1,.76-.93A.79.79,0,0,1,99.66,187.47Z" style="fill:#75031e"/><path d="M94.83,184.22c.11.64-.16.86-.67.93a.64.64,0,0,1-.59-.93c-.29-.47.06-.77.79-.84C94.84,183.64,95.13,183.92,94.83,184.22Z" style="fill:#75031e"/><path d="M117.76,166.64c-.1.54-.31.65-.72.88a1.08,1.08,0,0,1-.93-1c.06-.45.39-.68,1.1-.54C117.4,165.84,117.87,166.24,117.76,166.64Z" style="fill:#75031e"/><path d="M123.79,190.4a.85.85,0,0,1-.65.77c-.44,0-.77-.32-.73-1,0-.4,0-.53.69-.67A1.13,1.13,0,0,1,123.79,190.4Z" style="fill:#75031e"/><path d="M103.17,184.28c.49.54-.1.84-.76.74-1.07.06-1.48-.14-1.28-.68s.55-.69,1.35-.89C103.17,183.47,103.77,183.94,103.17,184.28Z" style="fill:#75031e"/><path d="M106.56,168.82c.4.53-.46.92-.91.8-.85-.11-1.26-.27-1.24-.8-.18-.38.63-.82,1.45-.9C106.27,168,106.84,168.52,106.56,168.82Z" style="fill:#75031e"/><path d="M96.59,197.87a2.05,2.05,0,0,1-1.12.76c-.92,0-.84-.37-1.32-.82,0-.65.62-.87,1.39-.92C96.18,197,97.05,197.39,96.59,197.87Z" style="fill:#75031e"/><path d="M126.94,171.46a3.35,3.35,0,0,1-1.45.75c-.68-.06-1.13-.43-1-.77-.12-.55.5-.92.74-.78C126.29,170.69,126.86,171,126.94,171.46Z" style="fill:#75031e"/><path d="M117.74,186.8c0,.37-.41.71-1.08.75-.92.1-1.75-.3-1.4-.91-.29-.17.47-.64,1.41-.55C116.87,185.85,117.41,186.24,117.74,186.8Z" style="fill:#75031e"/><path d="M150.79,181.76c.1-1-.23-1.35-1.39-1.84-1.41.16-1.58,1-1.45,1.84-.24,1,.21,1.75.88,1.62C150.14,183.46,151.22,182.92,150.79,181.76Z" style="fill:#75031e"/><path d="M167.54,198.81c.57-.92-.19-2-1.54-1.66-.28-.19-1.54.36-1.4,1.74-.29.77.43,1.63,2,1.52A1.17,1.17,0,0,0,167.54,198.81Z" style="fill:#75031e"/><path d="M136,187.84c0-1.4-.18-1.85-1.42-1.74-1.15-.27-1.4.55-1.49,1.84-.5.63.51,1.34,2,1.35C135.22,189,136.61,188.88,136,187.84Z" style="fill:#75031e"/><path d="M167.68,177.93c.25-1.34-.18-2-1.55-1.83-.91-.15-1.18.49-1.47,1.52s.81,1.57,1.39,2.09C166.9,179.61,168.1,179,167.68,177.93Z" style="fill:#75031e"/><path d="M147.74,170.08a1.81,1.81,0,0,0-1.69-2c-.48.18-1.7,1-1.17,2.11-.5.45.36,1.33,1.41,1.82C147.53,171.71,148.31,170.75,147.74,170.08Z" style="fill:#75031e"/><path d="M158.7,178.35c.24-.38-.47-.71-.77-.55-.45-.09-.57.34-.75.66a1,1,0,0,0,.84.9A.9.9,0,0,0,158.7,178.35Z" style="fill:#75031e"/><path d="M157.6,167.4c-.11-.32-.16-.71-.63-.75-.7.14-.76.44-.74.76s0,.78.55.83A1,1,0,0,0,157.6,167.4Z" style="fill:#75031e"/><path d="M151.73,189.39a1.13,1.13,0,0,0-.74-.71c-.72,0-1.15.41-1.12.88.17.2.48.72.95.66C151.08,190.11,151.71,190,151.73,189.39Z" style="fill:#75031e"/><path d="M142.29,185.86c.13-.4-.34-.86-.65-.87-.6.11-.89.28-.85,1,0,.2.55.48.66.75A.78.78,0,0,0,142.29,185.86Z" style="fill:#75031e"/><path d="M140.41,172.94c-.19-.38-.19-.76-.72-1a1,1,0,0,0-1,.9,1.31,1.31,0,0,0,.92,1A.85.85,0,0,0,140.41,172.94Z" style="fill:#75031e"/><path d="M135.62,176.17c.28-.49-.44-.89-.87-1a1,1,0,0,0-.71.83,1.32,1.32,0,0,0,.88.87C135.53,176.76,135.72,176.37,135.62,176.17Z" style="fill:#75031e"/><path d="M158.6,193.56c-.28-.15-.37-.58-1-.58-.36-.08-.7.19-.74.77s.61.81.73.59C158,194.57,158.58,194,158.6,193.56Z" style="fill:#75031e"/><path d="M164.37,169.9c.08-.2-.23-.86-.57-.61-.35-.18-.64.4-.86.54.09.62.22.82,1,1C164.17,170.91,164.54,170.54,164.37,169.9Z" style="fill:#75031e"/><path d="M144.52,176.13a3.51,3.51,0,0,0-1.48-1c-1.06.06-1.36.55-1.44.77.38.45.41.84,1.43.85A1.56,1.56,0,0,0,144.52,176.13Z" style="fill:#75031e"/><path d="M147.79,191.31c-.07-.28-.57-.49-1.63-.77a4.82,4.82,0,0,0-1.35.93c.1.26,1.11.62,1.2.88A2.5,2.5,0,0,0,147.79,191.31Z" style="fill:#75031e"/><path d="M137.36,162.51c.25-.48-.64-.74-1.37-.67-.46,0-1.17.31-.71.82-.18.52.44.73,1.26.74C136.84,163.33,137.67,162.89,137.36,162.51Z" style="fill:#75031e"/><path d="M167.44,189.13c.23-.51-.7-.77-1.22-.83a2.49,2.49,0,0,0-1.52.61,3.52,3.52,0,0,0,1.36,1C167.15,189.8,167.44,189.44,167.44,189.13Z" style="fill:#75031e"/><path d="M158.29,173.68c.24-.67-.4-.83-1.51-.77-.11-.23-1.2.23-.64.7-.2.32.44.75,1,.84A2.34,2.34,0,0,0,158.29,173.68Z" style="fill:#75031e"/><path d="M109.47,140.42c-.17-1.13,1.11-1.62,1.83-2.1a1.28,1.28,0,0,1,1.41,1.73,1.87,1.87,0,0,1-1.73,2C110.27,141.75,109.39,140.83,109.47,140.42Z" style="fill:#75031e"/><path d="M92.46,157.19c-.2-1.31.8-1.75,1.65-2A2.31,2.31,0,0,1,96,156.85c0,1.34-1.13,1.78-1.61,2.14C93.41,158.36,92.62,158.15,92.46,157.19Z" style="fill:#75031e"/><path d="M123.92,146c0-1.16,1-1.64,2.08-1.62a1,1,0,0,1,1.08,1.34c.42,1.54-.15,1.88-1.27,1.64C125.14,147.8,123.86,146.72,123.92,146Z" style="fill:#75031e"/><path d="M92.75,136.28c0-.8.37-1.48,1.26-1.44.78-.33,1.64.22,1.54,1.51.36.56-.36,1.38-1.46,1.63C93.56,138,92.78,136.94,92.75,136.28Z" style="fill:#75031e"/><path d="M112.37,128.36a4,4,0,0,1,2.09-2,6.52,6.52,0,0,1,1.45,1.71,1.86,1.86,0,0,1-1.83,2.22C113.41,130.29,112.68,129.19,112.37,128.36Z" style="fill:#75031e"/><path d="M101.84,136.89c-.08-.57.23-.73.84-.81.16,0,.71.28.63.65a1.21,1.21,0,0,1-1,.86C102.25,137.69,101.63,137.32,101.84,136.89Z" style="fill:#75031e"/><path d="M102.86,125.91c0-.57.25-.7.69-.91.64.07,1,.6.64.88a.77.77,0,0,1-.49,1A1,1,0,0,1,102.86,125.91Z" style="fill:#75031e"/><path d="M108.92,147.93a.71.71,0,0,1,.87-.77c.29-.18.45.14.49.72.08.32-.4.73-.73.72C109.4,148.7,108.85,148.35,108.92,147.93Z" style="fill:#75031e"/><path d="M118,144.14c.06-.24.57-.83.72-.81.61,0,.76.62.82.81.21.62-.17.75-.57.76C118.49,145.11,118.21,144.76,118,144.14Z" style="fill:#75031e"/><path d="M120,131.2c.13-.23.29-.75.63-.72a1.38,1.38,0,0,1,1,.93c.12.26-.46.73-.84.69S119.85,131.73,120,131.2Z" style="fill:#75031e"/><path d="M124.66,134.39c.11-.42.35-.74.84-.64.48-.17.69.27.93.62a1.06,1.06,0,0,1-1,.78C125.18,135.25,124.71,134.83,124.66,134.39Z" style="fill:#75031e"/><path d="M101.75,151.92c.34-.14.44-.54,1-.6s.55.32.53.61c.36.7-.21.87-.55,1S101.81,152.66,101.75,151.92Z" style="fill:#75031e"/><path d="M96,128.4c0-.59.33-1,.81-.7.52-.26.85.36.85.69a2.35,2.35,0,0,1-1.11.87A1.34,1.34,0,0,1,96,128.4Z" style="fill:#75031e"/><path d="M116.11,134.3c.44-.2.37-.78,1.26-.53.86,0,1,.09,1.46.53,0,.49-.78.91-1,.76A1.65,1.65,0,0,1,116.11,134.3Z" style="fill:#75031e"/><path d="M112.94,149.85c-.17-.39.49-.72,1.22-.64.82-.08.92.33.88.59.22.38-.32.72-1,1A2.19,2.19,0,0,1,112.94,149.85Z" style="fill:#75031e"/><path d="M122.7,121a2.08,2.08,0,0,1,1.25-.71c1.23,0,1.47.3,1.5.79s-.47.63-1.08.68C123.19,121.85,123.21,121.44,122.7,121Z" style="fill:#75031e"/><path d="M92.8,147.37a1.28,1.28,0,0,1,1.35-.69c1-.05,1.51.41,1,.84.12.39-.49.64-1.09.51A1.2,1.2,0,0,1,92.8,147.37Z" style="fill:#75031e"/><path d="M102.07,132c-.18-.35.76-.76,1.4-.86.34,0,1.28.5.86.76.57.39-.5.76-.66,1A2,2,0,0,1,102.07,132Z" style="fill:#75031e"/><path d="M150.83,137c-.36.59.19,1.58,1.65,1.75,1.2.07,1.41-.67,1.87-2.23a3.31,3.31,0,0,0-2-1.41C151.78,135.38,150.73,135.65,150.83,137Z" style="fill:#75031e"/><path d="M134,119.83c-.46,1.37.08,1.65,1.57,1.64.47.21,1.4-.68,1.7-1.26.22-1.27-1.25-1.59-1.75-1.72C134,118.34,133.39,119.08,134,119.83Z" style="fill:#75031e"/><path d="M165.43,130.81c-.55,1.42.13,1.61,1.26,1.95,1.48.15,1.88-1,1.95-2-.39-.77-.51-1.22-1.49-1.43C166.42,129.19,165.46,130.13,165.43,130.81Z" style="fill:#75031e"/><path d="M134,140.73c-.2,1,.63,2,1.17,1.63,1,.28,1.9-.49,1.49-1.28.44-1.34,0-2-1.52-1.66A.9.9,0,0,0,134,140.73Z" style="fill:#75031e"/><path d="M153.91,148.94c-.42.38,0,1.43,1.71,1.51a1.8,1.8,0,0,0,1-1.85c.48-1.14-.78-1.59-1.36-1.48C154.44,147.11,153.58,147.49,153.91,148.94Z" style="fill:#75031e"/><path d="M142.87,140.38c-.06.19.48.63.74.62.62.15.8-.49.8-.77.09-.54-.14-.87-.9-.82C143.29,139.43,142.88,139.71,142.87,140.38Z" style="fill:#75031e"/><path d="M143.79,151.26a1.19,1.19,0,0,0,1,.73c.56,0,.77-.27.57-.94.07-.34-.34-.5-.74-.54S143.79,150.73,143.79,151.26Z" style="fill:#75031e"/><path d="M149.86,129.13c.27.7.52,1,1.13.79.17.16.55-.25.76-.51a.84.84,0,0,0-.85-.95A1.17,1.17,0,0,0,149.86,129.13Z" style="fill:#75031e"/><path d="M159.23,132.8c-.1.36.47.78.92.92s.79-.34.44-.88c.16-.55,0-.74-.72-.83C159.7,131.9,159.29,132.4,159.23,132.8Z" style="fill:#75031e"/><path d="M161.18,145.86c-.16.45.19.68.83.59.28.19.83-.32.6-.52.3-.62-.09-.81-.8-.93C161.51,145,161.16,145.25,161.18,145.86Z" style="fill:#75031e"/><path d="M165.75,142.61a1.06,1.06,0,0,0,.89.93c.33.06.81-.53,1-.93a2.45,2.45,0,0,0-.78-.84A7.3,7.3,0,0,0,165.75,142.61Z" style="fill:#75031e"/><path d="M143,125c-.1.54.39.65.84.88a.88.88,0,0,0,.65-1c.05-.45-.32-.68-.47-.54A.8.8,0,0,0,143,125Z" style="fill:#75031e"/><path d="M137,148.79c0,.22.56.6.92.77s.79-.32.83-1c0-.41-.65-.53-.87-.67C137.3,148,136.94,148.41,137,148.79Z" style="fill:#75031e"/><path d="M157.09,142.67a1.82,1.82,0,0,0,1.69.74,1.19,1.19,0,0,0,1.19-.69c.13-.45-.56-.68-1.11-.89A4.13,4.13,0,0,0,157.09,142.67Z" style="fill:#75031e"/><path d="M153.76,127.21c.4.53.65.92,1.55.79.52-.1,1.2-.27,1.23-.79a1.38,1.38,0,0,0-1-.9A2.48,2.48,0,0,0,153.76,127.21Z" style="fill:#75031e"/><path d="M163.92,156.26c-.07.14.56.64,1.35.75.44,0,1.62-.36,1.14-.81,0-.65-.48-.88-1.07-.92C164.62,155.4,164.39,155.78,163.92,156.26Z" style="fill:#75031e"/><path d="M134.32,129.85c-.34.26.4.58,1,.75a2,2,0,0,0,1.48-.77c-.12-.55-.59-.92-1.72-.78C134.77,129.08,134.24,129.36,134.32,129.85Z" style="fill:#75031e"/><path d="M143.46,145.19c0,.37.7.71,1.39.75.44.1.71-.3,1.06-.92-.29-.16-.63-.63-1-.54C143.7,144.24,143.14,144.63,143.46,145.19Z" style="fill:#75031e"/><polygon points="130.67 148.48 130.67 154.07 170.38 168.09 170.38 162.68 130.67 148.48" style="fill:#75031e"/><polygon points="130.67 148.48 130.67 154.07 89.62 168.09 89.62 162.59 130.67 148.48" style="fill:#75031e"/><polygon points="130.67 189.65 130.67 195.24 170.38 209.25 170.38 203.85 130.67 189.65" style="fill:#75031e"/><polygon points="130.67 189.65 130.67 195.24 89.62 209.25 89.62 203.76 130.67 189.65" style="fill:#75031e"/><polygon points="130.67 107.32 130.67 112.91 170.38 126.92 170.38 121.52 130.67 107.32" style="fill:#75031e"/><polygon points="130.67 107.32 130.67 112.91 89.62 126.92 89.62 121.43 130.67 107.32" style="fill:#75031e"/><polygon points="130.67 148.48 130.67 154.07 170.38 168.09 170.38 162.68 130.67 148.48" style="fill:#75031e"/><polygon points="130.67 148.48 130.67 154.07 89.62 168.09 89.62 162.59 130.67 148.48" style="fill:#75031e"/><polygon points="130.67 66.38 130.67 71.97 170.38 85.98 170.38 80.58 130.67 66.38" style="fill:#75031e"/><polygon points="130.67 66.38 130.67 71.97 89.62 85.98 89.62 80.49 130.67 66.38" style="fill:#75031e"/><polygon points="130.67 107.54 130.67 113.14 170.38 127.15 170.38 121.74 130.67 107.54" style="fill:#75031e"/><polygon points="130.67 107.54 130.67 113.14 89.62 127.15 89.62 121.65 130.67 107.54" style="fill:#75031e"/></g></g></svg>