<svg xmlns="http://www.w3.org/2000/svg" viewBox="0 0 260 260"><g id="Layer_2" data-name="Layer 2"><g id="Layer_1-2" data-name="Layer 1"><rect x="5" y="5" width="250" height="250" rx="35.06" style="fill:#ff8fa9;stroke:#fffba4;stroke-miterlimit:10;stroke-width:10px"/><ellipse cx="130.38" cy="154.38" rx="100" ry="15.33" style="fill:#fff;stroke:#754c24;stroke-linecap:round;stroke-linejoin:round"/><path d="M30.38,154.38c0,8.46,44.77,15.33,100,15.33s100-6.87,100-15.33v43.36c-2.63,8.11-46.34,14.55-99.87,14.55-55.23,0-100-6.86-100-15.32Z" style="fill:#fff;stroke:#754c24;stroke-linecap:round;stroke-linejoin:round"/><ellipse cx="130.38" cy="111.22" rx="66.62" ry="13.17" style="fill:#fff;stroke:#754c24;stroke-linecap:round;stroke-linejoin:round"/><path d="M63.76,111.22c0,7.28,29.83,13.18,66.62,13.18S197,118.5,197,111.22v37.27c-1.75,7-30.87,12.51-66.53,12.51-36.8,0-66.62-5.9-66.62-13.17Z" style="fill:#fff;stroke:#754c24;stroke-linecap:round;stroke-linejoin:round"/><ellipse cx="130.38" cy="78.67" rx="38.62" ry="9.62" style="fill:#fff;stroke:#754c24;stroke-linecap:round;stroke-linejoin:round"/><path d="M91.76,78.67c0,5.31,17.29,9.61,38.62,9.61S169,84,169,78.67v27.2C168,111,151.11,115,130.43,115c-21.33,0-38.62-4.3-38.62-9.62Z" style="fill:#fff;stroke:#754c24;stroke-linecap:round;stroke-linejoin:round"/></g></g></svg>