<svg xmlns="http://www.w3.org/2000/svg" xmlns:xlink="http://www.w3.org/1999/xlink" viewBox="0 0 260 260"><defs><clipPath id="clip-path"><polygon points="94.67 119.49 94.6 82.37 123.24 76.8 123.3 113.92 94.67 119.49" style="fill:none"/></clipPath><clipPath id="clip-path-2"><polygon points="133.94 116.53 133.71 79.44 165.38 83.33 165.61 120.42 133.94 116.53" style="fill:none"/></clipPath><clipPath id="clip-path-3"><polygon points="94.72 200.73 94.79 163.7 123.18 157.97 123.11 195 94.72 200.73" style="fill:none"/></clipPath><clipPath id="clip-path-4"><polygon points="133.94 197.75 133.71 160.65 165.38 164.54 165.61 201.64 133.94 197.75" style="fill:none"/></clipPath><clipPath id="clip-path-5"><polygon points="95.13 160.83 95.19 123.87 123.16 118.23 123.09 155.19 95.13 160.83" style="fill:none"/></clipPath><clipPath id="clip-path-6"><polygon points="134.69 154.41 134.46 117.24 165.77 121.08 166.01 158.25 134.69 154.41" style="fill:none"/></clipPath></defs><g id="Layer_2" data-name="Layer 2"><g id="Layer_1-2" data-name="Layer 1"><rect x="5" y="5" width="250" height="250" rx="35.06" style="fill:#ff8fa9;stroke:#fffba4;stroke-miterlimit:10;stroke-width:10px"/><path d="M230,152.46V66.07c0-8.46-44.77-15.32-100-15.32S30,57.61,30,66.07l.12,42.24a2.51,2.51,0,0,0-.12.76l.13,42.59h0a3,3,0,0,0-.13.9l.13,42.58c0,6.24,24.28,11.6,59.14,14l40.73-14,39.4,14.07c34.24-2.24,58.66-7.33,60.6-13.32V152.57S230,152.49,230,152.46Z" style="fill:#fff;stroke:#754c24;stroke-linecap:round;stroke-linejoin:round"/><path d="M129.67,68l39.71,14.2a632.74,632.74,0,0,1-80.76-.09Z" style="fill:#fffba4"/><path d="M129.67,83.39c-14.62,0-28.51-.47-41-1.33v86.13h0v37.36l41-14.11,39.71,14.2V168.28h0V82.15C157.19,83,143.77,83.39,129.67,83.39Z" style="fill:#fffba4"/><line x1="129.67" y1="70.09" x2="129.67" y2="195.14" style="fill:none;stroke:#ffe174;stroke-miterlimit:10;stroke-width:9px"/><g style="isolation:isolate"><g style="clip-path:url(#clip-path)"><path d="M107.75,95.86c-1,.24-1.54.94-1.09,1.57-.35,1.51.61,2,1.16,1.93h.06a7.67,7.67,0,0,0,1.38-2c-.08-1.3-.44-1.49-1.51-1.53" style="fill:#ffe174"/><path d="M121.8,77.08a.19.19,0,0,0-.09,0c-1.1.33-1.13.65-1.31,1.91-.22.55.14,1.22,1,1l.31-.09h0c.31-.06,1.08-.5,1.44-1.86-.44-.58-1.06-1.11-1.4-1" style="fill:#ffe174"/><path d="M96.33,92.49l-.2.05c-.71.34-1.83,1-1.51,1.67-.05.87.75,1.79,1.09,1.72l.06,0a3.51,3.51,0,0,0,1.69-2.21c0-.61-.35-1.36-1.13-1.21" style="fill:#ffe174"/><path d="M121.78,97.17a.84.84,0,0,0-.32.15.25.25,0,0,0-.19,0c-.38.07-1,.81-1.29,1.93.28.6.7,1.16,1.24,1.06a1.24,1.24,0,0,0,.28-.11,1.36,1.36,0,0,0,.45,0c.77-.15,1.18-1.07,1.32-1.93-.34-.36-.89-1.18-1.49-1.06" style="fill:#ffe174"/><path d="M105.12,107.9c-.81.16-1,.65-1.35,1.7,0,1,.76,1.59,2,1.42.15-.12,1-1.3,1.34-1.73-.28-1.33-.8-1.59-1.67-1.42l-.27,0" style="fill:#ffe174"/><path d="M114.76,98.62a1.23,1.23,0,0,0-.52.89c0,.25.34.7.56.66a.11.11,0,0,0,.07,0,.88.88,0,0,0,.66-.74c0-.64-.23-.86-.75-.78h0" style="fill:#ffe174"/><path d="M113.91,109.48a.82.82,0,0,0-.67.65c.16.61.56.78.81.75s.54-.62.43-.79c0-.51-.15-.67-.57-.61" style="fill:#ffe174"/><path d="M109,89.18c-.35.07-.47.39-.47,1-.15.23,0,.52.41.44a.79.79,0,0,0,.23-.08.21.21,0,0,0,.15,0c.2,0,.39-.36.22-.85.12-.23-.29-.59-.44-.57H109" style="fill:#ffe174"/><path d="M101.64,94l-.14,0a1.58,1.58,0,0,0-.69.94c.28.45.54.74.89.68h0a1.49,1.49,0,0,0,.52-1c0-.35-.16-.74-.62-.65" style="fill:#ffe174"/><path d="M99.91,106.88l-.09,0a3,3,0,0,0-.62,1c.16.14.28.49.6.43a.64.64,0,0,0,.19-.07h.08a1,1,0,0,0,.52-.69c0-.54-.27-.79-.68-.71" style="fill:#ffe174"/><path d="M96.26,104.49c-.58.18-.87.53-.63.93-.13.39,0,.9.42.83l.06,0a.78.78,0,0,0,.54-1c.25-.33,0-.55-.39-.73" style="fill:#ffe174"/><path d="M114.53,84.12a.68.68,0,0,0-.58.67c.06.54.33.85.75.83a1.27,1.27,0,0,0,.59-1c.07-.36-.21-.64-.39-.61l-.06,0a1,1,0,0,0-.31,0" style="fill:#ffe174"/><path d="M119.67,105.88c-.52.23-.56.36-.56.74,0,.61.22.9.56.83h0a1,1,0,0,0,.52-.85.8.8,0,0,0-.56-.71" style="fill:#ffe174"/><path d="M102.88,103.27c-.65.32-1,.61-1.1,1.07s.11.65.77.52l.27-.07a.65.65,0,0,0,.2,0c.45-.08.77-.42.42-.81.49-.42,0-.79-.56-.69" style="fill:#ffe174"/><path d="M105.6,87.79c-.66.2-1.32.74-1.17,1.09,0,.51.31.6,1,.57h.16c.38-.07.86-.51.58-.9.24-.34-.23-.79-.57-.75" style="fill:#ffe174"/><path d="M97.25,117.31c-.63.17-1.15.49-1.13,1.1.39.36.33.72,1.08.58a2.26,2.26,0,0,0,.91-.9c.37-.53-.34-.77-.86-.78" style="fill:#ffe174"/><path d="M121.3,87.34a.8.8,0,0,0-.5.88c-.14.35.23.64.79.59a3.51,3.51,0,0,0,1.18-1c-.07-.45-.54-.64-1.38-.51a.14.14,0,0,0-.09,0" style="fill:#ffe174"/><path d="M114.56,103.48a.18.18,0,0,0-.13.09l-.2,0c-.67.13-1.17.61-1,.72-.25.58.26.84.9.72l.24-.06a1.12,1.12,0,0,0,.88-.9c-.21-.38-.54-.64-.74-.6" style="fill:#ffe174"/></g></g><g style="isolation:isolate"><g style="clip-path:url(#clip-path-2)"><path d="M148.64,99a.39.39,0,0,0-.16,0c-.59,0-1.74.58-1.34.91a1.36,1.36,0,0,0,1.13,2h.09a1.63,1.63,0,0,0,.3.07c.94.11,1.28-.86,1.36-1.28A2.28,2.28,0,0,0,148.64,99" style="fill:#ffe174"/><path d="M163.94,116.62c-1.24,0-1.76.57-1.48,1.84.2.55.24,1.6,1.29,1.73l.18,0a3.94,3.94,0,0,0,1.63-1.74c-.42-.52-1.29-1.8-1.62-1.85" style="fill:#ffe174"/><path d="M135.35,102.81a.42.42,0,0,0-.22,0c-.33.11-1.32.28-1.25,1.16-.32.93.7,2,1.47,2.08a1.46,1.46,0,0,0,.21,0c1,0,1.5-.51,1.46-1.65-.44-.42-1.07-1.54-1.67-1.61" style="fill:#ffe174"/><path d="M163.49,96.6a2.57,2.57,0,0,0-1.66,1.79,20.86,20.86,0,0,0,1.66,1.83c.79-.32,1.55-.5,2-1.72-.19-.84-.79-1.36-2-1.9" style="fill:#ffe174"/><path d="M146.05,87.16H146l-.15,0c-1.22-.15-2,.47-2,1.2.43.74.66,1.79,1.81,2,1,.12,1.53-.9,1.83-1.26a2.61,2.61,0,0,0-1.44-2" style="fill:#ffe174"/><path d="M156.18,97.41c-.23.12-.69.12-.68.68a1.89,1.89,0,0,0,.6.79h0c.54.07.79-.29.78-.49,0-.65-.2-.92-.74-1" style="fill:#ffe174"/><path d="M155.23,86.75h-.06c-.27,0-.7.33-.88.49.07.51.32,1,.71,1.08h.09c.43,0,.58-.4.58-.71a.69.69,0,0,0-.44-.87" style="fill:#ffe174"/><path d="M150,107.09c-.61.08-.9.32-.7.94a.81.81,0,0,0,.63.67h0c.18,0,.61-.16.47-.8.25-.14-.17-.59-.41-.81" style="fill:#ffe174"/><path d="M141.89,102.83a.51.51,0,0,0-.17,0,1.5,1.5,0,0,0-1,.54c.13.29.53.78.72.81h0c.63,0,.89-.19.83-.64s-.17-.68-.41-.71" style="fill:#ffe174"/><path d="M139.68,89.85c-.51.12-.65.29-.86.9.25.25.5.7.65.72l.05,0a.75.75,0,0,0,.83-.58,2.29,2.29,0,0,0-.67-1" style="fill:#ffe174"/><path d="M135.51,92.57h-.09c-.48,0-.68.09-.52.56-.24.31,0,.7.58.77h.13a.57.57,0,0,0,.25.1c.27,0,.39-.29.17-.75a.59.59,0,0,0-.52-.68" style="fill:#ffe174"/><path d="M156.27,112.14a.24.24,0,0,0-.16,0l-.12,0a.61.61,0,0,0-.7.45,1.39,1.39,0,0,0,1,1.11c.17-.09.59-.34.49-.79-.08-.27-.23-.75-.5-.78" style="fill:#ffe174"/><path d="M161.68,89.91a.44.44,0,0,0-.22,0c-.39,0-.69.28-.66.49,0,.4,0,.9.47,1h.16l.08,0c.25,0,.5-.22.54-.63s-.09-.82-.37-.85" style="fill:#ffe174"/><path d="M142.85,93.35c-1-.06-1.34.37-1.15.71a1.08,1.08,0,0,0,.88.8,1.29,1.29,0,0,0,.34,0h.1c.57.07,1-.09.52-.64.43-.26-.1-.72-.69-.88" style="fill:#ffe174"/><path d="M145.66,108.58c-.63-.07-.93.35-.91.65-.14.39.42.71,1.06.79h.24l.11,0c.35,0,.75-.07.52-.58.35-.29-.42-.68-.83-.85l-.19,0" style="fill:#ffe174"/><path d="M136.77,79.82h-.25c-.82-.1-.76.24-1.18.58,0,.2.52.7,1.18.78h.08l.23,0c.52.06,1.06-.14.7-.51a.87.87,0,0,0-.76-.9" style="fill:#ffe174"/><path d="M164,108.57a.71.71,0,0,0-.29,0l-.13,0c-.54-.06-.88.21-.74.69-.11.29.46.68.66.84h.11c.86.11,1.34-.22,1.41-.56-.27-.53-.54-.9-1-1" style="fill:#ffe174"/><path d="M155.73,92.62h-.08c-.83,0-1.57.2-1.25.48-.27.64.42,1,1.27,1.15a9.77,9.77,0,0,1,1-.71,1,1,0,0,0-.89-.91" style="fill:#ffe174"/></g></g><g style="isolation:isolate"><g style="clip-path:url(#clip-path-3)"><path d="M107.77,177.08c-1,.25-1.53.95-1.08,1.58-.35,1.5.58,2,1.13,1.92l.07,0a8,8,0,0,0,1.37-2c-.07-1.29-.44-1.48-1.49-1.51" style="fill:#ffe174"/><path d="M121.75,158.26l-.09,0c-1.09.34-1.12.65-1.3,1.92-.22.54.13,1.21,1,1l.31-.09h0c.3-.06,1.06-.51,1.43-1.87-.44-.57-1-1.1-1.39-1" style="fill:#ffe174"/><path d="M96.47,173.79l-.19.05c-.71.35-1.82,1-1.51,1.68-.06.86.74,1.77,1.07,1.7l.06,0A3.51,3.51,0,0,0,97.59,175c0-.61-.35-1.36-1.12-1.2" style="fill:#ffe174"/><path d="M121.66,178.31a.74.74,0,0,0-.31.15.23.23,0,0,0-.2,0,2.76,2.76,0,0,0-1.28,1.93c.28.6.69,1.15,1.22,1.05a.85.85,0,0,0,.28-.12,1.14,1.14,0,0,0,.45,0c.77-.15,1.18-1.08,1.32-1.93-.34-.35-.88-1.16-1.48-1" style="fill:#ffe174"/><path d="M105.11,189.12c-.79.16-1,.64-1.33,1.7,0,1,.75,1.57,1.92,1.4.16-.12,1-1.29,1.34-1.73-.27-1.32-.77-1.59-1.62-1.42h0l-.28,0" style="fill:#ffe174"/><path d="M114.7,179.79a1.26,1.26,0,0,0-.51.9c0,.24.33.69.54.65a.1.1,0,0,0,.07,0,.89.89,0,0,0,.67-.73c0-.64-.23-.87-.74-.78h0" style="fill:#ffe174"/><path d="M113.82,190.63a.83.83,0,0,0-.67.65c.16.61.56.78.81.75s.53-.62.43-.79c0-.51-.15-.66-.57-.61" style="fill:#ffe174"/><path d="M109.06,170.41c-.36.07-.47.39-.48,1-.15.24,0,.52.4.44a1,1,0,0,0,.24-.09.17.17,0,0,0,.14,0c.2,0,.4-.36.22-.85.13-.23-.28-.58-.43-.56h-.09" style="fill:#ffe174"/><path d="M101.74,175.29l-.15.05a1.59,1.59,0,0,0-.69.93c.27.45.53.74.88.67h0a1.46,1.46,0,0,0,.52-1c0-.35-.14-.74-.59-.65" style="fill:#ffe174"/><path d="M100,188.13l-.1,0a2.77,2.77,0,0,0-.62,1c.16.13.27.48.59.42a.67.67,0,0,0,.18-.08.14.14,0,0,0,.09,0c.17,0,.4-.29.51-.69s-.25-.77-.65-.69" style="fill:#ffe174"/><path d="M96.36,185.76c-.58.18-.86.53-.63.94-.13.39,0,.89.41.81h.06a.8.8,0,0,0,.55-1c.24-.34,0-.56-.39-.73" style="fill:#ffe174"/><path d="M114.54,165.32a.7.7,0,0,0-.59.68c0,.55.33.85.74.83a1.34,1.34,0,0,0,.59-1c.07-.37-.21-.65-.38-.61a.09.09,0,0,0-.07,0l-.29,0" style="fill:#ffe174"/><path d="M119.54,187c-.52.24-.56.37-.56.75,0,.6.22.89.55.82h0a1,1,0,0,0,.53-.85.83.83,0,0,0-.56-.71" style="fill:#ffe174"/><path d="M102.92,184.5c-.65.33-1,.62-1.09,1.07s.1.65.75.52l.28-.07.2,0c.44-.09.76-.43.42-.81.48-.42,0-.78-.56-.69" style="fill:#ffe174"/><path d="M105.67,169c-.66.2-1.31.76-1.17,1.09,0,.52.32.61,1,.57a.26.26,0,0,0,.15,0c.37-.07.86-.52.58-.9.24-.34-.23-.79-.56-.75" style="fill:#ffe174"/><path d="M97.3,198.55c-.63.16-1.15.49-1.13,1.1.38.37.32.72,1.07.57a2.23,2.23,0,0,0,.9-.9c.37-.54-.34-.77-.84-.77" style="fill:#ffe174"/><path d="M121.22,168.5a.81.81,0,0,0-.5.88c-.13.35.23.64.78.58a3.26,3.26,0,0,0,1.17-1c-.06-.46-.53-.64-1.36-.5a.1.1,0,0,0-.09,0" style="fill:#ffe174"/><path d="M114.48,184.64a.22.22,0,0,0-.13.09l-.19,0c-.66.13-1.16.62-.94.73-.25.57.25.84.89.71l.23-.07a1.08,1.08,0,0,0,.88-.88c-.21-.39-.53-.65-.74-.61" style="fill:#ffe174"/></g></g><g style="isolation:isolate"><g style="clip-path:url(#clip-path-4)"><path d="M148.64,180.25a.27.27,0,0,0-.16,0c-.59,0-1.74.58-1.34.92a1.35,1.35,0,0,0,1.13,2h.09a2.11,2.11,0,0,0,.3.07c1,.11,1.28-.87,1.36-1.28a2.26,2.26,0,0,0-1.38-1.75" style="fill:#ffe174"/><path d="M163.94,197.83c-1.24,0-1.76.58-1.48,1.83.2.56.24,1.62,1.29,1.75h.18a3.94,3.94,0,0,0,1.63-1.74c-.42-.52-1.29-1.8-1.62-1.85" style="fill:#ffe174"/><path d="M135.36,184a.46.46,0,0,0-.23,0c-.33.09-1.32.27-1.25,1.15-.32.92.7,2,1.47,2.07h.21c1,0,1.5-.51,1.46-1.65-.44-.41-1.07-1.53-1.66-1.6" style="fill:#ffe174"/><path d="M163.49,177.81a2.57,2.57,0,0,0-1.66,1.79,22.66,22.66,0,0,0,1.66,1.84c.79-.33,1.55-.5,2-1.73-.19-.84-.79-1.37-2-1.9" style="fill:#ffe174"/><path d="M146.05,168.36H146l-.13,0c-1.23-.15-2,.46-2,1.2.43.74.66,1.78,1.81,2,1,.12,1.53-.9,1.83-1.26a2.66,2.66,0,0,0-1.44-2" style="fill:#ffe174"/><path d="M156.18,178.62c-.23.12-.69.11-.68.68a1.82,1.82,0,0,0,.6.79h.05c.54.07.78-.29.77-.49,0-.66-.2-.92-.74-1" style="fill:#ffe174"/><path d="M155.23,168h-.06c-.27,0-.7.32-.88.49.07.5.32,1,.71,1.08h.09c.43.05.58-.4.58-.71a.68.68,0,0,0-.44-.87" style="fill:#ffe174"/><path d="M150,188.3c-.61.08-.9.33-.7.94a.81.81,0,0,0,.63.66h0c.18,0,.61-.17.47-.81.25-.13-.17-.58-.41-.8" style="fill:#ffe174"/><path d="M141.89,184a.56.56,0,0,0-.17,0,1.49,1.49,0,0,0-1,.53c.13.31.53.79.72.81,0,0,0,0,0,0,.63,0,.89-.19.83-.64s-.17-.69-.41-.72" style="fill:#ffe174"/><path d="M139.68,171.07c-.51.11-.65.28-.86.89.25.25.5.69.65.71h.05a.76.76,0,0,0,.83-.58,2.14,2.14,0,0,0-.67-1" style="fill:#ffe174"/><path d="M135.51,173.78h-.09c-.48,0-.68.08-.52.55-.24.32,0,.71.56.77h.15a.49.49,0,0,0,.25.11c.27,0,.39-.3.17-.76.09-.18-.11-.62-.52-.67" style="fill:#ffe174"/><path d="M156.27,193.35a.24.24,0,0,0-.16,0l-.12,0a.62.62,0,0,0-.7.46,1.39,1.39,0,0,0,1,1.11c.17-.1.59-.34.49-.79-.08-.28-.23-.75-.5-.78" style="fill:#ffe174"/><path d="M161.68,171.11a.94.94,0,0,0-.22,0c-.39,0-.69.28-.66.5,0,.4,0,.9.47,1h.16l.09,0c.24,0,.49-.23.53-.63s-.09-.82-.37-.86" style="fill:#ffe174"/><path d="M142.85,174.55c-1-.05-1.34.38-1.15.72a1.08,1.08,0,0,0,.88.8,1.3,1.3,0,0,0,.34,0l.1,0c.57.07,1-.1.52-.64.43-.26-.1-.71-.69-.89" style="fill:#ffe174"/><path d="M145.67,189.79c-.64-.07-.94.34-.92.65-.14.39.41.7,1,.78l.26,0,.11,0c.35,0,.75-.07.52-.58.35-.29-.42-.68-.83-.85l-.18,0" style="fill:#ffe174"/><path d="M136.77,161a1,1,0,0,0-.25,0c-.82-.1-.76.24-1.18.58,0,.2.51.69,1.16.77h.1a1,1,0,0,0,.25.06c.51.06,1-.15.68-.51-.06-.59-.37-.86-.76-.9" style="fill:#ffe174"/><path d="M164,189.78h-.3l-.14,0c-.54-.07-.86.2-.73.68-.11.3.46.68.66.83l.11,0c.87.11,1.34-.22,1.41-.57-.27-.52-.54-.88-1-.94" style="fill:#ffe174"/><path d="M155.73,173.83h-.08c-.83,0-1.57.2-1.25.48-.27.63.42.95,1.27,1.14.17-.21.66-.45,1-.7a1,1,0,0,0-.89-.91" style="fill:#ffe174"/></g></g><g style="isolation:isolate"><g style="clip-path:url(#clip-path-5)"><path d="M109.69,138.66c-.88.17-1.19.74-.93,1.75-.08.44.62,1.33,1.08,1.23a.31.31,0,0,0,.12,0H110c.53-.11,1.14-1.08,1.59-2.2-.37-.2-.54-.9-1.51-.77a1.68,1.68,0,0,0-.4,0" style="fill:#ffe174"/><path d="M96.41,157c-1.2.25-1.64,1.51-1.27,1.91-.48,1.15,0,1.77,1.22,1.68h.07c.46-.1,1.52-1.36,1.35-1.85A2.18,2.18,0,0,0,96.41,157" style="fill:#ffe174"/><path d="M121.25,141.7c-.73.15-1.12,1.27-.73,1.55a1.44,1.44,0,0,0,1.39,1.54.65.65,0,0,0,.2,0c.61-.12.72-1.07,1-2.08,0-.87-.37-1.1-1.56-1a.76.76,0,0,0-.3,0" style="fill:#ffe174"/><path d="M96.16,137.14c-.43.47-1.11,1.06-1,1.84-.4,1.35.14,1.51.92,1.78,1.19-.55,1.59-1.46,1.23-1.87a1.27,1.27,0,0,0-1.2-1.75" style="fill:#ffe174"/><path d="M112.34,126.59c-1.1.23-1.39.75-1.07,2-.27.44.41,1.38,1,1.26.46-.2,1.48-1.41,1.1-2,0-.73-.42-1.35-.74-1.29h0l-.31,0" style="fill:#ffe174"/><path d="M103,137.47a1,1,0,0,0-.61,1c0,.19.32.52.51.48h0c.61-.18.8-.58.72-.87,0-.56-.14-.59-.63-.63" style="fill:#ffe174"/><path d="M103.82,126.79c-.46.09-.61.34-.72.94,0,.32.39.71.68.66h0a1.1,1.1,0,0,0,.57-1.11c.15-.21,0-.59-.43-.51h0l-.12,0" style="fill:#ffe174"/><path d="M108.87,146.68a3.88,3.88,0,0,0-.91.94c.13.58.28.8.81.69h0c.26-.1.7-.58.69-.72a1.74,1.74,0,0,0-.62-.9" style="fill:#ffe174"/><path d="M116.07,142a.68.68,0,0,0-.54.77.8.8,0,0,0,.51.64l.12,0a.6.6,0,0,0,.46-.81c.29-.37,0-.62-.35-.58a.45.45,0,0,0-.2,0" style="fill:#ffe174"/><path d="M117.79,129a.94.94,0,0,0-.67,1.07.62.62,0,0,0,.51.58h.16c.47-.1.7-.57.48-.73.19-.68-.25-.77-.48-.91" style="fill:#ffe174"/><path d="M121.46,131.44c-.27.05-.58.53-.66.74.19.4.44.69.69.64a.38.38,0,0,0,.19-.11h0a2.3,2.3,0,0,0,.6-.83c-.14-.42-.52-.44-.79-.45h-.06" style="fill:#ffe174"/><path d="M103,152.14a.82.82,0,0,0-.51.82.73.73,0,0,0,.82.67,1.8,1.8,0,0,0,.38-1,.37.37,0,0,0-.44-.45l-.08,0a.33.33,0,0,0-.17,0" style="fill:#ffe174"/><path d="M98.19,130.27a.9.9,0,0,0-.57.92c0,.43.19.66.57.59l.13,0h.06a1.39,1.39,0,0,0,.65-1,.66.66,0,0,0-.67-.45.32.32,0,0,0-.17,0" style="fill:#ffe174"/><path d="M115.18,132.58a4.09,4.09,0,0,0-1.36,1.07,1.47,1.47,0,0,0,1.36.43h.06a.88.88,0,0,0,.23,0c.38-.08.75-.52.67-.83a1.77,1.77,0,0,0-1-.66" style="fill:#ffe174"/><path d="M112.47,148l-.12,0a2.47,2.47,0,0,0-1.25,1c.21.44.58.52,1.22.4l.21,0,.13,0c.35-.07.56-.35.69-.8a.81.81,0,0,0-.88-.57" style="fill:#ffe174"/><path d="M120.13,118.84a.86.86,0,0,0-.78,1c.33.25.51.49.93.4l.22-.06h0a1.19,1.19,0,0,0,.81-.8c.38-.47-.54-.61-.9-.53h0a1.55,1.55,0,0,0-.31,0" style="fill:#ffe174"/><path d="M96,149c-.43.09-.82.5-.58.94a.56.56,0,0,0,.59.62h0c.91-.31,1.3-.71,1.39-1a.87.87,0,0,0-1.08-.56l-.11,0a1,1,0,0,0-.24,0" style="fill:#ffe174"/><path d="M103.87,132.56c-.53.11-1.07.56-1,1-.26.34.19.55,1.12.59.35-.16.61-.44.86-1.15a1.89,1.89,0,0,0-.87-.46h-.07" style="fill:#ffe174"/></g></g><g style="isolation:isolate"><g style="clip-path:url(#clip-path-6)"><path d="M151.21,135.35c-.5.18-1.44.32-1.34,1.65-.33.53.17,1.54,1.5,1.87l.13,0c1,.12,1.14-.57,1.53-2a3.56,3.56,0,0,0-1.82-1.57" style="fill:#ffe174"/><path d="M135.63,117.38c-1.08-.13-1.52.46-1,1.19-.4,1.24.07,1.58,1.36,1.74H136a.39.39,0,0,0,.14.05c.45,0,1.14-.6,1.38-1.08.2-1.2-1.13-1.67-1.58-1.85l-.34-.06" style="fill:#ffe174"/><path d="M164.35,131.37a1.45,1.45,0,0,0-1.39,1.25c-.49,1.32.13,1.57,1.14,2l.22,0c1.16.14,1.47-.9,1.53-1.75-.35-.78-.47-1.23-1.35-1.54l-.15,0" style="fill:#ffe174"/><path d="M135.43,137.45a.79.79,0,0,0-.65,1.27c-.15.81.37,1.71.83,1.77a.32.32,0,0,0,.23-.06,1.12,1.12,0,0,0,.39.1c.73.09,1.26-.48.94-1.18.32-1,.08-1.67-.77-1.77a2.48,2.48,0,0,0-.61,0,.83.83,0,0,0-.36-.13" style="fill:#ffe174"/><path d="M154,147.23h-.19c-.69-.08-1.45.2-1.14,1.61-.37.32,0,1.39,1.54,1.66.36,0,.89-.67.87-1.69a1.19,1.19,0,0,0-1.08-1.57" style="fill:#ffe174"/><path d="M143.44,138.51h-.14c-.2,0-.58.22-.58.86-.05.18.44.66.68.69l.15,0c.44,0,.56-.46.56-.7a.68.68,0,0,0-.67-.88" style="fill:#ffe174"/><path d="M144.39,149.33a.64.64,0,0,0-.77.62,1.29,1.29,0,0,0,.94.83c.49,0,.68-.19.5-.86.06-.31-.32-.51-.67-.59" style="fill:#ffe174"/><path d="M149.94,128.76h-.07a.88.88,0,0,0-.92.53c.2.56.38.86.72.9a.75.75,0,0,0,.29,0,.16.16,0,0,0,.09.05c.17,0,.44-.26.6-.46a.94.94,0,0,0-.71-1" style="fill:#ffe174"/><path d="M157.92,133.15c-.18,0-.47.36-.53.71s.43.8.84,1h.05c.35,0,.65-.28.34-.82.15-.51,0-.71-.65-.87l-.05,0" style="fill:#ffe174"/><path d="M159.74,145.89c-.26,0-.53.22-.51.78-.12.36.1.6.53.65H160a.21.21,0,0,0,.12,0c.26,0,.59-.3.42-.49.26-.56-.09-.8-.73-1h0" style="fill:#ffe174"/><path d="M164.3,143.35a5.05,5.05,0,0,0-1,.69,1.16,1.16,0,0,0,.81,1h.05c.29,0,.68-.45.83-.79a2.86,2.86,0,0,0-.71-.9" style="fill:#ffe174"/><path d="M143.8,124a.1.1,0,0,0-.1,0,.84.84,0,0,0-.2-.05c-.46,0-.63.26-.71.59-.09.51.34.66.76.94a.73.73,0,0,0,.57-.91.53.53,0,0,0-.32-.6" style="fill:#ffe174"/><path d="M138.27,146.1c-.51,0-.83.35-.78.72,0,.21.51.64.83.85h0c.37,0,.67-.26.7-.85,0-.39-.58-.58-.79-.73" style="fill:#ffe174"/><path d="M157.12,142.53c-.6-.05-1.05.35-1.59.61a2,2,0,0,0,1.3.89h.23l.1,0a.92.92,0,0,0,1-.55c.12-.42-.5-.73-1-1" style="fill:#ffe174"/><path d="M154,127.19a1.87,1.87,0,0,0-1.59.68c.32.47.53.85,1.12.92h.28c.46-.05,1.09-.13,1.11-.63a1.62,1.62,0,0,0-.92-1" style="fill:#ffe174"/><path d="M163,156.21c-.65,0-.86.37-1.27.78-.07.14.5.69,1.22.89.39,0,1.45-.18,1-.66a1,1,0,0,0-1-1" style="fill:#ffe174"/><path d="M136.06,127.6a1.7,1.7,0,0,0-.4,0c-.29,0-.76.2-.69.68-.3.22.36.61.91.83a1.46,1.46,0,0,0,1.34-.57,1.18,1.18,0,0,0-1.16-.92" style="fill:#ffe174"/><path d="M144,143.39c-.63-.07-.9.22-.66.68,0,.35.63.75,1.25.87l.11,0c.33,0,.56-.29.84-.8-.24-.17-.52-.59-.86-.63h-.09a2.69,2.69,0,0,0-.59-.15" style="fill:#ffe174"/></g></g><polygon points="129.67 148.48 129.67 154.07 169.38 168.09 169.38 162.68 129.67 148.48" style="fill:#ffe174"/><polygon points="129.67 148.48 129.67 154.07 88.62 168.09 88.62 162.59 129.67 148.48" style="fill:#ffe174"/><polygon points="129.67 189.65 129.67 195.24 169.38 209.25 169.38 203.85 129.67 189.65" style="fill:#ffe174"/><polygon points="129.67 189.65 129.67 195.24 88.62 209.25 88.62 203.76 129.67 189.65" style="fill:#ffe174"/><polygon points="129.67 107.32 129.67 112.91 169.38 126.92 169.38 121.52 129.67 107.32" style="fill:#ffe174"/><polygon points="129.67 107.32 129.67 112.91 88.62 126.92 88.62 121.43 129.67 107.32" style="fill:#ffe174"/><polygon points="129.67 148.48 129.67 154.07 169.38 168.09 169.38 162.68 129.67 148.48" style="fill:#ffe174"/><polygon points="129.67 148.48 129.67 154.07 88.62 168.09 88.62 162.59 129.67 148.48" style="fill:#ffe174"/><polygon points="129.67 66.38 129.67 71.97 169.38 85.98 169.38 80.58 129.67 66.38" style="fill:#ffe174"/><polygon points="129.67 66.38 129.67 71.97 88.62 85.98 88.62 80.49 129.67 66.38" style="fill:#ffe174"/><polygon points="129.67 107.54 129.67 113.14 169.38 127.15 169.38 121.74 129.67 107.54" style="fill:#ffe174"/><polygon points="129.67 107.54 129.67 113.14 88.62 127.15 88.62 121.65 129.67 107.54" style="fill:#ffe174"/></g></g></svg>